<svg viewBox="0 0 330 200" xmlns="http://www.w3.org/2000/svg"><g><g><g><g><g><line x1="51.5625" y1="177" x2="46.5625" y2="177" style="visibility: inherit;" fill="rgb(0, 0, 0)" stroke="rgb(204, 204, 204)" stroke-width="1px"></line><line x1="51.5625" y1="164.35714285714283" x2="46.5625" y2="164.35714285714283" style="visibility: inherit;" fill="rgb(0, 0, 0)" stroke="rgb(204, 204, 204)" stroke-width="1px"></line><line x1="51.5625" y1="151.71428571428572" x2="46.5625" y2="151.71428571428572" style="visibility: inherit;" fill="rgb(0, 0, 0)" stroke="rgb(204, 204, 204)" stroke-width="1px"></line><line x1="51.5625" y1="139.07142857142856" x2="46.5625" y2="139.07142857142856" style="visibility: inherit;" fill="rgb(0, 0, 0)" stroke="rgb(204, 204, 204)" stroke-width="1px"></line><line x1="51.5625" y1="126.42857142857144" x2="46.5625" y2="126.42857142857144" style="visibility: inherit;" fill="rgb(0, 0, 0)" stroke="rgb(204, 204, 204)" stroke-width="1px"></line><line x1="51.5625" y1="113.78571428571428" x2="46.5625" y2="113.78571428571428" style="visibility: inherit;" fill="rgb(0, 0, 0)" stroke="rgb(204, 204, 204)" stroke-width="1px"></line><line x1="51.5625" y1="101.14285714285714" x2="46.5625" y2="101.14285714285714" style="visibility: inherit;" fill="rgb(0, 0, 0)" stroke="rgb(204, 204, 204)" stroke-width="1px"></line><line x1="51.5625" y1="88.49999999999999" x2="46.5625" y2="88.49999999999999" style="visibility: inherit;" fill="rgb(0, 0, 0)" stroke="rgb(204, 204, 204)" stroke-width="1px"></line><line x1="51.5625" y1="75.85714285714288" x2="46.5625" y2="75.85714285714288" style="visibility: inherit;" fill="rgb(0, 0, 0)" stroke="rgb(204, 204, 204)" stroke-width="1px"></line><line x1="51.5625" y1="63.21428571428572" x2="46.5625" y2="63.21428571428572" style="visibility: inherit;" fill="rgb(0, 0, 0)" stroke="rgb(204, 204, 204)" stroke-width="1px"></line><line x1="51.5625" y1="50.57142857142857" x2="46.5625" y2="50.57142857142857" style="visibility: inherit;" fill="rgb(0, 0, 0)" stroke="rgb(204, 204, 204)" stroke-width="1px"></line><line x1="51.5625" y1="37.92857142857141" x2="46.5625" y2="37.92857142857141" style="visibility: inherit;" fill="rgb(0, 0, 0)" stroke="rgb(204, 204, 204)" stroke-width="1px"></line><line x1="51.5625" y1="25.285714285714256" x2="46.5625" y2="25.285714285714256" style="visibility: inherit;" fill="rgb(0, 0, 0)" stroke="rgb(204, 204, 204)" stroke-width="1px"></line><line x1="51.5625" y1="12.642857142857157" x2="46.5625" y2="12.642857142857157" style="visibility: inherit;" fill="rgb(0, 0, 0)" stroke="rgb(204, 204, 204)" stroke-width="1px"></line><line x1="51.5625" y1="0" x2="46.5625" y2="0" style="visibility: inherit;" fill="rgb(0, 0, 0)" stroke="rgb(204, 204, 204)" stroke-width="1px"></line></g><g transform="translate(41.5625, 0)"><text x="0" y="177" dx="0em" dy="0.3em" style="text-anchor: end; visibility: hidden; font-family: Roboto, sans-serif; font-size: 12px; font-weight: 200;" fill="rgb(33, 33, 33)" stroke="none" stroke-width="1px">0.75</text><text x="0" y="164.35714285714283" dx="0em" dy="0.3em" style="text-anchor: end; visibility: inherit; font-family: Roboto, sans-serif; font-size: 12px; font-weight: 200;" fill="rgb(33, 33, 33)" stroke="none" stroke-width="1px">0.8</text><text x="0" y="151.71428571428572" dx="0em" dy="0.3em" style="text-anchor: end; visibility: hidden; font-family: Roboto, sans-serif; font-size: 12px; font-weight: 200;" fill="rgb(33, 33, 33)" stroke="none" stroke-width="1px">0.85</text><text x="0" y="139.07142857142856" dx="0em" dy="0.3em" style="text-anchor: end; visibility: inherit; font-family: Roboto, sans-serif; font-size: 12px; font-weight: 200;" fill="rgb(33, 33, 33)" stroke="none" stroke-width="1px">0.9</text><text x="0" y="126.42857142857144" dx="0em" dy="0.3em" style="text-anchor: end; visibility: hidden; font-family: Roboto, sans-serif; font-size: 12px; font-weight: 200;" fill="rgb(33, 33, 33)" stroke="none" stroke-width="1px">0.95</text><text x="0" y="113.78571428571428" dx="0em" dy="0.3em" style="text-anchor: end; visibility: inherit; font-family: Roboto, sans-serif; font-size: 12px; font-weight: 200;" fill="rgb(33, 33, 33)" stroke="none" stroke-width="1px">1</text><text x="0" y="101.14285714285714" dx="0em" dy="0.3em" style="text-anchor: end; visibility: hidden; font-family: Roboto, sans-serif; font-size: 12px; font-weight: 200;" fill="rgb(33, 33, 33)" stroke="none" stroke-width="1px">1.05</text><text x="0" y="88.49999999999999" dx="0em" dy="0.3em" style="text-anchor: end; visibility: inherit; font-family: Roboto, sans-serif; font-size: 12px; font-weight: 200;" fill="rgb(33, 33, 33)" stroke="none" stroke-width="1px">1.1</text><text x="0" y="75.85714285714288" dx="0em" dy="0.3em" style="text-anchor: end; visibility: hidden; font-family: Roboto, sans-serif; font-size: 12px; font-weight: 200;" fill="rgb(33, 33, 33)" stroke="none" stroke-width="1px">1.15</text><text x="0" y="63.21428571428572" dx="0em" dy="0.3em" style="text-anchor: end; visibility: inherit; font-family: Roboto, sans-serif; font-size: 12px; font-weight: 200;" fill="rgb(33, 33, 33)" stroke="none" stroke-width="1px">1.2</text><text x="0" y="50.57142857142857" dx="0em" dy="0.3em" style="text-anchor: end; visibility: hidden; font-family: Roboto, sans-serif; font-size: 12px; font-weight: 200;" fill="rgb(33, 33, 33)" stroke="none" stroke-width="1px">1.25</text><text x="0" y="37.92857142857141" dx="0em" dy="0.3em" style="text-anchor: end; visibility: inherit; font-family: Roboto, sans-serif; font-size: 12px; font-weight: 200;" fill="rgb(33, 33, 33)" stroke="none" stroke-width="1px">1.3</text><text x="0" y="25.285714285714256" dx="0em" dy="0.3em" style="text-anchor: end; visibility: hidden; font-family: Roboto, sans-serif; font-size: 12px; font-weight: 200;" fill="rgb(33, 33, 33)" stroke="none" stroke-width="1px">1.35</text><text x="0" y="12.642857142857157" dx="0em" dy="0.3em" style="text-anchor: end; visibility: inherit; font-family: Roboto, sans-serif; font-size: 12px; font-weight: 200;" fill="rgb(33, 33, 33)" stroke="none" stroke-width="1px">1.4</text><text x="0" y="0" dx="0em" dy="0.3em" style="text-anchor: end; visibility: hidden; font-family: Roboto, sans-serif; font-size: 12px; font-weight: 200;" fill="rgb(33, 33, 33)" stroke="none" stroke-width="1px">1.45</text></g><line x1="51.5625" y1="0" x2="51.5625" y2="177" fill="rgb(0, 0, 0)" stroke="rgb(204, 204, 204)" stroke-width="1px"></line></g></g><g transform="translate(51, 0)" clip-path="url(#clip_0)"><clipPath id="clip_0"><rect width="278" height="177"></rect></clipPath><g><g><g><line x1="0" y1="0" x2="0" y2="177" fill="rgb(0, 0, 0)" stroke="rgb(66, 66, 66)" stroke-width="1px" opacity="0.25"></line><line x1="23.203125" y1="0" x2="23.203125" y2="177" fill="rgb(0, 0, 0)" stroke="rgb(66, 66, 66)" stroke-width="1px" opacity="0.25"></line><line x1="46.40625" y1="0" x2="46.40625" y2="177" fill="rgb(0, 0, 0)" stroke="rgb(66, 66, 66)" stroke-width="1px" opacity="0.25"></line><line x1="69.609375" y1="0" x2="69.609375" y2="177" fill="rgb(0, 0, 0)" stroke="rgb(66, 66, 66)" stroke-width="1px" opacity="0.25"></line><line x1="92.8125" y1="0" x2="92.8125" y2="177" fill="rgb(0, 0, 0)" stroke="rgb(66, 66, 66)" stroke-width="1px" opacity="0.25"></line><line x1="116.015625" y1="0" x2="116.015625" y2="177" fill="rgb(0, 0, 0)" stroke="rgb(66, 66, 66)" stroke-width="1px" opacity="0.25"></line><line x1="139.21875" y1="0" x2="139.21875" y2="177" fill="rgb(0, 0, 0)" stroke="rgb(66, 66, 66)" stroke-width="1px" opacity="0.25"></line><line x1="162.421875" y1="0" x2="162.421875" y2="177" fill="rgb(0, 0, 0)" stroke="rgb(66, 66, 66)" stroke-width="1px" opacity="0.25"></line><line x1="185.625" y1="0" x2="185.625" y2="177" fill="rgb(0, 0, 0)" stroke="rgb(66, 66, 66)" stroke-width="1px" opacity="0.25"></line><line x1="208.828125" y1="0" x2="208.828125" y2="177" fill="rgb(0, 0, 0)" stroke="rgb(66, 66, 66)" stroke-width="1px" opacity="0.25"></line><line x1="232.03125" y1="0" x2="232.03125" y2="177" fill="rgb(0, 0, 0)" stroke="rgb(66, 66, 66)" stroke-width="1px" opacity="0.25"></line><line x1="255.234375" y1="0" x2="255.234375" y2="177" fill="rgb(0, 0, 0)" stroke="rgb(66, 66, 66)" stroke-width="1px" opacity="0.25"></line><line x1="278.4375" y1="0" x2="278.4375" y2="177" fill="rgb(0, 0, 0)" stroke="rgb(66, 66, 66)" stroke-width="1px" opacity="0.25"></line></g><g><line x1="0" y1="177" x2="278.4375" y2="177" fill="rgb(0, 0, 0)" stroke="rgb(66, 66, 66)" stroke-width="1px" opacity="0.25"></line><line x1="0" y1="164.35714285714283" x2="278.4375" y2="164.35714285714283" fill="rgb(0, 0, 0)" stroke="rgb(66, 66, 66)" stroke-width="1px" opacity="0.25"></line><line x1="0" y1="151.71428571428572" x2="278.4375" y2="151.71428571428572" fill="rgb(0, 0, 0)" stroke="rgb(66, 66, 66)" stroke-width="1px" opacity="0.25"></line><line x1="0" y1="139.07142857142856" x2="278.4375" y2="139.07142857142856" fill="rgb(0, 0, 0)" stroke="rgb(66, 66, 66)" stroke-width="1px" opacity="0.25"></line><line x1="0" y1="126.42857142857144" x2="278.4375" y2="126.42857142857144" fill="rgb(0, 0, 0)" stroke="rgb(66, 66, 66)" stroke-width="1px" opacity="0.25"></line><line x1="0" y1="113.78571428571428" x2="278.4375" y2="113.78571428571428" fill="rgb(0, 0, 0)" stroke="rgb(66, 66, 66)" stroke-width="1px" opacity="0.25"></line><line x1="0" y1="101.14285714285714" x2="278.4375" y2="101.14285714285714" fill="rgb(0, 0, 0)" stroke="rgb(66, 66, 66)" stroke-width="1px" opacity="0.25"></line><line x1="0" y1="88.49999999999999" x2="278.4375" y2="88.49999999999999" fill="rgb(0, 0, 0)" stroke="rgb(66, 66, 66)" stroke-width="1px" opacity="0.25"></line><line x1="0" y1="75.85714285714288" x2="278.4375" y2="75.85714285714288" fill="rgb(0, 0, 0)" stroke="rgb(66, 66, 66)" stroke-width="1px" opacity="0.25"></line><line x1="0" y1="63.21428571428572" x2="278.4375" y2="63.21428571428572" fill="rgb(0, 0, 0)" stroke="rgb(66, 66, 66)" stroke-width="1px" opacity="0.25"></line><line x1="0" y1="50.57142857142857" x2="278.4375" y2="50.57142857142857" fill="rgb(0, 0, 0)" stroke="rgb(66, 66, 66)" stroke-width="1px" opacity="0.25"></line><line x1="0" y1="37.92857142857141" x2="278.4375" y2="37.92857142857141" fill="rgb(0, 0, 0)" stroke="rgb(66, 66, 66)" stroke-width="1px" opacity="0.25"></line><line x1="0" y1="25.285714285714256" x2="278.4375" y2="25.285714285714256" fill="rgb(0, 0, 0)" stroke="rgb(66, 66, 66)" stroke-width="1px" opacity="0.25"></line><line x1="0" y1="12.642857142857157" x2="278.4375" y2="12.642857142857157" fill="rgb(0, 0, 0)" stroke="rgb(66, 66, 66)" stroke-width="1px" opacity="0.25"></line><line x1="0" y1="0" x2="278.4375" y2="0" fill="rgb(0, 0, 0)" stroke="rgb(66, 66, 66)" stroke-width="1px" opacity="0.25"></line></g></g></g><g><g><line x1="0" y1="366.6428571428571" x2="278.4375" y2="366.6428571428571" fill="rgb(0, 0, 0)" stroke="rgb(153, 153, 153)" stroke-width="1.5px"></line></g></g><g><g><line x1="23.203125" y1="0" x2="23.203125" y2="177" fill="rgb(0, 0, 0)" stroke="rgb(153, 153, 153)" stroke-width="1.5px"></line></g></g><g><g><g><g><g><path stroke="rgb(255, 112, 67)" stroke-width="2px" d="M23.203125,116.10711101123265L23.203125,122.32643896673449L23.203125,65.88304512597978L23.203125,107.84971472561902L23.6671875,129.1344652548586L24.13125,121.96931949041462L24.13125,137.4939825297456L24.13125,130.48624184643862L24.13125,124.26415397295958L24.5953125,129.91397308765224L24.5953125,93.99466390858109L24.5953125,110.08781103602472L25.059375,126.06905512676518L25.523437499999996,118.10059184748816L25.523437499999996,131.23368594969196L25.523437499999996,139.33107554866214L25.9875,128.7322779839707L25.9875,119.33417667382713L25.9875,113.87690960591867L26.4515625,120.18081347217353L26.4515625,123.98897440719259L26.4515625,67.78425903278159L26.915625,58.51324254943175L26.915625,73.67234010165464L26.915625,40.960437951950425L27.3796875,27.674372224647595L27.84375,40.85201043671144L27.84375,46.96156819004189L28.3078125,54.98480488476308L28.3078125,54.5997117554679L28.771875,62.751060577420496L29.2359375,45.24274137220527L29.2359375,73.87344028730418L29.2359375,69.5537158989721L29.2359375,84.28288922730322L29.2359375,96.4997716214063L29.2359375,102.23439993194144L29.700000000000003,104.60576494760961L29.700000000000003,105.09010282773772L30.1640625,115.43357774839151L30.1640625,120.16373310643172L30.1640625,132.4829971267197L30.1640625,121.31834460172006L30.628125,112.64597520459566L31.092187499999998,121.49350074076011L31.092187499999998,108.26391354285005L31.55625,132.62305204940432L31.55625,112.47390119117846L31.55625,111.44374502683691L32.0203125,109.90557359122171L32.0203125,97.70544400076282L32.0203125,49.36103121425584L32.484375,70.21403760600037L32.484375,66.44852413542215L32.9484375,79.63373115810893L32.9484375,84.95161355000894L33.4125,80.74237475010783L33.4125,61.13063121869761L33.4125,88.07968664669235L33.8765625,68.55570232886167L33.8765625,91.41320509355766L34.340625,88.4042948986524L34.340625,89.94646876649956L34.340625,91.01080944258045L34.340625,89.84391395757629L34.340625,89.25936909729069L34.340625,91.43511423775675L34.340625,66.28471757617055L34.8046875,81.34089872061799L34.8046875,85.17396844850629L34.8046875,83.92392934866623L35.268750000000004,58.20724693359824L35.7328125,79.63901143905721L36.660937499999996,71.31462592326116L37.125,55.25028226295273L37.125,74.060234294118L37.125,101.9272793906374L37.589062500000004,101.74755000647347L38.053124999999994,103.13849110213637L38.053124999999994,85.77321554201106L38.053124999999994,98.31442226538627L38.053124999999994,106.33218822424325L38.5171875,98.88165349145075L38.98125,94.03635458845412L39.909375000000004,79.0349986006623L39.909375000000004,79.93346417562945L39.909375000000004,66.75596709621749L40.373437499999994,71.13243928579442L40.373437499999994,76.21877463998787L40.8375,80.17890198964463L40.8375,77.51383291736033L41.3015625,56.42747644461757L41.3015625,25.75069337202028L41.3015625,34.94798019164246L41.765625,33.02533762722208L41.765625,17.415488651691852L42.229687500000004,16.046317922435996L42.693749999999994,30.242809578261273L42.693749999999994,34.426744594650636L43.1578125,33.35074647688624L43.1578125,7.411408253751264L43.621875,24.337349271950334L43.621875,40.55047334898797L44.0859375,40.58053520179576L44.0859375,52.68483467101102L44.550000000000004,60.9864784344477L44.550000000000004,71.68058481400763L44.550000000000004,88.01629125790537L45.014062499999994,92.72627716884625L45.478125,94.36214182304762L45.478125,85.36559022189186L45.478125,89.15783234715111L45.478125,87.11559630296092L45.9421875,97.19779687282085L46.40625,75.89637894142533L46.40625,68.24366523986691L46.8703125,62.45559764747597L46.8703125,66.53523363257914L47.334375,61.56500865547779L47.7984375,79.7936706219728L47.7984375,62.11354007613518L48.2625,67.89645692879307L48.7265625,59.220162447106546L49.190625,54.71281311105709L49.6546875,63.45853639759021L50.11875,62.55164319298552L50.11875,52.127706277758605L50.11875,59.752753019894634L50.11875,54.11443886831499L50.5828125,59.28001808768299L50.5828125,61.017633937637726L50.5828125,62.500427254318076L51.04687499999999,59.3955824453429L51.5109375,44.31503246506735L51.5109375,54.13733273636507L51.975,37.48141596498577L51.975,59.14324096401783L51.975,56.237414213468796L51.975,46.00677670679689L51.975,34.09129953416167L52.4390625,52.49175045383752L52.4390625,53.64433034221433L53.36718750000001,58.79933082235997L53.36718750000001,54.639876734522176L53.83125,62.99701269085117L53.83125,69.47457496642309L53.83125,76.77203032990755L53.83125,74.49753669762107L54.2953125,40.62130567984597L54.2953125,49.36969331246919L54.759375,70.38889127369943L55.2234375,76.27513950631425L55.2234375,94.54169927349982L56.1515625,90.42967214759454L56.1515625,69.75307636162339L56.1515625,38.67771703544229L56.615625,36.07376858346723L57.0796875,50.652185822751036L57.0796875,43.82712234400019L57.0796875,55.647359919393686L57.54375,60.4383944739736L57.54375,34.7018156056899L57.54375,34.83673929731794L57.54375,47.158624670532184L58.0078125,53.06830949896407L58.471875,59.46947806942185L58.9359375,70.35919276195486L58.9359375,63.96914587759024L58.9359375,76.59289365071456L59.400000000000006,58.691018159065855L59.864062499999996,74.56379814165805L60.328125,85.0686589463257L60.7921875,79.93289714847089L61.25625,78.83151900082883L61.720312500000006,92.59855038042537L61.720312500000006,85.78097117091457L61.720312500000006,76.83709228090176L61.720312500000006,77.25513997622157L62.184374999999996,80.46106931215674L62.184374999999996,97.77855392596747L62.184374999999996,119.1134175352322L62.6484375,129.10046316245985L63.1125,125.81880156792732L63.1125,109.09248223597065L63.1125,99.80310179475225L64.040625,78.60253340165308L64.040625,59.07938992534922L64.5046875,42.33118306282533L64.5046875,49.18104197312727L64.5046875,44.22425978684209L64.5046875,24.666770539198385L64.5046875,41.61618213398175L64.5046875,46.59588402304271L64.96875,63.58425525929511L65.896875,61.30956896320788L66.3609375,58.952308434525506L66.3609375,81.53607912536857L66.825,85.57194552078404L66.825,101.49198598694764L67.2890625,102.31119567380033L67.2890625,106.73601546483465L67.2890625,92.30182251056893L67.753125,90.13502912284127L67.753125,77.66858913731366L67.753125,90.43756521408164L67.753125,94.96305999650052L68.68125,98.64087230540112L69.1453125,88.35058999326847L69.609375,92.17025258950501L69.609375,87.29233685002093L70.53750000000001,80.43292152046213L70.53750000000001,68.05025839622739L71.0015625,87.17319650121762L71.0015625,108.65509874929448L71.465625,106.25885451397346L71.465625,105.13190380109032L71.92968750000001,105.08003984449024L72.39375,103.58700114198886L72.39375,90.24600986010053L72.39375,87.05674677777951L72.39375,89.71548145876066L72.8578125,83.01527658906039L72.8578125,88.45368462469852L72.8578125,83.61524112433243L72.8578125,101.48780931171851L73.32187499999999,115.51066694345502L73.32187499999999,102.33315663906853L73.32187499999999,109.50056539558729L73.7859375,99.72478022082997L73.7859375,101.74646104990326L73.7859375,105.39018692278258L73.7859375,96.76898445879517L73.7859375,104.64706851883847L73.7859375,92.88517518903205L73.7859375,82.50911437084804L74.25,93.48889144494972L74.7140625,111.06214380813297L74.7140625,106.54465209647842L74.7140625,105.6339791713768L74.7140625,119.3592892233512L75.17812500000001,107.02587307970066L75.17812500000001,100.54844253825134L76.10624999999999,106.10231796351498L76.10624999999999,83.08423827134806L76.10624999999999,75.71614800058238L76.5703125,73.86496610940371L76.5703125,59.71523304546416L76.5703125,50.78997362189592L76.5703125,43.62686336345733L77.034375,28.898033167170748L77.034375,37.38849385649519L77.034375,29.304596471055856L77.4984375,16.078852647439405L77.9625,27.281619705788852L78.4265625,36.57018426995504L78.4265625,56.530073702842465L78.890625,63.4609633376492L78.890625,65.57236503510892L79.3546875,60.52192377562765L79.3546875,59.44384937266571L79.3546875,75.96075133434525L79.3546875,68.83807699668621L79.81875000000001,66.63619314820805L79.81875000000001,84.10678639515851L79.81875000000001,105.01553563726172L80.2828125,99.76239673231173L80.74687499999999,99.73225837883405L80.74687499999999,87.33453870639784L81.675,90.65650151423897L81.675,65.65687929814293L82.603125,74.86091273883854L82.603125,96.88868455287331L83.0671875,97.90737517869955L83.53125,103.4970898602168L83.53125,93.90418983880085L83.53125,102.86011476443957L83.53125,120.63416159464066L83.53125,98.41314708385701L83.99531250000001,97.16194818415543L83.99531250000001,106.41816728354021L84.45937500000001,117.22450396323418L84.92343749999999,100.99155887788868L85.38749999999999,103.44528624841513L85.38749999999999,104.90615429174369L85.8515625,120.94202499371652L85.8515625,115.10112727420699L85.8515625,99.2002722392199L86.315625,94.24449198854239L86.315625,97.05401258089834L86.315625,88.55472284674488L86.7796875,78.9550993248778L87.24375,74.19050989912742L87.24375,79.07517537149535L87.24375,95.20907946914193L87.7078125,85.01088811330452L87.7078125,71.93400263949323L88.171875,75.62823200439007L89.10000000000001,73.70566762714354L89.10000000000001,76.81548015890603L89.10000000000001,53.64475555361994L89.56406249999999,56.1238168840279L89.56406249999999,55.70607335154621L89.56406249999999,69.51295433243904L89.56406249999999,78.04335784915831L90.02812499999999,80.70501361509558L90.02812499999999,57.22557636190974L90.4921875,76.93957276929645L90.95625,76.04691774701203L90.95625,58.95665442661493L90.95625,43.14194842333555L90.95625,10.209298668672112L90.95625,10.842098037052898L91.4203125,22.49341167163617L91.4203125,43.39385702745996L91.4203125,48.87447462006959L91.884375,49.958023569314044L91.884375,42.13132330010903L91.884375,46.61881314838297L92.8125,61.30671911043999L92.8125,88.69443164846516L93.27656250000001,77.48921457102973L93.27656250000001,96.1068600415242L93.740625,93.53118745739452L94.20468749999999,107.59567925351053L94.66875,103.2279308117792L94.66875,110.55006477740847L95.1328125,125.10537244145324L95.1328125,131.45572428170053L95.1328125,131.58769796197905L96.0609375,140.9099373714951L96.0609375,154.08236210594012L96.0609375,132.62766586178785L96.525,143.6992318867835L96.9890625,142.32548908306032L96.9890625,147.7006592948692L97.453125,136.35836045519085L97.91718750000001,120.85641016092357L98.38125,105.9568005051406L98.84531249999999,106.57014552313636L98.84531249999999,99.06143457976223L98.84531249999999,83.85054927829374L99.309375,79.85555817412647L99.309375,82.418309244081L99.7734375,106.4565512789446L99.7734375,108.22131072772908L100.2375,94.94300721190312L100.2375,98.76435660038405L101.165625,95.86548025260845L101.165625,85.44963813758956L101.165625,80.48673130071191L101.165625,79.50036520107992L101.165625,78.58014406366155L102.09374999999999,85.98638728720101L102.09374999999999,106.55823429614344L102.5578125,83.53531680808183L103.021875,82.54539411092044L103.021875,66.64505933823733L103.021875,63.72946358103523L103.021875,64.01476047257198L103.48593749999999,68.64253546549126L103.48593749999999,66.58129779469537L103.48593749999999,75.41804535518806L103.48593749999999,77.89711018565832L103.48593749999999,88.26371010223856L103.95,96.97810954723698L103.95,100.27563284433766L103.95,85.75860769593271L104.4140625,66.58345799051854L104.4140625,52.63907869165321L104.4140625,56.92015384954214L104.4140625,76.348045481057L104.878125,68.60275791570821L105.34218750000001,71.05507847915656L106.2703125,44.17267696275485L106.2703125,53.325454224539435L106.2703125,70.01563801076232L106.73437500000001,88.70643964350074L106.73437500000001,92.83393709368805L106.73437500000001,86.36273184551214L107.1984375,59.199853447665134L107.6625,59.28514403109125L108.12656249999999,60.940101037957255L108.590625,71.00457086823985L108.590625,79.64470620640209L109.0546875,84.21751333085506L109.98281250000001,110.26812069542903L109.98281250000001,113.07632848317168L110.446875,91.5775719506146L110.91093749999999,79.55458626096427L110.91093749999999,85.12996715444092L111.375,78.99364676939311L111.375,51.360919761083146L111.375,64.62964795183933L111.8390625,46.88649174385608L111.8390625,57.3994851477083L112.303125,62.93008678901327L112.303125,71.34647494022886L113.23125,74.06844746303933L113.6953125,81.75780945294035L113.6953125,78.31606692564378L113.6953125,80.0053292199177L114.159375,84.93141365955849L114.159375,92.05285848807586L114.159375,91.3758053991442L114.62343750000001,101.01181240207767L114.62343750000001,120.64891376311583L114.62343750000001,107.1005915301837L114.62343750000001,94.53328781214644L115.0875,87.26902331167372L115.0875,85.947057348807L115.55156249999999,84.6261599052759L115.55156249999999,79.17630894424721L115.55156249999999,91.63469810687774L115.55156249999999,87.22234533885278L116.015625,77.96470490224539L116.015625,86.38580090238915L116.015625,90.51034018148071L116.015625,84.2979381267694L116.4796875,79.7534299452151L116.4796875,106.22300464193127L116.4796875,109.02323356770596L116.94375,90.91946463916628L116.94375,86.77916335631227L116.94375,77.63092105023219L116.94375,75.65560260183017L117.4078125,86.45614207341553L117.4078125,81.09126690503486L117.4078125,85.95530390942626L117.871875,84.56577142077992L117.871875,70.14997629190303L118.3359375,65.83920357546025L118.3359375,57.760781377009444L118.3359375,74.44935508647082L118.3359375,91.52272113403485L118.3359375,78.36104109967435L118.80000000000001,75.63759395656714L119.26406250000001,74.07932061671093L119.26406250000001,66.25178746225001L119.26406250000001,44.67603689843158L119.26406250000001,45.371562143449005L119.72812499999999,69.21539445293347L119.72812499999999,66.67579762924693L120.19218749999999,77.65228268992247L120.65625,74.6689632552065L120.65625,66.34872601895121L121.1203125,45.83608227521529L121.584375,50.63629342596131L121.584375,53.82384479097702L122.0484375,76.18366860736182L122.0484375,85.07928610577171L122.0484375,84.35549695277332L122.0484375,92.01768656790881L122.5125,85.81358612081281L122.5125,75.4448224982347L122.9765625,72.81600011733113L123.44062500000001,66.05690844021159L123.90468750000001,66.82886308350727L123.90468750000001,74.31682948754884L123.90468750000001,60.77079807070942L123.90468750000001,45.26679440419337L124.36874999999999,61.84961377947878L124.36874999999999,70.87202423304002L124.36874999999999,72.92082263081097L125.296875,82.74771020806965L126.225,94.28962353687143L126.225,93.03067752972255L126.225,92.3149805586426L126.6890625,96.92966201517362L126.6890625,93.19900509648262L126.6890625,87.86542194174282L127.153125,109.80161869191198L127.6171875,70.72023289735323L127.6171875,68.50496659090693L128.08125,66.04577621259654L128.5453125,55.52323647954714L129.009375,61.13425024655783L129.47343750000002,75.38753502331664L129.47343750000002,91.84485735830555L129.9375,97.58804412495422L129.9375,80.73563595572014L130.4015625,98.06343531624758L130.4015625,90.0069399788423L130.4015625,87.74598292053541L130.4015625,82.14005861944625L130.4015625,77.58263128199485L130.865625,86.06131901213284L130.865625,101.39469735003037L130.865625,101.32518217863606L131.3296875,120.25496414023591L131.3296875,135.97190874345432L131.3296875,126.58986102933368L131.79375,111.79404010445988L132.2578125,102.38823175768997L132.2578125,101.42745520157183L132.721875,95.11873033148115L132.721875,80.74845438354932L133.1859375,89.52375006802606L133.1859375,70.86703733094666L133.65,65.19734844664497L134.11406250000002,46.948757226106466L134.578125,58.89059914779279L135.04218749999998,54.13741572298482L135.04218749999998,62.14019049146324L135.50625,80.37909527054454L135.50625,87.20366907105972L135.50625,92.54751460727574L135.9703125,101.4037899202565L135.9703125,81.21723260884278L136.434375,67.3828621287351L136.8984375,69.64551919566313L137.3625,71.43718726469687L137.8265625,90.68637853396714L137.8265625,88.28755353189635L138.290625,83.13580829999768L138.75468750000002,80.90187534230233L138.75468750000002,94.55101893814447L139.21875,87.6882675170805L139.21875,78.08174519489025L139.6828125,69.08935633822443L140.146875,91.9459236898926L140.146875,90.65787920036021L140.146875,84.83755904097343L140.146875,70.25518850375303L140.6109375,66.54190313835555L140.6109375,63.45314893271147L141.5390625,63.456498414687886L141.5390625,54.52876097753497L141.5390625,54.97954859148473L142.003125,60.031731247783256L142.46718750000002,74.41651394697509L142.93125,85.31512831618345L142.93125,82.75113915347804L143.39531250000002,80.63190280097842L143.85937500000003,65.25891448271366L143.85937500000003,60.35449624014633L143.85937500000003,74.16539402668886L143.85937500000003,82.84664855062974L144.32343749999998,98.6845437652353L144.32343749999998,94.38947735631069L144.32343749999998,115.11821633198872L144.7875,111.16622763327824L145.25156249999998,92.58144332483398L145.715625,80.15481637201941L145.715625,96.56633778356206L146.64374999999998,87.48616233480456L147.1078125,80.75842025556015L147.1078125,85.09070167761946L147.571875,82.47284569179821L147.571875,82.9370708128657L148.0359375,50.05458341157048L148.5,59.09354495301877L148.9640625,51.940530185471964L148.9640625,55.26547961345253L148.9640625,64.44387263695572L148.9640625,73.77270088473415L148.9640625,80.80900922628912L149.428125,91.90718864464007L149.8921875,90.83420756341972L150.35625000000002,112.84574076061443L150.8203125,108.8968084787039L151.284375,88.89022986385129L151.284375,88.7131881480071L151.284375,85.82170533621289L151.284375,99.04318148208378L151.284375,92.38461543839355L151.74843750000002,81.97035946720831L152.21249999999998,82.90814747850769L152.6765625,97.09900387825654L152.6765625,108.17192241214397L152.6765625,96.54099622321571L152.6765625,99.22370088743554L154.06875,99.30811256158644L154.06875,106.99674164863256L154.5328125,120.12238670816129L154.5328125,96.84943360394996L154.996875,110.46391608566903L154.996875,91.9607139111076L155.4609375,93.98822747482244L155.4609375,108.3816974834286L155.925,86.29670461721336L156.853125,96.88220612924066L157.3171875,106.16852643016468L157.3171875,121.97346968994904L157.78125,108.68134641521968L157.78125,117.76840686208905L157.78125,126.97415474195735L157.78125,127.50012347278326L157.78125,133.78742388774907L158.2453125,116.14542215629785L158.709375,118.4959269716684L158.709375,136.29308749196463L159.63750000000002,116.99366432512471L159.63750000000002,112.9830034400807L159.63750000000002,99.88719204497698L160.1015625,81.33978725273134L160.1015625,74.51944664387847L160.1015625,75.31636462104461L160.1015625,90.00832404933188L160.565625,95.06889126640412L161.02968750000002,83.15461581868261L161.49374999999998,96.78924466335994L161.49374999999998,91.39482265554433L161.49374999999998,73.94602269860154L162.421875,61.27974148166126L162.421875,57.4872724648432L162.421875,69.10254414855437L162.421875,65.5883308909397L162.421875,74.41636741504378L162.88593749999998,79.12347112335549L163.35,94.80254861963994L163.35,104.05135302515716L163.35,101.17403821173653L163.8140625,107.59492155976807L164.278125,106.37602718669302L164.278125,94.55886083062009L164.278125,104.37068362429876L164.7421875,117.37930720735821L165.20625,120.10598514592594L165.6703125,111.76661954506709L165.6703125,113.60332261534549L165.6703125,115.28399724643872L165.6703125,115.65464620059419L167.0625,100.87029583325301L167.5265625,112.06679284335989L167.99062500000002,107.05793978991271L168.91875000000002,110.71425093018071L168.91875000000002,117.84783611752448L169.38281249999997,96.35854810902899L169.84687499999998,86.86172905006039L170.3109375,94.88662081220964L170.3109375,83.3161285527431L170.77499999999998,95.7385954004434L170.77499999999998,102.84320349286598L170.77499999999998,95.03364477619559L170.77499999999998,107.71976210219741L171.2390625,120.08220631587866L171.2390625,116.75794293677093L171.703125,103.78904863028565L171.703125,111.10158228771294L172.16718749999998,94.3286955005013L172.16718749999998,115.52607165601313L172.63125,122.14122499762456L172.63125,139.12459109607363L173.0953125,146.7387371748912L173.0953125,146.6214089596762L173.559375,132.21418842044238L174.0234375,130.84469286386033L174.0234375,126.34792910151995L174.0234375,120.77739483190855L174.4875,122.0407471521522L174.4875,111.64543064603994L174.4875,86.38853050026556L174.9515625,96.6169318539388L174.9515625,114.78962148846429L175.415625,126.3595053300659L175.87968750000002,136.97380935113583L175.87968750000002,119.0690665356481L176.34375,124.94295435211619L176.34375,144.20927076077103L176.34375,121.07861672805363L176.8078125,117.37798401538235L176.8078125,128.11203911832197L176.8078125,145.77146120830753L176.8078125,151.69471959964335L177.27187500000002,152.1257854977068L177.7359375,137.87999953590747L177.7359375,155.18918028272307L177.7359375,131.4956214854871L177.7359375,138.20472527906725L178.20000000000002,125.53022350049287L178.66406250000003,114.7209214380685L179.12812499999998,125.83853101089966L179.12812499999998,139.42548262867294L179.5921875,132.8600180459712L179.5921875,124.777593107685L179.5921875,118.01343639618378L179.5921875,120.59465754318126L179.5921875,121.3939751852399L180.05624999999998,125.31545460550545L180.05624999999998,113.4804600871214L180.05624999999998,98.21531028215333L180.5203125,102.83737140623529L180.5203125,108.07132184426307L180.984375,97.67540780998313L180.984375,81.6626192241267L180.984375,61.63947182511441L180.984375,49.66456195212118L181.44843749999998,65.36535242084308L181.44843749999998,79.03230708297268L181.44843749999998,93.50149358829137L182.3765625,102.2654022569938L182.3765625,120.10707395210613L182.3765625,127.27331472390902L182.3765625,128.4666937081065L182.840625,119.56825652806796L183.3046875,120.85528937266184L183.3046875,126.15057303034722L183.3046875,137.40245907583008L183.3046875,139.15974818182346L183.76875,148.37573366376142L183.76875,127.3970639407781L183.76875,118.73764006822444L184.2328125,103.12237105606101L184.2328125,81.23948825422522L184.696875,89.30547810629228L185.625,89.02047050034604L185.625,79.7214698946995L186.0890625,87.7756696234505L186.0890625,96.99169062665055L186.55312500000002,87.57864101592455L186.55312500000002,95.1992023064795L187.01718749999998,103.73039904411588L187.01718749999998,91.85184375400107L187.01718749999998,88.6369337245351L187.01718749999998,88.23308201169303L187.01718749999998,102.05159667564772L187.01718749999998,102.03778683274848L187.48125,111.9713881981528L187.48125,118.01513627011471L187.9453125,121.7848838418566L187.9453125,124.91502541378271L188.40937499999998,135.97200703620203L188.8734375,147.02895104211805L188.8734375,138.2487773386654L189.3375,130.78188073493195L189.3375,131.53391225972493L189.8015625,145.80379781032593L189.8015625,153.31515630241952L190.265625,147.92889125763992L190.265625,148.34684120441355L190.7296875,146.82350591205375L191.19375,117.48358831567093L191.19375,127.0433507698738L191.19375,107.72408787841215L191.19375,104.17240221423727L191.19375,122.68465478625771L191.6578125,129.85923928370937L191.6578125,108.77590864727084L191.6578125,122.36031086986256L192.5859375,119.70216235814884L193.05,128.09809084796075L193.05,107.88024755284364L193.05,111.47648561138222L193.5140625,102.77782224568487L193.978125,98.89128402483695L193.978125,106.01752185167759L193.978125,107.19017006234425L193.978125,100.82576538891236L193.978125,107.1563179587563L194.44218750000002,123.22256293395225L194.90625,140.30305795226468L195.3703125,142.5385819937689L195.83437500000002,130.43856827015375L196.29843749999998,130.78027022098152L196.29843749999998,111.26617589275851L196.29843749999998,123.40400179590414L196.7625,134.57609713334148L196.7625,125.31416738472562L198.1546875,128.47646739086338L198.1546875,129.55516388743692L198.61875,133.19303117305327L198.61875,146.08581850758745L199.546875,158.80904905520643L200.0109375,145.07329913653075L200.475,145.99340451890376L200.475,137.06260897261618L200.9390625,153.141514524273L200.9390625,144.60020678462033L201.40312500000002,131.68232577786847L201.40312500000002,134.08270999087176L201.40312500000002,110.2674720412493L201.8671875,94.41898454708229L201.8671875,103.97900297182694L202.33125,93.30730955519594L202.33125,81.279974191577L202.79531250000002,91.67204739453497L202.79531250000002,93.503426306001L202.79531250000002,95.56401466717774L202.79531250000002,95.9986193414588L203.259375,91.68991527125877L203.72343750000002,108.56540485741778L204.18749999999997,88.53881573508443L204.18749999999997,86.82868747455656L204.65156249999998,79.01302856225303L205.115625,85.91846293554808L205.115625,101.97950709477402L205.57968749999998,100.1249512333687L206.5078125,103.60489219582244L206.97187499999998,101.06986633937125L207.4359375,112.32044778392914L207.4359375,121.82697617910829L207.4359375,123.28428319204859L207.9,125.73638565506272L208.3640625,112.96225654558506L208.3640625,111.88197073533638L208.3640625,123.2344128181227L208.3640625,112.85654887716221L208.828125,119.31508080294272L209.75625,109.47374148554188L209.75625,122.67393772543129L210.68437500000002,114.75891543150145L210.68437500000002,105.45124237052171L211.1484375,116.29754411242018L211.1484375,104.65763527926913L211.1484375,103.09764358563817L211.6125,92.7529650088409L211.6125,101.39382615004162L211.6125,100.38224015777612L211.6125,112.18638194341018L211.6125,123.65479434020837L212.07656250000002,118.45248443467501L212.07656250000002,115.05151510312001L212.07656250000002,124.28103295342294L212.07656250000002,135.5758318460743L213.46875000000003,146.15017374088333L213.93281249999998,131.65116657935633L213.93281249999998,130.65006674136794L214.396875,95.573241514574L214.396875,87.4291275427341L214.86093749999998,90.66658764149888L215.325,82.62761885210638L215.325,89.17749024050325L215.325,103.16803490057524L215.7890625,96.13937407870127L215.7890625,79.09745108808751L215.7890625,79.50096728845901L216.25312499999998,75.18929900358646L216.25312499999998,81.27045657870667L216.7171875,93.9991932690142L216.7171875,86.15788116621871L217.18125,103.66010731069892L217.18125,112.12835571544711L218.109375,102.36218688417385L218.109375,107.325043232941L218.109375,110.73282480320073L218.5734375,101.72654868352289L218.5734375,105.09415459656977L218.5734375,105.04551414272272L218.5734375,108.60008761546592L219.0375,105.37791676173637L219.5015625,117.96798267371986L219.96562500000002,125.55716308272599L219.96562500000002,122.50540793493614L219.96562500000002,121.72914898214093L219.96562500000002,134.78429029155478L219.96562500000002,139.16293886523448L219.96562500000002,148.3436490191865L220.89375,139.3243545717324L220.89375,120.25924405333166L221.35781250000002,141.3396941459993L221.82187499999998,131.28874540474825L222.2859375,133.71382746136908L222.2859375,118.33396826537788L222.2859375,105.86784470108192L222.75,125.36282952411189L223.678125,123.61373848931176L223.678125,99.08389675131873L224.60625,91.77575502312759L224.60625,92.02680173622048L225.0703125,111.02343529193271L225.0703125,118.30990798996103L225.0703125,116.02732356137112L225.534375,125.78781537670093L225.534375,140.10041389114406L225.534375,151.85261509597865L225.534375,144.27013461816196L225.534375,137.2393418485049L225.9984375,130.93571644852946L225.9984375,97.27447070686345L225.9984375,105.24236589191732L225.9984375,99.91905361218718L225.9984375,87.46134895341527L225.9984375,90.48435805792029L226.4625,101.97311169282385L226.4625,104.56290297974847L226.9265625,113.62167295516049L226.9265625,109.02406122368465L226.9265625,105.99008472771895L226.9265625,110.92521098237614L227.390625,122.61779712607711L227.390625,119.67708521352498L227.8546875,107.21605436126792L227.8546875,97.12577438854666L228.31875,87.67819609286491L228.31875,89.34454666866871L228.31875,99.39600307330275L228.7828125,106.83303222252538L228.7828125,111.14024436552852L228.7828125,118.70703618988506L229.24687500000002,120.41194943504628L229.7109375,113.75197375405928L229.7109375,122.9992397530015L229.7109375,115.18252095570413L229.7109375,93.84793044187862L229.7109375,97.88847730914928L230.175,101.26140852890266L230.63906250000002,110.12958954865766L230.63906250000002,120.37151164065526L231.10312499999998,113.16544948638501L231.10312499999998,101.84385955704914L231.5671875,96.44737910349738L231.5671875,80.52292029591453L232.03125,76.81736677609808L232.49531249999998,54.9012911582682L233.4234375,43.24130008346306L233.4234375,44.69122405218244L233.4234375,36.496477487488065L233.4234375,27.291351772770078L233.4234375,42.58972256888026L234.3515625,30.93928664268154L234.3515625,54.14629608683061L234.3515625,57.19056275551076L234.815625,81.532035890417L234.815625,67.10605322905174L235.2796875,54.840215689421456L235.74375,54.43471255160262L235.74375,65.6265273646126L235.74375,62.02227869347977L236.671875,74.6451236908421L236.671875,77.16530221464816L236.671875,75.91222501731174L236.671875,86.34517781829162L237.1359375,76.73201921259542L237.1359375,88.60183157491842L237.1359375,94.03911596713229L237.60000000000002,93.75197688313233L238.0640625,98.02447482060805L238.0640625,87.98732601136501L238.0640625,99.25788607841056L238.0640625,120.32982294080868L238.52812500000002,140.76688604731174L238.52812500000002,129.40138020847908L238.99218749999997,130.3185946941759L238.99218749999997,133.745896209682L239.45624999999998,136.78106111364568L239.45624999999998,139.06242292168372L239.9203125,127.85672998576835L241.3125,128.33741600601627L241.3125,126.32378521150845L241.77656249999998,122.22776705074546L242.240625,127.51491894875174L242.240625,129.6814397238624L242.7046875,131.94009822994207L242.7046875,129.2019794610579L242.7046875,128.38134802267544L243.16875,122.880772267749L243.16875,131.1774346405556L243.6328125,135.81673233880323L243.6328125,113.08694417622507L243.6328125,124.1754937680828L244.096875,107.03660481859566L244.096875,106.39953622584706L244.096875,108.70824204324586L244.096875,109.47259466405684L244.096875,110.50283010934936L244.5609375,89.94598426338334L244.5609375,84.11913022403041L244.5609375,80.86236761281047L244.5609375,78.3608496469533L245.025,64.64724026923348L245.025,81.18305471458132L245.025,92.95747630421144L245.48906250000002,94.3084241251076L245.48906250000002,93.20562752896608L245.48906250000002,109.38748969190456L245.48906250000002,125.60368637957423L245.953125,116.69946466288837L246.4171875,116.29973744496077L246.4171875,111.8344886509396L246.4171875,94.48674928807296L246.4171875,111.71572745994514L246.88125000000002,107.21435512683878L246.88125000000002,123.07201120308447L247.80937500000002,104.71212728281205L247.80937500000002,103.10709334879752L247.80937500000002,111.12820576976002L248.27343750000003,95.30450406160752L248.27343750000003,104.45133067212105L248.27343750000003,103.85999700893682L248.27343750000003,112.64242000486786L248.27343750000003,97.0263836298554L248.73749999999998,98.7603450470466L248.73749999999998,95.67494322476526L248.73749999999998,87.4609764166229L249.66562499999998,83.92627229495793L250.1296875,86.56853442917927L251.05781249999998,75.64672999578856L251.521875,71.9880478412363L251.9859375,90.56712921412283L251.9859375,93.73209431043259L252.45,122.53297482426598L252.9140625,120.64528456974732L253.378125,110.74157956155008L253.378125,102.47710082204127L253.378125,105.53008128017385L253.378125,103.64907168788065L254.30625,93.08797237388264L254.30625,94.54977171826378L254.77031250000002,104.12740183344958L254.77031250000002,112.3368998093094" style="fill: none;" fill="none"></path></g></g></g></g><g opacity="0.2"><g><g><g><path stroke="rgb(255, 112, 67)" stroke-width="2px" d="M23.203125,116.10711101123265L23.203125,127.73103496006556L23.203125,-25.790113857814248L23.6671875,189.810138293675L24.13125,97.99311488015312L24.13125,196.1286369732448L24.13125,101.39640130315507L24.13125,96.4121789932251L24.5953125,156.8009577819279L24.5953125,-85.76328206062317L25.059375,212.42145814214433L25.523437499999996,73.75992505890981L25.523437499999996,206.15230342320035L25.523437499999996,186.50864451272147L25.9875,65.85991777692522L25.9875,62.72065319333757L25.9875,80.56685961995805L26.4515625,159.09606988089425L26.4515625,147.72718518120902L26.4515625,-285.51411540167675L26.915625,-0.1858733040946039L26.915625,170.25160299028667L26.915625,-168.57357072830203L27.3796875,-57.82576847076416L27.84375,125.99664146559579L27.84375,86.57512736320496L28.3078125,107.1637668269021L28.3078125,52.08870261056081L28.771875,116.02286154883248L29.2359375,-69.40535218375074L29.2359375,261.67340750353674L29.2359375,41.17696544102258L29.2359375,181.16487744876318L29.2359375,176.94669224534718L29.2359375,140.03291840212685L29.700000000000003,120.24923055512565L29.700000000000003,108.28752504076276L30.1640625,183.76072546413965L30.1640625,151.42749994141715L30.1640625,213.9456047671182L30.1640625,47.460076332092285L30.628125,55.25437239238194L31.092187499999998,180.0625960656575L31.092187499999998,20.662477561405723L31.55625,293.95841942514693L31.55625,-21.00531710897176L31.55625,104.6181972026825L32.0203125,99.71246705736432L32.0203125,16.84710727419171L32.0203125,-271.086930002485L32.484375,208.45097238676888L32.484375,41.48430265699113L32.9484375,167.05440371377128L32.9484375,120.21263704981122L33.4125,52.83076102393014L33.4125,-68.92210088457381L33.8765625,243.0071930715016L34.340625,68.44823006221226L34.340625,100.1749197414943L34.340625,98.0701903275081L34.340625,82.10417870112828L34.340625,85.3821610042027L34.340625,105.86674710682459L34.340625,-100.5389497620719L34.8046875,181.21027268682207L34.8046875,110.59939660344804L34.8046875,75.63213198525564L35.268750000000004,-112.37863673482626L35.7328125,221.8027186734336L36.660937499999996,16.096036127635397L37.125,-51.31067766462056L37.125,286.7814805167062L37.589062500000004,100.55532339641026L38.053124999999994,112.3652593067714L38.053124999999994,-29.419110468455727L38.053124999999994,181.50651730809892L38.053124999999994,159.51813105174472L38.5171875,49.45837109429494L38.98125,61.89491803305489L39.909375000000004,-20.477062429700602L39.909375000000004,85.89347536223275L39.909375000000004,-20.657618522644043L40.373437499999994,100.16400800432477L40.373437499999994,109.95928154672895L40.8375,106.4486561843327L40.8375,59.83492071287972L41.3015625,-83.45032535280501L41.3015625,-177.7459408215114L41.3015625,95.95885961396354L41.765625,20.271343026842388L41.765625,-86.13364812305997L42.229687500000004,6.963816404342632L42.693749999999994,124.41636872291565L42.693749999999994,62.181215490613646L43.1578125,26.2130250590188L43.1578125,-164.6593316623143L43.621875,136.61698702403476L43.621875,148.10159039497375L44.0859375,40.77995303698948L44.0859375,132.97973125321525L44.550000000000004,116.05613933290753L44.550000000000004,142.62085390090942L44.550000000000004,196.380601644516L45.014062499999994,123.97037407330103L45.478125,105.21379116603306L45.478125,25.686187097004478L45.478125,114.3139991079058L45.478125,73.56824622835431L45.9421875,164.0789508308683L46.40625,-65.40843108722143L46.40625,17.478722027369894L46.8703125,24.059946400778625L46.8703125,93.59785509109497L47.334375,28.594587053571413L47.7984375,200.71509330613273L47.7984375,-55.169152327946286L48.2625,106.25794192722864L48.7265625,1.6652034350803837L49.190625,24.812916551317485L49.6546875,121.47405798094613L50.11875,56.535687650953L50.11875,-17.020392894744873L50.11875,110.3341690472194L50.11875,16.712187562670024L50.5828125,93.54634084020341L50.5828125,72.54426108087812L50.5828125,72.33666678837368L51.04687499999999,38.7993220261165L51.5109375,-55.72311891828267L51.5109375,119.29442340987069L51.975,-73.00706945146834L51.975,202.83885797432492L51.975,36.96135745729718L51.975,-21.859055042266846L51.975,-44.951064041682656L52.4390625,174.55275658198764L52.4390625,61.29007019315446L53.36718750000001,92.99547897066388L53.36718750000001,27.047772952488486L53.83125,118.4348076071058L53.83125,112.4440529005868L53.83125,125.18034103938511L53.83125,59.40948353494916L54.2953125,-184.09964643205916L54.2953125,107.40289061410087L54.759375,209.82158604690008L55.2234375,115.32208386489323L55.2234375,215.71452697685788L56.1515625,63.15217924118042L56.1515625,-67.40693684986661L56.1515625,-167.46340697152274L56.615625,18.800247941698345L57.0796875,147.35939633846283L57.0796875,-1.4475353785923661L57.0796875,134.0579435144152L57.54375,92.22014277321952L57.54375,-136.02403960909163L57.54375,35.73176745006016L57.54375,128.89693297658647L58.0078125,92.27072259357996L58.471875,101.93219171251569L58.9359375,142.5970711367471L58.9359375,21.580208914620524L58.9359375,160.3336326905659L59.400000000000006,-60.06264444759916L59.864062499999996,179.85727756364005L60.328125,154.7535752739225L60.7921875,45.864370414188926L61.25625,71.5254303727831L61.720312500000006,183.9233615909304L61.720312500000006,40.555960995810366L61.720312500000006,17.507086515426614L61.720312500000006,80.02829606192452L62.184374999999996,101.72788299833024L62.184374999999996,212.65560834748405L62.6484375,195.35040705544608L63.1125,104.04961129597254L63.1125,-1.8630253928048495L63.1125,38.181181158338255L64.040625,-62.0332981518337L64.5046875,-68.76951742172241L64.5046875,94.62018237795148L64.5046875,11.343010016850057L64.5046875,-105.06955126353674L64.5046875,154.05159187316895L64.5046875,79.62917365346635L64.96875,176.27810720035006L65.896875,46.220237731933594L66.3609375,43.31521378244672L66.3609375,231.3475045476641L66.825,112.34421954836164L66.825,207.09897197995866L67.2890625,107.74549504688807L67.2890625,136.08844598702024L67.2890625,-3.4486635753086747L67.753125,75.76141497067043L67.753125,-5.028634888785238L67.753125,175.14168895993916L67.753125,124.98332691192627L68.68125,123.03796311787195L69.1453125,20.089098930358865L69.609375,117.50831973552704L69.609375,54.93425457818166L70.53750000000001,34.930387769426616L70.53750000000001,-14.091224466051392L71.0015625,251.15718312774385L71.465625,90.3631580216544L71.465625,97.65617731639317L71.92968750000001,104.73599573544092L72.39375,93.68279784066337L72.39375,1.7473730359758508L72.39375,65.90049014772687L72.39375,107.35243136542184L72.8578125,38.568879399980815L72.8578125,124.52984174660273L72.8578125,51.519001415797625L72.8578125,220.04705934865135L73.32187499999999,208.53252405779702L73.32187499999999,14.918985230582093L73.32187499999999,157.0462005819593L73.7859375,34.87625108446393L73.7859375,115.15745830535889L73.7859375,129.56116236959184L73.7859375,39.57948109081811L73.7859375,156.90703071866716L73.7859375,14.861623253141113L73.7859375,13.678604057856955L74.25,166.32420653956277L74.7140625,227.6358560494014L74.7140625,76.57747425351823L74.7140625,99.59295037814549L74.7140625,210.40733834675382L75.17812500000001,25.2110743863242L75.17812500000001,57.579838412148604L76.10624999999999,142.94443815095084L76.10624999999999,-69.608214037759L76.10624999999999,26.839274372373293L76.5703125,61.584988525935564L76.5703125,-34.148263386317666L77.034375,-68.80695492880689L77.034375,93.71071018491472L77.034375,-24.320646490369548L77.4984375,-71.65528004510062L77.9625,101.5961584363665L78.4265625,98.18669271469116L78.4265625,188.93575245993478L78.890625,109.43762816701616L78.890625,79.57853354726518L79.3546875,27.019378321511393L79.3546875,52.292348180498394L79.3546875,185.52707045418876L79.3546875,21.589191504887168L79.81875000000001,52.0298033441816L79.81875000000001,199.9995003768376L79.81875000000001,243.71555923564094L80.2828125,64.9152386529105L80.74687499999999,99.53233296530587L80.74687499999999,5.093176909855428L81.675,112.69303342274256L81.675,-100.1803092956543L82.603125,135.91667655536105L82.603125,243.0118426169668L83.0671875,104.66494887215751L83.53125,140.57695290020536L83.53125,30.268845421927306L83.53125,162.27002896581376L83.53125,238.53986155986786L83.53125,-48.991903373173336L83.99531250000001,88.86201044491358L83.99531250000001,167.82010924816132L84.45937500000001,188.9092869758606L84.92343749999999,-6.691107375281209L85.38749999999999,119.72230216435022L85.38749999999999,114.59695070130485L85.8515625,227.31738102436066L85.8515625,76.35501950127737L85.8515625,-6.279445511954183L86.315625,61.36988864626203L86.315625,115.69121406759534L86.315625,32.173938274383545L86.7796875,15.275153977530335L87.24375,42.58418767792836L87.24375,111.47803258895874L87.24375,202.23474863597326L87.7078125,17.360290493283937L87.7078125,-14.812665121895954L88.171875,100.13422679901123L89.10000000000001,60.952168055943076L89.10000000000001,97.44469458716256L89.10000000000001,-100.06028018678938L89.56406249999999,72.56888784681047L89.56406249999999,52.93493495668683L89.56406249999999,161.10211137362887L89.56406249999999,134.63053842953275L90.02812499999999,98.36134079524449L90.02812499999999,-98.52733182907104L90.4921875,207.71409855570113L90.95625,70.12541229384286L90.95625,-54.413107599530925L90.95625,-208.25232451302668L90.95625,15.039828198296672L91.4203125,99.78342349188668L91.4203125,182.03879606723785L91.4203125,85.23063254356384L91.884375,57.145840644836426L91.884375,-9.787780012403239L91.884375,76.38697099685669L92.8125,158.74023270606995L92.8125,270.3732270342963L93.27656250000001,3.1584234237670703L93.27656250000001,219.60864564350675L93.740625,76.44523726190839L94.20468749999999,200.8937202521733L94.66875,74.25408809525625L94.66875,159.12208322116305L95.1328125,221.6592835869108L95.1328125,173.58134068761555L95.1328125,132.46315695558275L96.0609375,202.74983085904802L96.525,217.1434370449611L96.9890625,133.21264559882027L96.9890625,183.35732276099068L97.453125,61.11822540419442L97.91718750000001,18.02286202566964L98.38125,7.118931872504089L98.84531249999999,110.6388235432761L98.84531249999999,49.25174137524194L98.84531249999999,-17.05219367572241L99.309375,53.35443397930688L99.309375,99.41854344095502L99.7734375,265.9163400445666L99.7734375,119.92799745287213L100.2375,6.860215187072734L100.2375,124.11361323084151L101.165625,76.63552951812744L101.165625,16.35523509979246L101.165625,47.56485312325612L101.165625,72.95721908978054L101.165625,72.4757763658251L102.09374999999999,135.11635187694003L102.09374999999999,243.02338735546385L102.5578125,-69.18922744478499L103.021875,75.97865499768938L103.021875,-38.831207207271035L103.021875,44.3886031763894L103.021875,65.90730244772774L103.48593749999999,99.34128713607788L103.48593749999999,52.907896757125854L103.48593749999999,134.03738604273113L103.48593749999999,94.34220436641148L103.48593749999999,157.03146069390434L103.95,154.78584327016557L103.95,122.15004311289107L103.95,-10.541353021349243L104.4140625,-39.862185512270266L104.4140625,85.31904172897339L104.4140625,205.22467012064797L104.878125,17.223712921142557L105.34218750000001,87.32276221684047L106.2703125,-134.15409340177266L106.2703125,114.04120567866734L106.2703125,180.7314373254776L106.73437500000001,212.69351306983404L106.73437500000001,120.21405376706804L106.73437500000001,43.435423748833784L107.1984375,-120.9874849319458L107.6625,59.85092660358972L108.12656249999999,71.91840362548828L108.590625,137.76811500958036L108.590625,136.9598024572645L109.0546875,114.55163082054682L109.98281250000001,283.07711153370997L109.98281250000001,131.7048213652202L110.446875,-51.036316803523476L110.91093749999999,-0.20094476427351848L110.91093749999999,122.11474575315202L111.375,38.28782681056431L111.375,-131.94320062228613L111.375,152.64892121723722L111.8390625,-70.81429256711691L111.8390625,127.13834978852952L112.303125,99.61781828744071L112.303125,127.17732458455222L113.23125,92.12489114488874L113.6953125,132.76586723327637L113.6953125,55.4849657331194L113.6953125,91.21119894300188L114.159375,117.60902723244257L114.159375,139.29358792304993L114.159375,86.88451429775783L114.62343750000001,164.93311076504844L114.62343750000001,250.9133495092392L114.62343750000001,17.22660664149693L114.62343750000001,11.166975361960267L115.0875,39.080887045179075L115.0875,77.17768008368355L115.55156249999999,75.86387075696672L115.55156249999999,43.024244172232486L115.55156249999999,174.27851629257202L115.55156249999999,57.95261590821401L116.015625,16.553334372384196L116.015625,142.24788047586168L116.015625,117.87083356721061L116.015625,43.08742373330251L116.4796875,49.60703597749982L116.4796875,281.81125205755234L116.4796875,127.59879796845573L116.94375,-29.173475810459678L116.94375,59.31411133493695L116.94375,16.945252622876833L116.94375,62.55215426853723L117.4078125,158.10246879713876L117.4078125,45.50289651325769L117.4078125,118.22132037367139L117.871875,75.34818567548479L117.871875,-25.478466204234536L118.3359375,37.243314334324424L118.3359375,4.1718585491180225L118.3359375,185.1544738156455L118.3359375,-8.94811882291524L118.80000000000001,57.57136825152806L119.26406250000001,63.74237762178693L119.26406250000001,14.327159132276245L119.26406250000001,-98.4485985210964L119.26406250000001,49.98538991383142L119.72812499999999,227.38554923874992L119.72812499999999,49.82915915761674L120.19218749999999,150.4657599244799L120.65625,54.878851890563965L120.65625,11.15570190974644L121.1203125,-90.23634072712491L121.584375,82.47891548701695L121.584375,74.96874659402029L122.0484375,224.5095227786473L122.0484375,144.08914569446017L122.0484375,79.55417806761605L122.0484375,142.8454940148762L122.5125,44.65814117022923L122.5125,6.662718772888164L122.9765625,55.377476079123355L123.44062500000001,21.219880444662902L123.90468750000001,71.94969197681972L123.90468750000001,123.98891196932112L123.90468750000001,-29.08799048832487L123.90468750000001,-57.58037495613098L124.36874999999999,171.85320184911998L124.36874999999999,130.72297602040427L124.36874999999999,86.51170665877206L125.296875,147.93523161751884L126.225,170.85391882487704L126.225,84.6793486731393L126.225,87.56734187262398L126.6890625,127.54155656269617L126.6890625,68.45136492592947L126.6890625,52.48462986946106L127.153125,255.3173055308206L127.6171875,-188.5295705795288L127.6171875,53.80980307715279L128.08125,49.73252095494951L128.5453125,-14.278954574039998L129.009375,98.355402639934L129.47343750000002,169.93795083250316L129.47343750000002,201.01594979422433L129.9375,135.68597771440233L129.9375,-31.056293044771483L130.4015625,213.0089135169983L130.4015625,36.56347090857369L130.4015625,72.74772579329354L130.4015625,44.95266764504567L130.4015625,47.350536959511885L130.865625,142.30543838228496L130.865625,203.11000861440385L130.865625,100.86404718671525L131.3296875,245.8273345572608L131.3296875,240.23164050068175L131.3296875,64.35322390283856L131.79375,13.644663129534038L132.2578125,39.993976388658794L132.2578125,95.05405957358224L132.721875,53.26925008637563L132.721875,-14.578032629830524L133.1859375,147.73544434138705L133.1859375,-52.89390441349577L133.65,27.586969511849528L134.11406250000002,-74.10487461090088L134.578125,138.10785586493355L135.04218749999998,22.60675621032715L135.04218749999998,115.227299451828L135.50625,201.36847124780928L135.50625,132.47507848058427L135.50625,127.99638308797563L135.9703125,160.15266966819763L135.9703125,-52.692067418779665L136.434375,-24.388648918696816L136.8984375,84.65505347933087L137.3625,83.32237468447003L137.8265625,218.37757863317216L137.8265625,72.37473729678563L138.290625,48.961254051753436L138.75468750000002,66.08288495881216L138.75468750000002,185.09381118842535L139.21875,42.16360351017541L139.21875,14.356036049979066L139.6828125,9.437555449349528L140.146875,243.56696970973695L140.146875,82.11352300643921L140.146875,46.227954319545184L140.146875,-26.47824658666341L140.6109375,41.90949869155884L140.6109375,42.96362675939287L141.5390625,63.47871749741689L141.5390625,-4.694169044494629L141.5390625,57.96988780157906L142.003125,93.54582841055733L142.46718750000002,169.83923276833127L142.93125,157.61204348291668L142.93125,65.74269195965357L143.39531250000002,66.5737624168396L143.85937500000003,-36.7191530636379L143.85937500000003,27.82060728754315L143.85937500000003,165.78119690077645L143.85937500000003,140.43451253005435L144.32343749999998,203.74661202090127L144.32343749999998,65.89777728489466L144.32343749999998,252.6241260256086L144.7875,84.95036367007664L145.25156249999998,-30.70235487392973L145.715625,205.43360577310835L146.64374999999998,27.252021380833213L147.1078125,36.12935256958008L147.1078125,113.82927080563135L147.571875,65.1070681980678L147.571875,86.01654890605381L148.0359375,-168.07428339549475L148.5,119.05428983483995L148.9640625,4.490378788539328L148.9640625,77.32182352883474L148.9640625,125.32954849515642L148.9640625,135.65630200931002L148.9640625,127.48497830118453L149.428125,165.52793608392986L149.8921875,83.7164933681488L150.35625000000002,258.8611785343715L150.8203125,82.70121952465603L151.284375,-43.8251656804766L151.284375,87.53876638412476L151.284375,66.64080027171543L151.284375,186.7490041596549L151.284375,48.21443305696759L151.74843750000002,12.886478253773275L152.21249999999998,89.12904657636369L152.6765625,191.23529556819372L152.6765625,181.62509955678667L152.6765625,19.386226313454753L152.6765625,117.01965778214591L154.06875,99.8680648122515L154.06875,157.99993765354156L154.5328125,207.19250546182906L154.996875,-30.78190204075407L155.4609375,107.43791668755668L155.4609375,203.86204433441162L155.925,-60.20603431974141L156.853125,167.10205967085702L157.3171875,167.77014735766818L157.3171875,226.8169482605798L157.78125,20.506879806518533L157.78125,178.0482200554439L157.78125,188.0412914412362L157.78125,130.98918322154452L157.78125,175.4947831290109L158.2453125,-0.8843450546264648L158.709375,134.08820700645447L158.709375,254.35211414950234L159.63750000000002,-11.030753476279134L159.63750000000002,86.37793237822396L159.63750000000002,13.014977523258748L160.1015625,-41.6960506439209L160.1015625,29.276118482862184L160.1015625,80.6027899810246L160.1015625,187.46872666903906L160.565625,128.6386081491198L161.02968750000002,4.120223726545045L161.49374999999998,187.2357520375933L161.49374999999998,55.61045071056909L161.49374999999998,-41.80212358066016L162.421875,-22.743146896362305L162.421875,32.32959631511143L162.421875,146.1534685237067L162.421875,42.276488746915525L162.421875,132.97792267799377L162.88593749999998,110.34845679146903L163.35,198.81108559880937L163.35,165.4041089670999L163.35,82.08711780820573L163.8140625,150.18841491426738L164.278125,98.29038436072213L164.278125,16.168650422777446L164.278125,169.4582714693887L164.7421875,203.67315372398923L165.20625,138.19364261627197L165.6703125,56.44670575005666L165.6703125,125.78725366933006L165.6703125,126.43289995193481L165.6703125,118.11337857586997L167.0625,2.797009808676575L167.5265625,186.33973865849632L167.99062500000002,73.83127335139683L168.91875000000002,134.96871185302734L168.91875000000002,165.16909968852997L169.38281249999997,-46.19253035954069L169.84687499999998,23.863746132169435L170.3109375,148.12044479165758L170.3109375,6.56225241933549L170.77499999999998,178.14411975656236L170.77499999999998,149.97224496092113L170.77499999999998,43.228251457214355L170.77499999999998,191.87423505101884L171.2390625,202.08956526006972L171.2390625,94.70614998681205L171.703125,17.758749757494243L171.703125,159.60991624423434L172.16718749999998,-16.935721431459715L172.16718749999998,256.1407272219658L172.63125,166.02342540877206L172.63125,251.78524101631982L173.0953125,197.24784360613143L173.0953125,145.84310194424222L173.559375,36.64262621743337L174.0234375,121.76002386638096L174.0234375,96.51825192996434L174.0234375,83.82476673807416L174.4875,130.421305673463L174.4875,42.68718603679112L174.4875,-81.15533382552015L174.9515625,164.46793014662606L174.9515625,235.33975349153792L175.87968750000002,207.384726864951L175.87968750000002,0.2963832787104903L176.34375,163.90790482929776L176.34375,272.0140719754355L176.34375,-32.3606073515756L176.8078125,92.82951205117362L176.8078125,199.31733594621932L176.8078125,190.98717411926813L177.27187500000002,154.9852989741734L177.7359375,43.37932777404785L177.7359375,270.0111502749579L177.7359375,182.71015426090784L178.20000000000002,41.45280330521718L178.66406250000003,43.01646729878015L179.12812499999998,199.58817008563452L179.12812499999998,229.555718932833L179.5921875,89.30743237904139L179.5921875,71.16211775371006L179.5921875,73.14280905042375L179.5921875,137.71741461753845L179.5921875,126.69631893294198L180.05624999999998,151.328932591847L180.05624999999998,34.97198499952043L180.05624999999998,-3.0474010195050862L180.5203125,133.49821962629045L180.5203125,142.7911915438516L180.984375,28.713199445179526L180.984375,-24.55961956296651L180.984375,-29.7720539229257L181.44843749999998,169.51792430877686L181.44843749999998,169.69325060503823L181.44843749999998,189.4841124670846L182.3765625,160.40155976159232L182.3765625,238.46136939525604L182.3765625,174.81120198113578L182.3765625,136.3830779620579L182.840625,60.539692333766375L183.3046875,129.39293473107475L183.3046875,161.27730202674866L183.3046875,212.0428329195295L183.3046875,150.81687973226818L183.76875,209.5107823950904L183.76875,-11.766783305576864L183.76875,61.29459163120813L184.2328125,-0.46288674218314596L184.2328125,-63.92253582818168L184.696875,142.81192987305778L185.625,87.1298475265503L185.625,18.035733052662437L186.0890625,141.20391057218822L186.0890625,158.1269749913897L186.55312500000002,25.1363500867571L186.55312500000002,145.7508646079472L187.01718749999998,160.32284152507782L187.01718749999998,13.054404463086792L187.01718749999998,67.31054581914628L187.01718749999998,85.55409622192383L187.01718749999998,193.71792677470617L187.01718749999998,101.94617802756173L187.48125,177.86680488927024L187.48125,158.10686966351102L187.9453125,146.79183529104503L187.9453125,145.6790943145752L188.40937499999998,209.31946527957916L188.8734375,220.37615975311826L188.8734375,80.00472429820469L189.3375,81.24956662314278L189.3375,136.52257939747403L189.8015625,240.4643363101142L189.8015625,203.14241225378854L190.265625,112.19862924303327L190.265625,151.11934886659893L190.7296875,136.71832752227783L191.19375,-77.14533070155554L191.19375,-20.431938477924888L191.19375,80.61198357173375L191.19375,245.48730734416418L191.6578125,212.47363553728377L192.5859375,102.069100856781L193.05,183.7932195322854L193.05,-26.23659079415458L193.05,135.3324464729854L193.5140625,45.074475186211714L193.978125,73.10959155218941L193.978125,153.2900460617883L193.978125,114.96903491020203L193.978125,58.60692828042165L193.978125,149.15059416634696L194.44218750000002,229.79940937246596L194.90625,253.60802108900887L195.3703125,157.36812697138103L195.83437500000002,50.172065019607544L196.29843749999998,133.0469801085336L196.29843749999998,-18.182281902858193L196.7625,208.68717231069292L196.7625,63.87434332711354L198.1546875,149.45386208806718L198.1546875,136.7107917921884L198.61875,157.32514316695077L198.61875,231.6112551007952L199.546875,243.20971581765585L200.0109375,53.955996240888304L200.475,152.09700434548515L200.475,77.81939271518162L200.9390625,259.80234600816453L200.9390625,87.94069208417619L201.40312500000002,45.99042810712541L201.40312500000002,150.00586938858032L201.40312500000002,-47.712999548230876L201.8671875,-10.71334852491109L201.8671875,167.3962244306292L202.33125,22.51569444792611L202.33125,1.4955892222268072L202.79531250000002,160.60877726759227L202.79531250000002,105.6520390851157L202.79531250000002,109.23310845238822L202.79531250000002,98.88160760062081L203.259375,63.10774857657296L203.72343750000002,220.51044646331243L204.18749999999997,-44.30932126726424L204.18749999999997,75.48440153258187L204.65156249999998,27.16716906002588L205.115625,131.7262680530548L205.115625,208.52185346399034L205.57968749999998,87.82259212221417L206.5078125,126.68938606125968L206.97187499999998,84.25354978016445L207.4359375,186.95216744286674L207.4359375,184.88936683109827L207.4359375,132.9514571939196L207.9,142.00262260437012L208.3640625,28.22394970485142L208.3640625,104.71579997880119L208.3640625,198.54183396271296L208.3640625,44.014077390943235L208.828125,162.1583193029676L209.75625,44.1903531891959L209.75625,210.23859827859062L210.68437500000002,62.25392021451677L210.68437500000002,43.70797603470937L211.1484375,188.24743887356348L211.1484375,27.443278210503703L211.1484375,92.7493017401014L211.6125,24.13063154901776L211.6125,158.7137370790754L211.6125,93.67179567473275L211.6125,190.49019271986825L211.6125,199.73151474339622L212.07656250000002,83.94250498499188L212.07656250000002,92.49088648387364L212.07656250000002,185.50584983825684L213.46875000000003,216.2959989820208L213.93281249999998,35.47072975976125L213.93281249999998,124.00918308326176L214.396875,-137.1119578906468L214.396875,33.404432569231304L214.86093749999998,112.14256341116769L215.325,29.300413676670615L215.325,132.6266370841435L215.325,195.97554108074732L215.7890625,49.51413549695695L215.7890625,-33.95164111682349L215.7890625,82.17772742680141L216.25312499999998,46.58746893065316L216.25312499999998,121.6103491953441L216.7171875,178.436385512352L216.7171875,34.141848972865496L217.18125,219.76266089507513L217.18125,168.30322490419658L218.109375,37.57744860649109L218.109375,140.2465864930834L218.109375,133.33864300591605L218.5734375,41.98262541634694L218.5734375,127.43346405029297L218.5734375,104.72285342216492L218.5734375,132.17966278961725L219.0375,84.00336354119436L219.5015625,201.4852901356561L219.96562500000002,175.90065755162922L219.96562500000002,102.26132225990295L219.96562500000002,116.57976707390375L219.96562500000002,221.38671622957503L219.96562500000002,168.20908856391907L219.96562500000002,209.24469576563155L220.89375,79.49407308442251L220.89375,-6.210840225219727L221.35781250000002,281.17871040957317L221.82187499999998,64.61489459446497L222.2859375,149.8008221728461L222.2859375,16.31032214845929L222.2859375,23.172719682965944L222.75,254.68452273947852L223.678125,112.01098956380571L223.678125,-63.636961800711504L224.60625,43.29655531474522L224.60625,93.69214214597429L225.0703125,237.03927162715368L225.0703125,166.64536428451538L225.0703125,100.88559937477112L225.534375,190.53489467075892L225.534375,229.81187347003393L225.534375,93.97108473096574L225.534375,90.5999608039856L225.9984375,89.12006398609705L225.9984375,-126.02035791533338L225.9984375,158.09809807368686L225.9984375,64.60639429092407L225.9984375,4.822071484157004L225.9984375,110.53775433131626L226.4625,178.18476748466492L226.4625,121.74251082965306L226.9265625,173.71381882258822L226.9265625,78.52540019580296L226.9265625,85.86393530028207L226.9265625,143.66280422891887L227.390625,200.18159375871932L227.390625,100.16961458751133L227.8546875,24.554712295532227L227.8546875,30.191016401563356L228.31875,25.00685610089982L228.31875,100.3984294959477L228.31875,166.0732215132032L228.7828125,156.1672179528645L228.7828125,139.7125142301832L228.7828125,168.9020140171051L229.24687500000002,131.72164111477989L229.7109375,69.57244041987828L229.7109375,184.34179053987776L229.7109375,63.329630613327026L229.7109375,-47.67694861548291L229.7109375,124.69179965768541L230.175,123.63604387215204L230.63906250000002,168.95744684764315L230.63906250000002,188.31220093795233L231.10312499999998,65.36340359279087L231.10312499999998,26.741098880767822L231.5671875,60.649352278028196L231.5671875,-25.113375152860392L232.03125,52.23625220571245L232.49531249999998,-90.48092038290845L233.4234375,-34.106274298259194L233.4234375,54.30942198208398L233.4234375,-17.86409323556083L233.4234375,-33.77165773936682L233.4234375,144.07280823162625L234.3515625,-46.34490282194958L234.3515625,208.09203049114774L234.3515625,77.38497294698442L234.815625,243.00333477769578L235.2796875,-26.526294401713784L235.74375,51.74477188927785L235.74375,139.86841341427396L235.74375,38.113178730010986L236.671875,158.37987409319194L236.671875,93.88312768936157L236.671875,67.59982742582048L236.671875,155.55308609349387L237.1359375,12.962287698473247L237.1359375,167.34127388681682L237.1359375,130.10781930174147L237.60000000000002,91.84721456255231L238.0640625,126.36646495546614L238.0640625,21.405018261500754L238.0640625,174.0221356834684L238.0640625,260.11236594404494L238.52812500000002,276.33793825762615L238.52812500000002,54.00729949133736L238.99218749999997,136.40301750387462L238.99218749999997,156.48120168277194L239.45624999999998,156.9150939498629L239.45624999999998,154.19603674752372L239.9203125,53.522782189505435L241.3125,131.52608891895838L241.3125,112.96618856702531L241.77656249999998,95.05647100721086L242.240625,162.58770520346505L242.240625,144.053245476314L242.7046875,146.92310770920346L242.7046875,111.03842823846L242.7046875,122.93761733600071L243.16875,86.39222012247357L243.16875,186.21407282352448L243.6328125,166.5919208867209L243.6328125,-37.69310096332007L244.096875,-6.655719586781087L244.096875,102.1734857899802L244.096875,124.02324475560869L244.096875,114.5429948738643L244.096875,117.33698737621307L244.5609375,-46.419657264437014L244.5609375,45.46618243626184L244.5609375,59.25834693227495L244.5609375,61.766810621534056L245.025,-26.32319140434265L245.025,190.87483145509447L245.025,171.06413555145264L245.48906250000002,103.27005508967808L245.48906250000002,85.89012949807302L245.48906250000002,216.73129289490836L245.48906250000002,233.1752506664821L245.953125,57.6325282369341L246.4171875,113.64811185428074L246.4171875,82.21386878831045L246.4171875,-20.59100266865324L246.4171875,226.0056666306087L246.88125000000002,77.35410659653799L246.88125000000002,228.26516486917222L247.80937500000002,-17.079774447849815L247.80937500000002,92.45995984758649L247.80937500000002,164.33695915767123L248.27343750000003,-9.663410323006794L248.27343750000003,165.1276079586574L248.27343750000003,99.93733324323381L248.27343750000003,170.90139392444064L248.27343750000003,-6.563964537211833L248.73749999999998,110.26273032597132L248.73749999999998,75.20765938077653L248.73749999999998,32.972906521388445L249.66562499999998,60.47850220543996L250.1296875,104.09621225084577L251.05781249999998,3.1959815025329394L251.521875,47.717858586992534L251.9859375,213.81309648922513L251.9859375,114.72716811725071L252.45,313.58614403435166L252.9140625,108.1231255531311L253.378125,45.04448298045567L253.378125,47.65395559583391L253.378125,125.78229515893119L253.378125,91.17122943060738L254.30625,23.029992955071574L254.30625,104.24674599511283L254.77031250000002,167.66145198685783L254.77031250000002,166.79532531329562" style="fill: none;" fill="none"></path></g></g></g></g></g></g><g transform="translate(51, 177)" clip-path="url(#clip_1)"><clipPath id="clip_1"><rect width="278" height="23"></rect></clipPath><g><g><line x1="0" y1="0" x2="0" y2="5" style="visibility: inherit;" fill="rgb(0, 0, 0)" stroke="rgb(204, 204, 204)" stroke-width="1px"></line><line x1="23.203125" y1="0" x2="23.203125" y2="5" style="visibility: inherit;" fill="rgb(0, 0, 0)" stroke="rgb(204, 204, 204)" stroke-width="1px"></line><line x1="46.40625" y1="0" x2="46.40625" y2="5" style="visibility: inherit;" fill="rgb(0, 0, 0)" stroke="rgb(204, 204, 204)" stroke-width="1px"></line><line x1="69.609375" y1="0" x2="69.609375" y2="5" style="visibility: inherit;" fill="rgb(0, 0, 0)" stroke="rgb(204, 204, 204)" stroke-width="1px"></line><line x1="92.8125" y1="0" x2="92.8125" y2="5" style="visibility: inherit;" fill="rgb(0, 0, 0)" stroke="rgb(204, 204, 204)" stroke-width="1px"></line><line x1="116.015625" y1="0" x2="116.015625" y2="5" style="visibility: inherit;" fill="rgb(0, 0, 0)" stroke="rgb(204, 204, 204)" stroke-width="1px"></line><line x1="139.21875" y1="0" x2="139.21875" y2="5" style="visibility: inherit;" fill="rgb(0, 0, 0)" stroke="rgb(204, 204, 204)" stroke-width="1px"></line><line x1="162.421875" y1="0" x2="162.421875" y2="5" style="visibility: inherit;" fill="rgb(0, 0, 0)" stroke="rgb(204, 204, 204)" stroke-width="1px"></line><line x1="185.625" y1="0" x2="185.625" y2="5" style="visibility: inherit;" fill="rgb(0, 0, 0)" stroke="rgb(204, 204, 204)" stroke-width="1px"></line><line x1="208.828125" y1="0" x2="208.828125" y2="5" style="visibility: inherit;" fill="rgb(0, 0, 0)" stroke="rgb(204, 204, 204)" stroke-width="1px"></line><line x1="232.03125" y1="0" x2="232.03125" y2="5" style="visibility: inherit;" fill="rgb(0, 0, 0)" stroke="rgb(204, 204, 204)" stroke-width="1px"></line><line x1="255.234375" y1="0" x2="255.234375" y2="5" style="visibility: inherit;" fill="rgb(0, 0, 0)" stroke="rgb(204, 204, 204)" stroke-width="1px"></line><line x1="278.4375" y1="0" x2="278.4375" y2="5" style="visibility: inherit;" fill="rgb(0, 0, 0)" stroke="rgb(204, 204, 204)" stroke-width="1px"></line></g><g transform="translate(0, 8)"><text x="0" y="0" dx="0em" dy="0.95em" style="text-anchor: middle; visibility: hidden; font-family: Roboto, sans-serif; font-size: 12px; font-weight: 200;" fill="rgb(33, 33, 33)" stroke="none" stroke-width="1px">-50</text><text x="23.203125" y="0" dx="0em" dy="0.95em" style="text-anchor: middle; visibility: inherit; font-family: Roboto, sans-serif; font-size: 12px; font-weight: 200;" fill="rgb(33, 33, 33)" stroke="none" stroke-width="1px">0</text><text x="46.40625" y="0" dx="0em" dy="0.95em" style="text-anchor: middle; visibility: hidden; font-family: Roboto, sans-serif; font-size: 12px; font-weight: 200;" fill="rgb(33, 33, 33)" stroke="none" stroke-width="1px">50</text><text x="69.609375" y="0" dx="0em" dy="0.95em" style="text-anchor: middle; visibility: inherit; font-family: Roboto, sans-serif; font-size: 12px; font-weight: 200;" fill="rgb(33, 33, 33)" stroke="none" stroke-width="1px">100</text><text x="92.8125" y="0" dx="0em" dy="0.95em" style="text-anchor: middle; visibility: hidden; font-family: Roboto, sans-serif; font-size: 12px; font-weight: 200;" fill="rgb(33, 33, 33)" stroke="none" stroke-width="1px">150</text><text x="116.015625" y="0" dx="0em" dy="0.95em" style="text-anchor: middle; visibility: inherit; font-family: Roboto, sans-serif; font-size: 12px; font-weight: 200;" fill="rgb(33, 33, 33)" stroke="none" stroke-width="1px">200</text><text x="139.21875" y="0" dx="0em" dy="0.95em" style="text-anchor: middle; visibility: hidden; font-family: Roboto, sans-serif; font-size: 12px; font-weight: 200;" fill="rgb(33, 33, 33)" stroke="none" stroke-width="1px">250</text><text x="162.421875" y="0" dx="0em" dy="0.95em" style="text-anchor: middle; visibility: inherit; font-family: Roboto, sans-serif; font-size: 12px; font-weight: 200;" fill="rgb(33, 33, 33)" stroke="none" stroke-width="1px">300</text><text x="185.625" y="0" dx="0em" dy="0.95em" style="text-anchor: middle; visibility: hidden; font-family: Roboto, sans-serif; font-size: 12px; font-weight: 200;" fill="rgb(33, 33, 33)" stroke="none" stroke-width="1px">350</text><text x="208.828125" y="0" dx="0em" dy="0.95em" style="text-anchor: middle; visibility: inherit; font-family: Roboto, sans-serif; font-size: 12px; font-weight: 200;" fill="rgb(33, 33, 33)" stroke="none" stroke-width="1px">400</text><text x="232.03125" y="0" dx="0em" dy="0.95em" style="text-anchor: middle; visibility: hidden; font-family: Roboto, sans-serif; font-size: 12px; font-weight: 200;" fill="rgb(33, 33, 33)" stroke="none" stroke-width="1px">450</text><text x="255.234375" y="0" dx="0em" dy="0.95em" style="text-anchor: middle; visibility: inherit; font-family: Roboto, sans-serif; font-size: 12px; font-weight: 200;" fill="rgb(33, 33, 33)" stroke="none" stroke-width="1px">500</text><text x="278.4375" y="0" dx="0em" dy="0.95em" style="text-anchor: middle; visibility: hidden; font-family: Roboto, sans-serif; font-size: 12px; font-weight: 200;" fill="rgb(33, 33, 33)" stroke="none" stroke-width="1px">550</text></g><line x1="0" y1="0" x2="278.4375" y2="0" fill="rgb(0, 0, 0)" stroke="rgb(204, 204, 204)" stroke-width="1px"></line></g></g></g></g></svg>