<svg viewBox="0 0 330 200" xmlns="http://www.w3.org/2000/svg"><g><g><g><g><g><line x1="40" y1="177" x2="35" y2="177" style="visibility: inherit;" fill="rgb(0, 0, 0)" stroke="rgb(204, 204, 204)" stroke-width="1px"></line><line x1="40" y1="160.9090909090909" x2="35" y2="160.9090909090909" style="visibility: inherit;" fill="rgb(0, 0, 0)" stroke="rgb(204, 204, 204)" stroke-width="1px"></line><line x1="40" y1="144.8181818181818" x2="35" y2="144.8181818181818" style="visibility: inherit;" fill="rgb(0, 0, 0)" stroke="rgb(204, 204, 204)" stroke-width="1px"></line><line x1="40" y1="128.72727272727275" x2="35" y2="128.72727272727275" style="visibility: inherit;" fill="rgb(0, 0, 0)" stroke="rgb(204, 204, 204)" stroke-width="1px"></line><line x1="40" y1="112.63636363636364" x2="35" y2="112.63636363636364" style="visibility: inherit;" fill="rgb(0, 0, 0)" stroke="rgb(204, 204, 204)" stroke-width="1px"></line><line x1="40" y1="96.54545454545456" x2="35" y2="96.54545454545456" style="visibility: inherit;" fill="rgb(0, 0, 0)" stroke="rgb(204, 204, 204)" stroke-width="1px"></line><line x1="40" y1="80.45454545454544" x2="35" y2="80.45454545454544" style="visibility: inherit;" fill="rgb(0, 0, 0)" stroke="rgb(204, 204, 204)" stroke-width="1px"></line><line x1="40" y1="64.36363636363639" x2="35" y2="64.36363636363639" style="visibility: inherit;" fill="rgb(0, 0, 0)" stroke="rgb(204, 204, 204)" stroke-width="1px"></line><line x1="40" y1="48.27272727272728" x2="35" y2="48.27272727272728" style="visibility: inherit;" fill="rgb(0, 0, 0)" stroke="rgb(204, 204, 204)" stroke-width="1px"></line><line x1="40" y1="32.18181818181819" x2="35" y2="32.18181818181819" style="visibility: inherit;" fill="rgb(0, 0, 0)" stroke="rgb(204, 204, 204)" stroke-width="1px"></line><line x1="40" y1="16.090909090909093" x2="35" y2="16.090909090909093" style="visibility: inherit;" fill="rgb(0, 0, 0)" stroke="rgb(204, 204, 204)" stroke-width="1px"></line><line x1="40" y1="0" x2="35" y2="0" style="visibility: inherit;" fill="rgb(0, 0, 0)" stroke="rgb(204, 204, 204)" stroke-width="1px"></line></g><g transform="translate(30, 0)"><text x="0" y="177" dx="0em" dy="0.3em" style="text-anchor: end; visibility: hidden; font-family: &quot;Helvetica Neue&quot;, sans-serif; font-size: 12px; font-weight: 200;" fill="rgb(33, 33, 33)" stroke="none" stroke-width="1px">0.2</text><text x="0" y="160.9090909090909" dx="0em" dy="0.3em" style="text-anchor: end; visibility: inherit; font-family: &quot;Helvetica Neue&quot;, sans-serif; font-size: 12px; font-weight: 200;" fill="rgb(33, 33, 33)" stroke="none" stroke-width="1px">0.3</text><text x="0" y="144.8181818181818" dx="0em" dy="0.3em" style="text-anchor: end; visibility: hidden; font-family: &quot;Helvetica Neue&quot;, sans-serif; font-size: 12px; font-weight: 200;" fill="rgb(33, 33, 33)" stroke="none" stroke-width="1px">0.4</text><text x="0" y="128.72727272727275" dx="0em" dy="0.3em" style="text-anchor: end; visibility: inherit; font-family: &quot;Helvetica Neue&quot;, sans-serif; font-size: 12px; font-weight: 200;" fill="rgb(33, 33, 33)" stroke="none" stroke-width="1px">0.5</text><text x="0" y="112.63636363636364" dx="0em" dy="0.3em" style="text-anchor: end; visibility: hidden; font-family: &quot;Helvetica Neue&quot;, sans-serif; font-size: 12px; font-weight: 200;" fill="rgb(33, 33, 33)" stroke="none" stroke-width="1px">0.6</text><text x="0" y="96.54545454545456" dx="0em" dy="0.3em" style="text-anchor: end; visibility: inherit; font-family: &quot;Helvetica Neue&quot;, sans-serif; font-size: 12px; font-weight: 200;" fill="rgb(33, 33, 33)" stroke="none" stroke-width="1px">0.7</text><text x="0" y="80.45454545454544" dx="0em" dy="0.3em" style="text-anchor: end; visibility: hidden; font-family: &quot;Helvetica Neue&quot;, sans-serif; font-size: 12px; font-weight: 200;" fill="rgb(33, 33, 33)" stroke="none" stroke-width="1px">0.8</text><text x="0" y="64.36363636363639" dx="0em" dy="0.3em" style="text-anchor: end; visibility: inherit; font-family: &quot;Helvetica Neue&quot;, sans-serif; font-size: 12px; font-weight: 200;" fill="rgb(33, 33, 33)" stroke="none" stroke-width="1px">0.9</text><text x="0" y="48.27272727272728" dx="0em" dy="0.3em" style="text-anchor: end; visibility: hidden; font-family: &quot;Helvetica Neue&quot;, sans-serif; font-size: 12px; font-weight: 200;" fill="rgb(33, 33, 33)" stroke="none" stroke-width="1px">1</text><text x="0" y="32.18181818181819" dx="0em" dy="0.3em" style="text-anchor: end; visibility: inherit; font-family: &quot;Helvetica Neue&quot;, sans-serif; font-size: 12px; font-weight: 200;" fill="rgb(33, 33, 33)" stroke="none" stroke-width="1px">1.1</text><text x="0" y="16.090909090909093" dx="0em" dy="0.3em" style="text-anchor: end; visibility: hidden; font-family: &quot;Helvetica Neue&quot;, sans-serif; font-size: 12px; font-weight: 200;" fill="rgb(33, 33, 33)" stroke="none" stroke-width="1px">1.2</text><text x="0" y="0" dx="0em" dy="0.3em" style="text-anchor: end; visibility: hidden; font-family: &quot;Helvetica Neue&quot;, sans-serif; font-size: 12px; font-weight: 200;" fill="rgb(33, 33, 33)" stroke="none" stroke-width="1px">1.3</text></g><line x1="40" y1="0" x2="40" y2="177" fill="rgb(0, 0, 0)" stroke="rgb(204, 204, 204)" stroke-width="1px"></line></g></g><g transform="translate(40, 0)" clip-path="url(#clip_0)"><clipPath id="clip_0"><rect width="290" height="177"></rect></clipPath><g><g><g><line x1="0" y1="0" x2="0" y2="177" fill="rgb(0, 0, 0)" stroke="rgb(66, 66, 66)" stroke-width="1px" opacity="0.25"></line><line x1="32.22222222222222" y1="0" x2="32.22222222222222" y2="177" fill="rgb(0, 0, 0)" stroke="rgb(66, 66, 66)" stroke-width="1px" opacity="0.25"></line><line x1="64.44444444444444" y1="0" x2="64.44444444444444" y2="177" fill="rgb(0, 0, 0)" stroke="rgb(66, 66, 66)" stroke-width="1px" opacity="0.25"></line><line x1="96.66666666666666" y1="0" x2="96.66666666666666" y2="177" fill="rgb(0, 0, 0)" stroke="rgb(66, 66, 66)" stroke-width="1px" opacity="0.25"></line><line x1="128.88888888888889" y1="0" x2="128.88888888888889" y2="177" fill="rgb(0, 0, 0)" stroke="rgb(66, 66, 66)" stroke-width="1px" opacity="0.25"></line><line x1="161.11111111111111" y1="0" x2="161.11111111111111" y2="177" fill="rgb(0, 0, 0)" stroke="rgb(66, 66, 66)" stroke-width="1px" opacity="0.25"></line><line x1="193.33333333333331" y1="0" x2="193.33333333333331" y2="177" fill="rgb(0, 0, 0)" stroke="rgb(66, 66, 66)" stroke-width="1px" opacity="0.25"></line><line x1="225.55555555555557" y1="0" x2="225.55555555555557" y2="177" fill="rgb(0, 0, 0)" stroke="rgb(66, 66, 66)" stroke-width="1px" opacity="0.25"></line><line x1="257.77777777777777" y1="0" x2="257.77777777777777" y2="177" fill="rgb(0, 0, 0)" stroke="rgb(66, 66, 66)" stroke-width="1px" opacity="0.25"></line><line x1="290" y1="0" x2="290" y2="177" fill="rgb(0, 0, 0)" stroke="rgb(66, 66, 66)" stroke-width="1px" opacity="0.25"></line></g><g><line x1="0" y1="177" x2="290" y2="177" fill="rgb(0, 0, 0)" stroke="rgb(66, 66, 66)" stroke-width="1px" opacity="0.25"></line><line x1="0" y1="160.9090909090909" x2="290" y2="160.9090909090909" fill="rgb(0, 0, 0)" stroke="rgb(66, 66, 66)" stroke-width="1px" opacity="0.25"></line><line x1="0" y1="144.8181818181818" x2="290" y2="144.8181818181818" fill="rgb(0, 0, 0)" stroke="rgb(66, 66, 66)" stroke-width="1px" opacity="0.25"></line><line x1="0" y1="128.72727272727275" x2="290" y2="128.72727272727275" fill="rgb(0, 0, 0)" stroke="rgb(66, 66, 66)" stroke-width="1px" opacity="0.25"></line><line x1="0" y1="112.63636363636364" x2="290" y2="112.63636363636364" fill="rgb(0, 0, 0)" stroke="rgb(66, 66, 66)" stroke-width="1px" opacity="0.25"></line><line x1="0" y1="96.54545454545456" x2="290" y2="96.54545454545456" fill="rgb(0, 0, 0)" stroke="rgb(66, 66, 66)" stroke-width="1px" opacity="0.25"></line><line x1="0" y1="80.45454545454544" x2="290" y2="80.45454545454544" fill="rgb(0, 0, 0)" stroke="rgb(66, 66, 66)" stroke-width="1px" opacity="0.25"></line><line x1="0" y1="64.36363636363639" x2="290" y2="64.36363636363639" fill="rgb(0, 0, 0)" stroke="rgb(66, 66, 66)" stroke-width="1px" opacity="0.25"></line><line x1="0" y1="48.27272727272728" x2="290" y2="48.27272727272728" fill="rgb(0, 0, 0)" stroke="rgb(66, 66, 66)" stroke-width="1px" opacity="0.25"></line><line x1="0" y1="32.18181818181819" x2="290" y2="32.18181818181819" fill="rgb(0, 0, 0)" stroke="rgb(66, 66, 66)" stroke-width="1px" opacity="0.25"></line><line x1="0" y1="16.090909090909093" x2="290" y2="16.090909090909093" fill="rgb(0, 0, 0)" stroke="rgb(66, 66, 66)" stroke-width="1px" opacity="0.25"></line><line x1="0" y1="0" x2="290" y2="0" fill="rgb(0, 0, 0)" stroke="rgb(66, 66, 66)" stroke-width="1px" opacity="0.25"></line></g></g></g><g><g><line x1="0" y1="209.1818181818182" x2="290" y2="209.1818181818182" fill="rgb(0, 0, 0)" stroke="rgb(153, 153, 153)" stroke-width="1.5px"></line></g></g><g><g><line x1="32.22222222222222" y1="0" x2="32.22222222222222" y2="177" fill="rgb(0, 0, 0)" stroke="rgb(153, 153, 153)" stroke-width="1.5px"></line></g></g><g><g><g><g><g><path stroke="rgb(255, 112, 67)" stroke-width="2px" d="M32.22222222222222,-57.91199859705836L33.833333333333336,34.366815041411996L35.44444444444444,112.27879449631156L37.05555555555555,126.57929356457956L38.666666666666664,117.97440241274114L40.27777777777778,97.99948633363393L41.888888888888886,131.29052821444927L43.5,20.57256255418568L45.111111111111114,64.13669841795493L46.72222222222223,35.271256517890606L48.33333333333333,26.18516401481463L49.94444444444444,92.13149255606297L51.55555555555556,98.33846143949582L53.166666666666664,98.13089304086334L54.77777777777778,126.64181743096425L56.38888888888889,131.29573185051686L58,150.95935884572447L59.61111111111111,80.0551399898626L61.22222222222222,125.71855595830553L62.833333333333336,108.84663684125405L64.44444444444444,98.24332571392951L66.05555555555556,96.8695733301266L67.66666666666667,105.04750442579954L69.27777777777779,95.76177368182283L70.88888888888889,116.04756669843009L72.5,115.17332087586706L74.1111111111111,109.20654944432178L75.72222222222223,131.7238718235583L77.33333333333333,151.5802773573684L78.94444444444444,135.38051632095812L80.55555555555556,139.24370794254608L82.16666666666667,19.815030856057376L83.77777777777777,89.38500080019614L85.38888888888889,62.816089905266224L87,99.57791738019333L88.61111111111111,105.00949813168518L90.22222222222223,129.8345371989683L91.83333333333333,93.93295320483143L93.44444444444446,131.609672360878L95.05555555555556,159.1104465156416L96.66666666666666,149.8541670320019L98.27777777777779,167.76009752286387L99.88888888888889,161.9839425055461L101.5,172.50839214751684L103.11111111111111,138.6354687923883L104.72222222222221,83.71407964028828L106.33333333333333,117.35252352546566L107.94444444444444,125.55886138365491L109.55555555555556,119.1447663207404L111.16666666666667,88.27161813459081L112.77777777777779,114.53957260507302L114.38888888888889,108.31936076196983L116,146.57943660869694L117.61111111111111,88.9306508775668L119.22222222222221,-58.35937385981623L120.83333333333334,-33.57390509597906L122.44444444444444,37.62374096130932L124.05555555555554,87.4459769114495L125.66666666666667,26.26586117544025L127.27777777777777,57.205055347455385L128.88888888888889,25.207134287199324L130.5,-6.3584310115987535L132.11111111111111,58.591578576144116L133.72222222222223,99.179100293731L135.33333333333334,77.61311965243202L136.94444444444443,-48.322599632297056L138.55555555555557,-27.957345046254403L140.16666666666666,10.177027835944813L141.77777777777777,54.439024623930194L143.38888888888889,93.04189268587379L145,121.65574219347232L146.61111111111111,143.32806350736897L148.2222222222222,157.6487685037959L149.83333333333334,143.55432225967752L151.44444444444446,97.79370084391851L153.05555555555557,135.69751177530668L154.66666666666666,146.0955166823826L156.27777777777777,65.38493502399477L157.88888888888889,60.074704178285955L159.5,58.119661179956296L161.11111111111111,9.68822943544069L162.72222222222223,37.895358521901755L164.33333333333334,92.95487863642492L165.94444444444443,133.9462616850288L167.55555555555554,146.41906238308204L169.16666666666669,150.0828061362923L170.77777777777777,62.09358594021489L172.38888888888889,96.99492408861582L174,61.01192593483954L175.6111111111111,0.48108999458068524L177.22222222222223,48.501157139538776L178.83333333333334,40.668631649168475L180.44444444444446,63.461430520235055L182.05555555555554,100.05610450802088L183.66666666666666,91.54299869086323L185.27777777777777,106.41589115825877L186.8888888888889,132.91996291683122L188.5,131.64047497481977L190.11111111111111,82.60653648684222L191.72222222222223,19.513249612400642L193.33333333333331,74.73864761385306L194.94444444444446,-35.11432884751514L196.55555555555557,46.656967802044335L198.16666666666666,105.50347521224687L199.77777777777777,69.97702964951219L201.38888888888889,85.90267519566463L203,95.68079075409257L204.61111111111111,132.77873041799182L206.22222222222223,145.04132427533955L207.83333333333334,162.88156528059213L209.44444444444443,155.7499705177108L211.05555555555554,136.6459998056951L212.66666666666666,140.3957307264062L214.2777777777778,146.53157593756035L215.88888888888889,144.34413644695297L217.5,146.90103531277407L219.11111111111111,160.8464776973066L220.7222222222222,166.01927795140045L222.33333333333334,169.7252559897082L223.94444444444446,162.82856544041928L225.55555555555557,177.61162352346685L227.16666666666666,166.32175389940974L228.77777777777777,174.1971900290629L230.38888888888889,178.35822885085338L232,174.62337607543097L233.61111111111111,157.1782616606651L235.22222222222223,135.3358042919868L236.83333333333334,96.86156252257699L238.44444444444443,133.6231880597415L240.05555555555554,135.53476569724933L241.66666666666669,152.4399245047577L243.27777777777777,155.21500997816477L244.88888888888889,161.21771244993238L246.5,162.42214256020821L248.1111111111111,163.9033951718248L249.72222222222223,165.3855605469238L251.33333333333334,164.8793853272471L252.94444444444446,134.7447176892335L254.55555555555554,121.61852591528961L256.1666666666667,119.96229058517062L257.77777777777777,149.323159843761L259.3888888888889,157.8026865574913L261,130.32794919656172L262.6111111111111,129.76198529195295L264.22222222222223,158.20827059659447L265.8333333333333,150.15307292279545L267.44444444444446,154.9059787220881L269.05555555555554,150.83201055905158L270.6666666666667,162.0271375293029L272.27777777777777,62.687306155179954" style="fill: none;" fill="none"></path></g></g></g></g><g opacity="0.2"><g><g><g><path stroke="rgb(255, 112, 67)" stroke-width="2px" d="M32.22222222222222,-57.91199859705836L33.833333333333336,89.73410322449423L35.44444444444444,187.0742947730151L37.05555555555555,143.3966804688627L38.666666666666664,106.73985652490096L40.27777777777778,70.36698642644015L41.888888888888886,178.89725076068532L43.5,-140.85529427094895L45.111111111111114,128.38533691926438L46.72222222222223,-7.590560609644115L48.33333333333333,12.638435450467199L49.94444444444444,190.69210836020383L51.55555555555556,107.62864793430676L53.166666666666664,97.8199470910159L54.77777777777778,169.3746904947541L56.38888888888889,138.27332117882642L58,180.446478350596L61.22222222222222,194.20672354914925L62.833333333333336,83.54030032591388L64.44444444444444,82.3389405337247L66.05555555555556,94.80898995832963L67.66666666666667,117.31423961032522L69.27777777777779,81.83328756419095L70.88888888888889,146.4761120406064L72.5,113.86195587028158L74.1111111111111,100.25640756433661L75.72222222222223,165.4998208230192L77.33333333333333,181.3648673675277L78.94444444444444,111.08088371970437L80.55555555555556,145.03849409385163L82.16666666666667,-159.32796101136637L83.77777777777777,193.73994741114703L85.38888888888889,22.962725465947926L87,154.72065701267937L88.61111111111111,113.1568691188639L90.22222222222223,167.07209541580895L91.83333333333333,40.080577546899974L93.44444444444446,188.12475088509646L95.05555555555556,200.36160765588284L96.66666666666666,135.9697478251024L98.27777777777779,194.61899323761463L99.88888888888889,153.319709983739L101.5,188.2950666059147L103.11111111111111,87.82608376849781L104.72222222222221,1.3319959207014733L106.33333333333333,167.81018935008484L107.94444444444444,137.86836817047813L109.55555555555556,109.5236237265847L111.16666666666667,41.96189585599032L112.77777777777779,153.94150431047785L114.38888888888889,98.98904299736024L116,203.96955037862062L117.61111111111111,2.4574722810225182L119.22222222222221,-279.2944109656594L120.83333333333334,3.6042980497533676L122.44444444444444,144.4202100472017L124.05555555555554,162.17933083664286L125.66666666666667,-65.5043124285611L127.27777777777777,103.61384660547431L128.88888888888889,-22.789747303182423L130.5,-53.70677895979449L132.11111111111111,156.01659295775673L133.72222222222223,160.0603828701106L135.33333333333334,45.26414869048378L136.94444444444443,-237.2261785593899L138.55555555555557,2.5905368328094482L140.16666666666666,67.3785871592435L141.77777777777777,120.8320198059082L143.38888888888889,150.94619477878916L145,164.57651645487005L146.61111111111111,175.8365454782139L148.2222222222222,179.12982599843633L149.83333333333334,122.4126528934999L151.44444444444446,29.15276872028005L153.05555555555557,192.55322817238894L154.66666666666666,161.6925240429965L156.27777777777777,-55.68093746358696L157.88888888888889,52.109357909722775L159.5,55.18709668246183L161.11111111111111,-62.95891818133265L162.72222222222223,80.2060521515933L164.33333333333334,175.5441588082097L165.94444444444443,195.43333625793457L167.55555555555554,165.12826343016192L169.16666666666669,155.57842176610774L170.77777777777777,-69.89024435390124L172.38888888888889,149.34693131121722L174,7.037428704175085L175.6111111111111,-90.31516391580755L177.22222222222223,120.53125785697591L178.83333333333334,28.91984341361305L180.44444444444446,97.65062882683495L182.05555555555554,154.94811548969963L183.66666666666666,78.77333996512674L185.27777777777777,128.7252298593521L186.8888888888889,172.67607055468994L188.5,129.72124306180262L190.11111111111111,9.055628754875869L191.72222222222223,-75.12668069926173L193.33333333333331,157.57674461603165L194.94444444444446,-199.89379353956735L196.55555555555557,169.3139127763835L198.16666666666666,193.77323632755062L199.77777777777777,16.687361305410207L201.38888888888889,109.79114351489328L203,110.34796409173445L204.61111111111111,188.42563991384074L206.22222222222223,163.43521506136113L207.83333333333334,189.64192678847095L209.44444444444443,145.05257837338883L211.05555555555554,107.9900437376716L212.66666666666666,146.02032710747287L214.2777777777778,155.73534375429153L215.88888888888889,141.06297721104187L217.5,150.7363836115057L219.11111111111111,181.76464127410543L220.7222222222222,173.7784783325412L222.33333333333334,175.28422304716977L223.94444444444446,152.48352961648595L225.55555555555557,199.78621064803818L227.16666666666666,149.38694946332413L228.77777777777777,186.01034422354266L230.38888888888889,184.5997870835391L232,169.02109691229734L233.61111111111111,131.0105900385163L235.22222222222223,102.5721182389693L236.83333333333334,39.150199868462295L238.44444444444443,188.76562636548823L240.05555555555554,138.40213215351105L241.66666666666669,177.79766271602023L243.27777777777777,159.37763818827543L244.88888888888889,170.22176615758377L246.5,164.228787725622L248.1111111111111,166.1252740892497L249.72222222222223,167.60880860957232L251.33333333333334,164.12012249773198L252.94444444444446,89.54271623221311L254.55555555555554,101.92923825437373L256.1666666666667,117.4779375899922L257.77777777777777,193.36446373164654L259.3888888888889,170.52197662808678L261,89.11584315516733L262.6111111111111,128.91303943503988L264.22222222222223,200.87769855355674L265.8333333333333,138.0702764120969L267.44444444444446,162.0353374210271L269.05555555555554,144.72105831449682L270.6666666666667,178.81982798467982" style="fill: none;" fill="none"></path></g></g></g></g></g></g><g transform="translate(40, 177)" clip-path="url(#clip_1)"><clipPath id="clip_1"><rect width="290" height="23"></rect></clipPath><g><g><line x1="0" y1="0" x2="0" y2="5" style="visibility: inherit;" fill="rgb(0, 0, 0)" stroke="rgb(204, 204, 204)" stroke-width="1px"></line><line x1="32.22222222222222" y1="0" x2="32.22222222222222" y2="5" style="visibility: inherit;" fill="rgb(0, 0, 0)" stroke="rgb(204, 204, 204)" stroke-width="1px"></line><line x1="64.44444444444444" y1="0" x2="64.44444444444444" y2="5" style="visibility: inherit;" fill="rgb(0, 0, 0)" stroke="rgb(204, 204, 204)" stroke-width="1px"></line><line x1="96.66666666666666" y1="0" x2="96.66666666666666" y2="5" style="visibility: inherit;" fill="rgb(0, 0, 0)" stroke="rgb(204, 204, 204)" stroke-width="1px"></line><line x1="128.88888888888889" y1="0" x2="128.88888888888889" y2="5" style="visibility: inherit;" fill="rgb(0, 0, 0)" stroke="rgb(204, 204, 204)" stroke-width="1px"></line><line x1="161.11111111111111" y1="0" x2="161.11111111111111" y2="5" style="visibility: inherit;" fill="rgb(0, 0, 0)" stroke="rgb(204, 204, 204)" stroke-width="1px"></line><line x1="193.33333333333331" y1="0" x2="193.33333333333331" y2="5" style="visibility: inherit;" fill="rgb(0, 0, 0)" stroke="rgb(204, 204, 204)" stroke-width="1px"></line><line x1="225.55555555555557" y1="0" x2="225.55555555555557" y2="5" style="visibility: inherit;" fill="rgb(0, 0, 0)" stroke="rgb(204, 204, 204)" stroke-width="1px"></line><line x1="257.77777777777777" y1="0" x2="257.77777777777777" y2="5" style="visibility: inherit;" fill="rgb(0, 0, 0)" stroke="rgb(204, 204, 204)" stroke-width="1px"></line><line x1="290" y1="0" x2="290" y2="5" style="visibility: inherit;" fill="rgb(0, 0, 0)" stroke="rgb(204, 204, 204)" stroke-width="1px"></line></g><g transform="translate(0, 8)"><text x="0" y="0" dx="0em" dy="0.95em" style="text-anchor: middle; visibility: hidden; font-family: &quot;Helvetica Neue&quot;, sans-serif; font-size: 12px; font-weight: 200;" fill="rgb(33, 33, 33)" stroke="none" stroke-width="1px">-20</text><text x="32.22222222222222" y="0" dx="0em" dy="0.95em" style="text-anchor: middle; visibility: inherit; font-family: &quot;Helvetica Neue&quot;, sans-serif; font-size: 12px; font-weight: 200;" fill="rgb(33, 33, 33)" stroke="none" stroke-width="1px">0</text><text x="64.44444444444444" y="0" dx="0em" dy="0.95em" style="text-anchor: middle; visibility: inherit; font-family: &quot;Helvetica Neue&quot;, sans-serif; font-size: 12px; font-weight: 200;" fill="rgb(33, 33, 33)" stroke="none" stroke-width="1px">20</text><text x="96.66666666666666" y="0" dx="0em" dy="0.95em" style="text-anchor: middle; visibility: inherit; font-family: &quot;Helvetica Neue&quot;, sans-serif; font-size: 12px; font-weight: 200;" fill="rgb(33, 33, 33)" stroke="none" stroke-width="1px">40</text><text x="128.88888888888889" y="0" dx="0em" dy="0.95em" style="text-anchor: middle; visibility: inherit; font-family: &quot;Helvetica Neue&quot;, sans-serif; font-size: 12px; font-weight: 200;" fill="rgb(33, 33, 33)" stroke="none" stroke-width="1px">60</text><text x="161.11111111111111" y="0" dx="0em" dy="0.95em" style="text-anchor: middle; visibility: inherit; font-family: &quot;Helvetica Neue&quot;, sans-serif; font-size: 12px; font-weight: 200;" fill="rgb(33, 33, 33)" stroke="none" stroke-width="1px">80</text><text x="193.33333333333331" y="0" dx="0em" dy="0.95em" style="text-anchor: middle; visibility: inherit; font-family: &quot;Helvetica Neue&quot;, sans-serif; font-size: 12px; font-weight: 200;" fill="rgb(33, 33, 33)" stroke="none" stroke-width="1px">100</text><text x="225.55555555555557" y="0" dx="0em" dy="0.95em" style="text-anchor: middle; visibility: inherit; font-family: &quot;Helvetica Neue&quot;, sans-serif; font-size: 12px; font-weight: 200;" fill="rgb(33, 33, 33)" stroke="none" stroke-width="1px">120</text><text x="257.77777777777777" y="0" dx="0em" dy="0.95em" style="text-anchor: middle; visibility: inherit; font-family: &quot;Helvetica Neue&quot;, sans-serif; font-size: 12px; font-weight: 200;" fill="rgb(33, 33, 33)" stroke="none" stroke-width="1px">140</text><text x="290" y="0" dx="0em" dy="0.95em" style="text-anchor: middle; visibility: hidden; font-family: &quot;Helvetica Neue&quot;, sans-serif; font-size: 12px; font-weight: 200;" fill="rgb(33, 33, 33)" stroke="none" stroke-width="1px">160</text></g><line x1="0" y1="0" x2="290" y2="0" fill="rgb(0, 0, 0)" stroke="rgb(204, 204, 204)" stroke-width="1px"></line></g></g></g></g></svg>