<svg viewBox="0 0 330 200" xmlns="http://www.w3.org/2000/svg"><g><g><g><g><g><line x1="30" y1="177" x2="25" y2="177" style="visibility: inherit;" fill="rgb(0, 0, 0)" stroke="rgb(204, 204, 204)" stroke-width="1px"></line><line x1="30" y1="157.33333333333334" x2="25" y2="157.33333333333334" style="visibility: inherit;" fill="rgb(0, 0, 0)" stroke="rgb(204, 204, 204)" stroke-width="1px"></line><line x1="30" y1="137.66666666666669" x2="25" y2="137.66666666666669" style="visibility: inherit;" fill="rgb(0, 0, 0)" stroke="rgb(204, 204, 204)" stroke-width="1px"></line><line x1="30" y1="118" x2="25" y2="118" style="visibility: inherit;" fill="rgb(0, 0, 0)" stroke="rgb(204, 204, 204)" stroke-width="1px"></line><line x1="30" y1="98.33333333333334" x2="25" y2="98.33333333333334" style="visibility: inherit;" fill="rgb(0, 0, 0)" stroke="rgb(204, 204, 204)" stroke-width="1px"></line><line x1="30" y1="78.66666666666666" x2="25" y2="78.66666666666666" style="visibility: inherit;" fill="rgb(0, 0, 0)" stroke="rgb(204, 204, 204)" stroke-width="1px"></line><line x1="30" y1="59" x2="25" y2="59" style="visibility: inherit;" fill="rgb(0, 0, 0)" stroke="rgb(204, 204, 204)" stroke-width="1px"></line><line x1="30" y1="39.33333333333334" x2="25" y2="39.33333333333334" style="visibility: inherit;" fill="rgb(0, 0, 0)" stroke="rgb(204, 204, 204)" stroke-width="1px"></line><line x1="30" y1="19.666666666666686" x2="25" y2="19.666666666666686" style="visibility: inherit;" fill="rgb(0, 0, 0)" stroke="rgb(204, 204, 204)" stroke-width="1px"></line><line x1="30" y1="0" x2="25" y2="0" style="visibility: inherit;" fill="rgb(0, 0, 0)" stroke="rgb(204, 204, 204)" stroke-width="1px"></line></g><g transform="translate(20, 0)"><text x="0" y="177" dx="0em" dy="0.3em" style="text-anchor: end; visibility: hidden; font-family: &quot;Helvetica Neue&quot;, sans-serif; font-size: 12px; font-weight: 200;" fill="rgb(33, 33, 33)" stroke="none" stroke-width="1px">22</text><text x="0" y="157.33333333333334" dx="0em" dy="0.3em" style="text-anchor: end; visibility: inherit; font-family: &quot;Helvetica Neue&quot;, sans-serif; font-size: 12px; font-weight: 200;" fill="rgb(33, 33, 33)" stroke="none" stroke-width="1px">24</text><text x="0" y="137.66666666666669" dx="0em" dy="0.3em" style="text-anchor: end; visibility: hidden; font-family: &quot;Helvetica Neue&quot;, sans-serif; font-size: 12px; font-weight: 200;" fill="rgb(33, 33, 33)" stroke="none" stroke-width="1px">26</text><text x="0" y="118" dx="0em" dy="0.3em" style="text-anchor: end; visibility: inherit; font-family: &quot;Helvetica Neue&quot;, sans-serif; font-size: 12px; font-weight: 200;" fill="rgb(33, 33, 33)" stroke="none" stroke-width="1px">28</text><text x="0" y="98.33333333333334" dx="0em" dy="0.3em" style="text-anchor: end; visibility: hidden; font-family: &quot;Helvetica Neue&quot;, sans-serif; font-size: 12px; font-weight: 200;" fill="rgb(33, 33, 33)" stroke="none" stroke-width="1px">30</text><text x="0" y="78.66666666666666" dx="0em" dy="0.3em" style="text-anchor: end; visibility: inherit; font-family: &quot;Helvetica Neue&quot;, sans-serif; font-size: 12px; font-weight: 200;" fill="rgb(33, 33, 33)" stroke="none" stroke-width="1px">32</text><text x="0" y="59" dx="0em" dy="0.3em" style="text-anchor: end; visibility: hidden; font-family: &quot;Helvetica Neue&quot;, sans-serif; font-size: 12px; font-weight: 200;" fill="rgb(33, 33, 33)" stroke="none" stroke-width="1px">34</text><text x="0" y="39.33333333333334" dx="0em" dy="0.3em" style="text-anchor: end; visibility: inherit; font-family: &quot;Helvetica Neue&quot;, sans-serif; font-size: 12px; font-weight: 200;" fill="rgb(33, 33, 33)" stroke="none" stroke-width="1px">36</text><text x="0" y="19.666666666666686" dx="0em" dy="0.3em" style="text-anchor: end; visibility: hidden; font-family: &quot;Helvetica Neue&quot;, sans-serif; font-size: 12px; font-weight: 200;" fill="rgb(33, 33, 33)" stroke="none" stroke-width="1px">38</text><text x="0" y="0" dx="0em" dy="0.3em" style="text-anchor: end; visibility: hidden; font-family: &quot;Helvetica Neue&quot;, sans-serif; font-size: 12px; font-weight: 200;" fill="rgb(33, 33, 33)" stroke="none" stroke-width="1px">40</text></g><line x1="30" y1="0" x2="30" y2="177" fill="rgb(0, 0, 0)" stroke="rgb(204, 204, 204)" stroke-width="1px"></line></g></g><g transform="translate(30, 0)" clip-path="url(#clip_0)"><clipPath id="clip_0"><rect width="300" height="177"></rect></clipPath><g><g><g><line x1="0" y1="0" x2="0" y2="177" fill="rgb(0, 0, 0)" stroke="rgb(66, 66, 66)" stroke-width="1px" opacity="0.25"></line><line x1="33.33333333333333" y1="0" x2="33.33333333333333" y2="177" fill="rgb(0, 0, 0)" stroke="rgb(66, 66, 66)" stroke-width="1px" opacity="0.25"></line><line x1="66.66666666666666" y1="0" x2="66.66666666666666" y2="177" fill="rgb(0, 0, 0)" stroke="rgb(66, 66, 66)" stroke-width="1px" opacity="0.25"></line><line x1="100" y1="0" x2="100" y2="177" fill="rgb(0, 0, 0)" stroke="rgb(66, 66, 66)" stroke-width="1px" opacity="0.25"></line><line x1="133.33333333333331" y1="0" x2="133.33333333333331" y2="177" fill="rgb(0, 0, 0)" stroke="rgb(66, 66, 66)" stroke-width="1px" opacity="0.25"></line><line x1="166.66666666666669" y1="0" x2="166.66666666666669" y2="177" fill="rgb(0, 0, 0)" stroke="rgb(66, 66, 66)" stroke-width="1px" opacity="0.25"></line><line x1="200" y1="0" x2="200" y2="177" fill="rgb(0, 0, 0)" stroke="rgb(66, 66, 66)" stroke-width="1px" opacity="0.25"></line><line x1="233.33333333333334" y1="0" x2="233.33333333333334" y2="177" fill="rgb(0, 0, 0)" stroke="rgb(66, 66, 66)" stroke-width="1px" opacity="0.25"></line><line x1="266.66666666666663" y1="0" x2="266.66666666666663" y2="177" fill="rgb(0, 0, 0)" stroke="rgb(66, 66, 66)" stroke-width="1px" opacity="0.25"></line><line x1="300" y1="0" x2="300" y2="177" fill="rgb(0, 0, 0)" stroke="rgb(66, 66, 66)" stroke-width="1px" opacity="0.25"></line></g><g><line x1="0" y1="177" x2="300" y2="177" fill="rgb(0, 0, 0)" stroke="rgb(66, 66, 66)" stroke-width="1px" opacity="0.25"></line><line x1="0" y1="157.33333333333334" x2="300" y2="157.33333333333334" fill="rgb(0, 0, 0)" stroke="rgb(66, 66, 66)" stroke-width="1px" opacity="0.25"></line><line x1="0" y1="137.66666666666669" x2="300" y2="137.66666666666669" fill="rgb(0, 0, 0)" stroke="rgb(66, 66, 66)" stroke-width="1px" opacity="0.25"></line><line x1="0" y1="118" x2="300" y2="118" fill="rgb(0, 0, 0)" stroke="rgb(66, 66, 66)" stroke-width="1px" opacity="0.25"></line><line x1="0" y1="98.33333333333334" x2="300" y2="98.33333333333334" fill="rgb(0, 0, 0)" stroke="rgb(66, 66, 66)" stroke-width="1px" opacity="0.25"></line><line x1="0" y1="78.66666666666666" x2="300" y2="78.66666666666666" fill="rgb(0, 0, 0)" stroke="rgb(66, 66, 66)" stroke-width="1px" opacity="0.25"></line><line x1="0" y1="59" x2="300" y2="59" fill="rgb(0, 0, 0)" stroke="rgb(66, 66, 66)" stroke-width="1px" opacity="0.25"></line><line x1="0" y1="39.33333333333334" x2="300" y2="39.33333333333334" fill="rgb(0, 0, 0)" stroke="rgb(66, 66, 66)" stroke-width="1px" opacity="0.25"></line><line x1="0" y1="19.666666666666686" x2="300" y2="19.666666666666686" fill="rgb(0, 0, 0)" stroke="rgb(66, 66, 66)" stroke-width="1px" opacity="0.25"></line><line x1="0" y1="0" x2="300" y2="0" fill="rgb(0, 0, 0)" stroke="rgb(66, 66, 66)" stroke-width="1px" opacity="0.25"></line></g></g></g><g><g><line x1="0" y1="393.33333333333337" x2="300" y2="393.33333333333337" fill="rgb(0, 0, 0)" stroke="rgb(153, 153, 153)" stroke-width="1.5px"></line></g></g><g><g><line x1="33.33333333333333" y1="0" x2="33.33333333333333" y2="177" fill="rgb(0, 0, 0)" stroke="rgb(153, 153, 153)" stroke-width="1.5px"></line></g></g><g><g><g><g><g><path stroke="rgb(255, 112, 67)" stroke-width="2px" d="M33.33333333333333,7.804465611775726L35,-99.84345881144213L36.666666666666664,-20.156543666813633L38.33333333333333,43.664737591556474L40,35.24600609093946L41.66666666666667,48.61451213171188L43.33333333333333,15.912221030439184L45,21.28288806791224L46.666666666666664,54.31553230703736L48.333333333333336,67.90347536307218L50,80.45819229068923L51.666666666666664,85.65797234330789L53.333333333333336,41.4337392883499L54.99999999999999,55.14670602491228L56.666666666666664,20.079835208517693L58.333333333333336,7.244858545233399L60,26.35913592803061L61.666666666666664,41.143368032210816L63.333333333333336,52.08718639964725L65,47.33213473235716L66.66666666666666,16.114671666371606L68.33333333333333,-5.264247914236677L70,35.5071598170081L71.66666666666667,73.05612659269691L73.33333333333333,98.18890933002663L75,80.12185639472888L76.66666666666666,42.926765597528515L78.33333333333334,46.68703548359511L80,3.2484731377182072L81.66666666666666,24.947934352423346L83.33333333333334,3.1449606206170984L85,31.264181979424393L86.66666666666666,35.13458944042662L88.33333333333334,23.70821712268426L90,45.2930634266518L91.66666666666667,69.08301692584179L93.33333333333333,58.42374350018301L95,49.07679906426347L96.66666666666667,34.35144770205659L98.33333333333333,73.28768243467515L100,94.9637679000247L101.66666666666667,86.42679538353029L103.33333333333333,72.40238129304466L105,69.26309651006486L106.66666666666667,64.79632505848802L108.33333333333333,47.16134605938356L109.99999999999999,80.08976023797726L111.66666666666667,98.47681756898044L113.33333333333333,101.98219916875485L115.00000000000001,50.00766895761993L116.66666666666667,58.46545139088897L118.33333333333333,69.89624941631301L120,82.03384301833925L121.66666666666667,99.30423360134557L123.33333333333333,131.24442726613339L125,105.61368593120355L126.66666666666667,120.51932252572584L128.33333333333331,89.77540806010904L130,119.78875265365414L131.66666666666666,140.13168843097932L133.33333333333331,102.01567865713794L135,111.37890551072982L136.66666666666666,77.02993679195185L138.33333333333334,49.83591632932139L140,64.65206605328952L141.66666666666666,94.06784142335563L143.33333333333334,113.09513015715471L145,87.63312739035402L146.66666666666666,106.15832415760107L148.33333333333334,77.50559426669602L150,89.14153824641902L151.66666666666666,69.0369421942707L153.33333333333331,106.96431937438308L155.00000000000003,79.74133907132584L156.66666666666669,97.51786366923594L158.33333333333334,94.52605175867048L160,122.75864202118535L161.66666666666666,99.39747926992152L163.33333333333331,98.92112077118144L165,109.03525302911511L166.66666666666669,130.6853179500781L168.33333333333334,108.61174975035286L170,125.81846497574068L171.66666666666666,151.83747600387701L173.33333333333331,156.6377826146553L175,144.39856388642013L176.66666666666669,145.1638940640705L178.33333333333334,152.63746709436677L180,119.30917627102437L181.66666666666666,78.1882553964037L183.33333333333334,98.26900550936732L185,105.35682579605819L186.66666666666666,77.71502117750472L188.33333333333334,91.580216879273L190,114.32644548095737L191.66666666666666,116.70483843929054L193.33333333333334,112.85680313376476L195,123.41979667823246L196.66666666666666,125.57252187697529L198.33333333333331,133.7171812882132L200,136.03746133030094L201.66666666666669,91.94558623421571L203.33333333333334,114.5641000925802L205,119.26472729797979L206.66666666666666,102.94188310119998L208.33333333333331,128.00925331958229L210,136.75451007076956L211.66666666666669,114.18012481484128L213.33333333333334,125.5204769783416L215,142.48565934577775L216.66666666666666,146.76821979569908L218.33333333333331,123.44692519915611L219.99999999999997,114.70419955817368L221.66666666666669,115.08508509338402L223.33333333333334,96.18281960054537L225,99.19462192593596L226.66666666666666,88.53164844039233L228.33333333333331,126.4278724769144L230.00000000000003,117.70154350873165L231.66666666666669,132.57712295379042L233.33333333333334,133.6242129965174L235,121.27857684474476L236.66666666666666,133.20342705675733L238.33333333333331,154.30799843884773L240,150.67065136840304L241.66666666666669,156.9297762783986L243.33333333333334,173.99266839460265L245,178.2724713828309L246.66666666666666,153.59112959381804L248.33333333333331,134.9398057775311L250,129.94500478406422L251.66666666666669,136.9999301928262L253.33333333333334,139.82128685104732L255,132.75016651980806L256.66666666666663,132.1157031681104L258.33333333333337,129.84274317975618L260,125.189648466244L261.6666666666667,107.97918049311717L263.3333333333333,118.90092560340612L265,127.33658426219017L266.66666666666663,143.2128080758281L268.33333333333337,123.03014519807662L270,144.33718832530758L271.6666666666667,158.59049493589905L273.3333333333333,155.84005733242972L275,161.83843889978337L276.6666666666667,174.3535850632994L278.33333333333337,168.75543030433704L280,172.4073713163506L281.6666666666667,147.64711367726153" style="fill: none;" fill="none"></path></g></g></g></g><g opacity="0.2"><g><g><g><path stroke="rgb(255, 112, 67)" stroke-width="2px" d="M33.33333333333333,7.804465611775726L35,-164.43221346537274L36.666666666666664,56.34289487202963L38.33333333333333,118.71856435139975L40,24.254510243733705L41.66666666666667,67.10796864827475L43.33333333333333,-30.852578481038393L45,29.113372166951507L46.666666666666664,103.03226629892985L48.333333333333336,88.0799872080485L50,99.1763973236084L51.666666666666664,93.42934544881186L53.333333333333336,-24.75821050008136L54.99999999999999,75.68929100036621L56.666666666666664,-32.4792512257894L58.333333333333336,-11.998554229736328L60,55.0224634806315L61.666666666666664,63.31596247355142L63.333333333333336,68.50124677022299L65,40.19999186197916L66.66666666666666,-30.709810892740876L68.33333333333333,-37.331923802693694L70,96.66346645355225L71.66666666666667,129.37913195292154L73.33333333333333,135.88790480295816L75,53.021354039510086L76.66666666666666,-12.86577542622885L78.33333333333334,52.32743453979492L80,-61.90933036804199L81.66666666666666,57.497114181518555L83.33333333333334,-29.559492746988923L85,73.44300842285156L86.66666666666666,40.940200169881194L88.33333333333334,6.56865946451822L90,77.67033195495605L91.66666666666667,104.76794656117757L93.33333333333333,42.43483352661133L95,35.056382497151674L96.66666666666667,12.263420740763365L98.33333333333333,131.69203440348306L100,127.47789605458578L101.66666666666667,73.62133661905925L103.33333333333333,51.365760167439774L105,64.55416933695476L106.66666666666667,58.096167882283524L108.33333333333333,20.708877563476562L109.99999999999999,129.4823815027873L111.66666666666667,126.05740356445312L113.33333333333333,107.24027156829834L115.00000000000001,-27.954126358032227L116.66666666666667,71.15212504069011L118.33333333333333,87.04244645436606L120,100.24023342132568L121.66666666666667,125.20981947580972L123.33333333333333,179.15471776326498L125,67.16757392883301L126.66666666666667,142.87777741750082L128.33333333333331,43.659536361694336L130,164.80876954396567L131.66666666666666,170.6460920969645L133.33333333333331,44.84166399637857L135,125.42374579111735L136.66666666666666,25.506483713785826L138.33333333333334,9.044885635375977L140,86.87629063924153L141.66666666666666,138.1915044784546L143.33333333333334,141.63606325785318L145,49.440123240153L146.66666666666666,133.94611930847168L148.33333333333334,34.52649943033856L150,106.59545421600342L151.66666666666666,38.88004811604816L153.33333333333331,163.8553851445516L155.00000000000003,38.90686861673993L156.66666666666669,124.18265056610107L158.33333333333334,90.03833389282227L160,165.10752741495767L161.66666666666666,64.35573514302571L163.33333333333331,98.20658302307129L165,124.20645141601562L166.66666666666669,163.16041533152261L168.33333333333334,75.50139745076498L170,151.62853781382242L171.66666666666666,190.86599254608154L173.33333333333331,163.83824253082275L175,126.03973579406738L176.66666666666669,146.31188933054605L178.33333333333334,163.8478266398112L180,69.31674003601074L181.66666666666666,16.506874084472656L183.33333333333334,128.39013067881265L185,115.98855622609457L186.66666666666666,36.2523142496745L188.33333333333334,112.37801043192546L190,148.4457883834839L191.66666666666666,120.27242787679036L193.33333333333334,107.08475017547607L195,139.26428699493408L196.66666666666666,128.80160967508954L198.33333333333331,145.93417040506998L200,139.51788139343262L201.66666666666669,25.80777359008789L203.33333333333334,148.49187088012695L205,126.3156681060791L206.66666666666666,78.45761680603027L208.33333333333331,165.61030864715576L210,149.87239519755045L211.66666666666669,80.31854693094888L213.33333333333334,142.53100522359213L215,167.93343289693198L216.66666666666666,153.19206047058105L218.33333333333331,88.46498330434163L219.99999999999997,101.59011109670003L221.66666666666669,115.65641339619954L223.33333333333334,67.82942136128744L225,103.71232541402182L226.66666666666666,72.53718821207681L228.33333333333331,183.2722085316976L230.00000000000003,104.61205005645752L231.66666666666669,154.89049212137857L233.33333333333334,135.1948480606079L235,102.76012261708578L236.66666666666666,151.0907023747762L238.33333333333331,185.96485551198325L240,145.214630762736L241.66666666666669,166.31846364339194L243.33333333333334,199.5870065689087L245,184.69217586517334L246.66666666666666,116.56911691029866L248.33333333333331,106.96282005310059L250,122.45280329386392L251.66666666666669,147.58231830596924L253.33333333333334,144.0533218383789L255,122.14348602294922L256.66666666666663,131.16400814056396L258.33333333333337,126.43330319722493L260,118.21000639597574L261.6666666666667,82.16347853342693L263.3333333333333,135.28354326883954L265,139.9900722503662L266.66666666666663,167.027143796285L268.33333333333337,92.75615088144939L270,176.29775301615396L271.6666666666667,179.9704548517863L273.3333333333333,151.71440092722574L275,170.8360112508138L276.6666666666667,193.1263043085734L278.33333333333337,160.35819816589355L280,177.88528283437094L281.6666666666667,110.50672721862793" style="fill: none;" fill="none"></path></g></g></g></g></g></g><g transform="translate(30, 177)" clip-path="url(#clip_1)"><clipPath id="clip_1"><rect width="300" height="23"></rect></clipPath><g><g><line x1="0" y1="0" x2="0" y2="5" style="visibility: inherit;" fill="rgb(0, 0, 0)" stroke="rgb(204, 204, 204)" stroke-width="1px"></line><line x1="33.33333333333333" y1="0" x2="33.33333333333333" y2="5" style="visibility: inherit;" fill="rgb(0, 0, 0)" stroke="rgb(204, 204, 204)" stroke-width="1px"></line><line x1="66.66666666666666" y1="0" x2="66.66666666666666" y2="5" style="visibility: inherit;" fill="rgb(0, 0, 0)" stroke="rgb(204, 204, 204)" stroke-width="1px"></line><line x1="100" y1="0" x2="100" y2="5" style="visibility: inherit;" fill="rgb(0, 0, 0)" stroke="rgb(204, 204, 204)" stroke-width="1px"></line><line x1="133.33333333333331" y1="0" x2="133.33333333333331" y2="5" style="visibility: inherit;" fill="rgb(0, 0, 0)" stroke="rgb(204, 204, 204)" stroke-width="1px"></line><line x1="166.66666666666669" y1="0" x2="166.66666666666669" y2="5" style="visibility: inherit;" fill="rgb(0, 0, 0)" stroke="rgb(204, 204, 204)" stroke-width="1px"></line><line x1="200" y1="0" x2="200" y2="5" style="visibility: inherit;" fill="rgb(0, 0, 0)" stroke="rgb(204, 204, 204)" stroke-width="1px"></line><line x1="233.33333333333334" y1="0" x2="233.33333333333334" y2="5" style="visibility: inherit;" fill="rgb(0, 0, 0)" stroke="rgb(204, 204, 204)" stroke-width="1px"></line><line x1="266.66666666666663" y1="0" x2="266.66666666666663" y2="5" style="visibility: inherit;" fill="rgb(0, 0, 0)" stroke="rgb(204, 204, 204)" stroke-width="1px"></line><line x1="300" y1="0" x2="300" y2="5" style="visibility: inherit;" fill="rgb(0, 0, 0)" stroke="rgb(204, 204, 204)" stroke-width="1px"></line></g><g transform="translate(0, 8)"><text x="0" y="0" dx="0em" dy="0.95em" style="text-anchor: middle; visibility: hidden; font-family: &quot;Helvetica Neue&quot;, sans-serif; font-size: 12px; font-weight: 200;" fill="rgb(33, 33, 33)" stroke="none" stroke-width="1px">-20</text><text x="33.33333333333333" y="0" dx="0em" dy="0.95em" style="text-anchor: middle; visibility: inherit; font-family: &quot;Helvetica Neue&quot;, sans-serif; font-size: 12px; font-weight: 200;" fill="rgb(33, 33, 33)" stroke="none" stroke-width="1px">0</text><text x="66.66666666666666" y="0" dx="0em" dy="0.95em" style="text-anchor: middle; visibility: inherit; font-family: &quot;Helvetica Neue&quot;, sans-serif; font-size: 12px; font-weight: 200;" fill="rgb(33, 33, 33)" stroke="none" stroke-width="1px">20</text><text x="100" y="0" dx="0em" dy="0.95em" style="text-anchor: middle; visibility: inherit; font-family: &quot;Helvetica Neue&quot;, sans-serif; font-size: 12px; font-weight: 200;" fill="rgb(33, 33, 33)" stroke="none" stroke-width="1px">40</text><text x="133.33333333333331" y="0" dx="0em" dy="0.95em" style="text-anchor: middle; visibility: inherit; font-family: &quot;Helvetica Neue&quot;, sans-serif; font-size: 12px; font-weight: 200;" fill="rgb(33, 33, 33)" stroke="none" stroke-width="1px">60</text><text x="166.66666666666669" y="0" dx="0em" dy="0.95em" style="text-anchor: middle; visibility: inherit; font-family: &quot;Helvetica Neue&quot;, sans-serif; font-size: 12px; font-weight: 200;" fill="rgb(33, 33, 33)" stroke="none" stroke-width="1px">80</text><text x="200" y="0" dx="0em" dy="0.95em" style="text-anchor: middle; visibility: inherit; font-family: &quot;Helvetica Neue&quot;, sans-serif; font-size: 12px; font-weight: 200;" fill="rgb(33, 33, 33)" stroke="none" stroke-width="1px">100</text><text x="233.33333333333334" y="0" dx="0em" dy="0.95em" style="text-anchor: middle; visibility: inherit; font-family: &quot;Helvetica Neue&quot;, sans-serif; font-size: 12px; font-weight: 200;" fill="rgb(33, 33, 33)" stroke="none" stroke-width="1px">120</text><text x="266.66666666666663" y="0" dx="0em" dy="0.95em" style="text-anchor: middle; visibility: inherit; font-family: &quot;Helvetica Neue&quot;, sans-serif; font-size: 12px; font-weight: 200;" fill="rgb(33, 33, 33)" stroke="none" stroke-width="1px">140</text><text x="300" y="0" dx="0em" dy="0.95em" style="text-anchor: middle; visibility: hidden; font-family: &quot;Helvetica Neue&quot;, sans-serif; font-size: 12px; font-weight: 200;" fill="rgb(33, 33, 33)" stroke="none" stroke-width="1px">160</text></g><line x1="0" y1="0" x2="300" y2="0" fill="rgb(0, 0, 0)" stroke="rgb(204, 204, 204)" stroke-width="1px"></line></g></g></g></g></svg>