<svg viewBox="0 0 330 200" xmlns="http://www.w3.org/2000/svg"><g><g><g><g><g><line x1="40" y1="177" x2="35" y2="177" style="visibility: inherit;" fill="rgb(0, 0, 0)" stroke="rgb(204, 204, 204)" stroke-width="1px"></line><line x1="40" y1="162.25" x2="35" y2="162.25" style="visibility: inherit;" fill="rgb(0, 0, 0)" stroke="rgb(204, 204, 204)" stroke-width="1px"></line><line x1="40" y1="147.5" x2="35" y2="147.5" style="visibility: inherit;" fill="rgb(0, 0, 0)" stroke="rgb(204, 204, 204)" stroke-width="1px"></line><line x1="40" y1="132.75" x2="35" y2="132.75" style="visibility: inherit;" fill="rgb(0, 0, 0)" stroke="rgb(204, 204, 204)" stroke-width="1px"></line><line x1="40" y1="117.99999999999997" x2="35" y2="117.99999999999997" style="visibility: inherit;" fill="rgb(0, 0, 0)" stroke="rgb(204, 204, 204)" stroke-width="1px"></line><line x1="40" y1="103.25" x2="35" y2="103.25" style="visibility: inherit;" fill="rgb(0, 0, 0)" stroke="rgb(204, 204, 204)" stroke-width="1px"></line><line x1="40" y1="88.49999999999999" x2="35" y2="88.49999999999999" style="visibility: inherit;" fill="rgb(0, 0, 0)" stroke="rgb(204, 204, 204)" stroke-width="1px"></line><line x1="40" y1="73.75" x2="35" y2="73.75" style="visibility: inherit;" fill="rgb(0, 0, 0)" stroke="rgb(204, 204, 204)" stroke-width="1px"></line><line x1="40" y1="58.999999999999986" x2="35" y2="58.999999999999986" style="visibility: inherit;" fill="rgb(0, 0, 0)" stroke="rgb(204, 204, 204)" stroke-width="1px"></line><line x1="40" y1="44.24999999999997" x2="35" y2="44.24999999999997" style="visibility: inherit;" fill="rgb(0, 0, 0)" stroke="rgb(204, 204, 204)" stroke-width="1px"></line><line x1="40" y1="29.5" x2="35" y2="29.5" style="visibility: inherit;" fill="rgb(0, 0, 0)" stroke="rgb(204, 204, 204)" stroke-width="1px"></line><line x1="40" y1="14.75" x2="35" y2="14.75" style="visibility: inherit;" fill="rgb(0, 0, 0)" stroke="rgb(204, 204, 204)" stroke-width="1px"></line><line x1="40" y1="0" x2="35" y2="0" style="visibility: inherit;" fill="rgb(0, 0, 0)" stroke="rgb(204, 204, 204)" stroke-width="1px"></line></g><g transform="translate(30, 0)"><text x="0" y="177" dx="0em" dy="0.3em" style="text-anchor: end; visibility: hidden; font-family: &quot;Helvetica Neue&quot;, sans-serif; font-size: 12px; font-weight: 200;" fill="rgb(33, 33, 33)" stroke="none" stroke-width="1px">1.4</text><text x="0" y="162.25" dx="0em" dy="0.3em" style="text-anchor: end; visibility: inherit; font-family: &quot;Helvetica Neue&quot;, sans-serif; font-size: 12px; font-weight: 200;" fill="rgb(33, 33, 33)" stroke="none" stroke-width="1px">1.6</text><text x="0" y="147.5" dx="0em" dy="0.3em" style="text-anchor: end; visibility: hidden; font-family: &quot;Helvetica Neue&quot;, sans-serif; font-size: 12px; font-weight: 200;" fill="rgb(33, 33, 33)" stroke="none" stroke-width="1px">1.8</text><text x="0" y="132.75" dx="0em" dy="0.3em" style="text-anchor: end; visibility: inherit; font-family: &quot;Helvetica Neue&quot;, sans-serif; font-size: 12px; font-weight: 200;" fill="rgb(33, 33, 33)" stroke="none" stroke-width="1px">2</text><text x="0" y="117.99999999999997" dx="0em" dy="0.3em" style="text-anchor: end; visibility: hidden; font-family: &quot;Helvetica Neue&quot;, sans-serif; font-size: 12px; font-weight: 200;" fill="rgb(33, 33, 33)" stroke="none" stroke-width="1px">2.2</text><text x="0" y="103.25" dx="0em" dy="0.3em" style="text-anchor: end; visibility: inherit; font-family: &quot;Helvetica Neue&quot;, sans-serif; font-size: 12px; font-weight: 200;" fill="rgb(33, 33, 33)" stroke="none" stroke-width="1px">2.4</text><text x="0" y="88.49999999999999" dx="0em" dy="0.3em" style="text-anchor: end; visibility: hidden; font-family: &quot;Helvetica Neue&quot;, sans-serif; font-size: 12px; font-weight: 200;" fill="rgb(33, 33, 33)" stroke="none" stroke-width="1px">2.6</text><text x="0" y="73.75" dx="0em" dy="0.3em" style="text-anchor: end; visibility: inherit; font-family: &quot;Helvetica Neue&quot;, sans-serif; font-size: 12px; font-weight: 200;" fill="rgb(33, 33, 33)" stroke="none" stroke-width="1px">2.8</text><text x="0" y="58.999999999999986" dx="0em" dy="0.3em" style="text-anchor: end; visibility: hidden; font-family: &quot;Helvetica Neue&quot;, sans-serif; font-size: 12px; font-weight: 200;" fill="rgb(33, 33, 33)" stroke="none" stroke-width="1px">3</text><text x="0" y="44.24999999999997" dx="0em" dy="0.3em" style="text-anchor: end; visibility: inherit; font-family: &quot;Helvetica Neue&quot;, sans-serif; font-size: 12px; font-weight: 200;" fill="rgb(33, 33, 33)" stroke="none" stroke-width="1px">3.2</text><text x="0" y="29.5" dx="0em" dy="0.3em" style="text-anchor: end; visibility: hidden; font-family: &quot;Helvetica Neue&quot;, sans-serif; font-size: 12px; font-weight: 200;" fill="rgb(33, 33, 33)" stroke="none" stroke-width="1px">3.4</text><text x="0" y="14.75" dx="0em" dy="0.3em" style="text-anchor: end; visibility: inherit; font-family: &quot;Helvetica Neue&quot;, sans-serif; font-size: 12px; font-weight: 200;" fill="rgb(33, 33, 33)" stroke="none" stroke-width="1px">3.6</text><text x="0" y="0" dx="0em" dy="0.3em" style="text-anchor: end; visibility: hidden; font-family: &quot;Helvetica Neue&quot;, sans-serif; font-size: 12px; font-weight: 200;" fill="rgb(33, 33, 33)" stroke="none" stroke-width="1px">3.8</text></g><line x1="40" y1="0" x2="40" y2="177" fill="rgb(0, 0, 0)" stroke="rgb(204, 204, 204)" stroke-width="1px"></line></g></g><g transform="translate(40, 0)" clip-path="url(#clip_0)"><clipPath id="clip_0"><rect width="290" height="177"></rect></clipPath><g><g><g><line x1="0" y1="0" x2="0" y2="177" fill="rgb(0, 0, 0)" stroke="rgb(66, 66, 66)" stroke-width="1px" opacity="0.25"></line><line x1="32.22222222222222" y1="0" x2="32.22222222222222" y2="177" fill="rgb(0, 0, 0)" stroke="rgb(66, 66, 66)" stroke-width="1px" opacity="0.25"></line><line x1="64.44444444444444" y1="0" x2="64.44444444444444" y2="177" fill="rgb(0, 0, 0)" stroke="rgb(66, 66, 66)" stroke-width="1px" opacity="0.25"></line><line x1="96.66666666666666" y1="0" x2="96.66666666666666" y2="177" fill="rgb(0, 0, 0)" stroke="rgb(66, 66, 66)" stroke-width="1px" opacity="0.25"></line><line x1="128.88888888888889" y1="0" x2="128.88888888888889" y2="177" fill="rgb(0, 0, 0)" stroke="rgb(66, 66, 66)" stroke-width="1px" opacity="0.25"></line><line x1="161.11111111111111" y1="0" x2="161.11111111111111" y2="177" fill="rgb(0, 0, 0)" stroke="rgb(66, 66, 66)" stroke-width="1px" opacity="0.25"></line><line x1="193.33333333333331" y1="0" x2="193.33333333333331" y2="177" fill="rgb(0, 0, 0)" stroke="rgb(66, 66, 66)" stroke-width="1px" opacity="0.25"></line><line x1="225.55555555555557" y1="0" x2="225.55555555555557" y2="177" fill="rgb(0, 0, 0)" stroke="rgb(66, 66, 66)" stroke-width="1px" opacity="0.25"></line><line x1="257.77777777777777" y1="0" x2="257.77777777777777" y2="177" fill="rgb(0, 0, 0)" stroke="rgb(66, 66, 66)" stroke-width="1px" opacity="0.25"></line><line x1="290" y1="0" x2="290" y2="177" fill="rgb(0, 0, 0)" stroke="rgb(66, 66, 66)" stroke-width="1px" opacity="0.25"></line></g><g><line x1="0" y1="177" x2="290" y2="177" fill="rgb(0, 0, 0)" stroke="rgb(66, 66, 66)" stroke-width="1px" opacity="0.25"></line><line x1="0" y1="162.25" x2="290" y2="162.25" fill="rgb(0, 0, 0)" stroke="rgb(66, 66, 66)" stroke-width="1px" opacity="0.25"></line><line x1="0" y1="147.5" x2="290" y2="147.5" fill="rgb(0, 0, 0)" stroke="rgb(66, 66, 66)" stroke-width="1px" opacity="0.25"></line><line x1="0" y1="132.75" x2="290" y2="132.75" fill="rgb(0, 0, 0)" stroke="rgb(66, 66, 66)" stroke-width="1px" opacity="0.25"></line><line x1="0" y1="117.99999999999997" x2="290" y2="117.99999999999997" fill="rgb(0, 0, 0)" stroke="rgb(66, 66, 66)" stroke-width="1px" opacity="0.25"></line><line x1="0" y1="103.25" x2="290" y2="103.25" fill="rgb(0, 0, 0)" stroke="rgb(66, 66, 66)" stroke-width="1px" opacity="0.25"></line><line x1="0" y1="88.49999999999999" x2="290" y2="88.49999999999999" fill="rgb(0, 0, 0)" stroke="rgb(66, 66, 66)" stroke-width="1px" opacity="0.25"></line><line x1="0" y1="73.75" x2="290" y2="73.75" fill="rgb(0, 0, 0)" stroke="rgb(66, 66, 66)" stroke-width="1px" opacity="0.25"></line><line x1="0" y1="58.999999999999986" x2="290" y2="58.999999999999986" fill="rgb(0, 0, 0)" stroke="rgb(66, 66, 66)" stroke-width="1px" opacity="0.25"></line><line x1="0" y1="44.24999999999997" x2="290" y2="44.24999999999997" fill="rgb(0, 0, 0)" stroke="rgb(66, 66, 66)" stroke-width="1px" opacity="0.25"></line><line x1="0" y1="29.5" x2="290" y2="29.5" fill="rgb(0, 0, 0)" stroke="rgb(66, 66, 66)" stroke-width="1px" opacity="0.25"></line><line x1="0" y1="14.75" x2="290" y2="14.75" fill="rgb(0, 0, 0)" stroke="rgb(66, 66, 66)" stroke-width="1px" opacity="0.25"></line><line x1="0" y1="0" x2="290" y2="0" fill="rgb(0, 0, 0)" stroke="rgb(66, 66, 66)" stroke-width="1px" opacity="0.25"></line></g></g></g><g><g><line x1="0" y1="280.25" x2="290" y2="280.25" fill="rgb(0, 0, 0)" stroke="rgb(153, 153, 153)" stroke-width="1.5px"></line></g></g><g><g><line x1="32.22222222222222" y1="0" x2="32.22222222222222" y2="177" fill="rgb(0, 0, 0)" stroke="rgb(153, 153, 153)" stroke-width="1.5px"></line></g></g><g><g><g><g><g><path stroke="rgb(255, 112, 67)" stroke-width="2px" d="M32.22222222222222,129.3052243590355L33.833333333333336,154.3977651335299L35.44444444444444,146.47742629476954L37.05555555555555,147.84518727934096L38.666666666666664,99.76998151471676L40.27777777777778,87.90558098421842L41.888888888888886,93.11908936774405L43.5,144.00074440160415L45.111111111111114,83.012159512793L46.72222222222223,79.80636914652162L48.33333333333333,87.36543901989494L49.94444444444444,73.11533233976382L51.55555555555556,48.31710456664311L53.166666666666664,60.6312013219933L54.77777777777778,85.45956182880208L56.38888888888889,92.84262971723047L58,98.32035976909961L59.61111111111111,47.957497386994675L61.22222222222222,28.000452416130315L62.833333333333336,-6.743744586474065L64.44444444444444,37.08331620739901L66.05555555555556,71.27527568516967L67.66666666666667,67.9864105713629L69.27777777777779,77.23930622984741L70.88888888888889,104.44338689852735L72.5,118.69937054222638L74.1111111111111,113.008452479244L75.72222222222223,36.87264963571505L77.33333333333333,83.69689598743278L78.94444444444444,109.9349133028597L80.55555555555556,142.41364781452904L82.16666666666667,139.83139119097186L83.77777777777777,134.97437667034185L85.38888888888889,75.83844448878382L87,92.08510856992827L88.61111111111111,48.449037800167616L90.22222222222223,41.85398305741498L91.83333333333333,135.25542965217764L93.44444444444446,90.355361163029L95.05555555555556,119.51098000097033L96.66666666666666,158.22817368088727L98.27777777777779,179.44613820607447L99.88888888888889,128.95985853582212L101.5,152.93682431344084L103.11111111111111,112.90720290223244L104.72222222222221,171.80187899110155L106.33333333333333,198.23392527939905L107.94444444444444,190.46141471631972L109.55555555555556,168.50508226226583L111.16666666666667,93.41742294531457L112.77777777777779,153.00055693715734L114.38888888888889,139.1909575886916L116,115.20644152323533L117.61111111111111,104.45231747721577L119.22222222222221,124.23496638594288L120.83333333333334,161.81655094540474L122.44444444444444,139.59777165362544L124.05555555555554,85.57736864631221L125.66666666666667,89.86489800777973L127.27777777777777,90.39005019764276L128.88888888888889,86.93132123053167L130.5,86.443580846191L132.11111111111111,56.07795084726811L133.72222222222223,47.96684444673056L135.33333333333334,62.61176429228313L136.94444444444443,88.48072825691898L138.55555555555557,131.5138564993251L140.16666666666666,185.65120783980544L141.77777777777777,154.28458406648548L143.38888888888889,108.22359460664691L145,166.5982656572634L146.61111111111111,153.31596848335113L148.2222222222222,161.50899197439102L149.83333333333334,101.58757377731648L151.44444444444446,27.361057192491558L153.05555555555557,77.55184415007056L154.66666666666666,95.75763773336661L156.27777777777777,82.53662161478191L157.88888888888889,98.98654787807935L159.5,17.698488861735285L161.11111111111111,44.83394884491895L162.72222222222223,59.396710630803895L164.33333333333334,62.74694967064238L165.94444444444443,84.47716631765947L167.55555555555554,80.17651781008115L169.16666666666669,98.39638352731149L170.77777777777777,110.79624710285235L172.38888888888889,80.73486670138576L174,111.6417819874414L175.6111111111111,132.3331244121151L177.22222222222223,141.35213446200828L178.83333333333334,139.5840746020135L180.44444444444446,104.85578652947284L182.05555555555554,153.2443241639682L183.66666666666666,152.0888046004622L185.27777777777777,113.64996130336813L186.8888888888889,120.91689283293184L188.5,138.55051285410937L190.11111111111111,133.83036054602275L191.72222222222223,100.15337344068891L193.33333333333331,27.64732439552907L194.94444444444446,9.009843917102614L196.55555555555557,81.35178936207949L198.16666666666666,37.190035752562636L199.77777777777777,96.92526336437938L201.38888888888889,106.21463878110931L203,130.07898508999278L204.61111111111111,62.99296805556733L206.22222222222223,48.84535494623253L207.83333333333334,9.461504454479638L209.44444444444443,66.83809017840984L211.05555555555554,100.1323653561113L212.66666666666666,93.6726252378367L214.2777777777778,116.9480860079135L215.88888888888889,87.3044662144664L217.5,151.51938575904865L219.11111111111111,128.972349848755L220.7222222222222,31.125735072140543L222.33333333333334,49.731486313250414L223.94444444444446,39.5985217289369L225.55555555555557,-25.63930338643553L227.16666666666666,52.589178025588026L228.77777777777777,68.57788950196779L230.38888888888889,33.00213912720605L232,20.66874286887125L233.61111111111111,-1.9685230412657404L235.22222222222223,40.45790480622196L236.83333333333334,6.7149709644826885L238.44444444444443,28.627296005661066L240.05555555555554,7.095431968554692L241.66666666666669,-23.838510367283305L243.27777777777777,25.758339468831366L244.88888888888889,51.880278744813566L246.5,104.80020399005218L248.1111111111111,148.76746708816887L249.72222222222223,157.44447637001636L251.33333333333334,120.37526276349999L252.94444444444446,114.71033026361451L254.55555555555554,98.6851183508872L256.1666666666667,70.45747336954106L257.77777777777777,56.51907606846231L259.3888888888889,122.90233957723464L261,172.36819995317273L262.6111111111111,72.33990209623224L264.22222222222223,84.24525864913493L265.8333333333333,51.654845619168455L267.44444444444446,61.81204837797081L269.05555555555554,83.11171602152581L270.6666666666667,127.52216742600677L272.27777777777777,96.59346844056654" style="fill: none;" fill="none"></path></g></g></g></g><g opacity="0.2"><g><g><g><path stroke="rgb(255, 112, 67)" stroke-width="2px" d="M32.22222222222222,129.3052243590355L33.833333333333336,169.45328959822655L35.44444444444444,138.87390100955963L37.05555555555555,149.45367419719696L38.666666666666664,37.00299286842346L40.27777777777778,71.49284386634827L41.888888888888886,100.57448977231978L43.5,218.1866859048605L45.111111111111114,-6.934156775474548L46.72222222222223,75.04614406824112L48.33333333333333,98.63548362255095L49.94444444444444,51.81772077083586L51.55555555555556,11.200733423233032L53.166666666666664,79.07822185754775L54.77777777777778,122.67291778326033L56.38888888888889,103.91202443838118L58,106.53463685512543L59.61111111111111,-27.57400906085968L62.833333333333336,-58.85686433315277L64.44444444444444,102.82150381803513L66.05555555555556,122.56208980083464L67.66666666666667,63.053177833557115L69.27777777777779,91.11854010820387L70.88888888888889,145.24931454658508L72.5,140.08328521251678L74.1111111111111,104.47208994626997L75.72222222222223,-77.33093774318698L77.33333333333333,153.93322238326073L78.94444444444444,149.29192477464676L80.55555555555556,191.13173881173134L82.16666666666667,135.95800676941872L83.77777777777777,127.68885546922684L85.38888888888889,-12.865449547767668L87,116.45510399341582L88.61111111111111,-17.005067229270963L90.22222222222223,31.961401045322418L91.83333333333333,275.35759867727757L93.44444444444446,23.005258679389954L95.05555555555556,163.24440816044807L96.66666666666666,216.30396412312984L98.27777777777779,211.27308496832848L99.88888888888889,53.2304390668869L101.5,188.90227296948433L103.11111111111111,52.862770795822144L104.72222222222221,260.14389311522245L107.94444444444444,178.80264887213707L109.55555555555556,135.57058358192444L111.16666666666667,-19.21406602859497L112.77777777777779,242.3752579241991L114.38888888888889,118.47655856609344L116,79.22966742515563L117.61111111111111,88.32113140821457L119.22222222222221,153.90893974900246L120.83333333333334,218.1889277845621L122.44444444444444,106.26960271596907L124.05555555555554,4.546764135360689L125.66666666666667,96.29619204998015L127.27777777777777,91.17777848243712L128.88888888888889,81.74322777986525L130.5,85.71197026968001L132.11111111111111,10.529505848884583L133.72222222222223,35.80018484592438L135.33333333333334,84.57914406061172L136.94444444444443,127.28417420387267L138.55555555555557,196.0635488629341L140.16666666666666,266.85723485052586L141.77777777777777,107.23464840650557L143.38888888888889,39.13211041688916L145,254.16027223318815L146.61111111111111,133.39252272248268L148.2222222222222,173.79852721095085L149.83333333333334,11.705446481704712L151.44444444444446,-83.97871768474579L153.05555555555557,152.83802458643913L154.66666666666666,123.06632810831069L156.27777777777777,62.70509743690491L157.88888888888889,123.66143727302551L159.5,-104.23359966278076L161.11111111111111,85.53713881969452L162.72222222222223,81.24085330963135L164.33333333333334,67.77230823040007L165.94444444444443,117.0724912881851L167.55555555555554,73.72554504871368L169.16666666666669,125.72618210315704L170.77777777777777,129.39604246616364L172.38888888888889,35.642796099185915L174,158.0021549165249L175.6111111111111,163.37013804912567L177.22222222222223,154.88064953684807L178.83333333333334,136.93198481202126L180.44444444444446,52.76335442066191L182.05555555555554,225.8271306157112L183.66666666666666,150.35552525520325L185.27777777777777,55.99169635772705L186.8888888888889,131.81729012727737L188.5,165.0009428858757L190.11111111111111,126.75013208389281L191.72222222222223,49.63789278268814L193.33333333333331,-81.1117491722107L199.77777777777777,186.5281047821045L201.38888888888889,120.14870190620422L203,165.87550455331802L204.61111111111111,-37.63605749607089L206.22222222222223,27.62393528223035L207.83333333333334,-49.61427128314972L209.44444444444443,152.90296876430511L211.05555555555554,150.0737781226635L212.66666666666666,83.9830150604248L214.2777777777778,151.86127716302872L215.88888888888889,42.83903652429581L217.5,247.841765075922L219.11111111111111,95.15179598331451L220.7222222222222,-115.64418709278107L222.33333333333334,77.6401131749153L223.94444444444446,24.399074852466583L225.55555555555557,-123.49604105949402L227.16666666666666,169.93190014362335L228.77777777777777,92.56095671653746L230.38888888888889,-20.361486434936523L232,2.1686484813690186L233.61111111111111,-35.92442190647128L235.22222222222223,104.0975465774536L236.83333333333334,-43.89942979812622L238.44444444444443,61.495783567428575L240.05555555555554,-25.202364087104797L241.66666666666669,-70.23942387104037L243.27777777777777,100.15361422300339L244.88888888888889,91.06318765878677L246.5,184.18009185791016L248.1111111111111,214.71836173534393L249.72222222222223,170.45999029278755L251.33333333333334,64.77144235372542L252.94444444444446,106.2129315137863L254.55555555555554,74.64730048179626L256.1666666666667,28.116005897521973L257.77777777777777,35.61148011684418L259.3888888888889,222.47723484039307L262.6111111111111,-77.70254468917847L264.22222222222223,102.10329347848891L265.8333333333333,2.76922607421875L267.44444444444446,77.04785251617432L269.05555555555554,115.06121748685837L270.6666666666667,194.1378445327282L272.27777777777777,50.20041996240616" style="fill: none;" fill="none"></path></g></g></g></g></g></g><g transform="translate(40, 177)" clip-path="url(#clip_1)"><clipPath id="clip_1"><rect width="290" height="23"></rect></clipPath><g><g><line x1="0" y1="0" x2="0" y2="5" style="visibility: inherit;" fill="rgb(0, 0, 0)" stroke="rgb(204, 204, 204)" stroke-width="1px"></line><line x1="32.22222222222222" y1="0" x2="32.22222222222222" y2="5" style="visibility: inherit;" fill="rgb(0, 0, 0)" stroke="rgb(204, 204, 204)" stroke-width="1px"></line><line x1="64.44444444444444" y1="0" x2="64.44444444444444" y2="5" style="visibility: inherit;" fill="rgb(0, 0, 0)" stroke="rgb(204, 204, 204)" stroke-width="1px"></line><line x1="96.66666666666666" y1="0" x2="96.66666666666666" y2="5" style="visibility: inherit;" fill="rgb(0, 0, 0)" stroke="rgb(204, 204, 204)" stroke-width="1px"></line><line x1="128.88888888888889" y1="0" x2="128.88888888888889" y2="5" style="visibility: inherit;" fill="rgb(0, 0, 0)" stroke="rgb(204, 204, 204)" stroke-width="1px"></line><line x1="161.11111111111111" y1="0" x2="161.11111111111111" y2="5" style="visibility: inherit;" fill="rgb(0, 0, 0)" stroke="rgb(204, 204, 204)" stroke-width="1px"></line><line x1="193.33333333333331" y1="0" x2="193.33333333333331" y2="5" style="visibility: inherit;" fill="rgb(0, 0, 0)" stroke="rgb(204, 204, 204)" stroke-width="1px"></line><line x1="225.55555555555557" y1="0" x2="225.55555555555557" y2="5" style="visibility: inherit;" fill="rgb(0, 0, 0)" stroke="rgb(204, 204, 204)" stroke-width="1px"></line><line x1="257.77777777777777" y1="0" x2="257.77777777777777" y2="5" style="visibility: inherit;" fill="rgb(0, 0, 0)" stroke="rgb(204, 204, 204)" stroke-width="1px"></line><line x1="290" y1="0" x2="290" y2="5" style="visibility: inherit;" fill="rgb(0, 0, 0)" stroke="rgb(204, 204, 204)" stroke-width="1px"></line></g><g transform="translate(0, 8)"><text x="0" y="0" dx="0em" dy="0.95em" style="text-anchor: middle; visibility: hidden; font-family: &quot;Helvetica Neue&quot;, sans-serif; font-size: 12px; font-weight: 200;" fill="rgb(33, 33, 33)" stroke="none" stroke-width="1px">-20</text><text x="32.22222222222222" y="0" dx="0em" dy="0.95em" style="text-anchor: middle; visibility: inherit; font-family: &quot;Helvetica Neue&quot;, sans-serif; font-size: 12px; font-weight: 200;" fill="rgb(33, 33, 33)" stroke="none" stroke-width="1px">0</text><text x="64.44444444444444" y="0" dx="0em" dy="0.95em" style="text-anchor: middle; visibility: inherit; font-family: &quot;Helvetica Neue&quot;, sans-serif; font-size: 12px; font-weight: 200;" fill="rgb(33, 33, 33)" stroke="none" stroke-width="1px">20</text><text x="96.66666666666666" y="0" dx="0em" dy="0.95em" style="text-anchor: middle; visibility: inherit; font-family: &quot;Helvetica Neue&quot;, sans-serif; font-size: 12px; font-weight: 200;" fill="rgb(33, 33, 33)" stroke="none" stroke-width="1px">40</text><text x="128.88888888888889" y="0" dx="0em" dy="0.95em" style="text-anchor: middle; visibility: inherit; font-family: &quot;Helvetica Neue&quot;, sans-serif; font-size: 12px; font-weight: 200;" fill="rgb(33, 33, 33)" stroke="none" stroke-width="1px">60</text><text x="161.11111111111111" y="0" dx="0em" dy="0.95em" style="text-anchor: middle; visibility: inherit; font-family: &quot;Helvetica Neue&quot;, sans-serif; font-size: 12px; font-weight: 200;" fill="rgb(33, 33, 33)" stroke="none" stroke-width="1px">80</text><text x="193.33333333333331" y="0" dx="0em" dy="0.95em" style="text-anchor: middle; visibility: inherit; font-family: &quot;Helvetica Neue&quot;, sans-serif; font-size: 12px; font-weight: 200;" fill="rgb(33, 33, 33)" stroke="none" stroke-width="1px">100</text><text x="225.55555555555557" y="0" dx="0em" dy="0.95em" style="text-anchor: middle; visibility: inherit; font-family: &quot;Helvetica Neue&quot;, sans-serif; font-size: 12px; font-weight: 200;" fill="rgb(33, 33, 33)" stroke="none" stroke-width="1px">120</text><text x="257.77777777777777" y="0" dx="0em" dy="0.95em" style="text-anchor: middle; visibility: inherit; font-family: &quot;Helvetica Neue&quot;, sans-serif; font-size: 12px; font-weight: 200;" fill="rgb(33, 33, 33)" stroke="none" stroke-width="1px">140</text><text x="290" y="0" dx="0em" dy="0.95em" style="text-anchor: middle; visibility: hidden; font-family: &quot;Helvetica Neue&quot;, sans-serif; font-size: 12px; font-weight: 200;" fill="rgb(33, 33, 33)" stroke="none" stroke-width="1px">160</text></g><line x1="0" y1="0" x2="290" y2="0" fill="rgb(0, 0, 0)" stroke="rgb(204, 204, 204)" stroke-width="1px"></line></g></g></g></g></svg>