<svg viewBox="0 0 330 200" xmlns="http://www.w3.org/2000/svg"><g><g><g><g><g><line x1="40" y1="177" x2="35" y2="177" style="visibility: inherit;" fill="rgb(0, 0, 0)" stroke="rgb(204, 204, 204)" stroke-width="1px"></line><line x1="40" y1="164.35714285714283" x2="35" y2="164.35714285714283" style="visibility: inherit;" fill="rgb(0, 0, 0)" stroke="rgb(204, 204, 204)" stroke-width="1px"></line><line x1="40" y1="151.7142857142857" x2="35" y2="151.7142857142857" style="visibility: inherit;" fill="rgb(0, 0, 0)" stroke="rgb(204, 204, 204)" stroke-width="1px"></line><line x1="40" y1="139.07142857142856" x2="35" y2="139.07142857142856" style="visibility: inherit;" fill="rgb(0, 0, 0)" stroke="rgb(204, 204, 204)" stroke-width="1px"></line><line x1="40" y1="126.42857142857142" x2="35" y2="126.42857142857142" style="visibility: inherit;" fill="rgb(0, 0, 0)" stroke="rgb(204, 204, 204)" stroke-width="1px"></line><line x1="40" y1="113.78571428571429" x2="35" y2="113.78571428571429" style="visibility: inherit;" fill="rgb(0, 0, 0)" stroke="rgb(204, 204, 204)" stroke-width="1px"></line><line x1="40" y1="101.14285714285714" x2="35" y2="101.14285714285714" style="visibility: inherit;" fill="rgb(0, 0, 0)" stroke="rgb(204, 204, 204)" stroke-width="1px"></line><line x1="40" y1="88.5" x2="35" y2="88.5" style="visibility: inherit;" fill="rgb(0, 0, 0)" stroke="rgb(204, 204, 204)" stroke-width="1px"></line><line x1="40" y1="75.85714285714286" x2="35" y2="75.85714285714286" style="visibility: inherit;" fill="rgb(0, 0, 0)" stroke="rgb(204, 204, 204)" stroke-width="1px"></line><line x1="40" y1="63.21428571428571" x2="35" y2="63.21428571428571" style="visibility: inherit;" fill="rgb(0, 0, 0)" stroke="rgb(204, 204, 204)" stroke-width="1px"></line><line x1="40" y1="50.57142857142859" x2="35" y2="50.57142857142859" style="visibility: inherit;" fill="rgb(0, 0, 0)" stroke="rgb(204, 204, 204)" stroke-width="1px"></line><line x1="40" y1="37.92857142857143" x2="35" y2="37.92857142857143" style="visibility: inherit;" fill="rgb(0, 0, 0)" stroke="rgb(204, 204, 204)" stroke-width="1px"></line><line x1="40" y1="25.285714285714313" x2="35" y2="25.285714285714313" style="visibility: inherit;" fill="rgb(0, 0, 0)" stroke="rgb(204, 204, 204)" stroke-width="1px"></line><line x1="40" y1="12.642857142857157" x2="35" y2="12.642857142857157" style="visibility: inherit;" fill="rgb(0, 0, 0)" stroke="rgb(204, 204, 204)" stroke-width="1px"></line><line x1="40" y1="0" x2="35" y2="0" style="visibility: inherit;" fill="rgb(0, 0, 0)" stroke="rgb(204, 204, 204)" stroke-width="1px"></line></g><g transform="translate(30, 0)"><text x="0" y="177" dx="0em" dy="0.3em" style="text-anchor: end; visibility: hidden; font-family: Roboto, sans-serif; font-size: 12px; font-weight: 200;" fill="rgb(33, 33, 33)" stroke="none" stroke-width="1px">0.7</text><text x="0" y="164.35714285714283" dx="0em" dy="0.3em" style="text-anchor: end; visibility: inherit; font-family: Roboto, sans-serif; font-size: 12px; font-weight: 200;" fill="rgb(33, 33, 33)" stroke="none" stroke-width="1px">0.8</text><text x="0" y="151.7142857142857" dx="0em" dy="0.3em" style="text-anchor: end; visibility: hidden; font-family: Roboto, sans-serif; font-size: 12px; font-weight: 200;" fill="rgb(33, 33, 33)" stroke="none" stroke-width="1px">0.9</text><text x="0" y="139.07142857142856" dx="0em" dy="0.3em" style="text-anchor: end; visibility: inherit; font-family: Roboto, sans-serif; font-size: 12px; font-weight: 200;" fill="rgb(33, 33, 33)" stroke="none" stroke-width="1px">1</text><text x="0" y="126.42857142857142" dx="0em" dy="0.3em" style="text-anchor: end; visibility: hidden; font-family: Roboto, sans-serif; font-size: 12px; font-weight: 200;" fill="rgb(33, 33, 33)" stroke="none" stroke-width="1px">1.1</text><text x="0" y="113.78571428571429" dx="0em" dy="0.3em" style="text-anchor: end; visibility: inherit; font-family: Roboto, sans-serif; font-size: 12px; font-weight: 200;" fill="rgb(33, 33, 33)" stroke="none" stroke-width="1px">1.2</text><text x="0" y="101.14285714285714" dx="0em" dy="0.3em" style="text-anchor: end; visibility: hidden; font-family: Roboto, sans-serif; font-size: 12px; font-weight: 200;" fill="rgb(33, 33, 33)" stroke="none" stroke-width="1px">1.3</text><text x="0" y="88.5" dx="0em" dy="0.3em" style="text-anchor: end; visibility: inherit; font-family: Roboto, sans-serif; font-size: 12px; font-weight: 200;" fill="rgb(33, 33, 33)" stroke="none" stroke-width="1px">1.4</text><text x="0" y="75.85714285714286" dx="0em" dy="0.3em" style="text-anchor: end; visibility: hidden; font-family: Roboto, sans-serif; font-size: 12px; font-weight: 200;" fill="rgb(33, 33, 33)" stroke="none" stroke-width="1px">1.5</text><text x="0" y="63.21428571428571" dx="0em" dy="0.3em" style="text-anchor: end; visibility: inherit; font-family: Roboto, sans-serif; font-size: 12px; font-weight: 200;" fill="rgb(33, 33, 33)" stroke="none" stroke-width="1px">1.6</text><text x="0" y="50.57142857142859" dx="0em" dy="0.3em" style="text-anchor: end; visibility: hidden; font-family: Roboto, sans-serif; font-size: 12px; font-weight: 200;" fill="rgb(33, 33, 33)" stroke="none" stroke-width="1px">1.7</text><text x="0" y="37.92857142857143" dx="0em" dy="0.3em" style="text-anchor: end; visibility: inherit; font-family: Roboto, sans-serif; font-size: 12px; font-weight: 200;" fill="rgb(33, 33, 33)" stroke="none" stroke-width="1px">1.8</text><text x="0" y="25.285714285714313" dx="0em" dy="0.3em" style="text-anchor: end; visibility: hidden; font-family: Roboto, sans-serif; font-size: 12px; font-weight: 200;" fill="rgb(33, 33, 33)" stroke="none" stroke-width="1px">1.9</text><text x="0" y="12.642857142857157" dx="0em" dy="0.3em" style="text-anchor: end; visibility: inherit; font-family: Roboto, sans-serif; font-size: 12px; font-weight: 200;" fill="rgb(33, 33, 33)" stroke="none" stroke-width="1px">2</text><text x="0" y="0" dx="0em" dy="0.3em" style="text-anchor: end; visibility: hidden; font-family: Roboto, sans-serif; font-size: 12px; font-weight: 200;" fill="rgb(33, 33, 33)" stroke="none" stroke-width="1px">2.1</text></g><line x1="40" y1="0" x2="40" y2="177" fill="rgb(0, 0, 0)" stroke="rgb(204, 204, 204)" stroke-width="1px"></line></g></g><g transform="translate(40, 0)" clip-path="url(#clip_0)"><clipPath id="clip_0"><rect width="290" height="177"></rect></clipPath><g><g><g><line x1="0" y1="0" x2="0" y2="177" fill="rgb(0, 0, 0)" stroke="rgb(66, 66, 66)" stroke-width="1px" opacity="0.25"></line><line x1="26.363636363636363" y1="0" x2="26.363636363636363" y2="177" fill="rgb(0, 0, 0)" stroke="rgb(66, 66, 66)" stroke-width="1px" opacity="0.25"></line><line x1="52.72727272727273" y1="0" x2="52.72727272727273" y2="177" fill="rgb(0, 0, 0)" stroke="rgb(66, 66, 66)" stroke-width="1px" opacity="0.25"></line><line x1="79.09090909090908" y1="0" x2="79.09090909090908" y2="177" fill="rgb(0, 0, 0)" stroke="rgb(66, 66, 66)" stroke-width="1px" opacity="0.25"></line><line x1="105.45454545454545" y1="0" x2="105.45454545454545" y2="177" fill="rgb(0, 0, 0)" stroke="rgb(66, 66, 66)" stroke-width="1px" opacity="0.25"></line><line x1="131.8181818181818" y1="0" x2="131.8181818181818" y2="177" fill="rgb(0, 0, 0)" stroke="rgb(66, 66, 66)" stroke-width="1px" opacity="0.25"></line><line x1="158.18181818181816" y1="0" x2="158.18181818181816" y2="177" fill="rgb(0, 0, 0)" stroke="rgb(66, 66, 66)" stroke-width="1px" opacity="0.25"></line><line x1="184.54545454545453" y1="0" x2="184.54545454545453" y2="177" fill="rgb(0, 0, 0)" stroke="rgb(66, 66, 66)" stroke-width="1px" opacity="0.25"></line><line x1="210.9090909090909" y1="0" x2="210.9090909090909" y2="177" fill="rgb(0, 0, 0)" stroke="rgb(66, 66, 66)" stroke-width="1px" opacity="0.25"></line><line x1="237.27272727272728" y1="0" x2="237.27272727272728" y2="177" fill="rgb(0, 0, 0)" stroke="rgb(66, 66, 66)" stroke-width="1px" opacity="0.25"></line><line x1="263.6363636363636" y1="0" x2="263.6363636363636" y2="177" fill="rgb(0, 0, 0)" stroke="rgb(66, 66, 66)" stroke-width="1px" opacity="0.25"></line><line x1="290" y1="0" x2="290" y2="177" fill="rgb(0, 0, 0)" stroke="rgb(66, 66, 66)" stroke-width="1px" opacity="0.25"></line></g><g><line x1="0" y1="177" x2="290" y2="177" fill="rgb(0, 0, 0)" stroke="rgb(66, 66, 66)" stroke-width="1px" opacity="0.25"></line><line x1="0" y1="164.35714285714283" x2="290" y2="164.35714285714283" fill="rgb(0, 0, 0)" stroke="rgb(66, 66, 66)" stroke-width="1px" opacity="0.25"></line><line x1="0" y1="151.7142857142857" x2="290" y2="151.7142857142857" fill="rgb(0, 0, 0)" stroke="rgb(66, 66, 66)" stroke-width="1px" opacity="0.25"></line><line x1="0" y1="139.07142857142856" x2="290" y2="139.07142857142856" fill="rgb(0, 0, 0)" stroke="rgb(66, 66, 66)" stroke-width="1px" opacity="0.25"></line><line x1="0" y1="126.42857142857142" x2="290" y2="126.42857142857142" fill="rgb(0, 0, 0)" stroke="rgb(66, 66, 66)" stroke-width="1px" opacity="0.25"></line><line x1="0" y1="113.78571428571429" x2="290" y2="113.78571428571429" fill="rgb(0, 0, 0)" stroke="rgb(66, 66, 66)" stroke-width="1px" opacity="0.25"></line><line x1="0" y1="101.14285714285714" x2="290" y2="101.14285714285714" fill="rgb(0, 0, 0)" stroke="rgb(66, 66, 66)" stroke-width="1px" opacity="0.25"></line><line x1="0" y1="88.5" x2="290" y2="88.5" fill="rgb(0, 0, 0)" stroke="rgb(66, 66, 66)" stroke-width="1px" opacity="0.25"></line><line x1="0" y1="75.85714285714286" x2="290" y2="75.85714285714286" fill="rgb(0, 0, 0)" stroke="rgb(66, 66, 66)" stroke-width="1px" opacity="0.25"></line><line x1="0" y1="63.21428571428571" x2="290" y2="63.21428571428571" fill="rgb(0, 0, 0)" stroke="rgb(66, 66, 66)" stroke-width="1px" opacity="0.25"></line><line x1="0" y1="50.57142857142859" x2="290" y2="50.57142857142859" fill="rgb(0, 0, 0)" stroke="rgb(66, 66, 66)" stroke-width="1px" opacity="0.25"></line><line x1="0" y1="37.92857142857143" x2="290" y2="37.92857142857143" fill="rgb(0, 0, 0)" stroke="rgb(66, 66, 66)" stroke-width="1px" opacity="0.25"></line><line x1="0" y1="25.285714285714313" x2="290" y2="25.285714285714313" fill="rgb(0, 0, 0)" stroke="rgb(66, 66, 66)" stroke-width="1px" opacity="0.25"></line><line x1="0" y1="12.642857142857157" x2="290" y2="12.642857142857157" fill="rgb(0, 0, 0)" stroke="rgb(66, 66, 66)" stroke-width="1px" opacity="0.25"></line><line x1="0" y1="0" x2="290" y2="0" fill="rgb(0, 0, 0)" stroke="rgb(66, 66, 66)" stroke-width="1px" opacity="0.25"></line></g></g></g><g><g><line x1="0" y1="265.5" x2="290" y2="265.5" fill="rgb(0, 0, 0)" stroke="rgb(153, 153, 153)" stroke-width="1.5px"></line></g></g><g><g><line x1="26.363636363636363" y1="0" x2="26.363636363636363" y2="177" fill="rgb(0, 0, 0)" stroke="rgb(153, 153, 153)" stroke-width="1.5px"></line></g></g><g><g><g><g><g><path stroke="rgb(204, 51, 17)" stroke-width="2px" d="M26.363636363636363,34.52019688061306L26.363636363636363,104.11827486364457L26.363636363636363,120.89076957191511L26.363636363636363,132.34623441626638L26.363636363636363,128.69339896269105L26.363636363636363,120.26359290684219L26.363636363636363,116.98624598678734L26.363636363636363,104.02200368794712L26.363636363636363,114.30664862484285L26.363636363636363,120.38761942717115L26.363636363636363,128.31186458539406L26.363636363636363,124.44966650446406L26.363636363636363,118.43372929035807L26.363636363636363,108.08648682688887L26.363636363636363,124.73784107481319L26.363636363636363,128.66761744076453L26.363636363636363,137.85161391805477L26.363636363636363,158.25772350030667L26.363636363636363,151.56157345771436L26.363636363636363,131.4365289257445L26.363636363636363,126.66173872876065L26.363636363636363,108.7578597916534L26.363636363636363,126.13608950701851L26.363636363636363,139.42953244584095L26.363636363636363,160.80519872517965L26.363636363636363,148.82141313457845L26.363636363636363,142.29082634901607L26.363636363636363,117.14029028872017L26.363636363636363,113.79323117083315L26.363636363636363,119.14709519598838L26.363636363636363,133.67517126510654L31.636363636363633,113.77619056619552L31.636363636363633,121.56861869938436L31.636363636363633,112.0913254946539L31.636363636363633,106.75686078078412L31.636363636363633,116.57536642748218L31.636363636363633,137.91811919906422L31.636363636363633,149.05852801498514L31.636363636363633,141.71785652724682L31.636363636363633,121.16553162754066L31.636363636363633,117.22487477928387L31.636363636363633,94.85651469795943L31.636363636363633,121.61969142918679L31.636363636363633,140.54206369798538L31.636363636363633,133.7987928405634L31.636363636363633,140.10386922653353L31.636363636363633,154.16948836304147L31.636363636363633,151.43362493120364L31.636363636363633,158.04954878977307L31.636363636363633,128.12916557599866L31.636363636363633,135.43915629750785L31.636363636363633,133.81132813592515L31.636363636363633,124.29661033331041L31.636363636363633,127.21314350645318L31.636363636363633,139.61005600103255L31.636363636363633,142.91827324525642L31.636363636363633,153.2832997336274L31.636363636363633,166.17958496983323L31.636363636363633,172.12682650684562L31.636363636363633,159.52225296951585L31.636363636363633,126.09005389599538L31.636363636363633,117.66072222051649L36.90909090909091,118.71547185997706L36.90909090909091,131.36662960954612L36.90909090909091,129.21880811031204L36.90909090909091,101.66086280414876L36.90909090909091,103.7199574702563L36.90909090909091,116.29583853135289L36.90909090909091,95.91300418602515L36.90909090909091,108.07640884460234L36.90909090909091,116.38127046274772L36.90909090909091,117.09926654373817L36.90909090909091,135.5365097270314L36.90909090909091,139.070388924954L36.90909090909091,131.6643030083869L36.90909090909091,121.82590679565106L36.90909090909091,117.79244949903668L36.90909090909091,126.96770689364845L36.90909090909091,133.2884403492836L36.90909090909091,133.37001927919596L36.90909090909091,116.35614953479394L36.90909090909091,120.50035658016265L36.90909090909091,130.97587033627659L36.90909090909091,77.98425403484973L36.90909090909091,86.15811747669723L36.90909090909091,89.44066466029459L36.90909090909091,118.68762885392965L36.90909090909091,100.80923763481555L36.90909090909091,92.83764830526424L36.90909090909091,103.97149312802904L36.90909090909091,109.01837828454308L42.18181818181818,91.70245615322744L42.18181818181818,109.439710823085L42.18181818181818,108.31113201202571L42.18181818181818,120.52688539233236L42.18181818181818,135.22343864687943L42.18181818181818,141.41852563747864L42.18181818181818,125.7043108034895L42.18181818181818,141.91968239897014L42.18181818181818,125.05172965667462L42.18181818181818,115.98994459635576L42.18181818181818,125.66951795352192L42.18181818181818,121.5386346232724L42.18181818181818,120.83872711343653L42.18181818181818,143.99830645859393L42.18181818181818,131.66970292775167L42.18181818181818,102.85744487637784L42.18181818181818,114.7258696448009L42.18181818181818,130.47840889293167L42.18181818181818,138.13180231525612L42.18181818181818,142.4955661843778L42.18181818181818,159.8081914523187L47.45454545454545,142.91551258535299L47.45454545454545,154.2920027490814L47.45454545454545,122.31903107213851L47.45454545454545,98.18646109067046L47.45454545454545,112.25983652766975L47.45454545454545,99.46206799864964L47.45454545454545,99.06849376885457L47.45454545454545,101.00489438652075L47.45454545454545,104.46596672655075L47.45454545454545,92.61175223666022L47.45454545454545,102.74841956829346L47.45454545454545,129.49792968409326L47.45454545454545,132.34157706687668L47.45454545454545,123.59318417508801L47.45454545454545,125.15602683038102L47.45454545454545,134.47850418709106L47.45454545454545,128.65509067058457L47.45454545454545,133.49577428557865L47.45454545454545,147.06304345709827L47.45454545454545,154.03732773170597L47.45454545454545,124.78496996184272L47.45454545454545,144.73578489357138L47.45454545454545,136.92808521839288L52.72727272727273,149.86107387644935L52.72727272727273,161.87669060122104L52.72727272727273,159.57118875380812L52.72727272727273,136.6466160821195L52.72727272727273,127.88174201179099L52.72727272727273,132.50297784074445L52.72727272727273,114.51974288751877L52.72727272727273,125.09621220367379L52.72727272727273,146.4285830843155L52.72727272727273,166.44357223883813L52.72727272727273,173.04961773690619L52.72727272727273,159.21636881888585L52.72727272727273,147.67091883634367L52.72727272727273,152.23025766195718L52.72727272727273,140.80187336287827L52.72727272727273,156.52561159333283L52.72727272727273,147.63110602334564L52.72727272727273,130.9279799779049L52.72727272727273,137.23312236254046L52.72727272727273,131.2741354157258L52.72727272727273,147.48540607495107L52.72727272727273,142.26624828939762L58,110.1657869084254L58,81.71412668666994L58,82.9272641881019L58,99.8665314024631L58,88.9633752858143L58,104.2422780182435L58,90.91984505605308L58,108.05294593825963L58,99.7978652289593L58,107.61604521624561L58,131.7305569887582L58,121.60082801623042L58,125.89162579585259L58,142.41944023485925L58,132.99503400329377L58,131.92839816820216L58,132.78970202934386L58,128.55239555415378L58,111.01981406628472L58,122.371183772563L58,135.85690764153316L58,141.52670384811395L58,135.39449202408974L58,143.57164034907558L63.272727272727266,128.31221413947148L63.272727272727266,128.6989205530214L63.272727272727266,117.18525834325797L63.272727272727266,140.95208998153166L63.272727272727266,118.18208945861076L63.272727272727266,131.53890847526108L63.272727272727266,123.95011924933348L63.272727272727266,123.03161289175793L63.272727272727266,125.53384312421137L63.272727272727266,127.43914730949298L63.272727272727266,135.71026208348158L63.272727272727266,126.49073850625618L63.272727272727266,134.52140950718467L63.272727272727266,141.22512566597334L63.272727272727266,152.41876682974163L63.272727272727266,149.3890738038794L63.272727272727266,148.64328188841034L63.272727272727266,142.48507158857927L63.272727272727266,129.02900509344613L63.272727272727266,103.843470281434L63.272727272727266,106.7575176593303L63.272727272727266,119.55577356421495L63.272727272727266,119.6686472768941L63.272727272727266,130.07382594349417L63.272727272727266,138.17888732335305L68.54545454545455,142.21951294147567L68.54545454545455,130.60517396139502L68.54545454545455,142.96362457990622L68.54545454545455,148.8748842548089L68.54545454545455,134.70359462926402L68.54545454545455,133.2059005449491L68.54545454545455,128.16526591334926L68.54545454545455,136.4409596871321L68.54545454545455,131.16687648366158L68.54545454545455,130.53267037709523L68.54545454545455,140.6273880598393L68.54545454545455,142.13355206600272L68.54545454545455,147.76153348722963L68.54545454545455,157.478281744091L68.54545454545455,134.96290957185926L68.54545454545455,120.14855655470141L68.54545454545455,106.15133952125208L68.54545454545455,134.83240406495264L68.54545454545455,125.54390965687585L68.54545454545455,118.78561812748151L68.54545454545455,121.17681494188648L68.54545454545455,102.83938503979482L68.54545454545455,123.70256261490856L68.54545454545455,119.88363078140111L68.54545454545455,134.88678382855989L68.54545454545455,159.202577394232L68.54545454545455,158.81574578544834L73.81818181818181,142.3032710032481L73.81818181818181,137.8494491957205L73.81818181818181,156.1859802731445L73.81818181818181,151.42400529964473L73.81818181818181,165.85447557674962L73.81818181818181,152.2186896232199L73.81818181818181,148.59463383826343L73.81818181818181,131.47714613645948L73.81818181818181,129.42495940730137L73.81818181818181,119.64706050098833L73.81818181818181,106.39484322816908L73.81818181818181,116.53449197253519L73.81818181818181,117.2602499199156L73.81818181818181,111.59861562694837L73.81818181818181,135.55187312461968L73.81818181818181,135.38161809206017L73.81818181818181,142.71509693505564L73.81818181818181,121.54198540839751L73.81818181818181,109.68971130980547L73.81818181818181,120.4818099279109L79.09090909090908,104.32526731816323L79.09090909090908,120.02217068798103L79.09090909090908,107.54851208448017L79.09090909090908,105.62738563140101L79.09090909090908,97.91090796815162L79.09090909090908,108.12529005893197L79.09090909090908,129.03525280882698L79.09090909090908,131.13225351793037L79.09090909090908,117.1570878356043L79.09090909090908,116.78714796079608L79.09090909090908,118.10619804131393L79.09090909090908,129.54226536530115L79.09090909090908,128.46513845848983L79.09090909090908,143.33273406780074L79.09090909090908,137.93630691962906L79.09090909090908,156.59995586206588L79.09090909090908,158.38969538125306L79.09090909090908,169.93657834970622L79.09090909090908,162.79931429508073L79.09090909090908,161.1639595935229L79.09090909090908,144.5294600883778L79.09090909090908,117.25574975973058L79.09090909090908,129.43558752737945L79.09090909090908,131.14107856398272L79.09090909090908,150.39642497107243L79.09090909090908,148.4397165063652L79.09090909090908,160.09129605209893L79.09090909090908,171.4883726704745L79.09090909090908,152.32997325353017L79.09090909090908,126.01611244994041L84.36363636363636,138.3527833169144L84.36363636363636,156.20761661212148L84.36363636363636,154.0253318901889L84.36363636363636,136.5892971031107L84.36363636363636,137.0356521810631L84.36363636363636,131.0702456358305L84.36363636363636,133.6263507437282L84.36363636363636,126.77540406909881L84.36363636363636,123.38305752276358L84.36363636363636,109.72565575241973L84.36363636363636,105.45388742245726L84.36363636363636,123.02000711329835L84.36363636363636,132.6440390519968L84.36363636363636,126.86445955670474L84.36363636363636,112.77308521781404L84.36363636363636,132.8828734321099L84.36363636363636,124.2030685746062L84.36363636363636,123.18544401949788L84.36363636363636,118.19564531991064L84.36363636363636,117.69570606322836L84.36363636363636,129.43661625980548L84.36363636363636,132.20642521871093L84.36363636363636,140.3165619658133L84.36363636363636,127.9481981635817L84.36363636363636,134.5080853838296L84.36363636363636,147.8468126802538L89.63636363636364,147.47284593633225L89.63636363636364,136.6882731635457L89.63636363636364,148.1235337292069L89.63636363636364,132.49603631575286L89.63636363636364,131.2178310129195L89.63636363636364,128.45186808573195L89.63636363636364,110.13157589381487L89.63636363636364,125.54257440005303L89.63636363636364,128.40362216279468L89.63636363636364,139.16780653134776L89.63636363636364,137.80063347488914L89.63636363636364,136.98811660436994L89.63636363636364,136.20252985952996L89.63636363636364,146.41796426204343L89.63636363636364,148.96196888109512L89.63636363636364,147.72548957116112L89.63636363636364,157.3675794664418L89.63636363636364,115.68885987051756L89.63636363636364,117.2566164619471L89.63636363636364,135.61335404463222L94.9090909090909,131.09664810039905L94.9090909090909,131.5819510154663L94.9090909090909,133.89801547201088L94.9090909090909,125.43145247332416L94.9090909090909,118.6180154475799L94.9090909090909,104.99340492021796L94.9090909090909,120.78433206581083L94.9090909090909,129.09261733540032L94.9090909090909,130.16574915354286L94.9090909090909,119.34446813530806L94.9090909090909,123.92807857274636L94.9090909090909,134.1938408691249L94.9090909090909,132.5855053689856L94.9090909090909,142.85518986109804L94.9090909090909,146.57915617432496L94.9090909090909,144.2228388306654L94.9090909090909,126.49060649049893L94.9090909090909,102.8361462022136L94.9090909090909,114.45101433045504L94.9090909090909,131.686914142075L94.9090909090909,136.40395645860647L94.9090909090909,120.10179867915976L94.9090909090909,136.67519653784433L94.9090909090909,136.55208470882297L94.9090909090909,112.06967272921288L94.9090909090909,103.24103169914234L94.9090909090909,118.38513623265504L94.9090909090909,111.86427234758936L94.9090909090909,115.62370646647176L94.9090909090909,108.88272674322974L100.18181818181819,130.48463458472125L100.18181818181819,125.73105057247007L100.18181818181819,125.84233231728619L100.18181818181819,122.15407578409385L100.18181818181819,111.8557758582016L100.18181818181819,111.30935604450525L100.18181818181819,121.2581581495801L100.18181818181819,127.70634580112L100.18181818181819,128.89539595921588L100.18181818181819,148.91209684696423L100.18181818181819,148.02265116978873L100.18181818181819,135.76710464318577L100.18181818181819,140.80987324371802L100.18181818181819,153.7610187011041L100.18181818181819,135.27377209504706L100.18181818181819,143.04610858229285L100.18181818181819,144.98366464698233L100.18181818181819,137.54124959496167L100.18181818181819,127.08537676379889L100.18181818181819,135.63114840280875L100.18181818181819,125.7354030768658L100.18181818181819,126.52829439223358L100.18181818181819,123.38278592240856L100.18181818181819,124.17707703351098L100.18181818181819,119.66872468450649L100.18181818181819,111.59359294419275L100.18181818181819,124.98290998987436L100.18181818181819,136.01899237140623L105.45454545454545,143.5374189237924L105.45454545454545,146.83076603058132L105.45454545454545,120.1195000362392L105.45454545454545,139.10241237305473L105.45454545454545,134.89636027151082L105.45454545454545,135.55963576506156L105.45454545454545,106.77598120237563L105.45454545454545,100.7734111380025L105.45454545454545,96.57944270642089L105.45454545454545,117.54196126834113L105.45454545454545,126.07762842081748L105.45454545454545,122.15318287359884L105.45454545454545,118.28783866994334L105.45454545454545,109.98377016944033L105.45454545454545,111.7711466687013L105.45454545454545,131.04267713650927L105.45454545454545,131.60139866728957L105.45454545454545,141.02123333259246L105.45454545454545,145.516440698887L105.45454545454545,143.09224394323195L110.72727272727273,133.86290890770707L110.72727272727273,119.789856184216L110.72727272727273,127.98400182477366L110.72727272727273,118.29805824032375L110.72727272727273,120.4667480022046L110.72727272727273,118.96401105817019L110.72727272727273,102.3782613493454L110.72727272727273,105.49699648864147L110.72727272727273,127.2857860687216L110.72727272727273,140.2241491813494L110.72727272727273,136.09247174878695L110.72727272727273,134.03081008669335L110.72727272727273,128.64770187918418L110.72727272727273,143.23048526178331L110.72727272727273,135.1797239087172L110.72727272727273,124.3092730347726L110.72727272727273,113.65734695806674L110.72727272727273,116.86466466348465L110.72727272727273,124.38610841478197L110.72727272727273,109.33554993745764L116,101.621181595504L116,98.44754311611203L116,85.90043382943806L116,96.1910137329449L116,89.5888958676194L116,77.5960423502363L116,94.03740572663422L116,99.86180375022111L116,108.40158373410429L116,112.77030720332633L116,112.15489263315436L116,127.25847431156714L116,137.37584889952709L116,113.1651515798397L116,107.85078420330251L116,113.72639889702431L116,107.48628873575146L116,109.27045224263483L116,113.94316447669081L116,122.20230150089581L116,121.27387874368732L116,121.40129851973741L116,110.29135921105002L116,102.14974899159296L116,110.19094954276247L116,101.01697439260418L116,92.66204128887351L116,96.32158855980349L116,87.83433192512051L116,98.84325062692598L116,96.17404292824807L116,109.3358640359413L121.27272727272727,121.61014121354802L121.27272727272727,118.25798928170033L121.27272727272727,124.73061131153828L121.27272727272727,113.73380366540837L121.27272727272727,125.33955891814999L121.27272727272727,128.99401044900804L121.27272727272727,132.89795826985036L121.27272727272727,138.63467340904307L121.27272727272727,137.07584392004162L121.27272727272727,99.59510706254164L121.27272727272727,90.13892937309694L121.27272727272727,107.11441779190095L121.27272727272727,118.71112074564451L121.27272727272727,108.57837905026493L121.27272727272727,114.05986252787598L121.27272727272727,118.98319974582063L121.27272727272727,113.90262113930513L121.27272727272727,110.75548437060294L126.54545454545453,121.97539883779805L126.54545454545453,126.22733728534344L126.54545454545453,130.5463544717203L126.54545454545453,123.52358511153743L126.54545454545453,132.37987012750764L126.54545454545453,118.41215933576473L126.54545454545453,112.17589568753179L126.54545454545453,109.93822562431025L126.54545454545453,115.64862603521009L126.54545454545453,123.62050593309438L126.54545454545453,124.15777130184388L126.54545454545453,119.71843846267446L126.54545454545453,129.0948952404769L126.54545454545453,136.35959387404102L126.54545454545453,144.64422619217999L126.54545454545453,147.05423697250086L126.54545454545453,141.32723522727008L126.54545454545453,143.25457093130396L126.54545454545453,124.1707545443802L126.54545454545453,109.70623724666095L126.54545454545453,124.02836153618696L126.54545454545453,143.518563515154L126.54545454545453,152.95454173774775L126.54545454545453,154.11718388143584L126.54545454545453,151.17817547092326L126.54545454545453,142.8956881140294L126.54545454545453,111.94792324511918L126.54545454545453,109.83232044497304L126.54545454545453,111.35352056818186L131.8181818181818,126.08447114882298L131.8181818181818,125.22057772171195L131.8181818181818,122.8351894565595L131.8181818181818,131.89902898645204L131.8181818181818,130.17492910460206L131.8181818181818,127.77839341040018L131.8181818181818,118.2791424114982L131.8181818181818,125.53636763004508L131.8181818181818,129.69345651628652L131.8181818181818,129.4517781410724L131.8181818181818,123.87341897956036L131.8181818181818,119.91378066630672L131.8181818181818,125.63951088466298L131.8181818181818,114.41448679273981L131.8181818181818,118.72154876427628L131.8181818181818,120.49620008806217L131.8181818181818,134.45441325017887L131.8181818181818,140.21504707403963L131.8181818181818,154.79344158053172L131.8181818181818,136.06793360237808L131.8181818181818,135.1491195970554L131.8181818181818,124.03978527682709L131.8181818181818,122.376781269117L131.8181818181818,135.14240070223764L131.8181818181818,124.77381436595236L131.8181818181818,129.48973572986327L131.8181818181818,143.74745463424546L131.8181818181818,136.25691350381382L131.8181818181818,136.12556984575795L131.8181818181818,127.51175303456998L131.8181818181818,134.37744071791272L131.8181818181818,119.84077842944903L131.8181818181818,106.00447284587784L131.8181818181818,124.62241117001236L137.0909090909091,119.2293073533161L137.0909090909091,141.539645484127L137.0909090909091,135.9077183097628L137.0909090909091,119.3226530577722L137.0909090909091,118.10564312662156L137.0909090909091,121.05737188973792L137.0909090909091,129.94315645888585L137.0909090909091,109.70585092815001L137.0909090909091,107.22540898698942L137.0909090909091,101.61163492264902L137.0909090909091,116.38418799060636L137.0909090909091,127.01166691045204L137.0909090909091,123.03246842419647L137.0909090909091,136.19960495472603L137.0909090909091,126.71144117586614L137.0909090909091,128.24653167639698L137.0909090909091,125.33926138170796L137.0909090909091,103.25460945661382L137.0909090909091,94.56078369131463L137.0909090909091,99.66986893502286L137.0909090909091,124.47527226638846L137.0909090909091,108.11013637546469L137.0909090909091,113.10845482788261L137.0909090909091,118.04573279312991L137.0909090909091,125.1399502490128L137.0909090909091,128.6683413759228L142.36363636363637,119.0436767514588L142.36363636363637,120.37865212709323L142.36363636363637,107.2171309989919L142.36363636363637,114.01665694939406L142.36363636363637,128.01698083662066L142.36363636363637,122.29156185467265L142.36363636363637,131.27882381653282L142.36363636363637,134.4021282452796L142.36363636363637,136.54780780428896L142.36363636363637,137.86944201256384L142.36363636363637,137.12285899311337L142.36363636363637,134.75612778066412L142.36363636363637,141.78773523284352L142.36363636363637,131.4147036395618L142.36363636363637,142.04629789031998L142.36363636363637,135.80788769301728L142.36363636363637,101.28978900747776L142.36363636363637,105.05788668524112L142.36363636363637,117.01137257604167L142.36363636363637,98.67445396470157L142.36363636363637,89.76295461360058L142.36363636363637,103.97327755741618L142.36363636363637,119.80018559643086L142.36363636363637,107.6320153248925L147.63636363636363,116.7870379510458L147.63636363636363,108.37931937574896L147.63636363636363,98.57475178032446L147.63636363636363,97.60810709864252L147.63636363636363,111.38473452650967L147.63636363636363,110.36414366333572L147.63636363636363,134.0597437384351L147.63636363636363,126.98818243551418L147.63636363636363,131.18734795217878L147.63636363636363,120.97748056398467L147.63636363636363,117.82534878803536L147.63636363636363,106.06199188502468L147.63636363636363,107.40124851772826L147.63636363636363,107.58443984277422L147.63636363636363,96.99054910802867L147.63636363636363,70.69125290088252L147.63636363636363,78.1994517291242L147.63636363636363,66.63317922602783L147.63636363636363,67.90697102740361L147.63636363636363,82.92425691751632L147.63636363636363,99.42483303560651L147.63636363636363,100.38981507180004L147.63636363636363,99.25079093154608L147.63636363636363,109.81433486381111L147.63636363636363,131.23449591215103L147.63636363636363,128.35979809519966L147.63636363636363,133.67233956990455L147.63636363636363,110.25387825553467L152.9090909090909,100.29988288965359L152.9090909090909,122.1617631615614L152.9090909090909,113.88165114649009L152.9090909090909,117.96581937698207L152.9090909090909,106.40420940737755L152.9090909090909,112.44465588304942L152.9090909090909,104.25332940898642L152.9090909090909,112.34355823373849L152.9090909090909,117.81175113422177L152.9090909090909,115.94064007395382L152.9090909090909,129.8387675448735L152.9090909090909,138.785731163418L152.9090909090909,127.1729573947456L152.9090909090909,101.79433331088435L152.9090909090909,105.51185257916737L152.9090909090909,76.5927394353395L152.9090909090909,95.28875517156652L152.9090909090909,95.56782092318595L152.9090909090909,107.49556228510085L152.9090909090909,70.12308597096137L152.9090909090909,60.68769613441308L152.9090909090909,81.05676870884989L152.9090909090909,83.12839829025856L152.9090909090909,73.76529808027014L158.18181818181816,91.02052307958348L158.18181818181816,82.47847288665504L158.18181818181816,68.60301309180876L158.18181818181816,70.6509100831288L158.18181818181816,92.72630093355106L158.18181818181816,75.39544334061408L158.18181818181816,91.31245585716508L158.18181818181816,87.31763253024677L158.18181818181816,75.72496080496707L158.18181818181816,65.95347308534437L158.18181818181816,85.85069577570424L158.18181818181816,106.02607200489511L158.18181818181816,115.92202802713909L158.18181818181816,118.0802219389008L158.18181818181816,107.20839585267366L158.18181818181816,128.80487148347805L158.18181818181816,140.01257983834427L158.18181818181816,139.44667290987414L158.18181818181816,136.06565551551176L163.45454545454544,112.68049819569677L163.45454545454544,109.80511076104698L163.45454545454544,118.9911560338022L163.45454545454544,117.88479332511967L163.45454545454544,117.3581259850756L163.45454545454544,113.5752222876997L163.45454545454544,100.55161605925367L163.45454545454544,117.05083240502663L163.45454545454544,121.44683525080612L163.45454545454544,119.25846048453982L163.45454545454544,122.2842511294864L163.45454545454544,141.8219788382172L163.45454545454544,146.56495305819755L163.45454545454544,121.96752450465378L163.45454545454544,116.92670300303975L163.45454545454544,108.31242336995182L163.45454545454544,104.49999720785954L163.45454545454544,105.60245779298137L163.45454545454544,100.17993512938361L163.45454545454544,116.56524955475793L163.45454545454544,126.69864243781124L163.45454545454544,122.00964271938713L163.45454545454544,104.37074737071647L168.72727272727272,104.51342671260852L168.72727272727272,122.47894826272879L168.72727272727272,118.75929723323182L168.72727272727272,106.6186674773968L168.72727272727272,114.4404008056588L168.72727272727272,107.3253665193414L168.72727272727272,112.38310901591527L168.72727272727272,121.9451411550548L168.72727272727272,128.95752933464297L168.72727272727272,124.72578996337168L168.72727272727272,124.47047078945201L168.72727272727272,116.37416363160085L168.72727272727272,112.95640804253846L168.72727272727272,126.55623914496488L168.72727272727272,135.02424892036052L168.72727272727272,109.15203972119494L168.72727272727272,109.10430186348034L168.72727272727272,117.71601559121497L168.72727272727272,108.21478439277081L168.72727272727272,96.59761094641496L168.72727272727272,83.44831774528154L168.72727272727272,75.95146343156166L168.72727272727272,104.23234782742846L168.72727272727272,95.52877069203922L168.72727272727272,93.18811897673878L168.72727272727272,103.4755988318707L168.72727272727272,113.88226823097692L174,119.56997343014174L174,116.6240593587938L174,105.36113291367438L174,111.78891638459555L174,116.70916007465536L174,89.36400871578303L174,106.46555982089102L174,119.92192194940587L174,98.84564965442718L174,118.92704186499759L174,113.18976347904388L174,110.60239175099736L174,96.89634756795286L179.27272727272728,93.86068313788539L179.27272727272728,97.22335529009509L179.27272727272728,105.2551264448548L179.27272727272728,114.10731338790198L179.27272727272728,98.32995669518293L179.27272727272728,106.23679170554404L179.27272727272728,102.13437273102738L179.27272727272728,106.28458192249751L179.27272727272728,91.87196181638605L179.27272727272728,100.21690622366067L179.27272727272728,90.40637518651543L179.27272727272728,100.99114761513239L179.27272727272728,106.27040178275857L179.27272727272728,99.27183943733066L179.27272727272728,102.82325533841343L179.27272727272728,125.81418712241397L179.27272727272728,113.50394797386305L179.27272727272728,117.41089683053336L179.27272727272728,107.70281497607809L179.27272727272728,102.80978086514409L179.27272727272728,100.8064480331014L179.27272727272728,120.07328356278549L179.27272727272728,105.97442801384769L179.27272727272728,82.68257564965162L179.27272727272728,58.807630119230744L179.27272727272728,75.5558443583361L179.27272727272728,92.99985672019254L179.27272727272728,94.15335413610755L184.54545454545453,78.95306219980716L184.54545454545453,91.47438241194266L184.54545454545453,109.49126319761488L184.54545454545453,122.55640899819589L184.54545454545453,115.66495618560137L184.54545454545453,107.68167303157033L184.54545454545453,109.71602025669837L184.54545454545453,87.8915693311281L184.54545454545453,83.60801058043421L184.54545454545453,65.75522180944083L184.54545454545453,78.56672675559378L184.54545454545453,79.65676987930435L184.54545454545453,101.05929861523475L184.54545454545453,103.86989096992131L184.54545454545453,107.0968152706802L184.54545454545453,106.4162642850457L184.54545454545453,103.54768642860782L184.54545454545453,101.06504400447666L184.54545454545453,97.4590640260913L184.54545454545453,113.25073284482554L184.54545454545453,103.47099454479206L184.54545454545453,94.46911205395048L184.54545454545453,108.6551592902573L184.54545454545453,103.00423663085837L189.8181818181818,87.38974693935006L189.8181818181818,99.23567426292799L189.8181818181818,114.28724939125243L189.8181818181818,107.58256115721225L189.8181818181818,111.24262956438616L189.8181818181818,101.75128148168898L189.8181818181818,115.16255734549986L189.8181818181818,104.9037416671943L189.8181818181818,97.43792176834125L189.8181818181818,127.00609348983576L189.8181818181818,124.2328656741367L189.8181818181818,124.69532478831842L189.8181818181818,130.7762142246625L189.8181818181818,131.41304925318227L189.8181818181818,126.92197693288249L189.8181818181818,102.49290491750267L189.8181818181818,94.22528662189907L189.8181818181818,103.6437882144814L189.8181818181818,110.3581060106061L189.8181818181818,101.72926809310965L189.8181818181818,97.0968230219327L189.8181818181818,98.11923842015133L195.0909090909091,104.27753673980179L195.0909090909091,98.98015410687239L195.0909090909091,108.20701165123239L195.0909090909091,101.70857408320302L195.0909090909091,101.23396036566594L195.0909090909091,106.26482896630304L195.0909090909091,114.45245640653842L195.0909090909091,96.88170271279698L195.0909090909091,105.58939978504799L195.0909090909091,124.97567199688469L195.0909090909091,125.8179404750326L195.0909090909091,117.3936824940267L195.0909090909091,124.84621655266612L195.0909090909091,139.9134399797192L195.0909090909091,129.21682463615133L195.0909090909091,113.1826244283869L195.0909090909091,109.17566593071065L195.0909090909091,112.23004605162647L195.0909090909091,94.04056385087885L195.0909090909091,111.02682170616674L195.0909090909091,115.11518966221674L195.0909090909091,136.13997994089112L195.0909090909091,112.75117610167482L195.0909090909091,118.85509091223433L200.36363636363637,114.9156263718438L200.36363636363637,104.16404570025722L200.36363636363637,109.81643202948442L200.36363636363637,124.08904531305362L200.36363636363637,113.2612796006653L200.36363636363637,113.54072335683482L200.36363636363637,126.25193134566082L200.36363636363637,117.75324964864562L200.36363636363637,112.61215249429227L200.36363636363637,114.28260467256474L200.36363636363637,111.01629891315889L200.36363636363637,125.77485047072462L200.36363636363637,110.91400509394867L200.36363636363637,123.865245102478L200.36363636363637,128.1155472776404L200.36363636363637,133.57219414998264L200.36363636363637,133.74351085293102L200.36363636363637,137.17301346839653L200.36363636363637,129.8310585442083L200.36363636363637,125.76124774630705L200.36363636363637,111.27950559432877L200.36363636363637,113.94164344775139L200.36363636363637,116.52539770250254L200.36363636363637,102.58585832250895L200.36363636363637,129.942364221717L200.36363636363637,125.47867547386397L200.36363636363637,134.1391596721626L200.36363636363637,139.57339704487677L200.36363636363637,114.49257274119219L200.36363636363637,112.04277395681882L200.36363636363637,106.80466982689188L200.36363636363637,100.96611190247803L200.36363636363637,112.51277510806085L200.36363636363637,125.78877857593862L205.63636363636365,120.21113853789987L205.63636363636365,115.50653580947854L205.63636363636365,103.66947823833469L205.63636363636365,89.40923785386059L205.63636363636365,88.41946980590761L205.63636363636365,97.55260616332684L205.63636363636365,83.57057286740648L205.63636363636365,95.01372410523011L205.63636363636365,109.56736652961274L205.63636363636365,114.2485983983473L205.63636363636365,104.7799169672047L205.63636363636365,130.33501643879202L205.63636363636365,130.7221568599932L205.63636363636365,119.25128740780566L205.63636363636365,106.77874055290144L205.63636363636365,111.55681850682801L205.63636363636365,89.36807811618975L205.63636363636365,101.88374272757714L205.63636363636365,94.31611550645628L205.63636363636365,78.09757315524877L205.63636363636365,110.43669554068943L205.63636363636365,104.92389939880688L205.63636363636365,108.55210843732605L205.63636363636365,122.65566542973359L205.63636363636365,118.67936210262125L205.63636363636365,134.59546934490496L205.63636363636365,121.86094747422852L205.63636363636365,106.7775351203828L210.9090909090909,117.02934999128045L210.9090909090909,122.97469088103381L210.9090909090909,110.34509958108352L210.9090909090909,101.29807213710166L210.9090909090909,75.68660937965667L210.9090909090909,71.57518757211373L210.9090909090909,62.357945816144095L210.9090909090909,87.43068726890573L210.9090909090909,82.24163821316328L210.9090909090909,79.87653536373229L210.9090909090909,94.02468594636478L210.9090909090909,95.6636787817227L210.9090909090909,101.96123980375391L210.9090909090909,122.77160099729672L210.9090909090909,126.73804890195377L210.9090909090909,136.22359638215602L210.9090909090909,119.36944665215772L210.9090909090909,118.95627903578735L210.9090909090909,76.27752075168377L210.9090909090909,103.79156879428673L210.9090909090909,121.32410772476354L210.9090909090909,90.30819063848142L210.9090909090909,79.42938382470714L210.9090909090909,98.8802631239804L210.9090909090909,85.26585274626132L210.9090909090909,109.66258781210439L210.9090909090909,111.73814458401793L216.1818181818182,89.58851199066041L216.1818181818182,118.09922993198425L216.1818181818182,123.05898093960327L216.1818181818182,114.841618420124L216.1818181818182,122.4364976506061L216.1818181818182,97.43495213758601L216.1818181818182,113.01063308803859L216.1818181818182,102.33081805445386L216.1818181818182,89.13311916295206L216.1818181818182,82.48861310375358L216.1818181818182,100.67056206731414L216.1818181818182,111.81537325634874L216.1818181818182,99.69006583161155L216.1818181818182,90.94133903192355L216.1818181818182,81.32913727082115L216.1818181818182,78.65281174264122L216.1818181818182,78.52423648296089L216.1818181818182,70.72738826695839L216.1818181818182,83.09099321635158L216.1818181818182,95.34009209274086L216.1818181818182,100.27985390937324L216.1818181818182,61.154122569192076L216.1818181818182,76.67651861024129L216.1818181818182,97.4842033902886L216.1818181818182,97.3575645735086L216.1818181818182,78.23710646377633L221.45454545454547,84.5332460916404L221.45454545454547,74.32488448165053L221.45454545454547,94.37980362293574L221.45454545454547,93.86400121574339L221.45454545454547,95.65620655483347L221.45454545454547,75.43183202334576L221.45454545454547,69.58863721562075L221.45454545454547,101.55912765062493L221.45454545454547,100.65184788507489L221.45454545454547,79.29903245914453L221.45454545454547,77.68402331850048L221.45454545454547,77.21046264356835L221.45454545454547,78.23592401197763L221.45454545454547,92.41722215097879L221.45454545454547,72.97227596520675L221.45454545454547,55.26302354665713L221.45454545454547,77.80832647845365L221.45454545454547,84.88691257951645L221.45454545454547,98.36135425844354L221.45454545454547,111.06682008797988L221.45454545454547,114.64863440064063L226.72727272727275,93.19840087743053L226.72727272727275,83.37015130045158L226.72727272727275,90.80498223954409L226.72727272727275,103.44957497194721L226.72727272727275,105.19000742765193L226.72727272727275,85.67874795102553L226.72727272727275,75.64682433430545L226.72727272727275,91.95355099921763L226.72727272727275,88.6418486635334L226.72727272727275,90.94521537921979L226.72727272727275,79.95666979125019L226.72727272727275,101.14091894583468L226.72727272727275,109.96099495540518L226.72727272727275,117.04122002597406L226.72727272727275,115.58776211201145L226.72727272727275,130.30428861182241L226.72727272727275,130.38344766177218L226.72727272727275,131.00668047043348L226.72727272727275,110.29212274972595L226.72727272727275,102.56738050937193L226.72727272727275,104.5571752176401L232,100.9278231348908L232,87.0327147436924L232,102.54041211158801L232,80.87975302568512L232,90.88605665964967L232,70.8659778702809L232,50.454962414062415L232,59.84892284173629L232,87.98473225554672L232,93.32314656195003L232,92.38673728391612L232,90.57939495685152L232,55.10402464623582L232,71.69865466633303L232,85.86953828165618L232,95.18919023778574L232,82.66157807064504L232,81.82398622703774L232,72.06491793533382L232,70.83268467196334L232,74.52092056733305" style="fill: none;" fill="none"></path></g></g></g></g><g opacity="0.2"><g><g><g><path stroke="rgb(204, 51, 17)" stroke-width="2px" d="M26.363636363636363,34.52019688061306L26.363636363636363,155.48165641512188L26.363636363636363,142.40390927450997L26.363636363636363,151.64401050976346L26.363636363636363,121.45629777227128L26.363636363636363,101.71678437505449L26.363636363636363,109.24610909393856L26.363636363636363,71.85848854269301L26.363636363636363,140.72722440106529L26.363636363636363,136.4041267633438L26.363636363636363,149.5630940028599L26.363636363636363,113.95542797020504L26.363636363636363,101.93039218017033L26.363636363636363,79.5018891436713L26.363636363636363,170.97447694199425L26.363636363636363,139.620851116521L26.363636363636363,163.52073559590747L26.363636363636363,215.4090752005577L26.363636363636363,132.7794405903135L26.363636363636363,74.92485247339522L26.363636363636363,113.24303019046783L26.363636363636363,58.41180712836131L26.363636363636363,175.0257457239287L26.363636363636363,176.8398521712848L26.363636363636363,220.9750219626086L26.363636363636363,115.0825320482254L26.363636363636363,123.90233547346932L26.363636363636363,46.31581490380424L26.363636363636363,104.36716093335832L26.363636363636363,134.22557733740123L26.363636363636363,174.59326263836454L31.636363636363633,57.72941662584033L31.636363636363633,143.5169667516436L31.636363636363633,85.39692500659397L31.636363636363633,91.73126379081182L31.636363636363633,144.23140671423505L31.636363636363633,198.0351857287543L31.636363636363633,180.43835168225425L31.636363636363633,121.0408981868199L31.636363636363633,63.27428218296596L31.636363636363633,106.12491519110543L31.636363636363633,31.849699922970377L31.636363636363633,197.00582760572433L31.636363636363633,193.8423733285495L31.636363636363633,114.80441839354378L31.636363636363633,157.86394937549318L31.636363636363633,193.7894046817507L31.636363636363633,143.72726637125015L31.636363636363633,176.68523406130925L31.636363636363633,43.84964173180717L31.636363636363633,156.0298883148602L31.636363636363633,129.22607256684984L31.636363636363633,97.49561502252305L31.636363636363633,135.4284155028207L31.636363636363633,174.52960079056874L31.636363636363633,152.23683886017116L31.636363636363633,182.47944185563495L31.636363636363633,188.8789797765868L31.636363636363633,124.01776778697968L31.636363636363633,31.918440852846434L31.636363636363633,93.91703244618007L36.90909090909091,121.68648418358394L36.90909090909091,167.0023333259991L36.90909090909091,123.16883764948165L36.90909090909091,24.03581096444812L36.90909090909091,109.52000273977006L36.90909090909091,151.71950345379966L36.90909090909091,38.49876093864441L36.90909090909091,142.33821277959007L36.90909090909091,139.7743539384433L36.90909090909091,119.12171351909637L36.90909090909091,187.47042371545518L36.90909090909091,149.02459826639722L36.90909090909091,110.80288543019975L36.90909090909091,94.11317242894853L36.90909090909091,106.43103161879948L36.90909090909091,152.8125158888953L36.90909090909091,151.0926437463079L36.90909090909091,133.59981031077248L36.90909090909091,68.43158514159067L36.90909090909091,132.1737336771829L36.90909090909091,160.4832335114479L36.90909090909091,-71.2822071484157L36.90909090909091,109.18220610277993L36.90909090909091,98.68692352090562L36.90909090909091,201.07029898677553L36.90909090909091,50.44949442999705L36.90909090909091,70.38332416330066L36.90909090909091,135.3332392317908L36.90909090909091,123.23441357272011L42.18181818181818,42.92707243987494L42.18181818181818,159.4019014579909L42.18181818181818,105.13215810911996L42.18181818181818,154.9361449139459L42.18181818181818,176.62060010433197L42.18181818181818,158.86880884000232L42.18181818181818,81.4406064237867L42.18181818181818,187.59504208394458L42.18181818181818,77.53818338257926L42.18181818181818,90.4647637775966L42.18181818181818,152.93488107408794L42.18181818181818,109.90278768539429L42.18181818181818,118.8672319139753L42.18181818181818,209.23406812548637L42.18181818181818,96.94256779125759L42.18181818181818,21.699252349989766L42.18181818181818,148.15677605356487L42.18181818181818,174.85006524835313L42.18181818181818,159.6898341689791L42.18181818181818,154.78738960197995L42.18181818181818,208.5742885810988L47.45454545454545,95.33231791428157L47.45454545454545,186.33723076752253L47.45454545454545,32.257759707314634L47.45454545454545,30.209985341344563L47.45454545454545,151.90163451433182L47.45454545454545,63.4133917604174L47.45454545454545,97.95987628187453L47.45454545454545,106.45933582101549L47.45454545454545,114.21509415762765L47.45454545454545,59.220873253686094L47.45454545454545,131.3013222047261L47.45454545454545,204.84578642249107L47.45454545454545,140.35154564891542L47.45454545454545,98.95076450279781L47.45454545454545,129.55823247773307L47.45454545454545,160.73800147431237L47.45454545454545,112.25173504011971L47.45454545454545,147.13098233086723L47.45454545454545,185.2792444058827L47.45454545454545,173.68244908537181L47.45454545454545,42.387107236044756L47.45454545454545,200.933118556227L47.45454545454545,114.93540445395878L52.72727272727273,186.2906373483794L52.72727272727273,195.72220641374588L52.72727272727273,153.0770652294159L52.72727272727273,72.07281977789744L52.72727272727273,103.19289825643813L52.72727272727273,145.52004670245307L52.72727272727273,63.86467649255481L52.72727272727273,154.88794638429368L52.72727272727273,206.51747510688645L52.72727272727273,191.6574863536017L52.72727272727273,120.25095774446214L52.72727272727273,115.14976583208357L52.72727272727273,165.07297542265485L52.72727272727273,108.6104702608926L52.72727272727273,200.81614141804832L52.72727272727273,122.57711705139705L52.72727272727273,83.87871653693063L52.72727272727273,154.99340892689568L52.72727272727273,114.4888973746981L52.72727272727273,193.1492142677307L52.72727272727273,127.56495651176998L58,19.745403323854735L58,1.5716639246259558L58,86.34442249366215L58,147.58095584596904L58,58.25143172059741L58,147.27979792867387L58,53.39329724652427L58,156.31335987363542L58,76.54500429970878L58,129.63824685982297L58,199.65616648537772L58,93.06746930735451L58,137.977918778147L58,188.97488701343536L58,106.44842408384596L58,128.9239048617227L58,135.21581748553683L58,116.61677655151912L58,61.634145600455156L58,154.34565263986588L58,173.8434122800827L58,157.49735117810113L58,118.12131520680019L58,166.60498181411197L63.272727272727266,85.3295555795942L63.272727272727266,129.78819281714303L63.272727272727266,84.7536449432373L63.272727272727266,207.89835619926453L63.272727272727266,54.04369103908539L63.272727272727266,169.16231471300125L63.272727272727266,102.57406410149166L63.272727272727266,120.44436979293823L63.272727272727266,132.58210996219088L63.272727272727266,132.80599650314878L63.272727272727266,159.00828766822815L63.272727272727266,100.52124079636165L63.272727272727266,157.14215454033445L63.272727272727266,160.10811240332467L63.272727272727266,183.94894690173012L63.272727272727266,140.85505299057277L63.272727272727266,146.54253977537155L63.272727272727266,125.13866242340633L63.272727272727266,91.1260391644069L63.272727272727266,32.90100962775096L63.272727272727266,114.96578851767948L63.272727272727266,155.60582263980592L63.272727272727266,119.9865892614637L63.272727272727266,159.38306966849734L63.272727272727266,161.0091747215816L68.54545454545455,153.6011225070272L68.54545454545455,97.88997484956468L68.54545454545455,177.77483281067438L68.54545454545455,165.52568440777915L68.54545454545455,94.7859925542559L68.54545454545455,128.98720499447415L68.54545454545455,113.96683706556047L68.54545454545455,159.7518833705357L68.54545454545455,116.31087112426758L68.54545454545455,128.74624248913358L68.54545454545455,169.06212718146188L68.54545454545455,146.37610564061572L68.54545454545455,163.61439718518938L68.54545454545455,184.84835889509745L68.54545454545455,71.54174673557281L68.54545454545455,78.41957744530269L68.54545454545455,66.72406406061991L68.54545454545455,215.62105152010918L68.54545454545455,99.38013533183506L68.54545454545455,99.74890381949288L68.54545454545455,127.91232352597373L68.54545454545455,51.18662447588786L68.54545454545455,182.4698337997709L68.54545454545455,109.12648691449846L68.54545454545455,177.14757370948792L68.54545454545455,227.6951562166214L68.54545454545455,157.72612087215694L73.81818181818181,95.79103287628719L73.81818181818181,125.30395112718855L73.81818181818181,207.83620903321673L73.81818181818181,138.01050327505382L73.81818181818181,206.50213612828935L73.81818181818181,113.80949102129256L73.81818181818181,138.38641563483645L73.81818181818181,83.260711312294L73.81818181818181,123.64437236104692L73.81818181818181,92.10473457404547L73.81818181818181,69.06607854366302L73.81818181818181,145.09579263414653L73.81818181818181,119.30456047398704L73.81818181818181,95.6509587253843L73.81818181818181,203.02326256462504L73.81818181818181,134.9020447560719L73.81818181818181,163.37199535540174L73.81818181818181,61.90169416155135L73.81818181818181,76.30429800919124L73.81818181818181,150.88092740944455L79.09090909090908,58.8156167609351L79.09090909090908,164.2371122411319L79.09090909090908,72.41278670515334L79.09090909090908,100.21596837043762L79.09090909090908,76.17518080983844L79.09090909090908,136.8970991543361L79.09090909090908,187.93430818830217L79.09090909090908,137.03907230922152L79.09090909090908,77.79192648615157L79.09090909090908,115.7451035806111L79.09090909090908,121.82169025284904L79.09090909090908,161.75530996492932L79.09090909090908,125.43109396525792L79.09090909090908,185.21168658563067L79.09090909090908,122.73568388393947L79.09090909090908,209.17160822663988L79.09090909090908,163.43102272919248L79.09090909090908,202.4617677799293L79.09090909090908,142.695112492357L79.09090909090908,156.55750245707375L79.09090909090908,97.67350346701485L79.09090909090908,40.431329063006814L79.09090909090908,163.74368017060416L79.09090909090908,135.94509530067444L79.09090909090908,204.63476714066095L79.09090909090908,142.92807205234254L79.09090909090908,192.91139416183745L79.09090909090908,203.59158848864692L79.09090909090908,98.3647107737405L79.09090909090908,51.895390033721924L84.36363636363636,173.10264247655869L84.36363636363636,206.5010020009109L84.36363636363636,147.87828561237882L84.36363636363636,87.47558079447066L84.36363636363636,138.2929424388068L84.36363636363636,114.26692490918296L84.36363636363636,140.8263720018523L84.36363636363636,107.47769931384495L84.36363636363636,113.82751648766654L84.36363636363636,71.25556984969548L84.36363636363636,93.42119647775377L84.36363636363636,172.50014578444615L84.36363636363636,159.7529534442084L84.36363636363636,110.5845753295081L84.36363636363636,73.08058803422111L84.36363636363636,189.52800206627165L84.36363636363636,99.75384725843156L84.36363636363636,120.31900538716997L84.36363636363636,104.14041081496647L84.36363636363636,116.2874802180699L84.36363636363636,162.50834040130886L84.36363636363636,140.00840617929185L84.36363636363636,163.16114562749863L84.36363636363636,93.10906653744834L84.36363636363636,152.98593564544404L84.36363636363636,185.41925827094485L89.63636363636364,146.4194586958204L89.63636363636364,106.31035443714687L89.63636363636364,180.33430585690905L89.63636363636364,88.47659703663417L89.63636363636364,127.61739012173244L89.63636363636364,120.66072060380662L89.63636363636364,58.527088727269856L89.63636363636364,168.95218087945665L89.63636363636364,136.462604028838L89.63636363636364,169.4882953252111L89.63636363636364,133.94958875860485L89.63636363636364,134.6994240454265L89.63636363636364,133.98969391414096L89.63636363636364,175.19273750271114L89.63636363636364,156.1279055561338L89.63636363636364,144.2425822019577L89.63636363636364,184.5273594004767L89.63636363636364,-1.7115029607500405L89.63636363636364,121.67266365459987L89.63636363636364,187.3205003653254L94.9090909090909,118.37401837962014L94.9090909090909,132.94894930294583L94.9090909090909,140.42189168930054L94.9090909090909,101.58288952282497L94.9090909090909,99.42596764223916L94.9090909090909,66.61568519047329L94.9090909090909,165.26411921637398L94.9090909090909,152.49534454516004L94.9090909090909,133.18854030541013L94.9090909090909,88.86314984730312L94.9090909090909,136.83916446140836L94.9090909090909,163.1103774138859L94.9090909090909,128.05515575408936L94.9090909090909,171.7827744228499L94.9090909090909,157.0688017436436L94.9090909090909,137.58557852676938L94.9090909090909,76.54256272315979L94.9090909090909,36.20640691689083L94.9090909090909,147.16770394359315L94.9090909090909,180.2368914740426L94.9090909090909,149.6908924494471L94.9090909090909,74.18198020117623L94.9090909090909,183.3590424145971L94.9090909090909,136.20530406066348L94.9090909090909,43.10776417596L94.9090909090909,78.37256956100464L94.9090909090909,161.04295739957263L94.9090909090909,93.49634277820587L94.9090909090909,126.21325753416335L94.9090909090909,89.89477622509003L100.18181818181819,191.3327566725867L100.18181818181819,112.3411841562816L100.18181818181819,126.15579005650112L100.18181818181819,111.76501730510167L100.18181818181819,82.84758751732963L100.18181818181819,109.77020405020033L100.18181818181819,149.28188316311153L100.18181818181819,145.86956139973233L100.18181818181819,132.24470518316542L100.18181818181819,205.2950176681791L100.18181818181819,145.51726601805004L100.18181818181819,101.2457560300827L100.18181818181819,155.01431304216385L100.18181818181819,190.24172613450457L100.18181818181819,83.19900875432151L100.18181818181819,164.93917853491646L100.18181818181819,150.44136073759626L100.18181818181819,116.57750032629286L100.18181818181819,97.63333802563804L100.18181818181819,159.7028257676533L100.18181818181819,97.86112807478224L100.18181818181819,128.76170580727714L100.18181818181819,114.52253687381744L100.18181818181819,126.41443138463157L100.18181818181819,106.96962531975338L100.18181818181819,88.84761117185866L100.18181818181819,162.6978564773287L100.18181818181819,167.10536182778222L105.45454545454545,164.71527692249845L105.45454545454545,156.10744604894091L105.45454545454545,44.87936910561153L105.45454545454545,192.57336391721452L105.45454545454545,123.04877839769637L105.45454545454545,137.42794612475802L105.45454545454545,25.698358808244993L105.45454545454545,83.86540843759265L105.45454545454545,84.76589804036277L105.45454545454545,176.5890555381775L105.45454545454545,150.12084352970123L105.45454545454545,111.09882862227303L105.45454545454545,107.39996072224208L105.45454545454545,86.59292072909219L105.45454545454545,116.80581787654332L105.45454545454545,185.32660646949495L105.45454545454545,133.17520206315177L105.45454545454545,167.55496609210968L105.45454545454545,158.17851335661751L105.45454545454545,136.2637813261577L110.72727272727273,107.86577434199197L110.72727272727273,80.14896721499306L110.72727272727273,151.06522122451236L110.72727272727273,91.01475150244576L110.72727272727273,126.57550007956368L110.72727272727273,114.73111081123352L110.72727272727273,55.65962285654887L110.72727272727273,114.28183058329991L110.72727272727273,188.66031549658095L110.72727272727273,176.66885138409478L110.72727272727273,124.454387988363L110.72727272727273,128.22353410720825L110.72727272727273,113.48459555421556L110.72727272727273,184.30718043872287L110.72727272727273,112.50238849435533L110.72727272727273,93.68945339747839L110.72727272727273,83.65306663513184L110.72727272727273,125.89901758943284L110.72727272727273,145.57246524095535L110.72727272727273,66.94122873033797L116,79.89139596053532L116,89.50805762835913L116,50.55781301430294L116,125.17745636190688L116,70.9920905828476L116,43.81464580127173L116,140.3493376799992L116,116.26793253421783L116,132.45638384137834L116,125.07610079220363L116,110.42139663015092L116,169.80215094770702L116,165.87440785339902L116,44.96860722133091L116,92.8813066312245L116,130.27679448468345L116,89.90918454102108L116,114.29607311316899L116,127.10523176193237L116,145.46658823319842L116,118.65870319093978L116,121.76021376677922L116,78.99695001329695L116,79.21651104518345L116,132.8413541487285L116,75.17577721391406L116,69.12791674477714L116,106.62977896417891L116,63.92747926712036L116,129.85310559613364L116,88.65543498311723L116,146.41000135455812L121.27272727272727,156.1842502100127L121.27272727272727,108.8156681912286L121.27272727272727,142.96265351772308L121.27272727272727,82.75806304386684L121.27272727272727,158.03057943923133L121.27272727272727,139.28784720386776L121.27272727272727,143.89457465069634L121.27272727272727,154.79381757974625L121.27272727272727,132.68494253499168L121.27272727272727,-5.980403627668092L121.27272727272727,63.50282580511912L121.27272727272727,154.93086990288327L121.27272727272727,151.37664280618938L121.27272727272727,80.03653412205833L121.27272727272727,129.5000717129026L121.27272727272727,132.85122595514568L121.27272727272727,99.59167834690639L121.27272727272727,101.89064873967851L126.54545454545453,153.57958539043153L126.54545454545453,138.20417153835297L126.54545454545453,142.71213570662906L126.54545454545453,103.74189126491547L126.54545454545453,157.32619967630933L126.54545454545453,79.06799687658038L126.54545454545453,94.60962632724218L126.54545454545453,103.63517025538853L126.54545454545453,131.7336470399584L126.54545454545453,146.07564854621887L126.54545454545453,125.67113711152757L126.54545454545453,107.21375283173153L126.54545454545453,155.50644143138612L126.54545454545453,156.82275262049268L126.54545454545453,167.98032791273934L126.54545454545453,153.8427406208856L126.54545454545453,125.1954516853605L126.54545454545453,148.6834783724376L126.54545454545453,70.41557708808354L126.54545454545453,68.96267325537546L126.54545454545453,164.37083377156938L126.54545454545453,198.41844542537416L126.54545454545453,179.53374757085527L126.54545454545453,157.3921071716717L126.54545454545453,142.89959452833446L126.54545454545453,119.56562830720628L126.54545454545453,24.77444815635681L126.54545454545453,103.87310339723314L126.54545454545453,115.6384277854647L131.8181818181818,167.5785227843693L131.8181818181818,122.78716799191066L131.8181818181818,116.11604235853468L131.8181818181818,157.42999682256152L131.8181818181818,125.31849508626121L131.8181818181818,121.02784630230495L131.8181818181818,91.52171020848411L131.8181818181818,145.97847530671527L131.8181818181818,141.40311910424913L131.8181818181818,128.7710199696677L131.8181818181818,108.16033095972878L131.8181818181818,108.76029564653123L131.8181818181818,141.7677127974374L131.8181818181818,82.79590748037612L131.8181818181818,130.85365462303162L131.8181818181818,125.4950270993369L131.8181818181818,173.77182284423282L131.8181818181818,156.4415652496474L131.8181818181818,195.85777419805527L131.8181818181818,83.32203708376204L131.8181818181818,132.5610099179404L131.8181818181818,92.74708020687103L131.8181818181818,117.69244173594883L131.8181818181818,171.10051956347058L131.8181818181818,95.56764369351524L131.8181818181818,142.77351422820772L131.8181818181818,183.90851017407007L131.8181818181818,115.1576029913766L131.8181818181818,135.75560183184487L131.8181818181818,103.24840644427708L131.8181818181818,153.71666785648893L131.8181818181818,78.89399686881474L131.8181818181818,67.03045177459717L131.8181818181818,177.06530614410127L137.0909090909091,104.03804545743125L137.0909090909091,204.38326968465532L137.0909090909091,120.04374023846218L137.0909090909091,72.60594253880637L137.0909090909091,114.677576984678L137.0909090909091,129.37178344385964L137.0909090909091,154.9725801689284L137.0909090909091,52.70153229577201L137.0909090909091,100.23851527486528L137.0909090909091,85.7987904208047L137.0909090909091,157.99542525836398L137.0909090909091,156.94708463123868L137.0909090909091,111.82388642856053L137.0909090909091,173.28871472392763L137.0909090909091,99.98523938655853L137.0909090909091,132.57056522369385L137.0909090909091,117.15008016995021L137.0909090909091,41.04669678211212L137.0909090909091,70.07206836768559L137.0909090909091,114.06110904897963L137.0909090909091,194.34698088679994L137.0909090909091,62.01292153767177L137.0909090909091,127.18768772057125L137.0909090909091,131.9530272143228L137.0909090909091,145.12289865527833L137.0909090909091,138.60709195477622L142.36363636363637,91.93298021384649L142.36363636363637,124.13900261265891L142.36363636363637,70.14383866105761L142.36363636363637,133.1695201226643L142.36363636363637,167.4530076639993L142.36363636363637,106.16423663071224L142.36363636363637,156.5940884266581L142.36363636363637,143.19983308655875L142.36363636363637,142.59174488271984L142.36363636363637,141.59221317938398L142.36363636363637,135.01988850321086L142.36363636363637,128.08953375475747L142.36363636363637,161.59432416302818L142.36363636363637,102.19601159436363L142.36363636363637,171.99330765008926L142.36363636363637,118.23557194641658L142.36363636363637,4.059419427599242L142.36363636363637,115.67184121268136L142.36363636363637,150.68187863486153L142.36363636363637,47.02313360146114L142.36363636363637,64.66109766278949L142.36363636363637,144.00082844495773L142.36363636363637,164.38132350785392L142.36363636363637,73.35678761346L147.63636363636363,142.5748497758593L147.63636363636363,84.69650903769902L147.63636363636363,70.95730565275466L147.63636363636363,94.88526826245445L147.63636363636363,150.19065453324998L147.63636363636363,107.48934955256325L147.63636363636363,200.80536532402039L147.63636363636363,107.06905174255371L147.63636363636363,143.01553173576082L147.63636363636363,92.21838845525468L147.63636363636363,108.94644325120109L147.63636363636363,72.92703999791827L147.63636363636363,111.17365842206138L147.63636363636363,108.10045204843794L147.63636363636363,67.14974238191333L147.63636363636363,-3.3884440490177417L147.63636363636363,99.34850033691951L147.63636363636363,34.053373473031186L147.63636363636363,71.49497999463763L147.63636363636363,125.22485610416958L147.63636363636363,145.90355507816585L147.63636363636363,103.10797057832991L147.63636363636363,96.04239468915122L147.63636363636363,139.56966090202332L147.63636363636363,191.57067474297114L147.63636363636363,120.26236683981759L147.63636363636363,148.636673952852L147.63636363636363,44.2888994387218L152.9090909090909,72.26152953079769L152.9090909090909,183.74217400380542L152.9090909090909,90.55828218800681L152.9090909090909,129.47007950714658L152.9090909090909,73.83753705024719L152.9090909090909,129.45934862749917L152.9090909090909,81.18005102021354L152.9090909090909,135.1320653813226L152.9090909090909,133.21452350275857L152.9090909090909,110.67010586602348L152.9090909090909,168.98692813089917L152.9090909090909,163.98748364618848L152.9090909090909,94.4621671608516L152.9090909090909,30.307979975427916L152.9090909090909,115.98333815165928L152.9090909090909,-4.866441862923747L152.9090909090909,147.95157812322887L152.9090909090909,96.35389162812913L152.9090909090909,141.0935513121741L152.9090909090909,-35.14747708184375L152.9090909090909,34.11014766352519L152.9090909090909,138.43224794524056L152.9090909090909,88.96375184399741L152.9090909090909,47.391374588012695L158.18181818181816,139.6249354822295L158.18181818181816,58.41727806840625L158.18181818181816,29.518702677318032L158.18181818181816,76.41941382203784L158.18181818181816,154.90812706947327L158.18181818181816,26.57798951012748L158.18181818181816,136.1473995106561L158.18181818181816,76.06503857885089L158.18181818181816,43.07079388414111L158.18181818181816,38.4292061499187L158.18181818181816,141.89707114015306L158.18181818181816,162.8559485588755L158.18181818181816,143.79689651727676L158.18181818181816,124.15940936974117L158.18181818181816,76.58470252582005L158.18181818181816,189.63769215345383L158.18181818181816,171.582384288311L158.18181818181816,137.85262972967965L158.18181818181816,126.5420263665063L163.45454545454544,46.809329867362976L163.45454545454544,101.70573699474335L163.45454545454544,144.86635226011276L163.45454545454544,114.76839760371617L163.45454545454544,115.87461263792855L163.45454545454544,102.91956225463322L163.45454545454544,63.866801568440046L163.45454545454544,163.5257242492267L163.45454545454544,133.82946922097886L163.45454545454544,113.09425980704171L163.45454545454544,130.80727974006106L163.45454545454544,196.85573093380248L163.45454545454544,159.9249338763101L163.45454545454544,52.681637968335835L163.45454545454544,102.72774778093611L163.45454545454544,84.04777310575759L163.45454545454544,93.76117847646987L163.45454545454544,108.70786203656877L163.45454545454544,84.90580640520369L163.45454545454544,162.7193031651633L163.45454545454544,155.24232162748064L163.45454545454544,108.80169694764274L163.45454545454544,54.68561467102596L168.72727272727272,104.91532501152584L168.72727272727272,173.08411965199878L168.72727272727272,108.28180692877089L168.72727272727272,72.42101572241103L168.72727272727272,136.47261147839683L168.72727272727272,87.28378139223372L168.72727272727272,126.62972719328744L168.72727272727272,148.87941489049365L168.72727272727272,148.70998153516223L168.72727272727272,112.8058523450579L168.72727272727272,123.75128929955619L168.72727272727272,93.56853507246291L168.72727272727272,103.32929497105735L168.72727272727272,164.86416034187587L168.72727272727272,158.87688714265823L168.72727272727272,36.27535884720939L168.72727272727272,108.96983415739876L168.72727272727272,141.97343822887967L168.72727272727272,81.4517743757793L168.72727272727272,63.874427727290566L168.72727272727272,46.40946895735606L168.72727272727272,54.8343699829919L168.72727272727272,183.8937702860151L168.72727272727272,71.01258776869093L168.72727272727272,86.5949855191367L168.72727272727272,132.45330926350186L168.72727272727272,143.19571104219983L174,135.59106670107158L174,108.32602659293583L174,73.63579048429217L174,129.89465761184692L174,130.56847245352608L174,12.338353361402241L174,154.63710453680585L174,157.82572061674935L174,39.478134563991006L174,175.492184809276L174,97.02903275830406L174,103.31429886817932L174,58.28924601418632L179.27272727272728,85.30984210968018L179.27272727272728,106.69530967303685L179.27272727272728,127.87897038459778L179.27272727272728,139.04209950992038L179.27272727272728,53.888394713401794L179.27272727272728,128.50871627671378L179.27272727272728,90.57870401654924L179.27272727272728,117.97486582824162L179.27272727272728,51.274581517492024L179.27272727272728,123.7228946685791L179.27272727272728,62.772131272724714L179.27272727272728,130.8062699522291L179.27272727272728,121.14097268240792L179.27272727272728,79.55833176204136L179.27272727272728,112.82686196054732L179.27272727272728,190.5749033689499L179.27272727272728,78.82854151725769L179.27272727272728,128.4159665107727L179.27272727272728,80.3571492944445L179.27272727272728,89.02711226258958L179.27272727272728,95.16347234589713L179.27272727272728,174.34398822273525L179.27272727272728,66.26085780348097L179.27272727272728,17.074228150503988L179.27272727272728,-8.443170649664715L179.27272727272728,122.73211194787706L179.27272727272728,142.13604421275002L179.27272727272728,97.40251861299788L184.54545454545453,36.13697269984656L184.54545454545453,126.7443607194083L184.54545454545453,160.24110296794345L184.54545454545453,159.3582319021225L184.54545454545453,96.25315398829323L184.54545454545453,85.19440979616982L184.54545454545453,115.44635709694454L184.54545454545453,26.41658924307143L184.54545454545453,71.5421084506171L184.54545454545453,15.467595423970906L184.54545454545453,114.65409564971924L184.54545454545453,82.72719669342041L184.54545454545453,161.34581085613797L184.54545454545453,111.78675035067967L184.54545454545453,116.18639593464988L184.54545454545453,104.49929242474693L184.54545454545453,95.4674938406263L184.54545454545453,94.07195198535919L184.54545454545453,87.30176164422717L184.54545454545453,157.73260913576397L184.54545454545453,75.92348742485046L184.54545454545453,69.11266442707607L184.54545454545453,148.6143305131367L184.54545454545453,87.0867521933147L189.8181818181818,43.40694773197174L189.8181818181818,132.60321000644137L189.8181818181818,156.68443429470062L189.8181818181818,88.69683628422874L189.8181818181818,121.55228790215084L189.8181818181818,75.01611016477858L189.8181818181818,152.9393572977611L189.8181818181818,76.00677231379917L189.8181818181818,76.40824587004525L189.8181818181818,210.29353902595383L189.8181818181818,116.421254498618L189.8181818181818,125.99797679696763L189.8181818181818,147.90482645375388L189.8181818181818,133.20688227244784L189.8181818181818,114.27155184745789L189.8181818181818,33.68124404975348L189.8181818181818,70.9371098961149L189.8181818181818,130.17376598290036L189.8181818181818,129.27095537526267L189.8181818181818,77.42361014229911L189.8181818181818,84.04818003518241L189.8181818181818,100.99917187009538L195.0909090909091,121.62419383866447L195.0909090909091,84.05851905686515L195.0909090909091,134.197167634964L195.0909090909091,83.40381482669285L195.0909090909091,99.89707134451186L195.0909090909091,120.4357489177159L195.0909090909091,137.51531537941526L195.0909090909091,47.38851101057872L195.0909090909091,130.1171877213887L195.0909090909091,179.58280517373765L195.0909090909091,128.19043718065535L195.0909090909091,93.66428405897958L195.0909090909091,145.8384689773832L195.0909090909091,182.35470291546412L195.0909090909091,99.08666385923112L195.0909090909091,68.01758720193591L195.0909090909091,97.8888897044318L195.0909090909091,120.83360532351902L195.0909090909091,42.8045414686203L195.0909090909091,158.8736091000693L195.0909090909091,126.63127955368587L195.0909090909091,195.36248080219542L195.0909090909091,46.86973627976009L195.0909090909091,136.04856087480272L200.36363636363637,103.81896671227047L200.36363636363637,73.87905892304012L200.36363636363637,125.7380393232618L200.36363636363637,164.29205524921417L200.36363636363637,82.76169526576996L200.36363636363637,114.32785882268632L200.36363636363637,162.05678438288825L200.36363636363637,93.81421494483948L200.36363636363637,98.13074142592293L200.36363636363637,118.9879241670881L200.36363636363637,101.81578879696983L200.36363636363637,167.34664836951663L200.36363636363637,69.05406658990043L200.36363636363637,160.34621886696132L200.36363636363637,140.08777248859406L200.36363636363637,148.9424437369619L200.36363636363637,134.22607469558716L200.36363636363637,146.8332154921123L200.36363636363637,109.15028475012099L200.36363636363637,114.2974295445851L200.36363636363637,70.48742273875645L200.36363636363637,121.44033709594181L200.36363636363637,123.80330090863364L200.36363636363637,63.32104892390117L200.36363636363637,207.00000297597475L200.36363636363637,112.90538426807949L200.36363636363637,158.53395867347717L200.36363636363637,154.88052369015557L200.36363636363637,43.84506000791278L200.36363636363637,105.14219570159912L200.36363636363637,92.05001010213579L200.36363636363637,84.52009759630477L200.36363636363637,145.03734551157268L200.36363636363637,163.18454406942638L205.63636363636365,104.50007614067623L205.63636363636365,102.25463957445962L205.63636363636365,70.32692675931114L205.63636363636365,49.2410798243114L205.63636363636365,85.63149721281869L205.63636363636365,123.27876888002669L205.63636363636365,44.18606686592102L205.63636363636365,127.24672263009208L205.63636363636365,150.56197763340813L205.63636363636365,127.43466373852321L205.63636363636365,78.10859293597085L205.63636363636365,202.31846456868308L205.63636363636365,131.8126516342163L205.63636363636365,86.94021238599505L205.63636363636365,71.6461467402322L205.63636363636365,125.01567930834634L205.63636363636365,26.866969687598104L205.63636363636365,137.13779037339347L205.63636363636365,72.99966936452049L205.63636363636365,32.41328210490092L205.63636363636365,201.529337985175L205.63636363636365,89.39548889228277L205.63636363636365,118.77202550002507L205.63636363636365,162.3824786373547L205.63636363636365,107.47893517357963L205.63636363636365,179.42786302736826L205.63636363636365,85.99042403697968L205.63636363636365,64.29067131451198L210.9090909090909,145.90659951312202L210.9090909090909,139.72149079186576L210.9090909090909,74.77014393465859L210.9090909090909,75.81446048191616L210.9090909090909,3.544397490365173L210.9090909090909,59.99415973254612L210.9090909090909,36.39487552642822L210.9090909090909,158.05543227706636L210.9090909090909,67.62515652179718L210.9090909090909,73.21452810083117L210.9090909090909,133.87711010660442L210.9090909090909,100.28038379124233L210.9090909090909,119.70017123222351L210.9090909090909,181.39009932109286L210.9090909090909,137.9107151372092L210.9090909090909,162.94242859738213L210.9090909090909,71.89478061880385L210.9090909090909,117.79247101715633L210.9090909090909,-43.93974494934082L210.9090909090909,181.29297129596983L210.9090909090909,170.70965631519044L210.9090909090909,2.9427448000226843L210.9090909090909,48.78602722712925L210.9090909090909,153.66938115017754L210.9090909090909,46.91686473573958L210.9090909090909,178.38316215787614L210.9090909090909,117.58456022398812L216.1818181818182,27.19756216662272L216.1818181818182,198.40804611785072L216.1818181818182,137.0295772893088L216.1818181818182,91.69500185762132L216.1818181818182,143.82970708608627L216.1818181818182,27.010751417704995L216.1818181818182,156.88411607061113L216.1818181818182,72.24798028809684L216.1818181818182,51.95792152200427L216.1818181818182,63.772409013339455L216.1818181818182,151.88536487306865L216.1818181818182,143.20800935370582L216.1818181818182,65.53557392529079L216.1818181818182,66.29797880990165L216.1818181818182,54.25354605061668L216.1818181818182,71.11415433883667L216.1818181818182,78.16206647668567L216.1818181818182,48.76527382646289L216.1818181818182,117.91672013487135L216.1818181818182,129.84327900409698L216.1818181818182,114.19414482797896L216.1818181818182,-49.05499853406633L216.1818181818182,120.39990898541042L216.1818181818182,156.0951628088951L216.1818181818182,97.00084912776947L216.1818181818182,24.378716826438904L221.45454545454547,102.2681737457003L221.45454545454547,45.57003383977073L221.45454545454547,150.8703773873193L221.45454545454547,92.41109214510237L221.45454545454547,100.70447960921696L221.45454545454547,18.463937350681864L221.45454545454547,53.12956176485335L221.45454545454547,191.61340986830848L221.45454545454547,98.0962277821132L221.45454545454547,19.152552366256714L221.45454545454547,73.13487543378558L221.45454545454547,75.87653982639313L221.45454545454547,81.12443733215332L221.45454545454547,132.36301614556993L221.45454545454547,18.199870296887003L221.45454545454547,5.379709482193013L221.45454545454547,141.31379809549878L221.45454545454547,104.82583068098342L221.45454545454547,136.31607929297854L221.45454545454547,146.8554986459868L221.45454545454547,124.7378670828683L226.72727272727275,32.77751408304488L226.72727272727275,55.68599791186198L226.72727272727275,111.74736862523216L226.72727272727275,139.06678656169345L226.72727272727275,110.09244694028581L226.72727272727275,30.719551409993855L226.72727272727275,47.38896315438407L226.72727272727275,137.88623908587863L226.72727272727275,79.31346574851445L226.72727272727275,97.4333246776036L226.72727272727275,49.0042016846793L226.72727272727275,160.81258259500774L226.72727272727275,134.8053311961038L226.72727272727275,136.98475476673673L226.72727272727275,111.49367073604039L226.72727272727275,171.75771058457238L226.72727272727275,130.60642239025663L226.72727272727275,132.7621988398688L226.72727272727275,51.943483063152875L226.72727272727275,80.80837374074119L226.72727272727275,110.16201680047172L232,90.70468635218484L232,47.89305828298842L232,146.22239935398102L232,19.866140791348062L232,119.07175162860325L232,14.473542196410055L232,-7.038661275591147L232,86.30977320671082L232,167.23750839063098L232,108.36035937922341L232,89.74906534808022L232,85.48848412718093L232,-44.822781801223755L232,118.44230716569083L232,125.78599670955113L232,121.44072895390647L232,47.37387662274497L232,79.46466263702938L232,44.57563396862575L232,67.36173754079002L232,84.90992091383254" style="fill: none;" fill="none"></path></g></g></g></g></g></g><g transform="translate(40, 177)" clip-path="url(#clip_1)"><clipPath id="clip_1"><rect width="290" height="23"></rect></clipPath><g><g><line x1="0" y1="0" x2="0" y2="5" style="visibility: inherit;" fill="rgb(0, 0, 0)" stroke="rgb(204, 204, 204)" stroke-width="1px"></line><line x1="26.363636363636363" y1="0" x2="26.363636363636363" y2="5" style="visibility: inherit;" fill="rgb(0, 0, 0)" stroke="rgb(204, 204, 204)" stroke-width="1px"></line><line x1="52.72727272727273" y1="0" x2="52.72727272727273" y2="5" style="visibility: inherit;" fill="rgb(0, 0, 0)" stroke="rgb(204, 204, 204)" stroke-width="1px"></line><line x1="79.09090909090908" y1="0" x2="79.09090909090908" y2="5" style="visibility: inherit;" fill="rgb(0, 0, 0)" stroke="rgb(204, 204, 204)" stroke-width="1px"></line><line x1="105.45454545454545" y1="0" x2="105.45454545454545" y2="5" style="visibility: inherit;" fill="rgb(0, 0, 0)" stroke="rgb(204, 204, 204)" stroke-width="1px"></line><line x1="131.8181818181818" y1="0" x2="131.8181818181818" y2="5" style="visibility: inherit;" fill="rgb(0, 0, 0)" stroke="rgb(204, 204, 204)" stroke-width="1px"></line><line x1="158.18181818181816" y1="0" x2="158.18181818181816" y2="5" style="visibility: inherit;" fill="rgb(0, 0, 0)" stroke="rgb(204, 204, 204)" stroke-width="1px"></line><line x1="184.54545454545453" y1="0" x2="184.54545454545453" y2="5" style="visibility: inherit;" fill="rgb(0, 0, 0)" stroke="rgb(204, 204, 204)" stroke-width="1px"></line><line x1="210.9090909090909" y1="0" x2="210.9090909090909" y2="5" style="visibility: inherit;" fill="rgb(0, 0, 0)" stroke="rgb(204, 204, 204)" stroke-width="1px"></line><line x1="237.27272727272728" y1="0" x2="237.27272727272728" y2="5" style="visibility: inherit;" fill="rgb(0, 0, 0)" stroke="rgb(204, 204, 204)" stroke-width="1px"></line><line x1="263.6363636363636" y1="0" x2="263.6363636363636" y2="5" style="visibility: inherit;" fill="rgb(0, 0, 0)" stroke="rgb(204, 204, 204)" stroke-width="1px"></line><line x1="290" y1="0" x2="290" y2="5" style="visibility: inherit;" fill="rgb(0, 0, 0)" stroke="rgb(204, 204, 204)" stroke-width="1px"></line></g><g transform="translate(0, 8)"><text x="0" y="0" dx="0em" dy="0.95em" style="text-anchor: middle; visibility: hidden; font-family: Roboto, sans-serif; font-size: 12px; font-weight: 200;" fill="rgb(33, 33, 33)" stroke="none" stroke-width="1px">-5</text><text x="26.363636363636363" y="0" dx="0em" dy="0.95em" style="text-anchor: middle; visibility: inherit; font-family: Roboto, sans-serif; font-size: 12px; font-weight: 200;" fill="rgb(33, 33, 33)" stroke="none" stroke-width="1px">0</text><text x="52.72727272727273" y="0" dx="0em" dy="0.95em" style="text-anchor: middle; visibility: inherit; font-family: Roboto, sans-serif; font-size: 12px; font-weight: 200;" fill="rgb(33, 33, 33)" stroke="none" stroke-width="1px">5</text><text x="79.09090909090908" y="0" dx="0em" dy="0.95em" style="text-anchor: middle; visibility: inherit; font-family: Roboto, sans-serif; font-size: 12px; font-weight: 200;" fill="rgb(33, 33, 33)" stroke="none" stroke-width="1px">10</text><text x="105.45454545454545" y="0" dx="0em" dy="0.95em" style="text-anchor: middle; visibility: inherit; font-family: Roboto, sans-serif; font-size: 12px; font-weight: 200;" fill="rgb(33, 33, 33)" stroke="none" stroke-width="1px">15</text><text x="131.8181818181818" y="0" dx="0em" dy="0.95em" style="text-anchor: middle; visibility: inherit; font-family: Roboto, sans-serif; font-size: 12px; font-weight: 200;" fill="rgb(33, 33, 33)" stroke="none" stroke-width="1px">20</text><text x="158.18181818181816" y="0" dx="0em" dy="0.95em" style="text-anchor: middle; visibility: inherit; font-family: Roboto, sans-serif; font-size: 12px; font-weight: 200;" fill="rgb(33, 33, 33)" stroke="none" stroke-width="1px">25</text><text x="184.54545454545453" y="0" dx="0em" dy="0.95em" style="text-anchor: middle; visibility: inherit; font-family: Roboto, sans-serif; font-size: 12px; font-weight: 200;" fill="rgb(33, 33, 33)" stroke="none" stroke-width="1px">30</text><text x="210.9090909090909" y="0" dx="0em" dy="0.95em" style="text-anchor: middle; visibility: inherit; font-family: Roboto, sans-serif; font-size: 12px; font-weight: 200;" fill="rgb(33, 33, 33)" stroke="none" stroke-width="1px">35</text><text x="237.27272727272728" y="0" dx="0em" dy="0.95em" style="text-anchor: middle; visibility: inherit; font-family: Roboto, sans-serif; font-size: 12px; font-weight: 200;" fill="rgb(33, 33, 33)" stroke="none" stroke-width="1px">40</text><text x="263.6363636363636" y="0" dx="0em" dy="0.95em" style="text-anchor: middle; visibility: inherit; font-family: Roboto, sans-serif; font-size: 12px; font-weight: 200;" fill="rgb(33, 33, 33)" stroke="none" stroke-width="1px">45</text><text x="290" y="0" dx="0em" dy="0.95em" style="text-anchor: middle; visibility: hidden; font-family: Roboto, sans-serif; font-size: 12px; font-weight: 200;" fill="rgb(33, 33, 33)" stroke="none" stroke-width="1px">50</text></g><line x1="0" y1="0" x2="290" y2="0" fill="rgb(0, 0, 0)" stroke="rgb(204, 204, 204)" stroke-width="1px"></line></g></g></g></g></svg>