<svg viewBox="0 0 330 200" xmlns="http://www.w3.org/2000/svg"><g><g><g><g><g><line x1="61.953125" y1="177" x2="56.953125" y2="177" style="visibility: inherit;" fill="rgb(0, 0, 0)" stroke="rgb(204, 204, 204)" stroke-width="1px"></line><line x1="61.953125" y1="160.9090909090909" x2="56.953125" y2="160.9090909090909" style="visibility: inherit;" fill="rgb(0, 0, 0)" stroke="rgb(204, 204, 204)" stroke-width="1px"></line><line x1="61.953125" y1="144.8181818181818" x2="56.953125" y2="144.8181818181818" style="visibility: inherit;" fill="rgb(0, 0, 0)" stroke="rgb(204, 204, 204)" stroke-width="1px"></line><line x1="61.953125" y1="128.72727272727272" x2="56.953125" y2="128.72727272727272" style="visibility: inherit;" fill="rgb(0, 0, 0)" stroke="rgb(204, 204, 204)" stroke-width="1px"></line><line x1="61.953125" y1="112.63636363636364" x2="56.953125" y2="112.63636363636364" style="visibility: inherit;" fill="rgb(0, 0, 0)" stroke="rgb(204, 204, 204)" stroke-width="1px"></line><line x1="61.953125" y1="96.54545454545453" x2="56.953125" y2="96.54545454545453" style="visibility: inherit;" fill="rgb(0, 0, 0)" stroke="rgb(204, 204, 204)" stroke-width="1px"></line><line x1="61.953125" y1="80.45454545454547" x2="56.953125" y2="80.45454545454547" style="visibility: inherit;" fill="rgb(0, 0, 0)" stroke="rgb(204, 204, 204)" stroke-width="1px"></line><line x1="61.953125" y1="64.36363636363636" x2="56.953125" y2="64.36363636363636" style="visibility: inherit;" fill="rgb(0, 0, 0)" stroke="rgb(204, 204, 204)" stroke-width="1px"></line><line x1="61.953125" y1="48.272727272727266" x2="56.953125" y2="48.272727272727266" style="visibility: inherit;" fill="rgb(0, 0, 0)" stroke="rgb(204, 204, 204)" stroke-width="1px"></line><line x1="61.953125" y1="32.181818181818215" x2="56.953125" y2="32.181818181818215" style="visibility: inherit;" fill="rgb(0, 0, 0)" stroke="rgb(204, 204, 204)" stroke-width="1px"></line><line x1="61.953125" y1="16.090909090909097" x2="56.953125" y2="16.090909090909097" style="visibility: inherit;" fill="rgb(0, 0, 0)" stroke="rgb(204, 204, 204)" stroke-width="1px"></line><line x1="61.953125" y1="0" x2="56.953125" y2="0" style="visibility: inherit;" fill="rgb(0, 0, 0)" stroke="rgb(204, 204, 204)" stroke-width="1px"></line></g><g transform="translate(51.953125, 0)"><text x="0" y="177" dx="0em" dy="0.3em" style="text-anchor: end; visibility: hidden; font-family: Roboto, sans-serif; font-size: 12px; font-weight: 200;" fill="rgb(33, 33, 33)" stroke="none" stroke-width="1px">0.045</text><text x="0" y="160.9090909090909" dx="0em" dy="0.3em" style="text-anchor: end; visibility: inherit; font-family: Roboto, sans-serif; font-size: 12px; font-weight: 200;" fill="rgb(33, 33, 33)" stroke="none" stroke-width="1px">0.05</text><text x="0" y="144.8181818181818" dx="0em" dy="0.3em" style="text-anchor: end; visibility: hidden; font-family: Roboto, sans-serif; font-size: 12px; font-weight: 200;" fill="rgb(33, 33, 33)" stroke="none" stroke-width="1px">0.055</text><text x="0" y="128.72727272727272" dx="0em" dy="0.3em" style="text-anchor: end; visibility: inherit; font-family: Roboto, sans-serif; font-size: 12px; font-weight: 200;" fill="rgb(33, 33, 33)" stroke="none" stroke-width="1px">0.06</text><text x="0" y="112.63636363636364" dx="0em" dy="0.3em" style="text-anchor: end; visibility: hidden; font-family: Roboto, sans-serif; font-size: 12px; font-weight: 200;" fill="rgb(33, 33, 33)" stroke="none" stroke-width="1px">0.065</text><text x="0" y="96.54545454545453" dx="0em" dy="0.3em" style="text-anchor: end; visibility: inherit; font-family: Roboto, sans-serif; font-size: 12px; font-weight: 200;" fill="rgb(33, 33, 33)" stroke="none" stroke-width="1px">0.07</text><text x="0" y="80.45454545454547" dx="0em" dy="0.3em" style="text-anchor: end; visibility: hidden; font-family: Roboto, sans-serif; font-size: 12px; font-weight: 200;" fill="rgb(33, 33, 33)" stroke="none" stroke-width="1px">0.075</text><text x="0" y="64.36363636363636" dx="0em" dy="0.3em" style="text-anchor: end; visibility: inherit; font-family: Roboto, sans-serif; font-size: 12px; font-weight: 200;" fill="rgb(33, 33, 33)" stroke="none" stroke-width="1px">0.08</text><text x="0" y="48.272727272727266" dx="0em" dy="0.3em" style="text-anchor: end; visibility: hidden; font-family: Roboto, sans-serif; font-size: 12px; font-weight: 200;" fill="rgb(33, 33, 33)" stroke="none" stroke-width="1px">0.085</text><text x="0" y="32.181818181818215" dx="0em" dy="0.3em" style="text-anchor: end; visibility: inherit; font-family: Roboto, sans-serif; font-size: 12px; font-weight: 200;" fill="rgb(33, 33, 33)" stroke="none" stroke-width="1px">0.09</text><text x="0" y="16.090909090909097" dx="0em" dy="0.3em" style="text-anchor: end; visibility: hidden; font-family: Roboto, sans-serif; font-size: 12px; font-weight: 200;" fill="rgb(33, 33, 33)" stroke="none" stroke-width="1px">0.095</text><text x="0" y="0" dx="0em" dy="0.3em" style="text-anchor: end; visibility: hidden; font-family: Roboto, sans-serif; font-size: 12px; font-weight: 200;" fill="rgb(33, 33, 33)" stroke="none" stroke-width="1px">0.1</text></g><line x1="61.953125" y1="0" x2="61.953125" y2="177" fill="rgb(0, 0, 0)" stroke="rgb(204, 204, 204)" stroke-width="1px"></line></g></g><g transform="translate(61, 0)" clip-path="url(#clip_0)"><clipPath id="clip_0"><rect width="268" height="177"></rect></clipPath><g><g><g><line x1="0" y1="0" x2="0" y2="177" fill="rgb(0, 0, 0)" stroke="rgb(66, 66, 66)" stroke-width="1px" opacity="0.25"></line><line x1="22.337239583333332" y1="0" x2="22.337239583333332" y2="177" fill="rgb(0, 0, 0)" stroke="rgb(66, 66, 66)" stroke-width="1px" opacity="0.25"></line><line x1="44.674479166666664" y1="0" x2="44.674479166666664" y2="177" fill="rgb(0, 0, 0)" stroke="rgb(66, 66, 66)" stroke-width="1px" opacity="0.25"></line><line x1="67.01171875" y1="0" x2="67.01171875" y2="177" fill="rgb(0, 0, 0)" stroke="rgb(66, 66, 66)" stroke-width="1px" opacity="0.25"></line><line x1="89.34895833333333" y1="0" x2="89.34895833333333" y2="177" fill="rgb(0, 0, 0)" stroke="rgb(66, 66, 66)" stroke-width="1px" opacity="0.25"></line><line x1="111.68619791666667" y1="0" x2="111.68619791666667" y2="177" fill="rgb(0, 0, 0)" stroke="rgb(66, 66, 66)" stroke-width="1px" opacity="0.25"></line><line x1="134.0234375" y1="0" x2="134.0234375" y2="177" fill="rgb(0, 0, 0)" stroke="rgb(66, 66, 66)" stroke-width="1px" opacity="0.25"></line><line x1="156.36067708333334" y1="0" x2="156.36067708333334" y2="177" fill="rgb(0, 0, 0)" stroke="rgb(66, 66, 66)" stroke-width="1px" opacity="0.25"></line><line x1="178.69791666666666" y1="0" x2="178.69791666666666" y2="177" fill="rgb(0, 0, 0)" stroke="rgb(66, 66, 66)" stroke-width="1px" opacity="0.25"></line><line x1="201.03515625" y1="0" x2="201.03515625" y2="177" fill="rgb(0, 0, 0)" stroke="rgb(66, 66, 66)" stroke-width="1px" opacity="0.25"></line><line x1="223.37239583333334" y1="0" x2="223.37239583333334" y2="177" fill="rgb(0, 0, 0)" stroke="rgb(66, 66, 66)" stroke-width="1px" opacity="0.25"></line><line x1="245.70963541666666" y1="0" x2="245.70963541666666" y2="177" fill="rgb(0, 0, 0)" stroke="rgb(66, 66, 66)" stroke-width="1px" opacity="0.25"></line><line x1="268.046875" y1="0" x2="268.046875" y2="177" fill="rgb(0, 0, 0)" stroke="rgb(66, 66, 66)" stroke-width="1px" opacity="0.25"></line></g><g><line x1="0" y1="177" x2="268.046875" y2="177" fill="rgb(0, 0, 0)" stroke="rgb(66, 66, 66)" stroke-width="1px" opacity="0.25"></line><line x1="0" y1="160.9090909090909" x2="268.046875" y2="160.9090909090909" fill="rgb(0, 0, 0)" stroke="rgb(66, 66, 66)" stroke-width="1px" opacity="0.25"></line><line x1="0" y1="144.8181818181818" x2="268.046875" y2="144.8181818181818" fill="rgb(0, 0, 0)" stroke="rgb(66, 66, 66)" stroke-width="1px" opacity="0.25"></line><line x1="0" y1="128.72727272727272" x2="268.046875" y2="128.72727272727272" fill="rgb(0, 0, 0)" stroke="rgb(66, 66, 66)" stroke-width="1px" opacity="0.25"></line><line x1="0" y1="112.63636363636364" x2="268.046875" y2="112.63636363636364" fill="rgb(0, 0, 0)" stroke="rgb(66, 66, 66)" stroke-width="1px" opacity="0.25"></line><line x1="0" y1="96.54545454545453" x2="268.046875" y2="96.54545454545453" fill="rgb(0, 0, 0)" stroke="rgb(66, 66, 66)" stroke-width="1px" opacity="0.25"></line><line x1="0" y1="80.45454545454547" x2="268.046875" y2="80.45454545454547" fill="rgb(0, 0, 0)" stroke="rgb(66, 66, 66)" stroke-width="1px" opacity="0.25"></line><line x1="0" y1="64.36363636363636" x2="268.046875" y2="64.36363636363636" fill="rgb(0, 0, 0)" stroke="rgb(66, 66, 66)" stroke-width="1px" opacity="0.25"></line><line x1="0" y1="48.272727272727266" x2="268.046875" y2="48.272727272727266" fill="rgb(0, 0, 0)" stroke="rgb(66, 66, 66)" stroke-width="1px" opacity="0.25"></line><line x1="0" y1="32.181818181818215" x2="268.046875" y2="32.181818181818215" fill="rgb(0, 0, 0)" stroke="rgb(66, 66, 66)" stroke-width="1px" opacity="0.25"></line><line x1="0" y1="16.090909090909097" x2="268.046875" y2="16.090909090909097" fill="rgb(0, 0, 0)" stroke="rgb(66, 66, 66)" stroke-width="1px" opacity="0.25"></line><line x1="0" y1="0" x2="268.046875" y2="0" fill="rgb(0, 0, 0)" stroke="rgb(66, 66, 66)" stroke-width="1px" opacity="0.25"></line></g></g></g><g><g><line x1="0" y1="321.81818181818176" x2="268.046875" y2="321.81818181818176" fill="rgb(0, 0, 0)" stroke="rgb(153, 153, 153)" stroke-width="1.5px"></line></g></g><g><g><line x1="22.337239583333332" y1="0" x2="22.337239583333332" y2="177" fill="rgb(0, 0, 0)" stroke="rgb(153, 153, 153)" stroke-width="1.5px"></line></g></g><g><g><g><g><g><path stroke="rgb(255, 112, 67)" stroke-width="2px" d="M23.230729166666666,-8.226266613612005L23.230729166666666,7.722916069634826L23.230729166666666,25.327240690508905L23.677473958333334,26.35331046726679L23.677473958333334,33.218949385527026L23.677473958333334,23.630676150981245L24.12421875,26.282143252128627L24.570963541666664,24.206054652264534L24.570963541666664,16.745411808871314L24.570963541666664,13.297546119200327L25.017708333333335,24.1615799774315L25.017708333333335,22.436766862829966L25.017708333333335,23.141668831527575L25.464453125,22.75976931859959L25.464453125,26.762735741177888L25.464453125,29.832176471174368L25.911197916666666,34.644401770548285L25.911197916666666,20.524328884510002L25.911197916666666,9.724260010686555L26.357942708333333,7.268844425398651L26.8046875,5.9978810225544175L26.8046875,13.462252265613172L27.251432291666667,1.8967229174516156L27.251432291666667,-5.204262568579613L27.698177083333334,13.292296874565913L28.144921874999998,3.7933670950455842L28.144921874999998,7.349370847758319L28.144921874999998,7.686351652832071L28.144921874999998,11.36501691414162L28.144921874999998,10.440711258756416L28.144921874999998,5.199387463265542L28.59166666666667,8.479081047838553L28.59166666666667,0.438254656908765L29.038411458333336,-12.37409229884919L29.038411458333336,-4.404709141195554L29.038411458333336,1.6424701245754927L29.038411458333336,10.724525908450314L29.48515625,19.90387893870549L29.931901041666666,18.275042933690113L29.931901041666666,5.653391816581949L30.378645833333334,1.7397697509321717L30.378645833333334,-10.601402958716639L30.825390625,-6.583194709067511L30.825390625,2.9998448782257685L30.825390625,2.448794329879587L31.272135416666668,2.29791512818743L31.272135416666668,10.738843183614371L31.71888020833333,13.221279295673964L31.71888020833333,17.777993199984895L32.165625,18.6634171355952L32.165625,21.800140263257074L32.165625,17.851826264629885L32.612369791666666,22.934954735579858L32.612369791666666,28.11980021452046L33.05911458333333,21.216685517400528L33.05911458333333,22.814537760078807L33.05911458333333,26.299022262567114L33.05911458333333,27.863317624484374L33.05911458333333,34.89622596366439L33.05911458333333,36.103756331988116L33.05911458333333,19.942349513546027L33.505859375,18.050351632427436L33.505859375,15.663592033926589L33.505859375,22.498549568349937L33.95260416666667,13.286373306121673L34.399348958333334,3.598764506710297L35.29283854166666,8.644896636258169L35.739583333333336,7.682390781046603L35.739583333333336,-8.069946328695753L36.63307291666666,-1.075307791285888L36.63307291666666,2.080114398393879L36.63307291666666,9.958759662983725L37.07981770833334,10.671107434510196L37.526562500000004,18.001005321034366L38.42005208333334,22.966488669084264L38.42005208333334,34.1895845771442L38.42005208333334,27.53425851230581L38.866796875,26.465226528525296L38.866796875,26.169227737113854L39.313541666666666,34.120738061497924L39.313541666666666,38.925423301476656L39.76028645833333,26.11246810651614L39.76028645833333,35.90236836578L39.76028645833333,39.036323544212934L40.20703125,34.699846086405486L40.20703125,23.077375760989042L40.65377604166667,21.407985961440474L41.10052083333333,23.981869848819393L41.10052083333333,33.685922884016584L41.547265625,34.70385031661232L41.547265625,32.658355521151876L41.99401041666667,32.69687404532716L41.99401041666667,27.049789006143342L42.44075520833333,38.29570086817231L42.44075520833333,37.588188378546164L42.8875,45.18723624046946L42.8875,37.166114798811584L42.8875,27.958656373518647L43.33424479166666,36.44844910541617L43.78098958333333,43.01443638675867L43.78098958333333,46.30819424898022L43.78098958333333,39.82388327707557L43.78098958333333,44.02223068325125L44.227734375000004,43.52817625479933L44.674479166666664,45.24302286539373L44.674479166666664,41.66038637340661L45.12122395833333,27.886772855778883L45.12122395833333,39.673162573708645L45.567968750000006,36.289522979396956L46.014713541666666,33.147662023770195L46.014713541666666,32.86005983647264L46.46145833333333,39.608642362596136L46.908203125,43.95214215237067L47.35494791666667,47.42944237522822L47.801692708333334,44.859992329472924L48.2484375,45.554265533619045L48.2484375,53.61225991262103L48.2484375,56.663531027583126L48.2484375,55.79004657240881L48.69518229166667,50.01200060330168L48.69518229166667,45.10948079997398L48.69518229166667,48.137406294626004L49.14192708333333,59.18895025082701L49.588671875,56.11385137292633L49.588671875,52.69251149572258L50.03541666666667,52.76259738865091L50.03541666666667,48.135594282534136L50.03541666666667,53.04973830322405L50.03541666666667,47.20888592671349L50.03541666666667,38.40148218727717L50.48216145833333,33.49271848418077L50.48216145833333,30.639420061107977L51.37565104166667,31.27078545411442L51.37565104166667,34.358405082149865L51.82239583333333,36.657932626922296L51.82239583333333,41.66958738538654L51.82239583333333,39.38954535811484L51.82239583333333,42.55901832748458L52.269140625,48.45722510639055L52.269140625,47.87939255762614L52.715885416666666,51.91211086649898L53.16263020833333,50.75084870684914L53.16263020833333,49.86746613996304L54.05611979166667,55.1749405918477L54.05611979166667,46.46721473029908L54.05611979166667,45.657682644586124L54.502864583333334,39.398588468341586L54.949609374999994,40.33796155250391L54.949609374999994,42.881927693735875L54.949609374999994,32.54802280194321L55.39635416666667,23.741140615641076L55.39635416666667,28.099812058731516L55.39635416666667,31.777888183662515L55.39635416666667,20.401355957996625L55.843098958333336,3.609954582850809L56.289843749999996,7.051918906194147L56.73658854166667,14.581829801482177L56.73658854166667,15.316428395858855L56.73658854166667,26.553905881147223L57.18333333333334,24.254134191815243L57.630078125,28.367001408149104L58.07682291666667,13.913506485966797L58.52356770833333,10.176237794449575L58.9703125,10.643066607422593L59.41705729166667,14.931784938604153L59.41705729166667,21.557885777094832L59.41705729166667,20.406365670752468L59.41705729166667,20.80614460546743L59.86380208333333,25.611090854048857L59.86380208333333,24.62214957837668L59.86380208333333,26.159355553764428L60.310546875,24.20488395464017L60.75729166666667,26.70344753074054L60.75729166666667,40.33301245494649L60.75729166666667,39.776984967808424L61.65078125,45.321416631010166L61.65078125,47.662486900618944L62.09752604166666,51.428510720883764L62.09752604166666,55.726159824562785L62.09752604166666,48.73771345717567L62.09752604166666,51.90967918387429L62.09752604166666,48.50928846898118L62.09752604166666,54.10537092563229L62.544270833333336,57.86407804536719L63.43776041666666,52.17500585365823L63.88450520833334,45.28871420623445L63.88450520833334,44.28493342271038L64.33125,46.9226382448274L64.33125,48.77106424191951L64.77799479166667,43.765690175200554L64.77799479166667,46.60257896485817L64.77799479166667,52.75125443864249L65.22473958333333,53.1770589563572L65.22473958333333,47.842097499827034L65.22473958333333,46.48093168319836L65.22473958333333,50.09461253158487L66.11822916666667,64.15772854676932L66.56497395833333,58.79728198796352L67.01171875,63.788515854747594L67.01171875,59.448864283062825L67.90520833333333,56.90258285877531L67.90520833333333,50.98034637292403L68.351953125,46.67176730814422L68.351953125,44.647388471159466L68.79869791666667,48.13234016423913L68.79869791666667,51.34462647748245L69.24544270833334,55.70053062616002L69.6921875,58.99530819359887L69.6921875,63.34855221932587L69.6921875,62.17672971366222L69.6921875,64.70452811635431L70.13893229166666,67.00883742599171L70.13893229166666,72.59734826906157L70.13893229166666,73.7549006349791L70.13893229166666,66.73399489436196L70.58567708333332,58.33324569325279L70.58567708333332,59.77090786958268L70.58567708333332,63.762043930523205L71.032421875,57.40898955288601L71.032421875,63.79839679220064L71.032421875,57.09342734777974L71.032421875,58.55360114066667L71.032421875,51.78038288938275L71.032421875,60.903629231449884L71.032421875,66.65547756520027L71.47916666666667,59.99545115801368L71.92591145833333,58.59786616490301L71.92591145833333,56.81416946071024L71.92591145833333,57.418126146490955L71.92591145833333,45.58814973656493L72.37265625,54.151384261584596L72.37265625,51.83556044724925L73.26614583333333,60.10972613440572L73.26614583333333,56.09248198337568L73.26614583333333,58.600328831959196L73.712890625,52.147452134925004L73.712890625,37.83183197262637L73.712890625,37.34011523094235L73.712890625,37.146691284151906L74.15963541666667,45.22825552262386L74.15963541666667,40.738769266386306L74.15963541666667,49.73629701333642L74.60638020833333,48.14398402903025L75.05312500000001,40.51823783515959L75.49986979166667,44.318023253551445L75.49986979166667,44.98067382351854L75.94661458333333,51.398407654946546L75.94661458333333,51.540718344553326L76.39335937499999,51.84091218129996L76.39335937499999,53.06487675180501L76.39335937499999,58.117207141314495L76.39335937499999,64.19988038272501L76.84010416666668,63.15629179626589L76.84010416666668,60.565482370862036L76.84010416666668,44.50573033088609L77.28684895833334,39.27470261476096L77.73359375,37.65223269192419L77.73359375,48.79057866484698L78.62708333333333,59.6615125488054L78.62708333333333,62.01556124743191L79.52057291666667,62.2196911948508L79.52057291666667,65.1637458548631L79.96731770833334,64.65515294697254L80.4140625,72.21399045183178L80.4140625,76.35299009433085L80.4140625,77.08582166493865L80.4140625,72.89047709712918L80.4140625,77.67564425870826L80.86080729166667,73.37947835228505L80.86080729166667,68.75569433054075L81.30755208333333,72.03016319834991L81.754296875,69.63431641197113L82.20104166666665,74.6305471661511L82.20104166666665,54.00527249181802L82.64778645833334,57.63874901124649L82.64778645833334,60.48689583458525L82.64778645833334,66.27932725258198L83.09453125,67.3723592641209L83.09453125,62.51546799611028L83.09453125,63.51819790080011L83.54127604166666,61.92642525596565L83.98802083333334,72.91681692718548L83.98802083333334,68.84419494636016L83.98802083333334,45.19155862672791L84.434765625,46.67834075023433L84.434765625,51.99681162463373L84.88151041666666,57.06238397457568L85.775,57.87858612734791L85.775,50.86527144576951L85.775,54.60701646572695L86.22174479166667,55.970853116194476L86.22174479166667,65.65590063196959L86.22174479166667,64.92010500154933L86.22174479166667,74.00239634676014L86.66848958333333,62.38834750065511L86.66848958333333,62.92328923906482L87.115234375,43.45579722128235L87.56197916666666,46.90725483866873L87.56197916666666,57.92491889871541L87.56197916666666,66.32012656220968L87.56197916666666,70.96509866557307L87.56197916666666,75.9879757052234L88.00872395833333,70.39947735290615L88.00872395833333,70.49621166734322L88.00872395833333,69.31456461399341L88.45546875000001,73.98427466643294L88.45546875000001,79.7834163409143L88.45546875000001,74.81055368220679L89.34895833333333,59.36749565287584L89.34895833333333,64.86703169857263L89.795703125,68.59279062370366L89.795703125,70.17593479716804L90.24244791666666,73.09360581030944L90.68919270833332,70.9268844983034L91.13593750000001,75.04281056576431L91.13593750000001,81.29444931215356L91.58268229166667,74.9180420396108L91.58268229166667,83.9199758078057L91.58268229166667,76.40405209542317L92.47617187499999,76.49462924929159L92.47617187499999,73.24598876353149L92.47617187499999,78.16314827231538L92.92291666666667,72.00567159691052L93.36966145833333,67.67361094210305L93.36966145833333,65.03343193269167L93.81640625,70.04726447191146L94.26315104166667,76.81491658190792L94.70989583333333,79.8901012210774L95.156640625,81.15460220549475L95.156640625,79.58699922449989L95.156640625,85.09701027134403L95.60338541666667,92.20783614513068L95.60338541666667,85.9580295816605L96.05013020833333,78.94199056793586L96.05013020833333,85.11441102083207L96.496875,92.13484995364769L96.496875,92.33468525417067L97.39036458333334,92.13229181872721L97.39036458333334,87.54737106168236L97.39036458333334,89.99173481413153L97.39036458333334,93.33539154638832L97.39036458333334,92.41527752878892L98.28385416666666,95.80353860172028L98.28385416666666,87.86703186391009L98.73059895833333,81.98612946613751L99.17734375,80.90493768719243L99.17734375,89.58989005028403L99.17734375,90.040898655839L99.17734375,85.78399181248948L99.62408854166667,89.50438184056678L99.62408854166667,85.00031999542975L99.62408854166667,93.37300750633551L99.62408854166667,90.32224908111915L99.62408854166667,90.14766572649617L100.07083333333334,95.35031940599833L100.07083333333334,91.15756151233913L100.07083333333334,90.56672392166269L100.517578125,98.01851864019353L100.517578125,107.38729737143149L100.517578125,101.45007747595834L100.517578125,102.707407622187L100.96432291666666,97.97356576912625L101.41106770833333,95.96385998002879L102.30455729166667,95.83430818132531L102.30455729166667,94.70328032329861L102.30455729166667,96.78285159372581L102.75130208333334,95.5198815909712L102.75130208333334,100.63972664793745L102.75130208333334,108.8544274640727L103.198046875,94.74402553859301L103.64479166666666,103.4963560665804L104.09153645833332,94.96179354054767L104.53828125,75.89791995527962L104.53828125,78.20078619853761L104.98502604166667,78.64969284078987L105.878515625,77.41561042875784L105.878515625,84.08705350401371L106.32526041666667,80.48049522397591L106.77200520833333,81.49258304310784L106.77200520833333,87.65205555225836L107.21875,88.33871193011824L107.21875,93.48512661146091L107.21875,94.69528737880579L107.66549479166667,103.32003613494457L107.66549479166667,96.30583423259198L108.11223958333333,93.1135388669618L108.11223958333333,86.57489171455157L109.00572916666667,92.72639342245958L109.45247395833333,79.55923310144745L109.45247395833333,85.36287704187832L109.45247395833333,84.35201013523388L109.89921874999999,82.94340187844301L109.89921874999999,84.53326581223985L109.89921874999999,86.78462429305789L110.34596354166668,84.76131413281196L110.34596354166668,81.24909741121922L110.34596354166668,86.97131454715095L110.34596354166668,88.14034518730595L110.79270833333334,94.02169350391476L110.79270833333334,87.15758054486577L111.239453125,82.06476374955217L111.239453125,83.90945796729197L111.239453125,89.68927155045783L111.239453125,85.6256164915936L111.68619791666667,92.40521111848791L111.68619791666667,96.10149355755969L111.68619791666667,92.95497318874116L111.68619791666667,92.9492842820318L112.13294270833333,98.24705615072229L112.13294270833333,94.64619848212028L112.13294270833333,94.1791823071926L112.57968749999999,100.38363673213077L112.57968749999999,95.08625137620399L112.57968749999999,93.75410502008111L112.57968749999999,92.1476638629993L113.02643229166667,94.24949789601479L113.02643229166667,97.27092402975585L113.02643229166667,96.47826793193646L113.47317708333334,94.76221383795591L113.47317708333334,95.23773718177524L113.919921875,98.4065699980137L113.919921875,102.87612637590242L113.919921875,95.53012728566945L113.919921875,95.62192472645312L113.919921875,91.32349760768919L114.36666666666667,83.37514579627269L114.81341145833333,92.2858245202958L114.81341145833333,95.73526963008875L114.81341145833333,98.9334015753215L114.81341145833333,94.44042319224599L115.26015625,91.24195246962515L115.26015625,94.90750920574698L115.70690104166665,91.43465913269029L116.15364583333334,89.26408905121734L116.15364583333334,93.15568656161484L116.600390625,102.78286248693746L117.04713541666666,109.75654173765997L117.04713541666666,113.82167093614339L117.49388020833334,112.84622995655927L117.49388020833334,112.39567009433543L117.49388020833334,114.53412118040144L117.49388020833334,113.15746238437688L117.940625,112.50626524611505L117.940625,118.2492469588319L118.38736979166666,123.022127363775L118.83411458333335,123.73208131903947L119.280859375,114.31118738709299L119.280859375,104.46809041795977L119.280859375,92.90343902775658L119.280859375,95.3933930454376L119.72760416666667,91.43170361518655L119.72760416666667,95.17588102097878L119.72760416666667,103.05785746492778L120.62109375,103.02821935326347L121.51458333333333,100.28802399293508L121.51458333333333,102.7338778189585L121.51458333333333,107.43919979819985L121.96132812500001,103.19289760625246L121.96132812500001,103.36585904499273L121.96132812500001,98.5334597847486L122.40807291666667,93.18803432056315L122.85481770833333,97.36956658197283L122.85481770833333,90.52324239881086L123.3015625,86.52774563552816L123.74830729166666,91.79170326788685L124.19505208333332,88.37867419861703L124.64179687500001,75.91574615087806L124.64179687500001,83.89965874530927L125.08854166666667,87.54621615834637L125.08854166666667,93.31434226969073L125.53528645833333,100.19284142740906L125.53528645833333,99.14603930092838L125.53528645833333,102.18807681697572L125.53528645833333,98.42124559437167L125.53528645833333,94.3005075016809L125.98203124999999,101.39258697898934L125.98203124999999,103.89126982331517L125.98203124999999,106.61491868147228L126.42877604166667,108.25841561630183L126.42877604166667,111.76625226948795L126.42877604166667,114.43209331610447L126.87552083333333,113.92806014959424L127.322265625,120.84461370493248L127.322265625,122.23363635239173L127.76901041666667,118.45294821893052L127.76901041666667,120.89484696128673L128.21575520833332,111.76221755572837L128.21575520833332,110.68372793036954L128.6625,120.49260051382187L129.10924479166667,119.10416983706334L129.55598958333334,118.44163729212492L130.002734375,120.6255656034806L130.002734375,122.20052819126094L130.44947916666666,117.62100032602795L130.44947916666666,114.9631577339131L130.44947916666666,106.38389121450422L130.89622395833334,103.87926395048895L130.89622395833334,105.68065860010472L131.34296875,106.81759017770428L131.78971354166666,113.71834524918934L132.23645833333333,118.557022744207L132.683203125,116.76142781586209L132.683203125,120.07494075406615L133.12994791666665,124.21365041883688L133.57669270833333,118.70209929864953L133.57669270833333,118.29089239324274L134.0234375,121.91585421141245L134.0234375,117.01247879209795L134.47018229166667,120.5035828562692L134.91692708333332,121.20169702435814L134.91692708333332,119.90783133421233L134.91692708333332,117.43567149883192L134.91692708333332,112.3127250332053L135.363671875,115.9920231667702L135.363671875,117.09767784986136L136.25716145833331,126.00474782569229L136.25716145833331,129.2311738876844L136.25716145833331,125.38629625718904L136.70390625,122.91911727232912L137.1506510416667,123.97452523268238L137.59739583333334,120.7381974567055L137.59739583333334,119.19881555689909L138.044140625,122.17070269414472L138.49088541666669,122.0346002381177L138.49088541666669,127.75474842307887L138.49088541666669,129.40048240959138L138.49088541666669,127.78883203895904L138.93763020833333,126.18053505977991L138.93763020833333,117.71807787615151L138.93763020833333,115.8939941149516L139.384375,104.50764142772215L139.83111979166665,112.64641716150712L140.27786458333333,108.39052669180035L140.27786458333333,106.23724903963375L141.17135416666665,113.99919818002559L141.61809895833332,119.50693447815725L141.61809895833332,119.48882577292487L142.06484375,121.92678916493902L142.06484375,127.97510071135643L142.51158854166667,128.71645374211036L142.95833333333334,125.36358680622244L143.40507812500002,127.33279800856465L143.40507812500002,128.22028875948044L143.40507812500002,125.12612985517531L143.40507812500002,118.94876867455636L143.40507812500002,117.84916558282684L143.85182291666666,113.64863823947508L144.29856770833334,102.98296010667454L144.7453125,103.96930575133348L145.19205729166666,106.35856354302554L145.63880208333333,103.40032552855537L145.63880208333333,107.41597196103955L145.63880208333333,115.99285046189142L145.63880208333333,101.21053338025769L145.63880208333333,111.13445479961841L146.085546875,109.50451827727306L146.53229166666665,116.49180487032054L146.97903645833333,119.25523221691847L146.97903645833333,120.4647870077018L146.97903645833333,125.34884107801194L146.97903645833333,127.59407490028232L148.31927083333335,121.8568212474826L148.31927083333335,124.9111824506399L148.76601562500002,119.37355349270675L148.76601562500002,123.52400309626925L149.21276041666667,125.01220904842889L149.21276041666667,125.3420717787572L149.65950520833334,128.24360112652099L149.65950520833334,120.42941034957737L150.10625000000002,121.2710238366087L150.99973958333334,120.30118877492596L151.44648437499998,116.17047941483756L151.44648437499998,114.46894057366904L151.89322916666666,120.27085119450487L151.89322916666666,119.3771052872554L151.89322916666666,117.61181054018533L151.89322916666666,114.14920253407534L151.89322916666666,114.63315897984775L152.33997395833333,113.92999190673447L152.78671874999998,112.47334321842598L152.78671874999998,106.82989436287494L153.68020833333335,109.17929431631234L153.68020833333335,107.60003223084396L153.68020833333335,116.87895141637964L154.126953125,116.1845974910271L154.126953125,120.1882898308527L154.126953125,123.26799252615673L154.126953125,125.64318179703129L154.57369791666667,130.20213928746261L155.02044270833335,129.9370545891433L155.4671875,117.8358635773391L155.4671875,110.02740790841233L155.4671875,113.68052589047348L156.36067708333334,110.1481256177493L156.36067708333334,108.39922863311466L156.36067708333334,111.75468215009612L156.36067708333334,116.96093444782755L156.36067708333334,117.87032353098124L156.807421875,122.43611087394711L157.25416666666666,123.395570755504L157.25416666666666,127.17210108422985L157.25416666666666,125.50302966891297L157.70091145833334,122.12191326125054L158.14765624999998,122.26160516421324L158.14765624999998,120.94037920223748L158.14765624999998,110.27792726527238L158.59440104166666,112.87743508824818L159.04114583333333,110.2875596001447L159.487890625,119.20905881583532L159.487890625,116.0181028736745L159.487890625,112.25449407824135L159.487890625,109.85406482190561L160.828125,110.14173624087073L161.27486979166667,115.6475410943913L161.72161458333335,124.62104387276177L162.61510416666667,126.32678098260998L162.61510416666667,124.01812998206016L163.06184895833331,133.6758105192744L163.50859375,128.39748539197055L163.95533854166666,124.19429444608781L163.95533854166666,126.43673622903951L164.4020833333333,122.54377265258447L164.4020833333333,122.6901452143949L164.4020833333333,123.3716702535273L164.4020833333333,118.64498913161997L164.848828125,120.12859823718797L164.848828125,120.44135251043986L165.29557291666669,121.89596908802666L165.29557291666669,116.64220660447599L165.74231770833333,115.90074570940037L165.74231770833333,115.50279224895526L166.1890625,120.24215580578404L166.1890625,121.42216699230985L166.63580729166668,117.8146067436867L166.63580729166668,122.15471812998315L167.08255208333333,128.438850235008L167.529296875,124.4944952909214L167.529296875,121.4920394187051L167.529296875,123.54979950588461L167.97604166666667,126.04131503009894L167.97604166666667,119.51682996683238L167.97604166666667,118.746225804801L168.42278645833332,114.25724875707219L168.42278645833332,110.20047611006595L168.86953125,116.59981017165582L169.31627604166667,116.95396288157569L169.31627604166667,121.5646553368654L169.76302083333331,122.02108876170323L169.76302083333331,118.23968298306491L169.76302083333331,124.98520793341433L170.209765625,131.54763644101448L170.209765625,127.12546413936012L170.209765625,130.47037084119887L170.209765625,122.20761022766328L170.6565104166667,126.5872485563206L171.10325520833334,125.74023132217948L171.10325520833334,120.63438906843969L171.10325520833334,125.33106209486026L171.10325520833334,119.2225713771452L171.55,127.6688807286054L171.99674479166669,130.59269390315487L172.44348958333333,135.40663005009588L172.44348958333333,131.3815766028653L172.890234375,134.17755469745333L172.890234375,135.81309751490326L172.890234375,133.60704818610827L172.890234375,139.47419382069867L172.890234375,139.52993703071417L173.33697916666665,133.04192100485005L173.33697916666665,120.1090426366213L173.33697916666665,122.17077413347282L173.78372395833333,122.13618823891373L173.78372395833333,123.75842602254177L174.23046875,126.26074828049678L174.23046875,130.67117977096635L174.23046875,131.07746861354173L174.23046875,128.58862452480406L174.67721354166665,130.8284034875795L174.67721354166665,129.07691454941653L174.67721354166665,127.69397428637757L175.570703125,128.36507247792633L175.570703125,125.50244085331175L175.570703125,121.70840962312661L175.570703125,121.37404360285379L176.01744791666667,117.56848554854228L176.46419270833334,113.31644551976673L176.46419270833334,111.99162460935284L176.46419270833334,113.47199126470483L176.46419270833334,116.71522047801784L176.91093750000002,106.98824490886935L176.91093750000002,112.75202640057985L176.91093750000002,113.07567956958275L177.35768229166666,112.20031923100397L177.35768229166666,111.08693119710557L177.80442708333334,116.18147991878381L178.69791666666666,116.22252826924468L178.69791666666666,121.30903253265207L179.14466145833333,127.32442673142211L179.14466145833333,134.42275683085705L179.59140625,139.75985532394918L179.59140625,141.46446359279562L180.03815104166665,138.70239462591658L180.03815104166665,144.79490316470276L180.03815104166665,142.16452481022404L180.03815104166665,146.106641156495L180.03815104166665,142.5668973074006L180.03815104166665,140.51230693048635L180.48489583333333,137.8278142132703L180.48489583333333,137.26232787819927L180.931640625,131.23471473978904L180.931640625,134.9882215858005L181.37838541666665,126.43311338780688L181.82513020833335,124.3537521650907L181.82513020833335,130.58824006472614L182.27187500000002,134.83322822918504L182.27187500000002,136.13805342508394L182.71861979166667,131.12691843607448L182.71861979166667,133.32556319238273L183.16536458333334,132.711413558453L183.16536458333334,131.17089513110787L183.61210937500002,132.04612970702556L184.05885416666666,136.02466481700222L184.05885416666666,128.7847182269965L184.05885416666666,129.62627490571555L184.05885416666666,136.4838465230988L184.05885416666666,136.8356070722826L184.50559895833334,131.49432721214376L184.50559895833334,127.11328140812074L184.50559895833334,129.70618358305836L185.39908854166666,124.14881429089164L185.84583333333333,123.73703227326166L185.84583333333333,120.51139938442424L185.84583333333333,124.45293886258276L186.29257812499998,128.7299304217132L186.73932291666665,133.49532369127684L186.73932291666665,122.84035544570686L186.73932291666665,123.88123252244016L186.73932291666665,132.02882695518065L186.73932291666665,123.4210208618381L187.18606770833335,127.24810629606947L187.6328125,125.52160468094132L188.07955729166667,129.20234295220692L188.52630208333335,135.66905913343157L188.973046875,139.42848181299553L188.973046875,144.26791205677077L188.973046875,145.4994817938779L189.41979166666667,144.12546739577047L189.41979166666667,146.02424769325134L190.76002604166666,137.38351717867985L190.76002604166666,137.15308721995493L191.20677083333334,128.17826197751126L191.20677083333334,124.36230952591609L192.10026041666666,116.97234124758175L192.54700520833333,121.04069105032487L192.99375,122.94566351951136L192.99375,128.1848278570512L193.44049479166668,128.70925073706738L193.44049479166668,128.5698905110112L193.88723958333335,129.91448812465146L193.88723958333335,131.96714006192454L193.88723958333335,133.820649003918L194.333984375,133.68810998573653L194.333984375,135.89969815913787L194.78072916666667,133.65797059184825L194.78072916666667,140.16071364244027L195.22747395833335,137.411219131454L195.22747395833335,141.28862938438658L195.22747395833335,141.13337557318877L195.22747395833335,141.88451768214642L195.67421875,144.11095669480696L196.12096354166667,141.14009931207625L196.56770833333331,146.93974270255327L196.56770833333331,148.35464940267542L197.014453125,148.16793676486577L197.46119791666666,146.32030295380963L197.46119791666666,142.6438646667487L197.9079427083333,143.44951755090435L198.80143229166669,139.4997129305453L199.24817708333333,140.6478031045133L199.694921875,141.63282098292188L199.694921875,138.8480784151613L199.694921875,142.57978335678877L200.14166666666668,143.323916291551L200.58841145833333,143.1027815084936L200.58841145833333,141.22399414663798L200.58841145833333,139.89522251536923L200.58841145833333,147.1197040944474L201.03515625,148.5871696912724L201.92864583333332,145.8732303858635L201.92864583333332,142.66746636281792L202.82213541666667,146.10115931608516L202.82213541666667,146.13216154539924L203.26888020833331,143.91659130229135L203.26888020833331,148.9703263591716L203.26888020833331,138.53243590171326L203.715625,134.63559585010464L203.715625,132.69970950316423L203.715625,133.81413080774277L203.715625,131.62826589903554L203.715625,135.8873701819733L204.1623697916667,135.36862959289263L204.1623697916667,141.82406914931792L204.1623697916667,142.46066697422378L204.1623697916667,142.75037581692712L205.50260416666669,140.58520026301684L205.94934895833333,146.61827603357864L205.94934895833333,154.60252496909257L206.39609375,155.29674585677128L206.39609375,156.301112834943L206.84283854166665,150.23244026172847L207.28958333333333,149.42120215559711L207.28958333333333,144.19742268723914L207.28958333333333,130.99484871026883L207.736328125,130.31422060404603L207.736328125,129.52128287744378L207.736328125,137.4090973637064L208.18307291666665,142.84202068839386L208.18307291666665,141.59959113415897L208.62981770833332,141.83847998337131L208.62981770833332,140.61126005501848L209.0765625,144.1368635834813L209.0765625,141.38965699079336L209.97005208333334,135.17098228854917L209.97005208333334,134.12454163274168L209.97005208333334,138.1260332667545L210.41679687500002,138.36107108940064L210.41679687500002,144.85676926405333L210.41679687500002,147.9163664800338L210.41679687500002,143.28833281033903L210.86354166666666,141.71188800099478L211.31028645833334,140.28233287271095L211.75703125,142.71236033163183L211.75703125,147.6797100011649L211.75703125,144.30799700684165L211.75703125,139.02573694580332L211.75703125,140.9903036957947L211.75703125,140.78333595643568L212.65052083333333,142.1374403490505L212.65052083333333,149.8794957061478L213.097265625,125.66724976063932L213.54401041666665,130.15943122855694L213.99075520833333,134.0845131991776L213.99075520833333,136.54357546588213L213.99075520833333,135.30277585605896L214.4375,133.74451517733004L215.33098958333335,120.60150369336684L215.33098958333335,125.2273167313952L216.22447916666667,130.89711839626364L216.22447916666667,120.5641997024072L216.67122395833334,116.53808299651574L216.67122395833334,119.34670636596645L216.67122395833334,124.8032609409098L217.11796875000002,121.5685026980116L217.11796875000002,125.3002571356203L217.11796875000002,129.04645143309173L217.11796875000002,132.20884599569445L217.11796875000002,130.62847142366502L217.56471354166666,129.7911017397202L217.56471354166666,132.10092847272557L217.56471354166666,127.0831584697821L217.56471354166666,132.83533717067257L217.56471354166666,133.8480613770078L217.56471354166666,132.30543651993335L218.01145833333334,128.3437363959127L218.01145833333334,130.99863166436643L218.45820312499998,127.00709395926383L218.45820312499998,126.75973344810733L218.45820312499998,128.12323548432954L218.45820312499998,132.92311054575939L218.90494791666666,129.40373092860446L218.90494791666666,133.34306937915602L219.35169270833333,133.6086101906265L219.35169270833333,137.44118504131654L219.79843749999998,141.57175358636601L219.79843749999998,146.15078323241997L219.79843749999998,135.57028085143915L220.24518229166665,136.99531144579134L220.24518229166665,133.2305278860827L220.24518229166665,136.80894424041892L220.69192708333335,143.10162392243672L221.138671875,136.81373532323124L221.138671875,138.7693875261993L221.138671875,133.43024234075062L221.138671875,138.44820560418168L221.138671875,139.306189500335L221.58541666666667,137.97151776546866L222.03216145833335,132.83116837252294L222.03216145833335,137.990825111262L222.47890625,143.90318861625096L222.47890625,148.62988432892755L222.92565104166667,145.91081427832435L222.92565104166667,144.83555397435626L223.37239583333334,147.61690250051325L223.819140625,144.3508284603932L224.71263020833334,148.18184144505227L224.71263020833334,149.3915633525449L224.71263020833334,154.34527048497733L224.71263020833334,155.91300714739472L224.71263020833334,160.2412935193686L225.60611979166666,157.85731071516972L225.60611979166666,153.58882516600985L225.60611979166666,149.69461767421757L226.05286458333333,146.28986140375505L226.05286458333333,144.31064249132254L226.499609375,145.5816914531967L226.94635416666668,142.21466838039981L226.94635416666668,145.37476488385744L226.94635416666668,139.47742312372816L227.83984375,142.6685522188873L227.83984375,131.1067237528117L227.83984375,134.1612023822537L227.83984375,135.74126202918984L228.28658854166667,140.04084972092997L228.28658854166667,141.3360698200813L228.28658854166667,138.21575012697605L228.73333333333335,124.45383445401816L229.180078125,131.93657670285774L229.180078125,134.2279142791842L229.180078125,116.18986718254895L229.180078125,117.04076146783143L229.62682291666667,110.90667415268732L229.62682291666667,114.64068072965127L230.07356770833331,119.78315232461736L230.07356770833331,116.16798722463588L230.5203125,121.74151182996312L230.5203125,129.19665645241832L230.96705729166666,128.07561846576047L232.30729166666669,129.19603499479933L232.30729166666669,130.08888340250496L232.75403645833333,131.6275833429889L233.20078125,130.9715435999361L233.20078125,130.63694059505315L233.64752604166668,129.1007885824234L233.64752604166668,128.58543299323284L233.64752604166668,138.12900535099897L234.09427083333333,133.27920685854235L234.09427083333333,132.7232678499381L234.541015625,133.60167527072403L234.541015625,139.4773396381644L234.541015625,140.47707931855712L234.98776041666667,142.25632599256897L234.98776041666667,138.41369120375487L234.98776041666667,132.30392807565977L234.98776041666667,138.69476817806L234.98776041666667,144.10354395505826L235.43450520833332,146.15708383680735L235.43450520833332,151.37897029620297L235.43450520833332,153.24692727615792L235.43450520833332,151.71865996875215L235.88125,154.76055742404395L235.88125,155.0238356444371L235.88125,154.8325839908104L236.32799479166667,157.5346030877686L236.32799479166667,159.8417300710565L236.32799479166667,163.43639415702728L236.32799479166667,164.95948713852079L236.77473958333331,158.28186385101685L237.221484375,159.6878285425599L237.221484375,159.3806090456514L237.221484375,160.9321405065618L237.221484375,156.56183039519485L237.6682291666667,159.00969443087172L237.6682291666667,155.96299578453213L238.56171875,154.09202944734434L238.56171875,155.10884115641448L238.56171875,152.1698539776124L239.00846354166669,153.85749968892645L239.00846354166669,154.44658115119856L239.00846354166669,155.28941294431934L239.00846354166669,138.571872114245L239.00846354166669,142.5004614230841L239.45520833333333,144.03287557554464L239.45520833333333,153.01137934033244L239.45520833333333,157.2429581409638L240.34869791666665,159.78372074469118L240.79544270833333,157.69050793624353L241.68893229166665,158.46646580341266L242.13567708333332,157.74106927734252L242.582421875,155.72491996649885L242.582421875,149.82768396358102L243.02916666666667,147.20936393654105L243.47591145833334,150.43119221726485L243.92265625000002,154.57435881436118L243.92265625000002,158.41664712012033L243.92265625000002,149.9955834746221L243.92265625000002,151.83710125713054L244.81614583333334,149.76849306668376L244.81614583333334,153.73699826721557L245.262890625,138.9499878310983L245.262890625,137.38602966652982" style="fill: none;" fill="none"></path></g></g></g></g><g opacity="0.2"><g><g><g><path stroke="rgb(255, 112, 67)" stroke-width="2px" d="M22.337239583333332,-99.89209803667934L22.337239583333332,6.543982110240258L22.337239583333332,31.352119364521744L22.783984375000003,-41.6288815303282L23.230729166666666,-24.32202580300243L23.230729166666666,44.87288385629656L23.230729166666666,73.92958695238288L23.230729166666666,104.12960074164651L23.677473958333334,31.23628491705115L23.677473958333334,67.57799408652566L23.677473958333334,-26.400020501830358L24.12421875,40.60897252776407L24.570963541666664,12.653619809584196L24.570963541666664,-25.814326432618213L24.570963541666664,-6.790646422993035L25.017708333333335,88.60732921145178L25.017708333333335,12.046609900214472L25.017708333333335,27.44424730539324L25.464453125,20.40222742340783L25.464453125,51.71526854688472L25.464453125,49.12643698128788L25.911197916666666,65.11283755302429L25.911197916666666,-69.43526314063502L26.8046875,-2.214190689000202L26.8046875,61.86024175448853L27.251432291666667,-73.31946958195077L27.251432291666667,-51.50641167705708L27.698177083333334,134.17352215810254L28.144921874999998,-58.40758876367048L28.144921874999998,30.674592148173957L28.144921874999998,9.900016080249458L28.144921874999998,35.56165012446317L28.144921874999998,4.3542530861768L28.144921874999998,-29.347624751654514L28.59166666666667,30.114625746553607L28.59166666666667,-52.64435144987972L29.038411458333336,-97.01016767458479L29.038411458333336,48.26860029589048L29.038411458333336,41.63016671484168L29.038411458333336,70.80565346912906L29.48515625,80.6505744565617L29.931901041666666,7.492429099299707L29.931901041666666,-77.9225161671638L30.378645833333334,-10.146872211586327L30.825390625,19.6495552767407L30.825390625,66.51299333030528L30.825390625,-1.2038102746009827L31.272135416666668,1.2977198579094789L31.272135416666668,66.69965678995307L31.71888020833333,29.680348472161732L31.71888020833333,47.99197392030197L32.165625,24.53469506718898L32.165625,42.60091261430222L32.165625,-8.332052610137243L32.612369791666666,56.64582138711757L32.612369791666666,62.50638265501371L33.05911458333333,-24.567002112215185L33.05911458333333,33.41227493502879L33.05911458333333,49.41032848574899L33.05911458333333,38.23891005732797L33.05911458333333,81.54456894506107L33.05911458333333,44.113258285955965L33.05911458333333,-87.25695994767273L33.505859375,5.500512990084576L33.505859375,-0.16820571639317494L33.505859375,67.8363976966251L33.95260416666667,-47.82054565169591L34.399348958333334,-60.66222440112719L35.29283854166666,42.117673646320014L35.739583333333336,1.2977198579094789L35.739583333333336,-112.56166756153102L36.186328125,-39.87218295985999L36.63307291666666,62.99499254335057L36.63307291666666,22.434113730083833L36.63307291666666,23.011607554825876L36.63307291666666,62.22184376283127L37.07981770833334,15.396481698209598L37.526562500000004,66.62410424514252L38.42005208333334,55.90520983392543L38.42005208333334,108.63848837939176L38.42005208333334,-16.61417963829906L38.866796875,19.373744130134604L38.866796875,24.205702218142438L39.313541666666666,86.867582608353L39.313541666666666,70.79762106592005L39.76028645833333,-58.88315498828884L39.76028645833333,100.84437180649152L39.76028645833333,59.82564601031217L40.20703125,5.9334954890338105L40.20703125,-54.021177291870075L40.65377604166667,10.33395767211916L41.10052083333333,41.055933806029245L41.10052083333333,98.05854255502875L41.547265625,41.45635510032828L41.547265625,19.089397056536253L41.99401041666667,32.95238987966019L41.99401041666667,-10.41062276471743L42.44075520833333,112.89640537717126L42.44075520833333,32.89484430443159L42.8875,95.59616739099677L42.8875,-16.04268014430996L42.8875,-33.119809139858575L43.33424479166666,92.76621986519208L43.78098958333333,86.57047959891233L43.78098958333333,68.15762189301579L43.78098958333333,-3.1903554634614353L43.78098958333333,71.87233263796027L44.227734375000004,40.250823253935046L44.674479166666664,56.61860712549905L44.674479166666664,17.89465500549837L45.12122395833333,-63.48169383677567L45.12122395833333,117.85920771685514L45.567968750000006,13.843854123895829L46.014713541666666,12.305852716619327L46.014713541666666,30.952225571328952L46.46145833333333,84.3759551102465L46.908203125,72.76512826030906L47.35494791666667,70.49641793424433L47.801692708333334,27.81532035632568L48.2484375,50.15978767113253L48.2484375,107.06567189910196L48.2484375,76.90440546382557L48.2484375,49.995710849761984L48.69518229166667,11.682825955477643L48.69518229166667,12.588185695084684L48.69518229166667,68.22341566736048L49.14192708333333,132.50033660368487L49.588671875,35.71491317315537L49.588671875,29.99675322662702L50.03541666666667,53.22751830924641L50.03541666666667,17.441963147033363L50.03541666666667,85.64814391461286L50.03541666666667,8.463079089468186L50.03541666666667,-20.023203492164573L50.48216145833333,0.930003632198702L50.48216145833333,11.711814538999045L51.37565104166667,35.45900320464916L51.37565104166667,54.84040089628915L51.82239583333333,51.91205043684354L51.82239583333333,74.91483913226563L51.82239583333333,24.26468643275175L51.82239583333333,63.58399548313836L52.269140625,87.58349751884288L52.269140625,44.04628962278368L52.715885416666666,78.66350176659498L53.16263020833333,43.04751423272221L53.16263020833333,44.00747033682737L54.05611979166667,90.38253827528521L54.05611979166667,-11.29624916748564L54.05611979166667,40.287580490112326L54.502864583333334,-2.121662199497223L54.949609374999994,46.56937536868183L54.949609374999994,59.75755041295833L54.949609374999994,-36.00284245881165L55.39635416666667,-34.68008548021312L55.39635416666667,57.01344170353631L55.39635416666667,56.17672903971239L55.39635416666667,-55.0658692554994L55.843098958333336,-107.77728048237884L56.289843749999996,29.884491400285206L56.73658854166667,64.53215474432166L56.73658854166667,20.189452659000068L56.73658854166667,101.09869927167892L57.18333333333334,8.99839680303229L57.630078125,55.6500671397556L58.07682291666667,-81.96502089500423L58.52356770833333,-14.615262150764426L58.9703125,13.73981651934712L59.41705729166667,43.38137447834017L59.41705729166667,65.51270736889407L59.41705729166667,12.76765595782889L59.41705729166667,23.458113263953834L59.86380208333333,57.48512360182676L59.86380208333333,18.06192081082953L59.86380208333333,36.3565463369543L60.310546875,11.23972502621739L60.75729166666667,43.27788835222072L60.75729166666667,130.7459278675643L60.75729166666667,36.08852782032708L61.65078125,82.10089079358362L61.65078125,63.1921820478006L62.09752604166666,76.4107603376562L62.09752604166666,84.23499242825943L62.09752604166666,2.379240989685078L62.09752604166666,72.95119228688154L62.09752604166666,25.952498154206715L62.09752604166666,91.2274751609022L62.544270833333336,82.79779168692502L63.43776041666666,14.436046047644194L63.88450520833334,-0.39210595867850206L63.88450520833334,37.62626547705045L64.33125,64.42008473656396L64.33125,61.0327603600242L64.77799479166667,10.562101900577565L64.77799479166667,65.42132979089564L64.77799479166667,93.53903296318921L65.22473958333333,56.00167060440238L65.22473958333333,12.452162341638052L65.22473958333333,37.451518746939584L65.22473958333333,74.06628167087382L66.11822916666667,157.4466431818225L66.56497395833333,23.238289166580568L67.01171875,96.89830387180503L67.01171875,30.661404620517402L67.90520833333333,40.011601502245135L67.90520833333333,11.694670753045523L68.351953125,18.09042984789069L68.351953125,31.21849374337631L68.79869791666667,71.25007315115496L68.79869791666667,72.65360973098062L69.24544270833334,84.59580318494278L69.6921875,80.85150442340158L69.6921875,92.22617861899464L69.6921875,54.40334225242789L69.6921875,81.47290072657846L70.13893229166666,82.29467551816593L70.13893229166666,109.66922554102811L70.13893229166666,81.43362587148494L70.13893229166666,20.160200324925533L70.58567708333332,2.606138397346865L70.58567708333332,69.3077661232515L70.58567708333332,90.23759535767816L71.032421875,15.265445627949477L71.032421875,106.18309061635624L71.032421875,12.615423934026206L71.032421875,68.23979217897764L71.032421875,6.849645023996189L71.032421875,121.42348473722285L71.032421875,104.81086842038415L71.47916666666667,15.815581327134922L71.92591145833333,49.3268634243445L71.92591145833333,44.98186078938572L71.92591145833333,61.424525840715944L71.92591145833333,-32.88703728805886L72.37265625,110.9563522176309L72.37265625,36.47333987734536L73.26614583333333,114.99713057821447L73.26614583333333,29.443740248680136L73.26614583333333,75.23635105653244L73.712890625,9.341728091239949L73.712890625,-57.132091088728465L73.712890625,34.07826905900783L73.712890625,35.86359655315227L74.15963541666667,98.83802134882322L74.15963541666667,10.957368070429032L74.15963541666667,109.42218718203632L74.60638020833333,37.58123606443407L75.05312500000001,-10.067818977616014L75.49986979166667,69.52423339540309L75.49986979166667,49.37642455101015L75.94661458333333,93.97100841457194L75.94661458333333,52.484748796983204L76.39335937499999,53.83227435025303L76.39335937499999,61.18415317752145L76.39335937499999,91.63228430531241L76.39335937499999,104.54982730475339L76.84010416666668,56.23355529525064L76.84010416666668,43.37912060997704L76.84010416666668,-62.0280446518551L77.28684895833334,4.57422104748814L77.73359375,26.88943602822045L77.73359375,122.67777446996082L78.62708333333333,131.77480678666723L78.62708333333333,77.63134994290094L79.52057291666667,63.57380512085828L79.52057291666667,84.69339088960129L79.96731770833334,61.28135724501177L80.4140625,122.35620260238647L80.4140625,103.80940757014535L80.4140625,81.94712422110818L80.4140625,45.0602906129577L80.4140625,109.41847069696948L80.86080729166667,44.88048466769132L80.86080729166667,38.083417117595694L81.30755208333333,93.75163988633588L81.754296875,53.74125643209978L82.20104166666665,107.7734824744138L82.20104166666665,-82.81429767608638L82.64778645833334,81.74173447218809L82.64778645833334,79.3803278153593L82.64778645833334,104.703929559751L83.09453125,74.6230830658566L83.09453125,30.2968534014442L83.09453125,70.16989474946803L83.54127604166666,51.36726168068974L83.98802083333334,145.82254488359797L83.98802083333334,41.82809951630506L83.98802083333334,-111.71028077602382L84.434765625,56.541040485555484L84.434765625,87.27735505862671L84.88151041666666,90.66530284556477L85.775,63.29293475909668L85.775,4.341832832856639L85.775,79.4282105294141L86.22174479166667,65.01798326318915L86.22174479166667,129.90251354195854L86.22174479166667,60.03914009441029L86.22174479166667,134.25057328560135L86.66848958333333,-14.654465073888923L86.66848958333333,66.47187222133985L87.115234375,-85.6835200569846L87.56197916666666,69.80280193415555L87.56197916666666,131.01156064055183L87.56197916666666,122.01047358187763L87.56197916666666,101.77792887796055L87.56197916666666,109.30767148733139L88.00872395833333,33.327682939442724L88.00872395833333,71.1379072341052L88.00872395833333,61.47600515322252L88.45546875000001,104.96120623566888L88.45546875000001,118.25253172354266L88.45546875000001,41.822632686658345L89.34895833333333,-43.07538547299121L89.34895833333333,101.34868684140119L89.795703125,93.30793952400035L89.795703125,80.67786065014927L90.24244791666666,92.44823260740802L90.68919270833332,56.5537484667518L91.13593750000001,102.34616745602003L91.13593750000001,122.7652437443083L91.58268229166667,32.61958463625475L91.58268229166667,143.63509370522067L91.58268229166667,26.546512354504L92.47617187499999,77.09548075090756L92.47617187499999,51.69584691524508L92.47617187499999,110.78155753287403L92.92291666666667,31.159509528767L93.36966145833333,38.936506293036736L93.36966145833333,47.51957270232114L93.81640625,103.3069627664306L94.26315104166667,121.70873096043414L94.70989583333333,100.28960848396476L95.156640625,89.54278049143879L95.156640625,69.18816723606805L95.156640625,121.64815225384451L95.60338541666667,139.37812381170014L95.60338541666667,44.4993890957399L96.05013020833333,32.40047985857184L96.05013020833333,126.0597039488229L96.496875,138.7055479125543L96.496875,93.6603102629835L97.39036458333334,90.78969719735059L97.39036458333334,57.13289672678168L97.39036458333334,106.20663634755395L97.39036458333334,115.5158320069313L97.39036458333334,86.31162041967566L98.28385416666666,118.27986587177624L98.28385416666666,35.219517702406115L98.73059895833333,42.97464714808899L99.17734375,73.73275710777804L99.17734375,147.20228397033432L99.17734375,93.03270383314654L99.17734375,57.545426569201744L99.62408854166667,114.18391569094226L99.62408854166667,55.12223035097124L99.62408854166667,148.91396511684763L99.62408854166667,70.08477525277573L99.62408854166667,88.98955171758479L100.07083333333334,129.8625793104822L100.07083333333334,63.34453395821832L100.07083333333334,86.64735089648853L100.517578125,147.45065307075328L100.517578125,169.53591353513977L100.517578125,62.0650080930103L100.517578125,111.04801752350546L100.96432291666666,66.57121027057822L101.41106770833333,82.63230020349677L102.30455729166667,94.97491495175794L102.30455729166667,87.2005077383735L102.30455729166667,110.57787017388776L102.75130208333334,87.14185920628636L102.75130208333334,134.60266828536987L102.75130208333334,163.3473664657636L103.198046875,1.1414356665177903L103.64479166666666,161.555708958344L104.09153645833332,38.34702380678872L104.53828125,-50.563959018750595L104.53828125,93.4770515832034L104.98502604166667,81.62755446000534L105.878515625,69.22921641306445L105.878515625,128.34265680475667L106.32526041666667,56.55607426708396L106.77200520833333,88.20635643872349L106.77200520833333,128.51145715876058L107.21875,92.89370729164645L107.21875,127.62432018464261L107.21875,102.72299506447531L107.66549479166667,160.5330641432242L107.66549479166667,49.77651016278702L108.11223958333333,71.9371673193845L108.11223958333333,43.2002018256621L109.00572916666667,133.53292001919314L109.45247395833333,-7.786280783739932L109.45247395833333,123.8618586009199L109.45247395833333,77.64633576978336L109.89921874999999,73.59927535057068L109.89921874999999,95.07976778528906L109.89921874999999,101.71920841390437L110.34596354166668,71.33950856598942L110.34596354166668,57.950499464165084L110.34596354166668,124.93014425039291L110.34596354166668,95.89521256360142L110.79270833333334,133.03613386370918L110.79270833333334,41.62388465621255L111.239453125,48.281116458502694L111.239453125,96.14639899947427L111.239453125,128.03017234260386L111.239453125,58.669003925540245L111.68619791666667,137.37824723124504L111.68619791666667,120.621107599952L111.68619791666667,72.0822541009296L111.68619791666667,92.91154641996732L112.13294270833333,133.39029091325673L112.13294270833333,70.75959303162317L112.13294270833333,91.08118951320648L112.57968749999999,141.54142982580444L112.57968749999999,59.94558058001779L112.57968749999999,84.91719522259454L112.57968749999999,81.49119542403656L113.02643229166667,108.19219846617094L113.02643229166667,117.31381952762604L113.02643229166667,91.22011412273756L113.47317708333334,83.37861835956573L113.47317708333334,98.39216302741657L113.919921875,119.4273006645116L113.919921875,132.52532097426328L113.919921875,46.79979744282636L113.919921875,96.23087110844526L113.919921875,62.809503972530365L114.36666666666667,30.649056299166258L114.81341145833333,151.3955940712582L114.81341145833333,118.61746657978405L114.81341145833333,120.14849058606409L114.81341145833333,64.6358566663482L115.26015625,70.02461614933881L115.26015625,119.2233016003262L115.70690104166665,68.39720330455087L116.15364583333334,74.86542186953805L116.15364583333334,118.97094027562574L116.600390625,166.64557912132958L117.04713541666666,156.0170552405444L117.04713541666666,140.78806233676997L117.49388020833334,106.37555658817291L117.49388020833334,109.40684169530869L117.49388020833334,128.7197241864421L117.49388020833334,104.02527540922165L117.940625,108.1864918632941L117.940625,156.34582030502233L118.38736979166666,154.683448523283L118.83411458333335,128.44162320548838L119.280859375,51.81686046448621L119.280859375,39.17304258454932L119.280859375,16.18830881335521L119.280859375,111.9107216054743L119.72760416666667,65.15148899771951L119.72760416666667,120.01321052963084L119.72760416666667,155.34364013509318L120.62109375,102.8316123377193L121.51458333333333,82.11069751869549L121.51458333333333,118.95866388624364L121.51458333333333,138.65236621011388L121.96132812500001,75.02467924898322L121.96132812500001,104.51321393251419L121.96132812500001,66.47731507366355L122.40807291666667,57.728685248981826L122.85481770833333,125.10812791911039L122.85481770833333,45.107549916614204L123.3015625,60.023267106576405L123.74830729166666,126.71062832528895L124.19505208333332,65.73804625056009L124.64179687500001,-6.758181127634891L124.64179687500001,136.86164381829175L125.08854166666667,111.73597487536344L125.08854166666667,131.57771319150925L125.53528645833333,145.8219694278457L125.53528645833333,92.2019855000756L125.53528645833333,122.3676997287707L125.53528645833333,73.43364000320435L125.53528645833333,66.96522961963306L125.98203124999999,148.43851877884433L125.98203124999999,120.46650182117115L125.98203124999999,124.68248248100281L126.42877604166667,119.16069680994207L126.42877604166667,135.03579464825717L126.42877604166667,132.11618392304942L126.87552083333333,110.58451189236209L127.322265625,166.72617889263412L127.322265625,131.4478400214152L127.76901041666667,93.37342159314588L127.76901041666667,137.09339663386345L128.21575520833332,51.18011867458171L128.21575520833332,103.52947232398121L128.6625,185.56061788038775L129.10924479166667,109.89389305764979L129.55598958333334,114.04666949402203L130.002734375,135.11284577575597L130.002734375,132.64818077737635L130.44947916666666,87.24230021238327L130.44947916666666,97.33212557705967L130.44947916666666,49.47257361628793L130.89622395833334,87.26459912278436L130.89622395833334,117.6303681460294L131.34296875,114.35952560468152L131.78971354166666,159.49510980736125L132.23645833333333,150.654814676805L132.683203125,104.8501912301237L132.683203125,142.05541971054944L133.12994791666665,151.6681443019347L133.57669270833333,82.14074110442942L133.57669270833333,115.5631152879108L134.0234375,145.96235665408048L134.0234375,84.48550749908794L134.47018229166667,143.6621281369166L134.91692708333332,125.83269864320755L134.91692708333332,111.3248596950011L134.91692708333332,101.03638220917097L134.91692708333332,78.32920992916281L135.363671875,140.39897032759407L135.363671875,124.43213525143537L136.25716145833331,185.0905784287236L136.25716145833331,150.6339544057846L136.25716145833331,99.88096296787262L136.70390625,106.55286889184605L137.1506510416667,130.97566658800298L137.59739583333334,99.2697330496528L137.59739583333334,108.98719058795407L138.044140625,141.88497690991923L138.49088541666669,121.13175264813684L138.49088541666669,165.69985355843198L138.49088541666669,140.31760328195313L138.49088541666669,117.09780782461166L138.93763020833333,115.51175586201929L138.93763020833333,61.581625261090025L138.93763020833333,103.79377435554157L139.384375,28.975271311673257L139.83111979166665,166.63570046424866L140.27786458333333,80.1587036522952L140.27786458333333,91.95329270579599L141.17135416666665,165.48876919529656L141.61809895833332,156.0429867153818L141.61809895833332,119.36870008707047L142.06484375,138.09923334555194L142.06484375,168.09710631316358L142.51158854166667,133.634284152226L142.95833333333334,103.12204965136267L143.40507812500002,140.39573338898745L143.40507812500002,134.10753656517375L143.40507812500002,104.60075513883069L143.40507812500002,77.97070099548861L143.40507812500002,110.55485194379634L143.85182291666666,85.78407135876743L144.29856770833334,32.23124791275373L144.7453125,110.51231617277318L145.19205729166666,122.20791484821926L145.63880208333333,83.77659396691757L145.63880208333333,134.0541150895032L145.63880208333333,172.88832692937416L145.63880208333333,3.150735334916575L145.63880208333333,176.96565871888942L146.085546875,98.69219127026471L146.53229166666665,162.8425838730552L146.97903645833333,137.58667011152613L146.97903645833333,128.48847489465368L146.97903645833333,157.74764250625265L146.97903645833333,142.48803056099197L148.31927083333335,83.79824548959732L148.31927083333335,145.1725556227294L148.76601562500002,82.6392056725242L148.76601562500002,151.0563748939471L149.21276041666667,134.8843538761139L149.21276041666667,127.53024515780537L149.65950520833334,147.4911507693204L149.65950520833334,68.59328985214233L150.10625000000002,126.85394078493118L150.99973958333334,113.86770275506107L151.44648437499998,88.76905625516719L151.44648437499998,103.1816332990473L151.89322916666666,158.75833462585103L151.89322916666666,113.44836335290562L151.89322916666666,105.9015728668733L151.89322916666666,91.17968835613944L151.89322916666666,117.84352654760534L152.33997395833333,109.26547139883041L152.78671874999998,102.81053627079184L152.78671874999998,69.39358096231113L153.68020833333335,124.76424515247345L153.68020833333335,97.12385854937814L153.68020833333335,178.43147639523852L154.126953125,111.57853977246717L154.126953125,146.74713443626058L154.126953125,143.69747071103617L154.126953125,141.39920833435926L154.57369791666667,160.4443840140646L155.02044270833335,128.17859197204763L155.4671875,37.561550682241275L155.4671875,58.229331753470696L155.4671875,137.91380471803924L156.36067708333334,86.71563831242649L156.36067708333334,96.79776695641605L156.36067708333334,134.01337761770594L156.36067708333334,151.49706610224464L156.36067708333334,123.90283584594727L156.807421875,152.72366202690384L157.25416666666666,129.76023210720584L157.25416666666666,152.2240465473045L157.25416666666666,114.43109791387211L157.70091145833334,99.69298075545917L158.14765624999998,123.18826366554607L158.14765624999998,112.17591079798612L158.14765624999998,39.5476163246415L158.59440104166666,130.1214984330264L159.04114583333333,93.10739319432865L159.487890625,178.3906070481647L159.487890625,94.85061650926417L159.487890625,87.28826474059711L159.487890625,93.93060662529685L160.828125,112.05002985217355L161.27486979166667,152.1707809242335L161.72161458333335,184.14756230332634L162.61510416666667,137.64193784106862L162.61510416666667,108.70349090207706L163.06184895833331,197.74088217453524L163.50859375,93.38325229558079L163.95533854166666,96.31205832416362L163.95533854166666,141.312170651826L164.4020833333333,96.71945701945911L164.4020833333333,123.66112045266412L164.4020833333333,127.89262642914599L164.4020833333333,87.29013497179206L164.848828125,129.9702494794672L164.848828125,122.51603543758392L165.29557291666669,131.54529585079715L165.29557291666669,81.79091196168552L165.74231770833333,110.98219977183774L165.74231770833333,112.86293303424662L166.1890625,151.68114001100713L166.1890625,129.24987478689715L166.63580729166668,93.88353914022446L166.63580729166668,150.94522801312533L167.08255208333333,170.1251922141422L167.529296875,98.32927050915632L167.529296875,101.57498481598768L167.529296875,137.200131687251L167.97604166666667,142.56900198080322L167.97604166666667,76.23608553951438L167.97604166666667,113.63435544750907L168.42278645833332,84.47922544045883L168.42278645833332,83.28951862725346L168.86953125,159.0503544428132L169.31627604166667,119.30326597257093L169.31627604166667,152.15008849447423L169.76302083333331,125.04887995394795L169.76302083333331,93.15539579499851L169.76302083333331,169.73223985596135L170.209765625,175.08008203723213L170.209765625,97.79059597037055L170.209765625,152.65910308469427L170.209765625,67.39586234092712L170.6565104166667,155.63996388153598L171.10325520833334,120.12146814302966L171.10325520833334,86.76433625546369L171.10325520833334,156.48685491897842L171.10325520833334,78.7013619596308L171.55,183.69821528142148L171.99674479166669,149.98806526715106L172.44348958333333,167.3402980782769L172.44348958333333,104.6810312162746L172.890234375,152.72492083636195L172.890234375,146.66261437264356L172.890234375,118.97302630272779L172.890234375,178.3944194425236L172.890234375,139.8997145078399L173.33697916666665,90.00309713862158L173.33697916666665,34.31765865195884L173.33697916666665,135.84745100953361L173.78372395833333,121.90675967118956L173.78372395833333,134.51968277042562L174.23046875,142.86012264815244L174.23046875,159.92816423827952L174.23046875,133.77262131734327L174.23046875,112.07865877584979L174.67721354166665,145.6861738589677L174.67721354166665,117.45825892144984L174.67721354166665,118.52011864835566L175.570703125,132.8168612447652L175.570703125,106.5129226717082L175.570703125,96.5403703938831L175.570703125,119.15599725463174L176.01744791666667,92.32398211956024L176.46419270833334,85.11016471819445L176.46419270833334,103.20330879905008L176.46419270833334,123.29213342883371L176.46419270833334,138.22946617549115L176.91093750000002,42.46349857612091L176.91093750000002,150.9865769066594L176.91093750000002,115.22266127846457L177.35768229166666,106.39353958043186L177.35768229166666,103.70117393406956L177.80442708333334,149.97661609541285L178.69791666666666,116.49482610550794L178.69791666666666,155.0508050891486L179.14466145833333,167.22807221791962L179.14466145833333,181.51015268130735L179.59140625,175.16396670178932L179.59140625,152.7721321853724L180.03815104166665,120.37996766242115L180.03815104166665,185.21009339527652L180.03815104166665,124.7156790847128L180.03815104166665,172.25701600313187L180.03815104166665,119.08569574356079L180.03815104166665,126.88300130042164L180.48489583333333,120.0199961120432L180.48489583333333,133.5111246325753L180.931640625,91.25001384453341L180.931640625,159.88743875514376L181.37838541666665,69.68205213546753L181.82513020833335,110.56012695485896L181.82513020833335,171.9452628493309L182.27187500000002,162.9927298697558L182.27187500000002,144.79372590780258L182.71861979166667,97.88511457768354L182.71861979166667,147.91046619415283L183.16536458333334,128.63739804788068L183.16536458333334,120.95173090696335L183.61210937500002,137.85207509994507L184.05885416666666,162.41662672974846L184.05885416666666,80.75789695436305L184.05885416666666,135.20881501111117L184.05885416666666,181.9741498475725L184.05885416666666,139.1690415550362L184.50559895833334,96.06247836893256L184.50559895833334,98.05122947151011L184.50559895833334,146.90642778169024L185.39908854166666,87.28351723064075L185.84583333333333,121.00544011051005L185.84583333333333,99.11388045007533L185.84583333333333,150.59948700395498L186.29257812499998,157.10172939029607L186.73932291666665,165.10697828097776L186.73932291666665,52.15968822891063L186.73932291666665,130.78598198565572L186.73932291666665,186.07660987160423L186.73932291666665,66.32038349455054L187.18606770833335,152.6354134895585L187.6328125,114.06870465386997L188.07955729166667,153.61884339289233L188.52630208333335,178.5665886104107L188.973046875,164.36694218353793L188.973046875,176.37069741433316L188.973046875,153.66920775987884L189.41979166666667,135.01082226634026L189.41979166666667,158.61997348341075L190.76002604166666,80.06447277285837L190.76002604166666,135.6245098601688L191.20677083333334,68.64297086542304L191.20677083333334,99.04885395006701L192.10026041666666,67.95033793557774L192.54700520833333,148.02844661203298L192.99375,135.5824656242674L192.99375,162.93928441676226L193.44049479166668,132.18805594877765L193.44049479166668,127.6454322175546L193.88723958333335,138.83399443192914L193.88723958333335,145.5835868824612L193.88723958333335,146.1160632832484L194.333984375,132.80890077352524L194.333984375,150.57046245444906L194.78072916666667,118.78727398135446L194.78072916666667,183.29723052003166L195.22747395833335,119.1722059249878L195.22747395833335,167.0097706805576L195.22747395833335,140.1034857874567L195.22747395833335,146.8672848018733L195.67421875,158.88023533604363L196.12096354166667,121.43265606327489L196.56770833333331,185.41218626228243L196.56770833333331,157.7405572073026L197.014453125,146.92936209115115L197.46119791666666,134.06386187130755L197.46119791666666,118.25588854876432L197.9079427083333,148.79388668320397L198.80143229166669,113.29833724282004L199.24817708333333,148.26376006007195L199.694921875,148.16702355038035L199.694921875,120.37524412978779L199.694921875,167.33437567949295L200.14166666666668,148.26018743894318L200.58841145833333,141.6358645124869L200.58841145833333,128.76089325005358L200.58841145833333,131.0806992514567L200.58841145833333,195.04393685947764L201.03515625,158.321731551127L201.92864583333332,127.87007575685328L201.92864583333332,121.40174929391254L202.82213541666667,168.87886295264417L202.82213541666667,146.3378175551241L203.26888020833331,129.2194115980105L203.26888020833331,182.49472150748426L203.26888020833331,69.29177324880253L203.715625,108.78556527874686L203.715625,119.85783747651361L203.715625,141.2067423625426L203.715625,117.12813913822174L203.715625,164.14051233367488L204.1623697916667,131.92751835693014L204.1623697916667,184.6467941457575L204.1623697916667,146.68359453027898L204.1623697916667,144.67218485745516L205.50260416666669,126.22231815348972L205.94934895833333,186.63921377875587L205.94934895833333,207.56674119017342L206.39609375,159.90192105824298L206.39609375,162.9636693542654L206.84283854166665,109.97536800124429L207.28958333333333,144.03978296301582L207.28958333333333,109.54502300782636L207.28958333333333,43.4144152294506L207.736328125,125.79921431162141L207.736328125,124.26126085899092L207.736328125,189.733607200059L208.18307291666665,178.88179449872538L208.18307291666665,133.35782561789858L208.62981770833332,143.42317013577983L208.62981770833332,132.47038892724296L209.0765625,167.52426408908585L209.0765625,123.16582089120692L209.97005208333334,93.918857737021L209.97005208333334,127.1828856793317L209.97005208333334,164.6702792969617L210.41679687500002,139.9202151190151L210.41679687500002,187.9465533386577L210.41679687500002,168.21247320283544L210.41679687500002,112.5878651846539L210.86354166666666,131.25440296801656L211.31028645833334,130.7992534339428L211.75703125,158.83216080340472L211.75703125,180.63106009905988L211.75703125,121.9414428689263L211.75703125,103.98540112105283L211.75703125,154.02242969382894L211.75703125,139.41039728847417L212.65052083333333,151.1200107092207L212.65052083333333,201.2370995635336L213.097265625,-34.94680922139773L213.54401041666665,159.9587113477967L213.99075520833333,160.12188901955432L213.99075520833333,152.8559808839451L213.99075520833333,127.0718227191405L214.4375,123.40765617110513L215.33098958333335,33.41618323867972L215.33098958333335,155.9130536019802L216.22447916666667,168.50824547084895L216.22447916666667,52.01987645842813L216.67122395833334,89.83048439025879L216.67122395833334,137.97795604575765L216.67122395833334,160.9997947243127L217.11796875000002,100.1104499264197L217.11796875000002,150.05517779426143L217.11796875000002,153.89716016975314L217.11796875000002,153.1868679415096L217.11796875000002,120.1449179649353L217.56471354166666,124.23633643172003L217.56471354166666,147.4233668771657L217.56471354166666,93.79734066399662L217.56471354166666,170.992919545282L217.56471354166666,140.56605630300263L217.56471354166666,122.07229910926387L218.01145833333334,102.06345084038648L218.01145833333334,148.6101124909791L218.45820312499998,100.52887819030069L218.45820312499998,125.1188457824967L218.45820312499998,137.1681459383531L218.45820312499998,164.76350312883204L218.90494791666666,106.05761728503488L218.90494791666666,159.47501681067726L219.35169270833333,135.37009847435084L219.35169270833333,162.8649067607793L219.79843749999998,168.97224263711408L219.79843749999998,176.52617836540395L219.79843749999998,65.38358948447488L220.24518229166665,146.44837699153206L220.24518229166665,108.25650564648889L220.24518229166665,160.54668326269496L220.69192708333335,184.84466700391337L221.138671875,95.10247431018136L221.138671875,151.74237809397957L221.138671875,98.01255404949188L221.138671875,171.73530542037705L221.138671875,144.99770099466497L221.58541666666667,129.1178556463935L222.03216145833335,98.73220942237161L222.03216145833335,172.2178610346534L222.47890625,183.12337095087224L222.47890625,179.98483527790415L222.92565104166667,127.87362440065905L222.92565104166667,137.70272035490382L223.37239583333334,166.0672221129591L223.819140625,122.68503959883343L224.71263020833334,173.59520238908854L224.71263020833334,157.41635982285845L224.71263020833334,187.20612161538818L224.71263020833334,166.31272592327812L224.71263020833334,188.95336113192818L225.60611979166666,142.04295150258324L225.60611979166666,125.27345156127757L225.60611979166666,123.86205041950399L226.05286458333333,123.70411179282449L226.05286458333333,131.18132008747622L226.499609375,154.0133063224229L226.94635416666668,119.87922524864024L226.94635416666668,166.33754245259544L226.94635416666668,100.35688885233618L227.83984375,163.83718720891258L227.83984375,54.41031965342435L227.83984375,154.4233545119112L227.83984375,146.2227264046669L228.28658854166667,168.56254211880943L228.28658854166667,149.9280260503292L228.28658854166667,117.51683552156796L228.73333333333335,33.162958730350866L229.180078125,181.5740042924881L229.180078125,149.427703239701L229.180078125,-3.467101725664981L229.180078125,122.68524340607904L229.62682291666667,70.21566745909779L229.62682291666667,139.41054115241224L230.07356770833331,153.89618908817118L230.07356770833331,92.1864721720869L230.5203125,158.713976578279L230.5203125,178.65101276473567L230.96705729166666,120.63911456953396L232.30729166666669,136.6284163973548L232.30729166666669,136.01167169484225L232.75403645833333,141.8346844749017L233.20078125,126.61964637312023L233.20078125,128.4173221886158L233.64752604166668,118.91058935360476L233.64752604166668,125.16677645119755L233.64752604166668,201.43713038076052L234.09427083333333,101.10764281316236L234.09427083333333,129.03539763255552L234.541015625,139.42866800860926L234.541015625,178.45407502217725L234.541015625,147.1089402518489L234.98776041666667,154.05911499803716L234.98776041666667,112.92323600162159L234.98776041666667,91.774278012189L234.98776041666667,181.08896702528L234.98776041666667,179.9831328879703L235.43450520833332,159.77942091497508L235.43450520833332,186.01881253448397L235.43450520833332,165.63818388364533L235.43450520833332,141.5807646242055L235.88125,174.93925123052162L235.88125,156.77031483162534L235.88125,153.56389935721052L236.32799479166667,175.45868396759033L236.32799479166667,175.14625944874504L236.32799479166667,187.28191393342883L236.32799479166667,175.06305813789368L236.77473958333331,113.98526356978849L237.221484375,169.01441874829203L237.221484375,157.3426415432583L237.221484375,171.22436065565455L237.221484375,127.57099461826412L237.6682291666667,175.24781540036201L237.6682291666667,135.7524528557604L238.56171875,141.68081000447273L238.56171875,161.85395089062777L238.56171875,132.6738245243376L239.00846354166669,165.05264566703275L239.00846354166669,158.35430474443868L239.00846354166669,160.88041163303635L239.00846354166669,27.67459744756873L239.00846354166669,168.5611034794287L239.45520833333333,154.19827938079834L239.45520833333333,212.5710722533139L239.45520833333333,185.31350758942688L240.34869791666665,176.63809252056208L240.79544270833333,143.80499701608312L241.68893229166665,163.61385043371808L242.13567708333332,152.92908774180844L242.582421875,142.35061652281067L242.582421875,110.7078512419354L243.02916666666667,129.84050818464974L243.47591145833334,171.8034729496999L243.92265625000002,182.0584181492979L243.92265625000002,183.90480389649218L243.92265625000002,94.13371852853082L243.92265625000002,164.05297112735835L244.81614583333334,136.04619903997943L244.81614583333334,180.06242589517072L245.262890625,40.85905600677839L245.262890625,127.01137588782743" style="fill: none;" fill="none"></path></g></g></g></g></g></g><g transform="translate(61, 177)" clip-path="url(#clip_1)"><clipPath id="clip_1"><rect width="268" height="23"></rect></clipPath><g><g><line x1="0" y1="0" x2="0" y2="5" style="visibility: inherit;" fill="rgb(0, 0, 0)" stroke="rgb(204, 204, 204)" stroke-width="1px"></line><line x1="22.337239583333332" y1="0" x2="22.337239583333332" y2="5" style="visibility: inherit;" fill="rgb(0, 0, 0)" stroke="rgb(204, 204, 204)" stroke-width="1px"></line><line x1="44.674479166666664" y1="0" x2="44.674479166666664" y2="5" style="visibility: inherit;" fill="rgb(0, 0, 0)" stroke="rgb(204, 204, 204)" stroke-width="1px"></line><line x1="67.01171875" y1="0" x2="67.01171875" y2="5" style="visibility: inherit;" fill="rgb(0, 0, 0)" stroke="rgb(204, 204, 204)" stroke-width="1px"></line><line x1="89.34895833333333" y1="0" x2="89.34895833333333" y2="5" style="visibility: inherit;" fill="rgb(0, 0, 0)" stroke="rgb(204, 204, 204)" stroke-width="1px"></line><line x1="111.68619791666667" y1="0" x2="111.68619791666667" y2="5" style="visibility: inherit;" fill="rgb(0, 0, 0)" stroke="rgb(204, 204, 204)" stroke-width="1px"></line><line x1="134.0234375" y1="0" x2="134.0234375" y2="5" style="visibility: inherit;" fill="rgb(0, 0, 0)" stroke="rgb(204, 204, 204)" stroke-width="1px"></line><line x1="156.36067708333334" y1="0" x2="156.36067708333334" y2="5" style="visibility: inherit;" fill="rgb(0, 0, 0)" stroke="rgb(204, 204, 204)" stroke-width="1px"></line><line x1="178.69791666666666" y1="0" x2="178.69791666666666" y2="5" style="visibility: inherit;" fill="rgb(0, 0, 0)" stroke="rgb(204, 204, 204)" stroke-width="1px"></line><line x1="201.03515625" y1="0" x2="201.03515625" y2="5" style="visibility: inherit;" fill="rgb(0, 0, 0)" stroke="rgb(204, 204, 204)" stroke-width="1px"></line><line x1="223.37239583333334" y1="0" x2="223.37239583333334" y2="5" style="visibility: inherit;" fill="rgb(0, 0, 0)" stroke="rgb(204, 204, 204)" stroke-width="1px"></line><line x1="245.70963541666666" y1="0" x2="245.70963541666666" y2="5" style="visibility: inherit;" fill="rgb(0, 0, 0)" stroke="rgb(204, 204, 204)" stroke-width="1px"></line><line x1="268.046875" y1="0" x2="268.046875" y2="5" style="visibility: inherit;" fill="rgb(0, 0, 0)" stroke="rgb(204, 204, 204)" stroke-width="1px"></line></g><g transform="translate(0, 8)"><text x="0" y="0" dx="0em" dy="0.95em" style="text-anchor: middle; visibility: hidden; font-family: Roboto, sans-serif; font-size: 12px; font-weight: 200;" fill="rgb(33, 33, 33)" stroke="none" stroke-width="1px">-50</text><text x="22.337239583333332" y="0" dx="0em" dy="0.95em" style="text-anchor: middle; visibility: inherit; font-family: Roboto, sans-serif; font-size: 12px; font-weight: 200;" fill="rgb(33, 33, 33)" stroke="none" stroke-width="1px">0</text><text x="44.674479166666664" y="0" dx="0em" dy="0.95em" style="text-anchor: middle; visibility: hidden; font-family: Roboto, sans-serif; font-size: 12px; font-weight: 200;" fill="rgb(33, 33, 33)" stroke="none" stroke-width="1px">50</text><text x="67.01171875" y="0" dx="0em" dy="0.95em" style="text-anchor: middle; visibility: inherit; font-family: Roboto, sans-serif; font-size: 12px; font-weight: 200;" fill="rgb(33, 33, 33)" stroke="none" stroke-width="1px">100</text><text x="89.34895833333333" y="0" dx="0em" dy="0.95em" style="text-anchor: middle; visibility: hidden; font-family: Roboto, sans-serif; font-size: 12px; font-weight: 200;" fill="rgb(33, 33, 33)" stroke="none" stroke-width="1px">150</text><text x="111.68619791666667" y="0" dx="0em" dy="0.95em" style="text-anchor: middle; visibility: inherit; font-family: Roboto, sans-serif; font-size: 12px; font-weight: 200;" fill="rgb(33, 33, 33)" stroke="none" stroke-width="1px">200</text><text x="134.0234375" y="0" dx="0em" dy="0.95em" style="text-anchor: middle; visibility: hidden; font-family: Roboto, sans-serif; font-size: 12px; font-weight: 200;" fill="rgb(33, 33, 33)" stroke="none" stroke-width="1px">250</text><text x="156.36067708333334" y="0" dx="0em" dy="0.95em" style="text-anchor: middle; visibility: inherit; font-family: Roboto, sans-serif; font-size: 12px; font-weight: 200;" fill="rgb(33, 33, 33)" stroke="none" stroke-width="1px">300</text><text x="178.69791666666666" y="0" dx="0em" dy="0.95em" style="text-anchor: middle; visibility: hidden; font-family: Roboto, sans-serif; font-size: 12px; font-weight: 200;" fill="rgb(33, 33, 33)" stroke="none" stroke-width="1px">350</text><text x="201.03515625" y="0" dx="0em" dy="0.95em" style="text-anchor: middle; visibility: inherit; font-family: Roboto, sans-serif; font-size: 12px; font-weight: 200;" fill="rgb(33, 33, 33)" stroke="none" stroke-width="1px">400</text><text x="223.37239583333334" y="0" dx="0em" dy="0.95em" style="text-anchor: middle; visibility: hidden; font-family: Roboto, sans-serif; font-size: 12px; font-weight: 200;" fill="rgb(33, 33, 33)" stroke="none" stroke-width="1px">450</text><text x="245.70963541666666" y="0" dx="0em" dy="0.95em" style="text-anchor: middle; visibility: inherit; font-family: Roboto, sans-serif; font-size: 12px; font-weight: 200;" fill="rgb(33, 33, 33)" stroke="none" stroke-width="1px">500</text><text x="268.046875" y="0" dx="0em" dy="0.95em" style="text-anchor: middle; visibility: hidden; font-family: Roboto, sans-serif; font-size: 12px; font-weight: 200;" fill="rgb(33, 33, 33)" stroke="none" stroke-width="1px">550</text></g><line x1="0" y1="0" x2="268.046875" y2="0" fill="rgb(0, 0, 0)" stroke="rgb(204, 204, 204)" stroke-width="1px"></line></g></g></g></g></svg>