<svg viewBox="0 0 330 200" xmlns="http://www.w3.org/2000/svg"><g><g><g><g><g><line x1="51.5625" y1="177" x2="46.5625" y2="177" style="visibility: inherit;" fill="rgb(0, 0, 0)" stroke="rgb(204, 204, 204)" stroke-width="1px"></line><line x1="51.5625" y1="160.9090909090909" x2="46.5625" y2="160.9090909090909" style="visibility: inherit;" fill="rgb(0, 0, 0)" stroke="rgb(204, 204, 204)" stroke-width="1px"></line><line x1="51.5625" y1="144.8181818181818" x2="46.5625" y2="144.8181818181818" style="visibility: inherit;" fill="rgb(0, 0, 0)" stroke="rgb(204, 204, 204)" stroke-width="1px"></line><line x1="51.5625" y1="128.72727272727272" x2="46.5625" y2="128.72727272727272" style="visibility: inherit;" fill="rgb(0, 0, 0)" stroke="rgb(204, 204, 204)" stroke-width="1px"></line><line x1="51.5625" y1="112.63636363636364" x2="46.5625" y2="112.63636363636364" style="visibility: inherit;" fill="rgb(0, 0, 0)" stroke="rgb(204, 204, 204)" stroke-width="1px"></line><line x1="51.5625" y1="96.54545454545453" x2="46.5625" y2="96.54545454545453" style="visibility: inherit;" fill="rgb(0, 0, 0)" stroke="rgb(204, 204, 204)" stroke-width="1px"></line><line x1="51.5625" y1="80.45454545454547" x2="46.5625" y2="80.45454545454547" style="visibility: inherit;" fill="rgb(0, 0, 0)" stroke="rgb(204, 204, 204)" stroke-width="1px"></line><line x1="51.5625" y1="64.36363636363636" x2="46.5625" y2="64.36363636363636" style="visibility: inherit;" fill="rgb(0, 0, 0)" stroke="rgb(204, 204, 204)" stroke-width="1px"></line><line x1="51.5625" y1="48.272727272727266" x2="46.5625" y2="48.272727272727266" style="visibility: inherit;" fill="rgb(0, 0, 0)" stroke="rgb(204, 204, 204)" stroke-width="1px"></line><line x1="51.5625" y1="32.18181818181817" x2="46.5625" y2="32.18181818181817" style="visibility: inherit;" fill="rgb(0, 0, 0)" stroke="rgb(204, 204, 204)" stroke-width="1px"></line><line x1="51.5625" y1="16.090909090909097" x2="46.5625" y2="16.090909090909097" style="visibility: inherit;" fill="rgb(0, 0, 0)" stroke="rgb(204, 204, 204)" stroke-width="1px"></line><line x1="51.5625" y1="0" x2="46.5625" y2="0" style="visibility: inherit;" fill="rgb(0, 0, 0)" stroke="rgb(204, 204, 204)" stroke-width="1px"></line></g><g transform="translate(41.5625, 0)"><text x="0" y="177" dx="0em" dy="0.3em" style="text-anchor: end; visibility: hidden; font-family: Roboto, sans-serif; font-size: 12px; font-weight: 200;" fill="rgb(33, 33, 33)" stroke="none" stroke-width="1px">6</text><text x="0" y="160.9090909090909" dx="0em" dy="0.3em" style="text-anchor: end; visibility: inherit; font-family: Roboto, sans-serif; font-size: 12px; font-weight: 200;" fill="rgb(33, 33, 33)" stroke="none" stroke-width="1px">6.5</text><text x="0" y="144.8181818181818" dx="0em" dy="0.3em" style="text-anchor: end; visibility: hidden; font-family: Roboto, sans-serif; font-size: 12px; font-weight: 200;" fill="rgb(33, 33, 33)" stroke="none" stroke-width="1px">7</text><text x="0" y="128.72727272727272" dx="0em" dy="0.3em" style="text-anchor: end; visibility: inherit; font-family: Roboto, sans-serif; font-size: 12px; font-weight: 200;" fill="rgb(33, 33, 33)" stroke="none" stroke-width="1px">7.5</text><text x="0" y="112.63636363636364" dx="0em" dy="0.3em" style="text-anchor: end; visibility: hidden; font-family: Roboto, sans-serif; font-size: 12px; font-weight: 200;" fill="rgb(33, 33, 33)" stroke="none" stroke-width="1px">8</text><text x="0" y="96.54545454545453" dx="0em" dy="0.3em" style="text-anchor: end; visibility: inherit; font-family: Roboto, sans-serif; font-size: 12px; font-weight: 200;" fill="rgb(33, 33, 33)" stroke="none" stroke-width="1px">8.5</text><text x="0" y="80.45454545454547" dx="0em" dy="0.3em" style="text-anchor: end; visibility: hidden; font-family: Roboto, sans-serif; font-size: 12px; font-weight: 200;" fill="rgb(33, 33, 33)" stroke="none" stroke-width="1px">9</text><text x="0" y="64.36363636363636" dx="0em" dy="0.3em" style="text-anchor: end; visibility: inherit; font-family: Roboto, sans-serif; font-size: 12px; font-weight: 200;" fill="rgb(33, 33, 33)" stroke="none" stroke-width="1px">9.5</text><text x="0" y="48.272727272727266" dx="0em" dy="0.3em" style="text-anchor: end; visibility: hidden; font-family: Roboto, sans-serif; font-size: 12px; font-weight: 200;" fill="rgb(33, 33, 33)" stroke="none" stroke-width="1px">10</text><text x="0" y="32.18181818181817" dx="0em" dy="0.3em" style="text-anchor: end; visibility: inherit; font-family: Roboto, sans-serif; font-size: 12px; font-weight: 200;" fill="rgb(33, 33, 33)" stroke="none" stroke-width="1px">10.5</text><text x="0" y="16.090909090909097" dx="0em" dy="0.3em" style="text-anchor: end; visibility: hidden; font-family: Roboto, sans-serif; font-size: 12px; font-weight: 200;" fill="rgb(33, 33, 33)" stroke="none" stroke-width="1px">11</text><text x="0" y="0" dx="0em" dy="0.3em" style="text-anchor: end; visibility: hidden; font-family: Roboto, sans-serif; font-size: 12px; font-weight: 200;" fill="rgb(33, 33, 33)" stroke="none" stroke-width="1px">11.5</text></g><line x1="51.5625" y1="0" x2="51.5625" y2="177" fill="rgb(0, 0, 0)" stroke="rgb(204, 204, 204)" stroke-width="1px"></line></g></g><g transform="translate(51, 0)" clip-path="url(#clip_0)"><clipPath id="clip_0"><rect width="278" height="177"></rect></clipPath><g><g><g><line x1="0" y1="0" x2="0" y2="177" fill="rgb(0, 0, 0)" stroke="rgb(66, 66, 66)" stroke-width="1px" opacity="0.25"></line><line x1="23.203125" y1="0" x2="23.203125" y2="177" fill="rgb(0, 0, 0)" stroke="rgb(66, 66, 66)" stroke-width="1px" opacity="0.25"></line><line x1="46.40625" y1="0" x2="46.40625" y2="177" fill="rgb(0, 0, 0)" stroke="rgb(66, 66, 66)" stroke-width="1px" opacity="0.25"></line><line x1="69.609375" y1="0" x2="69.609375" y2="177" fill="rgb(0, 0, 0)" stroke="rgb(66, 66, 66)" stroke-width="1px" opacity="0.25"></line><line x1="92.8125" y1="0" x2="92.8125" y2="177" fill="rgb(0, 0, 0)" stroke="rgb(66, 66, 66)" stroke-width="1px" opacity="0.25"></line><line x1="116.015625" y1="0" x2="116.015625" y2="177" fill="rgb(0, 0, 0)" stroke="rgb(66, 66, 66)" stroke-width="1px" opacity="0.25"></line><line x1="139.21875" y1="0" x2="139.21875" y2="177" fill="rgb(0, 0, 0)" stroke="rgb(66, 66, 66)" stroke-width="1px" opacity="0.25"></line><line x1="162.421875" y1="0" x2="162.421875" y2="177" fill="rgb(0, 0, 0)" stroke="rgb(66, 66, 66)" stroke-width="1px" opacity="0.25"></line><line x1="185.625" y1="0" x2="185.625" y2="177" fill="rgb(0, 0, 0)" stroke="rgb(66, 66, 66)" stroke-width="1px" opacity="0.25"></line><line x1="208.828125" y1="0" x2="208.828125" y2="177" fill="rgb(0, 0, 0)" stroke="rgb(66, 66, 66)" stroke-width="1px" opacity="0.25"></line><line x1="232.03125" y1="0" x2="232.03125" y2="177" fill="rgb(0, 0, 0)" stroke="rgb(66, 66, 66)" stroke-width="1px" opacity="0.25"></line><line x1="255.234375" y1="0" x2="255.234375" y2="177" fill="rgb(0, 0, 0)" stroke="rgb(66, 66, 66)" stroke-width="1px" opacity="0.25"></line><line x1="278.4375" y1="0" x2="278.4375" y2="177" fill="rgb(0, 0, 0)" stroke="rgb(66, 66, 66)" stroke-width="1px" opacity="0.25"></line></g><g><line x1="0" y1="177" x2="278.4375" y2="177" fill="rgb(0, 0, 0)" stroke="rgb(66, 66, 66)" stroke-width="1px" opacity="0.25"></line><line x1="0" y1="160.9090909090909" x2="278.4375" y2="160.9090909090909" fill="rgb(0, 0, 0)" stroke="rgb(66, 66, 66)" stroke-width="1px" opacity="0.25"></line><line x1="0" y1="144.8181818181818" x2="278.4375" y2="144.8181818181818" fill="rgb(0, 0, 0)" stroke="rgb(66, 66, 66)" stroke-width="1px" opacity="0.25"></line><line x1="0" y1="128.72727272727272" x2="278.4375" y2="128.72727272727272" fill="rgb(0, 0, 0)" stroke="rgb(66, 66, 66)" stroke-width="1px" opacity="0.25"></line><line x1="0" y1="112.63636363636364" x2="278.4375" y2="112.63636363636364" fill="rgb(0, 0, 0)" stroke="rgb(66, 66, 66)" stroke-width="1px" opacity="0.25"></line><line x1="0" y1="96.54545454545453" x2="278.4375" y2="96.54545454545453" fill="rgb(0, 0, 0)" stroke="rgb(66, 66, 66)" stroke-width="1px" opacity="0.25"></line><line x1="0" y1="80.45454545454547" x2="278.4375" y2="80.45454545454547" fill="rgb(0, 0, 0)" stroke="rgb(66, 66, 66)" stroke-width="1px" opacity="0.25"></line><line x1="0" y1="64.36363636363636" x2="278.4375" y2="64.36363636363636" fill="rgb(0, 0, 0)" stroke="rgb(66, 66, 66)" stroke-width="1px" opacity="0.25"></line><line x1="0" y1="48.272727272727266" x2="278.4375" y2="48.272727272727266" fill="rgb(0, 0, 0)" stroke="rgb(66, 66, 66)" stroke-width="1px" opacity="0.25"></line><line x1="0" y1="32.18181818181817" x2="278.4375" y2="32.18181818181817" fill="rgb(0, 0, 0)" stroke="rgb(66, 66, 66)" stroke-width="1px" opacity="0.25"></line><line x1="0" y1="16.090909090909097" x2="278.4375" y2="16.090909090909097" fill="rgb(0, 0, 0)" stroke="rgb(66, 66, 66)" stroke-width="1px" opacity="0.25"></line><line x1="0" y1="0" x2="278.4375" y2="0" fill="rgb(0, 0, 0)" stroke="rgb(66, 66, 66)" stroke-width="1px" opacity="0.25"></line></g></g></g><g><g><line x1="0" y1="370.09090909090907" x2="278.4375" y2="370.09090909090907" fill="rgb(0, 0, 0)" stroke="rgb(153, 153, 153)" stroke-width="1.5px"></line></g></g><g><g><line x1="23.203125" y1="0" x2="23.203125" y2="177" fill="rgb(0, 0, 0)" stroke="rgb(153, 153, 153)" stroke-width="1.5px"></line></g></g><g><g><g><g><g><path stroke="rgb(255, 112, 67)" stroke-width="2px" d="M24.13125,-1.6557791259306498L24.13125,13.76599829560449L24.13125,32.257726480597164L24.5953125,33.11089808846731L24.5953125,42.805795516567514L24.5953125,32.53705613690969L25.059375,35.380273321131156L25.523437499999996,35.254953117012796L25.523437499999996,27.311572674690275L25.523437499999996,21.855896366912642L25.9875,34.97934176553265L25.9875,33.14359678572663L25.9875,32.92758514093223L26.4515625,32.11210750864506L26.4515625,35.120159602060006L26.4515625,40.001439899224124L26.915625,46.976808698862406L26.915625,34.20150950203537L26.915625,25.358519525680627L27.3796875,24.469319455367284L27.84375,22.59411568494821L27.84375,25.574444562975092L28.3078125,15.000828164253587L28.3078125,9.357347444474286L28.771875,26.208514365728263L29.2359375,11.853633178115414L29.2359375,12.674376708275071L29.2359375,16.179666683545854L29.2359375,21.77513436529893L29.2359375,19.565207290210843L29.2359375,15.600253978768592L29.700000000000003,16.20930051126581L29.700000000000003,10.780833661667504L30.1640625,-2.650307322609099L30.1640625,6.49378337823269L30.1640625,12.551680718648216L30.1640625,22.811351531931212L30.628125,27.82492616973142L31.092187499999998,25.899157160974042L31.092187499999998,13.141849129226749L31.55625,6.094923085087768L31.55625,-3.0160307005222173L31.55625,-1.5645996309933723L32.0203125,3.003343743925374L32.0203125,12.065904633978707L32.0203125,10.633590764084774L32.484375,10.069439138843235L32.484375,18.688772824665367L32.9484375,20.871509669141133L32.9484375,24.30388468235691L33.4125,27.219126060467048L33.4125,29.987951191714394L33.4125,23.555089258095034L33.8765625,28.619984242225225L33.8765625,32.48012253495045L34.340625,28.609823264555637L34.340625,29.513017194176314L34.340625,34.84550646282527L34.340625,38.389690055634446L34.340625,47.0339749572375L34.340625,49.05019725484345L34.340625,35.45686204776482L34.8046875,33.4734848193359L34.8046875,32.493743661303924L34.8046875,40.256936707720925L35.268750000000004,33.98061114201379L35.7328125,20.402188720714285L36.660937499999996,23.955466980301267L37.125,22.316632672064667L37.125,5.497569561277346L37.125,-1.4229685540938235L37.589062500000004,-3.7977955792515408L38.053124999999994,8.299096892284464L38.053124999999994,9.566154039836906L38.053124999999994,14.162845460120959L38.053124999999994,21.804236384494253L38.5171875,24.49454240196178L38.98125,29.920378312049692L39.909375000000004,38.17900645753479L39.909375000000004,48.209235197368585L39.909375000000004,44.72867907891367L40.373437499999994,44.78041235293273L40.373437499999994,45.409805187431175L40.8375,52.25161131270238L40.8375,57.9599523327189L41.3015625,46.02064005478236L41.3015625,51.513054480323206L41.3015625,55.20109747492223L41.765625,48.60997030300532L41.765625,37.130161125910746L42.229687500000004,37.86821560103562L42.693749999999994,40.536611181470285L42.693749999999994,49.119193153452535L43.1578125,52.347927456532226L43.1578125,52.24814731707824L43.621875,52.71445689079419L43.621875,47.043786148865244L44.0859375,57.5879938854019L44.0859375,57.079064025760275L44.550000000000004,64.64397700472716L44.550000000000004,55.13237733103318L44.550000000000004,43.361476634137915L45.014062499999994,53.24722239863435L45.478125,60.65960945675764L45.478125,64.68187991602687L45.478125,57.81775270812937L45.478125,63.432999886770844L45.9421875,61.50904858573546L46.40625,62.25336571059078L46.40625,60.73994498614048L46.8703125,47.59705423063822L46.8703125,58.668982714311404L47.334375,55.713701788403434L47.7984375,50.23546373471528L47.7984375,48.45921676108691L48.2625,55.156091070480215L48.7265625,59.678016529682814L49.190625,61.916905869438324L49.6546875,60.640863943436L50.11875,62.265187672971244L50.11875,67.22771849495793L50.11875,70.48853509563205L50.11875,68.12258200345609L50.5828125,62.15485445056118L50.5828125,58.75488549557856L50.5828125,64.05728155632498L51.04687499999999,75.6209390285462L51.5109375,73.6084801061914L51.5109375,70.96980019852366L51.975,71.76169026819068L51.975,64.98917740489748L51.975,71.26222035932742L51.975,64.35982131974572L51.975,56.82447209110181L52.4390625,51.74888073763643L52.4390625,48.72994224433159L53.36718750000001,49.34526083801039L53.36718750000001,51.969323081113146L53.83125,55.213548226227616L53.83125,58.68804784336573L53.83125,56.63773251598787L53.83125,58.980174965306695L54.2953125,66.01987448929246L54.2953125,65.1650843533958L54.759375,68.754041635305L55.2234375,66.87581665047806L55.2234375,65.44160942181838L56.1515625,70.71629741049114L56.1515625,59.76054826197009L56.1515625,60.07695825281928L56.615625,52.29234086060218L57.0796875,52.837299708262805L57.0796875,53.07501734788852L57.0796875,43.82525635146003L57.54375,33.10923577510868L57.54375,33.34353976858446L57.54375,39.23907298619345L57.54375,29.606984001538553L58.0078125,14.55795970355334L58.471875,17.60650461429401L58.9359375,26.71255283206637L58.9359375,29.611355463302L58.9359375,41.458192505559154L59.400000000000006,38.957708427404505L59.864062499999996,42.981925021755416L60.328125,29.805070930746872L60.7921875,25.951522472617004L61.25625,25.19681470664617L61.720312500000006,30.281609295080894L61.720312500000006,38.45355343331219L61.720312500000006,39.455337201732135L61.720312500000006,38.79413042810119L62.184374999999996,44.00502223127256L62.184374999999996,41.75600535368523L62.184374999999996,40.07391933887855L62.6484375,38.45639555852931L63.1125,43.059828862268596L63.1125,54.755076869316866L63.1125,54.30195427383394L64.040625,59.39780938431287L64.040625,60.98395539233876L64.5046875,65.83098158132226L64.5046875,70.51405900835849L64.5046875,65.77119350904593L64.5046875,69.00886701239834L64.5046875,65.64343674747302L64.5046875,70.27548073624163L64.96875,73.45082574285028L65.896875,67.73674276667438L66.3609375,60.69872839039489L66.3609375,58.47663346688698L66.825,59.90043320960199L66.825,61.41910718691322L67.2890625,54.80818313649833L67.2890625,58.338809005227084L67.2890625,65.23345847835999L67.753125,67.18552707965523L67.753125,59.628432487360975L67.753125,59.2248912643904L67.753125,61.26452418332887L68.68125,76.24454818530408L69.1453125,71.89858502289744L69.609375,77.48918599006244L69.609375,71.36476349877637L70.53750000000001,69.53744304626285L70.53750000000001,61.723026598655714L71.0015625,56.828358687291846L71.0015625,53.571224760636845L71.465625,58.64007511942582L71.465625,62.139340796484205L71.92968750000001,67.84334523063357L72.39375,71.35293980163546L72.39375,73.7083778204311L72.39375,74.1881160362027L72.39375,77.42249073315286L72.8578125,82.03629409464926L72.8578125,87.11762552586417L72.8578125,88.6449024435635L72.8578125,80.9971209013283L73.32187499999999,72.24714532652096L73.32187499999999,75.51761782359088L73.32187499999999,79.68825452097063L73.7859375,74.40237543129523L73.7859375,81.07793847156269L73.7859375,72.25383955664445L73.7859375,75.49992714361333L73.7859375,69.72208436946966L73.7859375,79.47290232607745L73.7859375,83.75051887960386L74.25,76.00314937432391L74.7140625,73.8168130936438L74.7140625,73.27151179360033L74.7140625,73.14396430222757L74.7140625,60.766844191538794L75.17812500000001,67.47868332627567L75.17812500000001,65.16402245717195L76.10624999999999,71.73949895331647L76.10624999999999,65.0139500132392L76.10624999999999,67.25650991418816L76.5703125,63.66579728179888L76.5703125,47.466547600338515L76.5703125,47.417146084336125L76.5703125,47.058267817931L77.034375,54.70137445161239L77.034375,49.58406467124366L77.034375,60.81300570812128L77.4984375,61.26075762674337L77.9625,52.59369863204563L78.4265625,55.827643520496686L78.4265625,55.9101853306689L78.890625,62.782587389111384L78.890625,62.87173075910735L79.3546875,64.16650854055071L79.3546875,65.76538790972988L79.3546875,69.59611252646793L79.3546875,76.18985739060176L79.81875000000001,75.799560735075L79.81875000000001,73.4615725524549L79.81875000000001,54.49742313154329L80.2828125,49.55252246757141L80.74687499999999,47.835293495024125L80.74687499999999,59.46161236819036L81.675,72.02832491414911L81.675,74.12859682671674L82.603125,74.08916987140412L82.603125,75.77545615691042L83.0671875,75.11146832557046L83.53125,84.04900153538993L83.53125,87.65965264432633L83.53125,89.29392840230437L83.53125,82.68919724545859L83.53125,89.29912759528358L83.99531250000001,86.55896852110675L83.99531250000001,83.3735260630061L84.45937500000001,85.46467053719805L84.92343749999999,80.64984648787268L85.38749999999999,86.48691436547914L85.38749999999999,66.67945729433082L85.8515625,69.900333715159L85.8515625,72.29806386075703L85.8515625,79.21937705613776L86.315625,80.61136196531848L86.315625,77.60864033516536L86.315625,80.65738975334665L86.7796875,79.0069823895378L87.24375,89.17643823816762L87.24375,84.30845070600127L87.24375,60.290107013152216L87.7078125,60.71889632262782L87.7078125,63.77647614194287L88.171875,69.24322755251846L89.10000000000001,70.89439746751906L89.10000000000001,61.221675830405566L89.10000000000001,66.00476528055354L89.56406249999999,67.42516309994582L89.56406249999999,77.93723101972081L89.56406249999999,78.1100140834939L89.56406249999999,87.83833594225617L90.02812499999999,76.35750255908695L90.02812499999999,76.33895758541048L90.4921875,55.70053817201184L90.95625,59.536242968192404L90.95625,72.94013911661105L90.95625,82.0986204195692L90.95625,85.06115612094759L90.95625,88.07963364168062L91.4203125,81.43686922692922L91.4203125,81.87571302520753L91.4203125,80.71448416386055L91.884375,84.1736025552394L91.884375,89.60498579701948L91.884375,86.6780948397069L92.8125,70.428915553144L92.8125,74.94628781229862L93.27656250000001,76.14508489078253L93.27656250000001,77.40350926179757L93.740625,81.9414252377138L94.20468749999999,79.40613187445493L94.66875,83.60664122596546L94.66875,90.4515870759166L95.1328125,84.66109176246628L95.1328125,95.01957782698872L95.1328125,88.53603676318257L96.0609375,88.32092628576346L96.0609375,84.70516928101948L96.0609375,91.71126070227123L96.525,83.05830252747981L96.9890625,79.61651486815119L96.9890625,78.3668875312493L97.453125,83.74656266028899L97.91718750000001,91.00961804097878L98.38125,92.72445497022753L98.84531249999999,94.78883043070527L98.84531249999999,91.72529198898168L98.84531249999999,95.3899061851199L99.309375,100.35151059475886L99.309375,93.78108344340107L99.7734375,86.46143033521096L99.7734375,93.23551366891775L100.2375,100.61370960464606L100.2375,101.1820683516931L101.165625,102.07112464707201L101.165625,99.01122056758147L101.165625,102.60440438342022L101.165625,106.60214577380368L101.165625,107.45950158175312L102.09374999999999,111.52411221505027L102.09374999999999,103.02320773618797L102.5578125,99.02277756150465L103.021875,98.84432973006963L103.021875,107.61400135104682L103.021875,108.94047050512269L103.021875,104.07595310114323L103.48593749999999,106.56479916769302L103.48593749999999,104.07759845862554L103.48593749999999,110.19012446263412L103.48593749999999,105.7576867998304L103.48593749999999,103.66584785224875L103.95,109.23099855423058L103.95,103.83787059184581L103.95,101.0971366888328L104.4140625,109.60632735666947L104.4140625,117.26652602957323L104.4140625,113.63092489554195L104.4140625,114.23407223862188L104.878125,110.46070826395022L105.34218750000001,108.20894142268742L106.2703125,107.61187898171634L106.2703125,105.82056204770252L106.2703125,108.92106003258147L106.73437500000001,108.06229861572598L106.73437500000001,113.12192358080752L106.73437500000001,122.49590316821472L107.1984375,108.12316375995574L107.6625,117.02757883040832L108.12656249999999,108.79323169780957L108.590625,90.98669035224628L108.590625,91.95102551721368L109.0546875,93.9332841240658L109.98281250000001,89.20801414321667L109.98281250000001,95.34612966996221L110.446875,90.23485155940679L110.91093749999999,92.8776002745198L110.91093749999999,97.41116485754907L111.375,98.5106785944468L111.375,102.16467713653688L111.375,103.27711654418134L111.8390625,113.47548342204418L111.8390625,107.41639091083682L112.303125,105.96937727657516L112.303125,101.43539765281002L113.23125,109.5386768191559L113.6953125,94.96551711486002L113.6953125,100.64282114163991L113.6953125,97.91127364296632L114.159375,97.15336465379217L114.159375,98.56272709410909L114.159375,99.10929824109597L114.62343750000001,97.42150755635707L114.62343750000001,92.17664064287504L114.62343750000001,96.85136670817009L114.62343750000001,100.22326420526632L115.0875,105.55450021528016L115.0875,100.96143862567847L115.55156249999999,94.36457574428624L115.55156249999999,96.87310846179174L115.55156249999999,102.91916711488454L115.55156249999999,98.54092465507037L116.015625,106.20640861326123L116.015625,111.09811353922119L116.015625,108.94398700336289L116.015625,107.9788385657579L116.4796875,112.58393746327188L116.4796875,107.20262832363247L116.4796875,107.24142507786316L116.94375,109.46577873726199L116.94375,104.15914090289532L116.94375,105.15027987469746L116.94375,103.85516300637384L117.4078125,104.9336817843956L117.4078125,106.52259224670594L117.4078125,107.14097284425836L117.871875,105.9499411826192L117.871875,106.82747877210385L118.3359375,108.07640083949194L118.3359375,114.2052342299972L118.3359375,107.56491811294103L118.3359375,102.81183114063015L118.3359375,101.74699894701108L118.80000000000001,95.07999086081625L119.26406250000001,104.20176519078278L119.26406250000001,108.30502667328423L119.26406250000001,111.24725100313213L119.26406250000001,106.69773901933121L119.72812499999999,102.56765207840154L119.72812499999999,105.9087967036107L120.19218749999999,103.51652621503615L120.65625,99.4045438390995L120.65625,103.97430894467088L121.1203125,115.11677563929736L121.584375,122.55392315517557L121.584375,126.41849464099957L122.0484375,123.70486489930859L122.0484375,123.4221278810352L122.0484375,125.8559234177057L122.0484375,125.63299698431577L122.5125,123.51609956192101L122.5125,130.11996836649536L122.9765625,134.42204264664835L123.44062500000001,134.86157186092188L123.90468750000001,124.65673420243036L123.90468750000001,113.97142017231091L123.90468750000001,104.0989229064896L123.90468750000001,106.56156757320964L124.36874999999999,103.71467244851675L124.36874999999999,108.67060279259563L124.36874999999999,115.27341577774395L125.296875,116.27932824563857L126.225,113.47905691879564L126.225,115.46190031100727L126.225,120.02794539504838L126.6890625,115.88521239000373L126.6890625,117.17571683082859L126.6890625,109.41257531190976L127.153125,102.68580432901607L127.6171875,108.60044306292262L127.6171875,100.78122751026339L128.08125,96.99834814329748L128.5453125,103.81641986378489L129.009375,100.69971098878749L129.47343750000002,89.05643055757487L129.47343750000002,94.25977788424048L129.9375,97.86514241890569L129.9375,105.61837185937593L130.4015625,112.8618098604306L130.4015625,111.00115582249722L130.4015625,115.94553103460308L130.4015625,111.07969901398644L130.4015625,108.55139496614086L130.865625,115.99546358319247L130.865625,116.70481106004735L130.865625,120.79004607432242L131.3296875,120.38903814748123L131.3296875,122.7613912052565L131.3296875,126.34709595908522L131.79375,128.059285574028L132.2578125,134.74542204944078L132.2578125,131.0159796331814L132.721875,127.80222060517723L132.721875,132.11390542640865L133.1859375,124.06568887980248L133.1859375,123.05074051389263L133.65,131.92617250323102L134.11406250000002,130.85040329017397L134.578125,132.25407777899997L135.04218749999998,134.10628625454825L135.04218749999998,135.73265917278553L135.50625,129.53977322508268L135.50625,126.16007152398866L135.50625,115.4816444610728L135.9703125,113.42083004235826L135.9703125,111.94945263484416L136.434375,114.58384460309138L136.8984375,122.95161496837954L137.3625,127.56217361647015L137.8265625,126.11389987126852L137.8265625,128.7685880402702L138.290625,132.8334170073673L138.75468750000002,127.64767323497911L138.75468750000002,127.31490082926196L139.21875,129.65849720063076L139.21875,125.55096777442935L139.6828125,128.5455522773394L140.146875,129.3343978125584L140.146875,130.37096813170547L140.146875,128.40010516005228L140.146875,122.10279292196329L140.6109375,125.59301650499872L140.6109375,125.1528585418088L141.5390625,133.93033046672912L141.5390625,136.2310432574392L141.5390625,133.34327084413337L142.003125,132.9016955277531L142.46718750000002,135.17388426861595L142.93125,130.46254491636435L142.93125,128.89348308012708L143.39531250000002,133.52135159770785L143.85937500000003,135.7060149859796L143.85937500000003,143.23651887774406L143.85937500000003,143.88277934925992L143.85937500000003,140.35576064031147L144.32343749999998,138.85953304258226L144.32343749999998,131.51054115002526L144.32343749999998,128.6489302714472L144.7875,119.06922556866424L145.25156249999998,126.21350386323552L145.715625,121.05057158158903L145.715625,119.0600775070756L146.64374999999998,124.81256549164641L147.1078125,131.83549050200264L147.1078125,132.17574024252409L147.571875,135.50898459392974L147.571875,142.7558764179929L148.0359375,140.55477506340011L148.5,137.32035728155955L148.9640625,140.79466193864187L148.9640625,140.29141104811129L148.9640625,139.03091923587894L148.9640625,130.95796379309755L148.9640625,131.16558405318273L149.428125,127.27948376480545L149.8921875,116.11293908359232L150.35625000000002,115.4164816950407L150.8203125,118.12277958449818L151.284375,116.4360712555071L151.284375,120.504974180313L151.284375,130.4147943585544L151.284375,115.79442644081522L151.284375,124.46071729432168L151.74843750000002,122.6294424093472L152.21249999999998,131.1121948804292L152.6765625,132.92375520858906L152.6765625,133.16920602071662L152.6765625,137.26763339203663L152.6765625,139.22940084519715L154.06875,133.0228456222557L154.06875,136.05258462579238L154.5328125,130.66068190133174L154.5328125,136.74658141083802L154.996875,137.68804150298735L154.996875,138.32012087470503L155.4609375,141.67683678340063L155.4609375,131.3012763260952L155.925,130.54207426366202L156.853125,130.38062056186953L157.3171875,127.25476943408604L157.3171875,124.59298734992957L157.78125,131.467088827617L157.78125,130.2972666982959L157.78125,128.6916452456741L157.78125,125.3779220212085L157.78125,125.36761726927057L158.2453125,121.873285850755L158.709375,122.62532390973892L158.709375,116.40857458901749L159.63750000000002,119.88998309095524L159.63750000000002,117.62963712299425L159.63750000000002,127.60412424469385L160.1015625,126.38245341300053L160.1015625,129.4947599213027L160.1015625,132.85539016222123L160.1015625,135.45049787141033L160.565625,139.1859125711457L161.02968750000002,140.83326935751376L161.49374999999998,128.506575257741L161.49374999999998,118.86095149618235L161.49374999999998,121.07858679277818L162.421875,118.17760303940294L162.421875,118.63000781977577L162.421875,120.6533628958941L162.421875,124.07601802407625L162.421875,125.59759384685793L162.88593749999998,132.53602576413726L163.35,132.03442758500182L163.35,136.2966642619433L163.35,134.46886261343795L163.8140625,131.98609664254187L164.278125,133.1149078521802L164.278125,133.12670909581772L164.278125,121.44035016363561L164.7421875,123.97809620436146L165.20625,121.6439437534317L165.6703125,128.5492315987094L165.6703125,124.71850699193756L165.6703125,121.58659658519201L165.6703125,120.20982553253519L167.0625,123.77513955933594L167.5265625,129.46945767454608L167.99062500000002,137.73318309152413L168.91875000000002,139.39133334259557L168.91875000000002,134.5313209005914L169.38281249999997,143.01739287052075L169.84687499999998,139.5933628345612L170.3109375,135.66509044976243L170.3109375,136.30053319063182L170.77499999999998,131.7514681355834L170.77499999999998,133.2903736207406L170.77499999999998,136.37947222842487L170.77499999999998,131.34638084646087L171.2390625,131.85022784261366L171.2390625,132.44252308342016L171.703125,135.02020343475706L171.703125,130.66097040358522L172.16718749999998,132.16525740714988L172.16718749999998,129.88172845989772L172.63125,134.3906565168265L172.63125,130.7036960114396L173.0953125,127.92519859909157L173.0953125,133.15184475101282L173.559375,139.94635751711218L174.0234375,135.3722871738533L174.0234375,134.79933672164913L174.0234375,136.06665099699816L174.4875,136.41781502497267L174.4875,132.52205842140324L174.4875,134.00244912105197L174.9515625,129.11856813032566L174.9515625,121.00981740902859L175.415625,127.17313545589626L175.87968750000002,124.58343670493578L175.87968750000002,129.2290987504476L176.34375,128.1487336983636L176.34375,123.14922603696547L176.34375,130.47932209721634L176.8078125,137.72466939749276L176.8078125,132.74707167276307L176.8078125,134.27195712812394L176.8078125,127.86154053673697L177.27187500000002,130.56452256433587L177.7359375,129.84793216626713L177.7359375,123.18413625023588L177.7359375,130.53832938300224L177.7359375,125.64190825050954L178.20000000000002,135.7451573146972L178.66406250000003,138.7765257208963L179.12812499999998,141.38190548851819L179.12812499999998,136.58951190509472L179.5921875,140.5076838674854L179.5921875,139.91726441477257L179.5921875,138.25348362098708L179.5921875,145.29942734515117L179.5921875,147.55726410571893L180.05624999999998,140.8794049767557L180.05624999999998,130.48039532113805L180.05624999999998,130.13621584022684L180.5203125,131.63766841813592L180.5203125,132.63433241980283L180.984375,135.56860775348423L180.984375,138.04704842207607L180.984375,140.40195784448122L180.984375,141.05587995013806L181.44843749999998,143.61295560132484L181.44843749999998,140.87422019163174L181.44843749999998,139.2511235545039L182.3765625,140.67628740089899L182.3765625,136.7256215760952L182.3765625,133.46886905754133L182.3765625,133.00971664055706L182.840625,130.71186497968955L183.3046875,126.90775699324188L183.3046875,123.79694204769163L183.3046875,123.77986218111506L183.3046875,127.84825536279295L183.76875,118.30151603508119L183.76875,119.68963418789033L183.76875,119.52118938823584L184.2328125,116.33389443934718L184.2328125,117.92486884416708L184.696875,123.42663677848105L185.625,123.06896925736521L185.625,129.08475410375397L186.0890625,134.8652500791946L186.0890625,141.79194072337154L186.55312500000002,146.74726523855784L186.55312500000002,149.35139434396223L187.01718749999998,145.9950981800079L187.01718749999998,154.3485020557302L187.01718749999998,151.94270805364977L187.01718749999998,155.1095611018242L187.01718749999998,152.74256313180777L187.01718749999998,148.56561496514115L187.48125,146.5396776840399L187.48125,144.52462133525106L187.9453125,139.18686182983043L187.9453125,142.10982859634913L188.40937499999998,133.25032039967584L188.8734375,131.36431623669026L188.8734375,135.21942184451757L189.3375,141.23220691131874L189.3375,143.3137347911807L189.8015625,134.96797749392283L189.8015625,136.09914779728058L190.265625,137.8101881962267L190.265625,138.79483121294777L190.7296875,138.99425109365706L191.19375,143.12276324702927L191.19375,133.2049128413623L191.19375,133.9511857606052L191.19375,141.89915555668867L191.19375,141.96643591558995L191.6578125,138.42882100840782L191.6578125,134.19936407730026L191.6578125,136.09695812196287L192.5859375,131.7584799749832L193.05,131.99209040930944L193.05,131.2387373736289L193.05,136.41160064725835L193.5140625,137.03320297864596L193.978125,141.75458899212268L193.978125,132.78056731319873L193.978125,134.2310515475233L193.978125,143.116124248986L193.978125,136.18980953179488L194.44218750000002,137.5215260855731L194.90625,133.938577509028L195.3703125,135.93151480927622L195.83437500000002,143.6262209328285L196.29843749999998,147.85082598238822L196.29843749999998,151.62367057653304L196.29843749999998,149.5060344228976L196.7625,147.61089637706422L196.7625,149.52013096909226L198.1546875,142.38831586622385L198.1546875,142.54800280759218L198.61875,134.43787897896132L198.61875,130.35319825261016L199.546875,123.1996710608456L200.0109375,130.46693791619035L200.475,133.7873334339766L200.475,134.67356284183597L200.9390625,133.54150894695502L200.9390625,134.74456183907685L201.40312500000002,136.25664812756068L201.40312500000002,135.4155130020056L201.40312500000002,139.34462782286283L201.8671875,140.4788785303501L201.8671875,141.76070778768542L202.33125,142.06750254015765L202.33125,146.86059879188352L202.79531250000002,144.24291297875067L202.79531250000002,147.58083069443424L202.79531250000002,146.71978448224465L202.79531250000002,149.21591204133261L203.259375,150.5993774584937L203.72343750000002,148.21390411519772L204.18749999999997,151.16162743636005L204.18749999999997,151.69643400644165L204.65156249999998,151.4253297167792L205.115625,150.4436164677288L205.115625,147.06774548333894L205.57968749999998,147.03193778700359L206.5078125,141.98299390217153L206.97187499999998,145.70000279605833L207.4359375,144.6487932254304L207.4359375,142.49110677651652L207.4359375,146.35243304844403L207.9,147.61326610333583L208.3640625,149.2384723909435L208.3640625,147.45812992609882L208.3640625,145.85521960248718L208.3640625,154.50393308555178L208.828125,154.920613189507L209.75625,155.05620229391243L209.75625,150.9194834087858L210.68437500000002,153.7532048006006L210.68437500000002,152.97753362088562L211.1484375,149.4944845112766L211.1484375,152.96600292729275L211.1484375,146.0210759597942L211.6125,144.34389800386904L211.6125,143.8143859069826L211.6125,145.83259745997455L211.6125,142.62390857262568L211.6125,145.83447161211035L212.07656250000002,146.056936341913L212.07656250000002,151.7462453377955L212.07656250000002,153.59727273531036L212.07656250000002,152.63604548191103L213.46875000000003,150.06290246368673L213.93281249999998,155.0388374719237L213.93281249999998,163.22508438279718L214.396875,164.65066053162457L214.396875,166.89866223650168L214.86093749999998,162.3033195666325L215.325,162.72532526324167L215.325,158.9615534546423L215.325,144.92858579181L215.7890625,145.33024442459902L215.7890625,145.63597877199763L215.7890625,153.742951623863L216.25312499999998,155.8843692562572L216.25312499999998,153.21578634297842L216.7171875,153.67841902403433L216.7171875,154.02817205504257L217.18125,155.107367750809L217.18125,151.07492453600628L218.109375,146.73044925088755L218.109375,146.06141036361393L218.109375,148.015177017578L218.5734375,145.88734514000404L218.5734375,150.9828669911055L218.5734375,154.48539657169408L218.5734375,151.52568012526814L219.0375,149.67387580637794L219.5015625,145.524565241516L219.96562500000002,148.1241072384551L219.96562500000002,152.91350033675945L219.96562500000002,147.00761052858508L219.96562500000002,142.62422372516673L219.96562500000002,144.95018538873651L219.96562500000002,144.66268398959113L220.89375,145.45956690816507L220.89375,154.03508486078437L221.35781250000002,127.68435106396792L221.82187499999998,133.05053733338968L222.2859375,137.72888843973112L222.2859375,141.7280189196895L222.2859375,142.31250316696116L222.75,139.47614546147452L223.678125,127.31103592698416L223.678125,131.5473569776647L224.60625,139.0330080302008L224.60625,129.97174481520986L225.0703125,125.0367305394128L225.0703125,127.39381705985234L225.0703125,133.7128295228928L225.534375,131.5411399502258L225.534375,134.14059200501515L225.534375,135.52375666255213L225.534375,136.37034516509073L225.534375,133.41046936966674L225.9984375,135.53073758110128L225.9984375,137.77716792923223L225.9984375,133.62081899357017L225.9984375,139.74729452189015L225.9984375,140.84220431774284L225.9984375,140.07463428396056L226.4625,136.56332492631833L226.4625,138.19653122965212L226.9265625,134.51096455237777L226.9265625,132.05812207918387L226.9265625,134.3136841469672L226.9265625,138.97321139736823L227.390625,136.34718991987944L227.390625,139.77212095603852L227.8546875,141.74232187547713L227.8546875,144.95702252924002L228.31875,148.5045630381216L228.31875,152.53052683312907L228.31875,140.2337243952347L228.7828125,140.20046177123186L228.7828125,139.1632348794008L228.7828125,142.1563268445632L229.24687500000002,149.68319147196937L229.7109375,145.3303239900706L229.7109375,147.30064670222032L229.7109375,141.09798593366182L229.7109375,145.4765010274341L229.7109375,147.6662761805877L230.175,147.8124879751829L230.63906250000002,142.96158044894773L230.63906250000002,148.49314475680345L231.10312499999998,154.95392407456126L231.10312499999998,157.23810442225732L231.5671875,154.05500954123156L231.5671875,152.2833831398798L232.03125,155.01590099854747L232.49531249999998,151.64969472423246L233.4234375,158.81558051476944L233.4234375,161.05175045557013L233.4234375,162.78471911898572L233.4234375,163.6583681274848L233.4234375,169.20688798892917L234.3515625,163.96049439411746L234.3515625,159.98325177920748L234.3515625,156.4237549235054L234.815625,149.80659870118913L234.815625,151.6928810290834L235.2796875,151.93106279504988L235.74375,148.6718158855536L235.74375,148.80858802950806L235.74375,144.0451356100235L236.671875,144.85277943813838L236.671875,135.29173833225136L236.671875,139.49135330660076L236.671875,142.1700426506229L237.1359375,146.8445977582835L237.1359375,147.8737278303497L237.1359375,142.3717281668942L237.60000000000002,129.6471660514271L238.0640625,135.99505758070725L238.0640625,138.1557589233546L238.0640625,121.04331807802436L238.0640625,119.19535673703761L238.52812500000002,112.26012957579694L238.52812500000002,116.3934137115346L238.99218749999997,123.17826027265474L238.99218749999997,121.48770402561001L239.45624999999998,125.20438069134161L239.45624999999998,133.0364571117679L239.9203125,131.05974918783102L241.3125,130.7727132752072L241.3125,133.29718286515364L241.77656249999998,135.2804125387442L242.240625,135.10987584337622L242.240625,133.86841027905177L242.7046875,130.9856147169387L242.7046875,130.77811273755862L242.7046875,140.7969478867449L243.16875,138.03661471301675L243.16875,138.24386402769557L243.6328125,140.41402537369575L243.6328125,143.95542408366677L243.6328125,145.43289641958114L244.096875,144.67113633827944L244.096875,142.72444462766813L244.096875,135.47377484510687L244.096875,143.10859327661547L244.096875,147.86342335148782L244.5609375,150.17588347142308L244.5609375,154.74794042542828L244.5609375,156.49406712930542L244.5609375,156.16597539457953L245.025,158.9645764938613L245.025,158.0937881248989L245.025,159.3199118640854L245.48906250000002,162.1636661808551L245.48906250000002,165.49769978352126L245.48906250000002,169.36980172432962L245.48906250000002,168.36316368033857L245.953125,160.32002958519215L246.4171875,162.58250067184275L246.4171875,161.21116047111744L246.4171875,161.75106654902984L246.4171875,157.47117746885496L246.88125000000002,161.51647580058176L246.88125000000002,157.58804685278702L247.80937500000002,155.7474625627268L247.80937500000002,159.85643012676218L247.80937500000002,157.09865346676372L248.27343750000003,159.79415913526933L248.27343750000003,160.92857097919511L248.27343750000003,162.35646695783845L248.27343750000003,145.2770002858026L248.27343750000003,146.40248336594877L248.73749999999998,149.95305026867976L248.73749999999998,159.35231764522197L248.73749999999998,160.26506615125368L249.66562499999998,163.64606075773528L250.1296875,162.7183370624005L251.05781249999998,164.86860257754535L251.521875,166.2992223056889L251.9859375,163.26576816569866L251.9859375,158.92568861746227L252.45,150.47241760433943L252.9140625,156.11831686261658L253.378125,160.90577290216035L253.378125,166.08232434290989L253.378125,155.53336769011204L253.378125,154.4923973702291L254.30625,151.18870713079963L254.30625,154.23616694727772L254.77031250000002,141.9214263665645L254.77031250000002,139.05239152123235" style="fill: none;" fill="none"></path></g></g></g></g><g opacity="0.2"><g><g><g><path stroke="rgb(255, 112, 67)" stroke-width="2px" d="M23.203125,-4.83431937477805L23.203125,36.95687328685414L23.6671875,-19.86967381564052L24.13125,1.3749556107954617L24.13125,39.36654437672008L24.13125,77.78335657986727L24.13125,115.03237724304199L24.5953125,37.17106559059836L24.5953125,91.32384577664463L24.5953125,-21.044248060746632L25.059375,50.743197181008085L25.523437499999996,34.55760643698953L25.523437499999996,-18.001974626020946L25.523437499999996,-9.930340680209088L25.9875,112.82798272913152L25.9875,22.085193807428524L25.9875,31.609093926169653L26.4515625,27.07800136912953L26.4515625,53.87088359485973L26.4515625,70.68477994745429L26.915625,91.14111172069202L26.915625,-47.19047147577458L26.915625,-31.28469033674761L27.3796875,18.747028697620742L27.84375,10.477867646650827L27.84375,44.89850026910956L28.3078125,-53.76447798989035L28.3078125,-27.441106276078663L28.771875,136.3365471579812L29.2359375,-82.14509634538129L29.2359375,18.05795496160333L29.2359375,39.206306804310195L29.2359375,58.579646197232336L29.2359375,5.013063604181454L29.2359375,-10.533847982233231L29.700000000000003,20.227070201526992L29.700000000000003,-25.055926583030004L30.1640625,-91.37402551824397L30.1640625,66.93127389387652L30.1640625,52.61025186018511L30.1640625,90.68283410505816L30.628125,61.003527207808055L31.092187499999998,13.150897979736328L31.092187499999998,-71.33232879638672L31.55625,-63.372072393243975L31.55625,8.052206559614694L32.0203125,33.27404854514383L32.0203125,72.12949614091352L32.0203125,1.139586535367104L32.484375,6.329614292491565L32.484375,75.83236208829013L32.9484375,35.34351019425825L32.9484375,47.062766335227266L33.4125,46.550196387551054L33.4125,48.3490557237105L33.4125,-19.105468576604657L33.8765625,62.20992799238726L33.8765625,58.08107133345171L34.340625,2.940747694535696L34.340625,35.503440856933594L34.340625,70.21394972367719L34.340625,61.89740180969238L34.340625,104.37036375565961L34.340625,62.42372131347656L34.340625,-54.70831749655984L34.8046875,20.317516500299618L34.8046875,25.994947606867L34.8046875,91.75198485634543L35.268750000000004,-7.651996265758186L35.7328125,-69.66780385104092L36.660937499999996,47.52561690590598L37.125,11.445615421641955L37.125,-106.07018332047895L37.589062500000004,-19.55110151117497L38.053124999999994,88.5434891093861L38.053124999999994,17.971160888671875L38.053124999999994,44.65499808571555L38.053124999999994,72.49349108609286L38.5171875,42.34074523232199L38.98125,65.9128246307373L39.909375000000004,92.962927904996L39.909375000000004,114.74520180442117L39.909375000000004,21.640236074274227L40.373437499999994,45.12358786843039L40.373437499999994,49.58491984280673L40.8375,97.63716316223145L40.8375,95.82661056518555L41.3015625,-33.17961241982199L41.3015625,87.94737833196466L41.3015625,79.66600227355957L41.765625,4.887230613014919L41.765625,-39.02203819968484L42.229687500000004,42.7641579021107L42.693749999999994,58.23762598904696L42.693749999999994,106.05244393782183L43.1578125,73.76600022749469L43.1578125,51.5862475308505L43.621875,55.80776023864746L43.621875,9.426916642622507L44.0859375,127.53388491543858L44.0859375,53.70303466103293L44.550000000000004,114.82647150213069L44.550000000000004,-7.963632410222823L44.550000000000004,-34.72180314497515L45.014062499999994,118.82516774264248L45.478125,109.83031862432307L45.478125,91.36395887895063L45.478125,12.283970052545712L45.478125,100.68222947554156L45.9421875,48.74635037508878L46.40625,67.19085814736106L46.40625,50.70053672790527L46.8703125,-39.587458003650994L46.8703125,132.1155868877064L47.334375,36.10958758267489L47.7984375,13.89509270407937L47.7984375,36.67632709849965L48.2625,99.58039283752441L48.7265625,89.67460493607953L49.190625,76.76877437938343L49.6546875,52.17612804066051L50.11875,73.04028146917169L50.11875,100.1471016623757L50.11875,92.11944788152522L50.11875,52.42782471396707L50.5828125,22.567410382357505L50.5828125,36.20089322870429L50.5828125,99.23119094155051L51.04687499999999,152.32947531613436L51.5109375,60.258657282049015L51.5109375,53.46588550914418L51.975,77.01476253162731L51.975,20.06311902132902L51.975,112.87500130046497L51.975,18.572151530872695L51.975,6.838071649724796L52.4390625,18.079500024968937L52.4390625,28.703548778187148L53.36718750000001,53.42703073674981L53.36718750000001,69.37627029418945L53.83125,76.73440048911355L53.83125,81.73644603382458L53.83125,43.03678581931375L53.83125,74.51897257024591L54.2953125,112.71833922646262L54.2953125,59.494758952747695L54.759375,92.56170480901545L55.2234375,54.41644633900035L55.2234375,55.92766987193715L56.1515625,105.70640321211383L56.1515625,-12.915375449440699L56.1515625,62.17589170282538L56.615625,0.6523980227383647L57.0796875,56.452332063154735L57.0796875,54.65193817832254L57.0796875,-17.533845207907934L57.54375,-37.97642742503771L57.54375,34.897815877741024L57.54375,78.34761012684216L57.54375,-34.28832383589312L58.0078125,-85.27106406471945L58.471875,37.82929489829324L58.9359375,87.11832306601785L58.9359375,48.84081719138406L58.9359375,120.04522601040928L59.400000000000006,22.37052778764204L59.864062499999996,69.67691907015714L60.328125,-57.604747425426154L60.7921875,0.3886704878373508L61.25625,20.190394488247964L61.720312500000006,64.01204057173297L61.720312500000006,92.66286225752398L61.720312500000006,46.100757772272274L61.720312500000006,34.40795725042169L62.184374999999996,78.5719304518266L62.184374999999996,26.836954463611953L62.184374999999996,28.91565409573641L62.6484375,27.72640956531871L63.1125,73.5971078005704L63.1125,132.33653120561078L63.1125,51.29612575877797L64.040625,93.20161160555752L64.040625,71.50579417835583L64.5046875,97.98415530811657L64.5046875,101.57966423034668L64.5046875,34.30897886102851L64.5046875,90.48625842007725L64.5046875,43.318559646606445L64.5046875,101.00255116549404L64.96875,94.5147555958141L65.896875,29.831871726296168L66.3609375,14.011442184448242L66.3609375,43.73617172241211L66.825,69.34533379294656L66.825,71.49336433410645L67.2890625,10.954038099809134L67.2890625,81.75952564586292L67.2890625,110.96972101384944L67.753125,80.13474551114169L67.753125,9.497782100330701L67.753125,56.54796513644132L67.753125,74.79460820284757L68.68125,175.6158524426547L69.1453125,43.069256869229406L69.609375,114.5749282836914L69.609375,30.737869262695312L70.53750000000001,57.41575241088867L70.53750000000001,9.885409095070582L71.0015625,24.359149412675343L71.0015625,31.96474092656915L71.465625,92.2647389498624L71.465625,85.35202685269442L71.92968750000001,105.68135937777431L72.39375,94.63414348255505L72.39375,89.333382693204L72.39375,77.37050160494718L72.39375,98.87799921902744L72.8578125,112.64236372167414L72.8578125,120.82508364590733L72.8578125,98.7762279510498L72.8578125,30.264890670776367L73.32187499999999,14.203414223410864L73.32187499999999,97.21258423545144L73.32187499999999,107.35453917763449L73.7859375,39.338032462380156L73.7859375,125.3608719218861L73.7859375,13.718404769897461L73.7859375,97.03313411365856L73.7859375,31.39425711198286L73.7859375,144.15580922907048L73.7859375,112.12646380337803L74.25,24.61029364845969L74.7140625,59.31355944546786L74.7140625,69.65420774980024L74.7140625,72.29786682128906L74.7140625,-21.337868603793073L75.17812500000001,112.00225743380459L75.17812500000001,49.809516386552296L76.10624999999999,115.35849952697754L76.10624999999999,20.39943070845171L76.10624999999999,82.13272788307883L76.5703125,39.84648981961337L76.5703125,-59.99259723316541L76.5703125,47.08943679115988L76.5703125,44.67761733315207L77.034375,105.40259326588024L77.034375,15.63794101368297L77.034375,135.3011718229814L77.4984375,64.23095928538929L77.9625,-4.899998057972283L78.4265625,77.28030083396219L78.4265625,56.45773367448286L78.890625,108.3712697462602L78.890625,63.46307112953879L79.3546875,72.75553061745383L79.3546875,76.37169456481934L79.3546875,95.00756055658513L79.3546875,119.93004278703168L79.81875000000001,73.21049360795453L79.81875000000001,57.95232269980691L79.81875000000001,-71.30292684381658L80.2828125,16.750089818781063L80.74687499999999,36.443904356523L80.74687499999999,136.58581924438477L81.675,155.3907157724554L81.675,88.06093493374911L82.603125,73.82762770219281L82.603125,86.96158426458184L83.0671875,70.7068467573686L83.53125,143.33691267533735L83.53125,111.61122374101117L83.53125,100.13504010980779L83.53125,38.876133311878554L83.53125,133.14668083190918L83.99531250000001,68.38188275423917L83.99531250000001,62.2426138791171L84.45937500000001,99.33646098050205L84.92343749999999,48.71028848127886L85.38749999999999,125.20761654593728L85.38749999999999,-64.71504800969905L85.8515625,91.26630020141602L85.8515625,88.20361726934259L85.8515625,125.13251573389226L86.315625,89.8452160575173L86.315625,57.6898228038441L86.315625,100.88153665715998L86.7796875,68.05886025862262L87.24375,156.63641634854403L87.24375,52.01622806895863L87.24375,-99.03768435391514L87.7078125,63.563307848843664L87.7078125,84.05920028686523L88.171875,105.50740294022992L89.10000000000001,81.84757804870605L89.10000000000001,-2.9431722814386436L89.10000000000001,97.73380903764203L89.56406249999999,76.84749672629617L89.56406249999999,147.66995638067073L89.56406249999999,79.25618570501153L89.56406249999999,152.37201300534335L90.02812499999999,0.19838645241476915L90.02812499999999,76.2159378745339L90.4921875,-81.20622877641156L90.95625,84.98072745583274L90.95625,161.85606089505282L90.95625,142.8522101315585L90.95625,104.71339676596902L90.95625,108.10296925631435L91.4203125,37.37150833823465L91.4203125,84.78682188554242L91.4203125,73.01137057217684L91.884375,107.11996806751598L91.884375,125.63454333218662L91.884375,67.26230673356488L92.8125,-37.361441698941306L92.8125,104.91267325661399L93.27656250000001,84.09741054881702L93.27656250000001,85.75137779929422L93.740625,112.04408923062412L94.20468749999999,62.58804078535601L94.66875,111.47108875621448L94.66875,135.85813626376066L95.1328125,46.24933277476918L95.1328125,163.73350446874446L95.1328125,45.52689795060591L96.0609375,86.89397205005993L96.0609375,60.719727776267305L96.0609375,138.18678318370473L96.525,25.658144864169028L96.9890625,56.78511428833008L96.9890625,70.07737489180133L97.453125,119.43310989033093L97.91718750000001,139.18973350524902L98.38125,104.09997627951883L98.84531249999999,108.48304627158426L98.84531249999999,71.40304079922763L98.84531249999999,119.69944615797564L99.309375,133.26474900679156L99.309375,50.195578141645946L99.7734375,37.9058688770641L99.7734375,138.17199013449928L100.2375,149.55762004852295L100.2375,104.95232599431819L101.165625,107.96875762939453L101.165625,78.71307823874734L101.165625,126.44010465795344L101.165625,133.12151423367587L101.165625,113.1468465978449L102.09374999999999,138.48706366799095L102.09374999999999,46.6317116130482L102.5578125,72.4855728149414L103.021875,97.66058037497781L103.021875,165.78838790546763L103.021875,117.73972008445047L103.021875,71.80674986405805L103.48593749999999,123.07477803663775L103.48593749999999,87.5785342129794L103.48593749999999,150.7381023060192L103.48593749999999,76.35472245649859L103.48593749999999,89.78945055874912L103.95,146.14791427959096L103.95,68.06208281083539L103.95,82.91623774441805L104.4140625,166.05279064178467L104.4140625,168.08112638646907L104.4140625,89.51384561712092L104.4140625,118.23510308699176L104.878125,85.4297670884566L105.34218750000001,93.27164840698242L106.2703125,103.65121286565608L106.2703125,93.93770391290838L106.2703125,129.4884855963967L106.73437500000001,102.36562936956233L106.73437500000001,146.68538995222613L106.73437500000001,184.6790196678855L107.1984375,12.780335166237574L107.6625,176.095797885548L108.12656249999999,54.1699671311812L108.590625,-27.13456483320757L108.590625,98.34802748940207L109.0546875,107.0827706076882L109.98281250000001,57.862520911476835L109.98281250000001,136.06385785883123L110.446875,56.32873951305043L110.91093749999999,110.40850587324664L110.91093749999999,127.48496350375088L111.375,105.80439949035645L111.375,126.40379723635586L111.375,110.65658101168545L111.8390625,181.12724538282916L111.8390625,67.22286883267489L112.303125,96.37048530578613L112.303125,71.35884579745206L113.23125,163.29249052567914L113.6953125,-1.7068171067671414L113.6953125,138.30371579256925L113.6953125,79.79131351817738L114.159375,92.12570884011008L114.159375,107.9118565646085L114.159375,102.73502592606977L114.62343750000001,86.22539988431063L114.62343750000001,57.384355545043945L114.62343750000001,127.86157243902034L114.62343750000001,122.59104225852273L115.0875,140.91972229697487L115.0875,70.49296136335894L115.55156249999999,50.603706706653945L115.55156249999999,113.51368045806885L115.55156249999999,143.0262279510498L115.55156249999999,69.49746894836426L116.015625,157.05606937408447L116.015625,143.5476675900546L116.015625,94.65439952503552L116.015625,101.57644167813389L116.4796875,143.13226526433772L116.4796875,71.50524174083363L116.4796875,107.4987867528742L116.94375,124.2212240045721L116.94375,68.95709297873758L116.94375,111.72508725253017L116.94375,95.26389156688343L117.4078125,112.0881307775324L117.4078125,117.06276928294788L117.4078125,111.24305482344195L117.871875,98.04912809892133L117.871875,112.64870140769266L118.3359375,116.36123501170765L118.3359375,154.8613885532726L118.3359375,63.51579822193492L118.3359375,71.28181145407937L118.3359375,94.6833411130038L118.80000000000001,50.85380744934082L119.26406250000001,164.71185597506437L119.26406250000001,135.52437192743474L119.26406250000001,130.76475438204676L119.26406250000001,76.51815189014782L119.72812499999999,75.17035779086027L119.72812499999999,128.07257288152522L120.19218749999999,87.64718992059882L120.65625,72.12734777277167L120.65625,134.28824693506414L121.1203125,189.0313066135753L121.584375,171.88889408111572L121.584375,152.05446884848854L122.0484375,105.70376378839666L122.0484375,121.54656704989345L122.0484375,142.00071976401588L122.0484375,124.1541949185458L122.5125,109.47347467595881L122.5125,173.92731181058016L122.9765625,162.96023004705256L123.44062500000001,137.77722748843107L123.90468750000001,56.96204775029962L123.90468750000001,43.08945152976297L123.90468750000001,38.60884562405673L123.90468750000001,122.8977371562611L124.36874999999999,84.82954372059216L124.36874999999999,141.54620179263028L124.36874999999999,159.0737553509799L125.296875,122.95213690671055L126.225,94.90321124683727L126.225,128.61526601964778L126.225,150.3172062960538L126.6890625,88.40402932600543L126.6890625,125.73639132759787L126.6890625,57.91509454900567L127.153125,58.063178495927296L127.6171875,147.83571832830256L127.6171875,48.91177472201261L128.08125,71.90428577769886L128.5453125,149.044697154652L129.009375,80.02474906227805L129.47343750000002,11.819707697088077L129.47343750000002,128.7766391580755L129.9375,121.781644561074L129.9375,157.05009997974742L130.4015625,160.91179171475497L130.4015625,98.65834392200817L130.4015625,148.74447805231267L130.4015625,78.80177515203302L130.4015625,91.77966811440207L130.865625,165.3763462413441L130.865625,121.41032981872559L130.865625,147.88981116901743L131.3296875,117.72891686179422L131.3296875,138.4986034740101L131.3296875,150.13318321921608L131.79375,139.41724569147283L132.2578125,179.0984953100031L132.2578125,106.27639597112483L132.721875,106.48346796902744L132.721875,160.7158451947299L133.1859375,70.67713789506391L133.1859375,116.3179914301092L133.65,190.8021297454834L134.11406250000002,123.71419377760455L134.578125,141.5654757239602L135.04218749999998,146.39307377555153L135.04218749999998,146.52134669910777L135.50625,88.4587206407027L135.50625,103.74052359841086L135.50625,44.645361120050595L135.9703125,99.7502366846258L135.9703125,102.18894143538043L136.434375,132.0593149878762L136.8984375,178.45995426177979L137.3625,158.14671915227717L137.8265625,116.50664884393865L137.8265625,146.37869505448774L138.290625,159.79781679673627L138.75468750000002,93.24758668379351L138.75468750000002,125.1074258630926L139.21875,145.20494946566495L139.21875,98.30331074107777L139.6828125,148.41039146076548L140.146875,134.5672739202326L140.146875,137.2471483403986L140.146875,115.32621262290262L140.146875,80.32901937311347L140.6109375,148.74572103673762L140.6109375,122.23303205316716L141.5390625,192.15646102211693L141.5390625,151.49302352558482L141.5390625,114.18697903373025L142.003125,129.97246690229937L142.46718750000002,150.24664774808016L142.93125,99.20946173234418L142.93125,118.48497364737771L143.39531250000002,164.22072367234662L143.85937500000003,150.19817135550758L143.85937500000003,193.19077751853249L143.85937500000003,148.16980491984975L143.85937500000003,116.95897241072223L144.32343749999998,128.93417592482135L144.32343749999998,82.76035829023883L144.32343749999998,109.66618329828435L144.7875,55.52141345630992L145.25156249999998,173.60570109974253L145.715625,86.8018070567738L145.715625,105.85596032576129L146.64374999999998,162.9721995267001L147.1078125,178.42268007451838L147.1078125,134.43281676552513L147.571875,157.6203536120328L147.571875,190.82876951044256L148.0359375,125.953576001254L148.5,115.86456298828125L148.9640625,163.84176687760785L148.9640625,136.95305208726361L148.9640625,130.6693361455744L148.9640625,77.40530516884543L148.9640625,132.54285127466375L149.428125,101.50069635564631L149.8921875,42.03868467157538L150.35625000000002,110.79647046869451L150.8203125,136.07524420998314L151.284375,105.24714348532937L151.284375,147.49639892578125L151.284375,196.15245645696467L151.284375,18.808932391079995L151.284375,181.94931845231488L151.74843750000002,110.48151969909668L152.21249999999998,187.38327806646174L152.6765625,144.94089967554265L152.6765625,134.79742553017357L152.6765625,164.45491114529696L152.6765625,152.242957461964L154.06875,91.8511167006059L154.06875,156.15062427520752L154.5328125,94.89302184365012L154.5328125,177.11793006550184L154.996875,143.93329967151988L154.996875,142.51307487487793L155.4609375,163.94390643726695L155.4609375,62.47408520091664L155.925,125.50584073500201L156.853125,129.30960325761274L157.3171875,106.51916157115589L157.3171875,106.93582222678445L157.78125,177.067044431513L157.78125,122.53714890913531L157.78125,118.04061438820578L157.78125,103.39604811234906L157.78125,125.29925979267468L158.2453125,98.69333163174717L158.709375,127.61403439261697L158.709375,75.16922222484241L159.63750000000002,142.98421200838956L159.63750000000002,102.63543371720746L159.63750000000002,193.7707601894032L160.1015625,118.2783927050504L160.1015625,150.1405183618719L160.1015625,155.14842588251287L160.1015625,152.6653726751154L160.565625,163.96511389992455L161.02968750000002,151.76115521517667L161.49374999999998,46.736367832530625L161.49374999999998,54.87585952065207L161.49374999999998,135.78946521065453L162.421875,98.93367264487527L162.421875,121.63107464530252L162.421875,134.07546641609886L162.421875,146.78050127896395L162.421875,135.6911006407304L162.88593749999998,178.5627229863947L163.35,128.70703203027898L163.35,164.57058542424983L163.35,122.34397992220791L163.8140625,115.51645062186502L164.278125,140.60297610542992L164.278125,133.20499368147418L164.278125,43.917862285267226L164.7421875,140.81245734474876L165.20625,106.16013856367633L165.6703125,174.3560647097501L165.6703125,99.30705902793191L165.6703125,100.8107939633456L165.6703125,111.07689389315517L167.0625,147.42596314170143L167.5265625,167.2432167746804L167.99062500000002,192.55133108659223L168.91875000000002,150.39081859588623L168.91875000000002,102.29200172424316L169.38281249999997,199.3104962435636L169.84687499999998,116.8797590082342L170.3109375,109.60655073686078L170.3109375,140.51579839533025L170.77499999999998,101.57484574751422L170.77499999999998,143.49883825128728L170.77499999999998,156.8712790229104L170.77499999999998,97.95892732793635L171.2390625,135.19254112243652L171.2390625,136.37156555869362L171.703125,152.11947233026677L171.703125,101.74361541054465L172.16718749999998,142.1440773010254L172.16718749999998,114.73373872583562L172.63125,164.30102660439232L172.63125,106.24591983448376L173.0953125,109.49379210038617L173.0953125,167.823260827498L173.559375,185.01835441589355L174.0234375,105.02979001131924L174.0234375,130.99861959977582L174.0234375,144.47349149530584L174.4875,138.74729243191805L174.4875,106.67921499772504L174.4875,143.82275078513405L174.9515625,96.72091484069824L174.9515625,67.219707662409L175.415625,168.05804677443072L175.87968750000002,107.40444270047276L175.87968750000002,160.04650575464422L176.34375,120.9820372841575L176.34375,89.98455307700418L176.34375,179.10415779460558L176.8078125,185.787316755815L176.8078125,99.72774020108311L176.8078125,144.38741866025057L176.8078125,85.33747933127664L177.27187500000002,148.4949911290949L177.7359375,125.09436685388738L177.7359375,78.97926105152477L177.7359375,179.32301512631506L177.7359375,93.16106882962315L178.20000000000002,202.7659469084306L178.66406250000003,158.88537415591153L179.12812499999998,158.66492089358243L179.12812499999998,104.79874836314808L179.5921875,166.4992215416648L179.5921875,136.00066514448687L179.5921875,127.2166476683183L179.5921875,192.03931357643822L179.5921875,162.53482246398926L180.05624999999998,96.58124022050336L180.05624999999998,61.49765188043769L180.05624999999998,127.85307103937322L180.5203125,141.59768590060148L180.5203125,139.24579056826505L180.984375,155.03338076851585L180.984375,154.48800217021596L180.984375,156.02345622669566L180.984375,145.39372964338824L181.44843749999998,160.5755414095792L181.44843749999998,122.70657842809504L181.44843749999998,128.48416952653363L182.3765625,150.1302368857644L182.3765625,110.51853301308371L182.3765625,111.86491532759234L182.3765625,129.9638887752186L182.840625,115.46886426752263L183.3046875,101.6728727167303L183.3046875,103.16107801957563L183.3046875,123.66656138680197L183.3046875,154.83629868247291L183.76875,54.97238263216886L183.76875,128.89783781225032L183.76875,118.40379602258855L184.2328125,95.19069359519266L184.2328125,128.47873722423208L184.696875,159.92309735038063L185.625,120.69635035774924L185.625,168.99099098552358L186.0890625,173.21067758039996L186.0890625,187.74075117978185L186.55312500000002,179.61884541945025L186.55312500000002,166.62611337141558L187.01718749999998,123.73081293973057L187.01718749999998,209.7615399794145L187.01718749999998,135.98366234519264L187.01718749999998,176.11715880307284L187.01718749999998,137.04087430780584L187.01718749999998,120.85746262290262L187.48125,133.10044488039884L187.48125,131.1575681513006L187.9453125,103.77836556868121L187.9453125,161.49958523837003L188.40937499999998,74.47999503395774L188.8734375,118.85334205627441L188.8734375,160.79260331934148L189.3375,181.1185444918546L189.3375,157.121732711792L189.8015625,79.60566381974652L189.8015625,143.60286530581388L190.265625,149.1605248884721L190.265625,145.3265471024947L190.7296875,140.31712037866765L191.19375,170.50961104306307L191.19375,67.41398152438077L191.19375,138.90165268291128L191.19375,194.62271092154762L191.19375,142.4127460826527L191.6578125,114.96174196763471L191.6578125,106.14289023659445L191.6578125,148.68481479991567L192.5859375,102.97880432822488L193.05,133.54176573319867L193.05,126.24130387739703L193.05,170.726243279197L193.5140625,141.15665661204946L193.978125,173.07431758533824L193.978125,73.25060671026056L193.978125,143.85296604850075L193.978125,202.05603400143713L193.978125,90.24349282004617L194.44218750000002,146.35558475147593L194.90625,110.1707735928622L195.3703125,149.1518393429843L195.83437500000002,194.6697294928811L196.29843749999998,175.87511444091797L196.29843749999998,176.65116639570758L196.29843749999998,135.45850909839976L196.7625,135.0393317829479L196.7625,162.1852062398737L198.1546875,95.07879430597478L198.1546875,143.60730015147817L198.61875,80.63866060430352L198.61875,103.25711007551715L199.546875,75.74612045288086L200.0109375,178.67499056729406L200.475,155.8134685863148L200.475,140.55244341763583L200.9390625,126.03193005648525L200.9390625,142.7251188104803L201.40312500000002,146.28720526261762L201.40312500000002,129.83576930652964L201.40312500000002,165.40875590931284L201.8671875,148.0030301700939L201.8671875,150.2638346932151L202.33125,144.10265246304598L202.33125,178.65602354569867L202.79531250000002,126.8782643404874L202.79531250000002,169.72320088473234L202.79531250000002,141.00795884565875L202.79531250000002,165.77419333024457L203.259375,159.77671675248578L203.72343750000002,132.38965728066185L204.18749999999997,170.71560885689476L204.18749999999997,155.24412033774635L204.65156249999998,149.62693561207163L205.115625,143.93133544921875L205.115625,124.67360895330256L205.57968749999998,146.7944042899392L206.5078125,108.49038141424006L206.97187499999998,170.35710759596392L207.4359375,137.67550225691363L207.4359375,128.17790430242366L207.4359375,171.96687984466553L207.9,155.97711285677823L208.3640625,160.01942097056997L208.3640625,135.64807189594615L208.3640625,135.22217325730756L208.3640625,211.87593321366742L208.828125,157.68469723788175L209.75625,155.95564452084628L209.75625,123.47819553722034L210.68437500000002,172.55094441500577L210.68437500000002,147.83205075697467L211.1484375,126.3893724788319L211.1484375,175.99462509155273L211.1484375,99.95129325173117L211.6125,133.21819080005992L211.6125,140.30182092840022L211.6125,159.22058096798983L211.6125,121.33878915960139L211.6125,167.132023377852L212.07656250000002,147.53267565640536L212.07656250000002,189.48677600513807L212.07656250000002,165.87622547149658L212.07656250000002,146.25966011394155L213.46875000000003,132.9937323656949L213.93281249999998,188.04713916778564L213.93281249999998,217.52927190607244L214.396875,174.1073450608687L214.396875,181.81097888946533L214.86093749999998,131.819710558111L215.325,165.52473709800026L215.325,133.99424275484952L215.325,51.83966289867055L215.7890625,147.99468222531405L215.7890625,147.66409440474078L215.7890625,207.52126771753484L216.25312499999998,170.0896511077881L216.25312499999998,135.5135073228316L216.7171875,156.74733352661133L216.7171875,156.3482894897461L217.18125,162.26630713722923L217.18125,124.32535847750576L218.109375,117.91099106181751L218.109375,141.62328217246315L218.109375,160.97565963051537L218.5734375,131.77218558571556L218.5734375,184.78445850719103L218.5734375,177.7197340184992L218.5734375,131.89214125546545L219.0375,137.38976929404518L219.5015625,117.99974935705012L219.96562500000002,165.36839727921918L219.96562500000002,184.68435989726672L219.96562500000002,107.83037203008479L219.96562500000002,113.54664256355979L219.96562500000002,160.37965627150103L219.96562500000002,142.75551821968773L220.89375,150.74575970389625L220.89375,210.92153601212934L221.35781250000002,-47.11555480957031L221.82187499999998,168.64760502901945L222.2859375,168.76314119859174L222.2859375,168.25660202719948L222.2859375,146.18973073092374L222.75,120.66091762889515L223.678125,46.612713900479406L223.678125,159.64936455813321L224.60625,188.68973142450506L224.60625,69.86305982416327L225.0703125,92.29988011446865L225.0703125,143.02975741299716L225.0703125,175.63055341893977L225.534375,117.135046525435L225.534375,151.38428540663287L225.534375,144.69910084117544L225.534375,141.98626431551847L225.534375,113.77587344429709L225.9984375,149.59572289206764L225.9984375,152.67906084927645L225.9984375,106.0493134585294L225.9984375,180.3878077593717L225.9984375,148.10538456656715L225.9984375,134.98289108276367L226.4625,113.27074605768377L226.4625,149.0305486158891L226.9265625,110.06243445656516L226.9265625,115.78697620738636L226.9265625,149.2761531309648L226.9265625,169.8825944553722L227.390625,118.92724592035466L227.390625,162.4917016462846L227.8546875,154.81182263114235L227.8546875,166.28202152252197L228.31875,172.03748442909935L228.31875,179.23711109161377L228.31875,58.66180593317206L228.7828125,139.97981123490766L228.7828125,132.28269923817027L228.7828125,162.01126514781606L229.24687500000002,199.61330873315984L229.7109375,116.45519542694092L229.7109375,160.37095538052645L229.7109375,99.95209121704102L229.7109375,174.521765275435L229.7109375,162.19234189120206L230.175,148.78239675001666L230.63906250000002,110.78265953063965L230.63906250000002,185.18726218830457L231.10312499999998,197.81207084655762L231.10312499999998,172.39041527834806L231.5671875,132.93967021595347L231.5671875,140.53114388205788L232.03125,173.14229809154165L232.49531249999998,129.31966989690608L233.4234375,206.3511129726063L233.4234375,175.8855800628662L233.4234375,174.28051887859L233.4234375,169.4537955197421L233.4234375,206.01348157362506L234.3515625,129.15808192166418L234.3515625,133.59986374594948L234.3515625,132.81152005629107L234.815625,105.91111200506037L234.815625,164.20570044084027L235.2796875,153.51106244867498L235.74375,127.05131539431484L235.74375,149.71587805314496L235.74375,112.44635581970215L236.671875,150.21035567196932L236.671875,71.86773282831366L236.671875,167.3498679074374L236.671875,159.93936356631193L237.1359375,177.85366942665794L237.1359375,154.7005525068803L237.1359375,105.87373039939187L237.60000000000002,45.237666216763586L238.0640625,178.10435329784045L238.0640625,152.4889609596946L238.0640625,7.526439493352726L238.0640625,106.93674295598811L238.52812500000002,66.25469138405539L238.52812500000002,143.81191687150434L238.99218749999997,168.18613555214623L238.99218749999997,110.27325075322932L239.45624999999998,149.85928162661466L239.45624999999998,184.99122359535912L239.9203125,117.9470836466009L241.3125,128.86863535100764L241.3125,150.04347350380638L241.77656249999998,148.43634067882192L242.240625,133.97860570387408L242.240625,125.6330394744873L242.7046875,111.8623372858221L242.7046875,129.40163014151832L242.7046875,207.25777036493474L243.16875,119.7257022857666L243.16875,139.61867055025968L243.6328125,154.80998117273504L243.6328125,167.44760331240568L243.6328125,155.23383886163884L244.096875,139.61793396689674L244.096875,129.81089427254418L244.096875,87.37582033330743L244.096875,193.75483157417992L244.096875,179.40500606190076L244.5609375,165.51579067923805L244.5609375,185.0770815936002L244.5609375,168.0771519054066L244.5609375,153.98955007032916L245.025,177.52934256466955L245.025,152.3173370361328L245.025,167.4535113247958L245.48906250000002,181.0279600837014L245.48906250000002,195.05572986602783L245.48906250000002,161.68554184653541L245.953125,106.96519348838113L246.4171875,177.59080123901367L246.4171875,152.11425486477938L246.4171875,165.33258091319692L246.4171875,129.08015754006126L246.88125000000002,188.35131740570068L246.88125000000002,131.52846856550738L247.80937500000002,143.537785096602L247.80937500000002,187.11362717368385L247.80937500000002,138.8046998977661L248.27343750000003,177.67503261566162L248.27343750000003,168.4537915316495L248.27343750000003,171.82854028181598L248.27343750000003,31.978858774358585L248.27343750000003,153.86847418004817L248.73749999999998,173.50604750893334L248.73749999999998,221.7031829140403L248.73749999999998,166.3198634927923L249.66562499999998,186.0741852847013L250.1296875,156.56420048800382L251.05781249999998,179.13257763602516L251.521875,175.78936386108398L251.9859375,143.1430838324807L251.9859375,130.13538993488658L252.45,94.39690225774592L252.9140625,193.57088522477582L253.378125,200.4214327552102L253.378125,85.55593768033114L253.378125,147.58702937039462L254.30625,129.27338790893555L254.30625,174.45175916498357L254.77031250000002,60.23051365939054L254.77031250000002,120.02039701288396" style="fill: none;" fill="none"></path></g></g></g></g></g></g><g transform="translate(51, 177)" clip-path="url(#clip_1)"><clipPath id="clip_1"><rect width="278" height="23"></rect></clipPath><g><g><line x1="0" y1="0" x2="0" y2="5" style="visibility: inherit;" fill="rgb(0, 0, 0)" stroke="rgb(204, 204, 204)" stroke-width="1px"></line><line x1="23.203125" y1="0" x2="23.203125" y2="5" style="visibility: inherit;" fill="rgb(0, 0, 0)" stroke="rgb(204, 204, 204)" stroke-width="1px"></line><line x1="46.40625" y1="0" x2="46.40625" y2="5" style="visibility: inherit;" fill="rgb(0, 0, 0)" stroke="rgb(204, 204, 204)" stroke-width="1px"></line><line x1="69.609375" y1="0" x2="69.609375" y2="5" style="visibility: inherit;" fill="rgb(0, 0, 0)" stroke="rgb(204, 204, 204)" stroke-width="1px"></line><line x1="92.8125" y1="0" x2="92.8125" y2="5" style="visibility: inherit;" fill="rgb(0, 0, 0)" stroke="rgb(204, 204, 204)" stroke-width="1px"></line><line x1="116.015625" y1="0" x2="116.015625" y2="5" style="visibility: inherit;" fill="rgb(0, 0, 0)" stroke="rgb(204, 204, 204)" stroke-width="1px"></line><line x1="139.21875" y1="0" x2="139.21875" y2="5" style="visibility: inherit;" fill="rgb(0, 0, 0)" stroke="rgb(204, 204, 204)" stroke-width="1px"></line><line x1="162.421875" y1="0" x2="162.421875" y2="5" style="visibility: inherit;" fill="rgb(0, 0, 0)" stroke="rgb(204, 204, 204)" stroke-width="1px"></line><line x1="185.625" y1="0" x2="185.625" y2="5" style="visibility: inherit;" fill="rgb(0, 0, 0)" stroke="rgb(204, 204, 204)" stroke-width="1px"></line><line x1="208.828125" y1="0" x2="208.828125" y2="5" style="visibility: inherit;" fill="rgb(0, 0, 0)" stroke="rgb(204, 204, 204)" stroke-width="1px"></line><line x1="232.03125" y1="0" x2="232.03125" y2="5" style="visibility: inherit;" fill="rgb(0, 0, 0)" stroke="rgb(204, 204, 204)" stroke-width="1px"></line><line x1="255.234375" y1="0" x2="255.234375" y2="5" style="visibility: inherit;" fill="rgb(0, 0, 0)" stroke="rgb(204, 204, 204)" stroke-width="1px"></line><line x1="278.4375" y1="0" x2="278.4375" y2="5" style="visibility: inherit;" fill="rgb(0, 0, 0)" stroke="rgb(204, 204, 204)" stroke-width="1px"></line></g><g transform="translate(0, 8)"><text x="0" y="0" dx="0em" dy="0.95em" style="text-anchor: middle; visibility: hidden; font-family: Roboto, sans-serif; font-size: 12px; font-weight: 200;" fill="rgb(33, 33, 33)" stroke="none" stroke-width="1px">-50</text><text x="23.203125" y="0" dx="0em" dy="0.95em" style="text-anchor: middle; visibility: inherit; font-family: Roboto, sans-serif; font-size: 12px; font-weight: 200;" fill="rgb(33, 33, 33)" stroke="none" stroke-width="1px">0</text><text x="46.40625" y="0" dx="0em" dy="0.95em" style="text-anchor: middle; visibility: hidden; font-family: Roboto, sans-serif; font-size: 12px; font-weight: 200;" fill="rgb(33, 33, 33)" stroke="none" stroke-width="1px">50</text><text x="69.609375" y="0" dx="0em" dy="0.95em" style="text-anchor: middle; visibility: inherit; font-family: Roboto, sans-serif; font-size: 12px; font-weight: 200;" fill="rgb(33, 33, 33)" stroke="none" stroke-width="1px">100</text><text x="92.8125" y="0" dx="0em" dy="0.95em" style="text-anchor: middle; visibility: hidden; font-family: Roboto, sans-serif; font-size: 12px; font-weight: 200;" fill="rgb(33, 33, 33)" stroke="none" stroke-width="1px">150</text><text x="116.015625" y="0" dx="0em" dy="0.95em" style="text-anchor: middle; visibility: inherit; font-family: Roboto, sans-serif; font-size: 12px; font-weight: 200;" fill="rgb(33, 33, 33)" stroke="none" stroke-width="1px">200</text><text x="139.21875" y="0" dx="0em" dy="0.95em" style="text-anchor: middle; visibility: hidden; font-family: Roboto, sans-serif; font-size: 12px; font-weight: 200;" fill="rgb(33, 33, 33)" stroke="none" stroke-width="1px">250</text><text x="162.421875" y="0" dx="0em" dy="0.95em" style="text-anchor: middle; visibility: inherit; font-family: Roboto, sans-serif; font-size: 12px; font-weight: 200;" fill="rgb(33, 33, 33)" stroke="none" stroke-width="1px">300</text><text x="185.625" y="0" dx="0em" dy="0.95em" style="text-anchor: middle; visibility: hidden; font-family: Roboto, sans-serif; font-size: 12px; font-weight: 200;" fill="rgb(33, 33, 33)" stroke="none" stroke-width="1px">350</text><text x="208.828125" y="0" dx="0em" dy="0.95em" style="text-anchor: middle; visibility: inherit; font-family: Roboto, sans-serif; font-size: 12px; font-weight: 200;" fill="rgb(33, 33, 33)" stroke="none" stroke-width="1px">400</text><text x="232.03125" y="0" dx="0em" dy="0.95em" style="text-anchor: middle; visibility: hidden; font-family: Roboto, sans-serif; font-size: 12px; font-weight: 200;" fill="rgb(33, 33, 33)" stroke="none" stroke-width="1px">450</text><text x="255.234375" y="0" dx="0em" dy="0.95em" style="text-anchor: middle; visibility: inherit; font-family: Roboto, sans-serif; font-size: 12px; font-weight: 200;" fill="rgb(33, 33, 33)" stroke="none" stroke-width="1px">500</text><text x="278.4375" y="0" dx="0em" dy="0.95em" style="text-anchor: middle; visibility: hidden; font-family: Roboto, sans-serif; font-size: 12px; font-weight: 200;" fill="rgb(33, 33, 33)" stroke="none" stroke-width="1px">550</text></g><line x1="0" y1="0" x2="278.4375" y2="0" fill="rgb(0, 0, 0)" stroke="rgb(204, 204, 204)" stroke-width="1px"></line></g></g></g></g></svg>