<svg viewBox="0 0 330 200" xmlns="http://www.w3.org/2000/svg"><g><g><g><g><g><line x1="50" y1="177" x2="45" y2="177" style="visibility: inherit;" fill="rgb(0, 0, 0)" stroke="rgb(204, 204, 204)" stroke-width="1px"></line><line x1="50" y1="159.3" x2="45" y2="159.3" style="visibility: inherit;" fill="rgb(0, 0, 0)" stroke="rgb(204, 204, 204)" stroke-width="1px"></line><line x1="50" y1="141.60000000000002" x2="45" y2="141.60000000000002" style="visibility: inherit;" fill="rgb(0, 0, 0)" stroke="rgb(204, 204, 204)" stroke-width="1px"></line><line x1="50" y1="123.9" x2="45" y2="123.9" style="visibility: inherit;" fill="rgb(0, 0, 0)" stroke="rgb(204, 204, 204)" stroke-width="1px"></line><line x1="50" y1="106.19999999999999" x2="45" y2="106.19999999999999" style="visibility: inherit;" fill="rgb(0, 0, 0)" stroke="rgb(204, 204, 204)" stroke-width="1px"></line><line x1="50" y1="88.50000000000001" x2="45" y2="88.50000000000001" style="visibility: inherit;" fill="rgb(0, 0, 0)" stroke="rgb(204, 204, 204)" stroke-width="1px"></line><line x1="50" y1="70.8" x2="45" y2="70.8" style="visibility: inherit;" fill="rgb(0, 0, 0)" stroke="rgb(204, 204, 204)" stroke-width="1px"></line><line x1="50" y1="53.099999999999994" x2="45" y2="53.099999999999994" style="visibility: inherit;" fill="rgb(0, 0, 0)" stroke="rgb(204, 204, 204)" stroke-width="1px"></line><line x1="50" y1="35.400000000000034" x2="45" y2="35.400000000000034" style="visibility: inherit;" fill="rgb(0, 0, 0)" stroke="rgb(204, 204, 204)" stroke-width="1px"></line><line x1="50" y1="17.700000000000017" x2="45" y2="17.700000000000017" style="visibility: inherit;" fill="rgb(0, 0, 0)" stroke="rgb(204, 204, 204)" stroke-width="1px"></line><line x1="50" y1="0" x2="45" y2="0" style="visibility: inherit;" fill="rgb(0, 0, 0)" stroke="rgb(204, 204, 204)" stroke-width="1px"></line></g><g transform="translate(40, 0)"><text x="0" y="177" dx="0em" dy="0.3em" style="text-anchor: end; visibility: hidden; font-family: &quot;Helvetica Neue&quot;, sans-serif; font-size: 12px; font-weight: 200;" fill="rgb(33, 33, 33)" stroke="none" stroke-width="1px">0.2</text><text x="0" y="159.3" dx="0em" dy="0.3em" style="text-anchor: end; visibility: inherit; font-family: &quot;Helvetica Neue&quot;, sans-serif; font-size: 12px; font-weight: 200;" fill="rgb(33, 33, 33)" stroke="none" stroke-width="1px">0.22</text><text x="0" y="141.60000000000002" dx="0em" dy="0.3em" style="text-anchor: end; visibility: hidden; font-family: &quot;Helvetica Neue&quot;, sans-serif; font-size: 12px; font-weight: 200;" fill="rgb(33, 33, 33)" stroke="none" stroke-width="1px">0.24</text><text x="0" y="123.9" dx="0em" dy="0.3em" style="text-anchor: end; visibility: inherit; font-family: &quot;Helvetica Neue&quot;, sans-serif; font-size: 12px; font-weight: 200;" fill="rgb(33, 33, 33)" stroke="none" stroke-width="1px">0.26</text><text x="0" y="106.19999999999999" dx="0em" dy="0.3em" style="text-anchor: end; visibility: hidden; font-family: &quot;Helvetica Neue&quot;, sans-serif; font-size: 12px; font-weight: 200;" fill="rgb(33, 33, 33)" stroke="none" stroke-width="1px">0.28</text><text x="0" y="88.50000000000001" dx="0em" dy="0.3em" style="text-anchor: end; visibility: inherit; font-family: &quot;Helvetica Neue&quot;, sans-serif; font-size: 12px; font-weight: 200;" fill="rgb(33, 33, 33)" stroke="none" stroke-width="1px">0.3</text><text x="0" y="70.8" dx="0em" dy="0.3em" style="text-anchor: end; visibility: hidden; font-family: &quot;Helvetica Neue&quot;, sans-serif; font-size: 12px; font-weight: 200;" fill="rgb(33, 33, 33)" stroke="none" stroke-width="1px">0.32</text><text x="0" y="53.099999999999994" dx="0em" dy="0.3em" style="text-anchor: end; visibility: inherit; font-family: &quot;Helvetica Neue&quot;, sans-serif; font-size: 12px; font-weight: 200;" fill="rgb(33, 33, 33)" stroke="none" stroke-width="1px">0.34</text><text x="0" y="35.400000000000034" dx="0em" dy="0.3em" style="text-anchor: end; visibility: hidden; font-family: &quot;Helvetica Neue&quot;, sans-serif; font-size: 12px; font-weight: 200;" fill="rgb(33, 33, 33)" stroke="none" stroke-width="1px">0.36</text><text x="0" y="17.700000000000017" dx="0em" dy="0.3em" style="text-anchor: end; visibility: inherit; font-family: &quot;Helvetica Neue&quot;, sans-serif; font-size: 12px; font-weight: 200;" fill="rgb(33, 33, 33)" stroke="none" stroke-width="1px">0.38</text><text x="0" y="0" dx="0em" dy="0.3em" style="text-anchor: end; visibility: hidden; font-family: &quot;Helvetica Neue&quot;, sans-serif; font-size: 12px; font-weight: 200;" fill="rgb(33, 33, 33)" stroke="none" stroke-width="1px">0.4</text></g><line x1="50" y1="0" x2="50" y2="177" fill="rgb(0, 0, 0)" stroke="rgb(204, 204, 204)" stroke-width="1px"></line></g></g><g transform="translate(50, 0)" clip-path="url(#clip_0)"><clipPath id="clip_0"><rect width="280" height="177"></rect></clipPath><g><g><g><line x1="0" y1="0" x2="0" y2="177" fill="rgb(0, 0, 0)" stroke="rgb(66, 66, 66)" stroke-width="1px" opacity="0.25"></line><line x1="31.11111111111111" y1="0" x2="31.11111111111111" y2="177" fill="rgb(0, 0, 0)" stroke="rgb(66, 66, 66)" stroke-width="1px" opacity="0.25"></line><line x1="62.22222222222222" y1="0" x2="62.22222222222222" y2="177" fill="rgb(0, 0, 0)" stroke="rgb(66, 66, 66)" stroke-width="1px" opacity="0.25"></line><line x1="93.33333333333333" y1="0" x2="93.33333333333333" y2="177" fill="rgb(0, 0, 0)" stroke="rgb(66, 66, 66)" stroke-width="1px" opacity="0.25"></line><line x1="124.44444444444444" y1="0" x2="124.44444444444444" y2="177" fill="rgb(0, 0, 0)" stroke="rgb(66, 66, 66)" stroke-width="1px" opacity="0.25"></line><line x1="155.55555555555557" y1="0" x2="155.55555555555557" y2="177" fill="rgb(0, 0, 0)" stroke="rgb(66, 66, 66)" stroke-width="1px" opacity="0.25"></line><line x1="186.66666666666666" y1="0" x2="186.66666666666666" y2="177" fill="rgb(0, 0, 0)" stroke="rgb(66, 66, 66)" stroke-width="1px" opacity="0.25"></line><line x1="217.77777777777777" y1="0" x2="217.77777777777777" y2="177" fill="rgb(0, 0, 0)" stroke="rgb(66, 66, 66)" stroke-width="1px" opacity="0.25"></line><line x1="248.88888888888889" y1="0" x2="248.88888888888889" y2="177" fill="rgb(0, 0, 0)" stroke="rgb(66, 66, 66)" stroke-width="1px" opacity="0.25"></line><line x1="280" y1="0" x2="280" y2="177" fill="rgb(0, 0, 0)" stroke="rgb(66, 66, 66)" stroke-width="1px" opacity="0.25"></line></g><g><line x1="0" y1="177" x2="280" y2="177" fill="rgb(0, 0, 0)" stroke="rgb(66, 66, 66)" stroke-width="1px" opacity="0.25"></line><line x1="0" y1="159.3" x2="280" y2="159.3" fill="rgb(0, 0, 0)" stroke="rgb(66, 66, 66)" stroke-width="1px" opacity="0.25"></line><line x1="0" y1="141.60000000000002" x2="280" y2="141.60000000000002" fill="rgb(0, 0, 0)" stroke="rgb(66, 66, 66)" stroke-width="1px" opacity="0.25"></line><line x1="0" y1="123.9" x2="280" y2="123.9" fill="rgb(0, 0, 0)" stroke="rgb(66, 66, 66)" stroke-width="1px" opacity="0.25"></line><line x1="0" y1="106.19999999999999" x2="280" y2="106.19999999999999" fill="rgb(0, 0, 0)" stroke="rgb(66, 66, 66)" stroke-width="1px" opacity="0.25"></line><line x1="0" y1="88.50000000000001" x2="280" y2="88.50000000000001" fill="rgb(0, 0, 0)" stroke="rgb(66, 66, 66)" stroke-width="1px" opacity="0.25"></line><line x1="0" y1="70.8" x2="280" y2="70.8" fill="rgb(0, 0, 0)" stroke="rgb(66, 66, 66)" stroke-width="1px" opacity="0.25"></line><line x1="0" y1="53.099999999999994" x2="280" y2="53.099999999999994" fill="rgb(0, 0, 0)" stroke="rgb(66, 66, 66)" stroke-width="1px" opacity="0.25"></line><line x1="0" y1="35.400000000000034" x2="280" y2="35.400000000000034" fill="rgb(0, 0, 0)" stroke="rgb(66, 66, 66)" stroke-width="1px" opacity="0.25"></line><line x1="0" y1="17.700000000000017" x2="280" y2="17.700000000000017" fill="rgb(0, 0, 0)" stroke="rgb(66, 66, 66)" stroke-width="1px" opacity="0.25"></line><line x1="0" y1="0" x2="280" y2="0" fill="rgb(0, 0, 0)" stroke="rgb(66, 66, 66)" stroke-width="1px" opacity="0.25"></line></g></g></g><g><g><line x1="0" y1="354" x2="280" y2="354" fill="rgb(0, 0, 0)" stroke="rgb(153, 153, 153)" stroke-width="1.5px"></line></g></g><g><g><line x1="31.11111111111111" y1="0" x2="31.11111111111111" y2="177" fill="rgb(0, 0, 0)" stroke="rgb(153, 153, 153)" stroke-width="1.5px"></line></g></g><g><g><g><g><g><path stroke="rgb(255, 112, 67)" stroke-width="2px" d="M31.11111111111111,172.131557777524L32.666666666666664,81.18186934478582L34.22222222222222,37.63570685137293L35.77777777777777,42.5483828491038L37.333333333333336,5.125082203460437L38.88888888888889,7.423983338994162L40.44444444444444,8.11468341064952L42,39.880477706576414L43.55555555555556,65.20464899215632L45.111111111111114,70.34132636470255L46.666666666666664,70.8593727556013L48.22222222222222,76.62452377829032L49.77777777777778,61.28023494122108L51.33333333333333,75.21707425360403L52.888888888888886,54.83083420213579L54.44444444444444,17.352268665028788L56,-10.867917062071115L57.55555555555555,23.81357711281339L59.111111111111114,61.83223656515776L60.66666666666667,23.22593632958899L62.22222222222222,47.61409686829191L63.77777777777778,47.69176473817399L65.33333333333333,22.30585862165401L66.88888888888889,-28.45831567616679L68.44444444444444,21.6800981551618L70,29.395007859597797L71.55555555555554,27.70278753350061L73.11111111111111,56.75956392984955L74.66666666666667,78.85573814281828L76.22222222222221,82.8113437454856L77.77777777777779,112.20660312636217L79.33333333333333,107.80228430542482L80.88888888888889,67.94748461972696L82.44444444444444,53.51713498453027L84,46.2128942308033L85.55555555555556,80.583788731396L87.11111111111111,18.03887557345979L88.66666666666666,41.98071421547775L90.22222222222223,61.598831621986335L91.77777777777777,83.91670687093372L93.33333333333333,93.96893024710823L94.8888888888889,88.33838585503943L96.44444444444444,96.08360165276072L98,78.09551095601985L99.55555555555556,71.63928533509069L101.11111111111111,106.86017087866801L102.66666666666666,125.73797257476122L104.22222222222223,116.63141821443295L105.77777777777777,126.16815060759077L107.33333333333334,69.22761622850462L108.88888888888889,87.38072872042139L110.44444444444444,112.54158026511533L112,115.61281199774716L113.55555555555556,130.87862903788246L115.1111111111111,111.09487206287663L116.66666666666667,117.6372233423465L118.22222222222223,116.62142574744644L119.77777777777777,97.59551206801405L121.33333333333334,95.14885416969084L122.88888888888889,109.44221268501603L124.44444444444444,93.94591526035455L126,86.32299501802899L127.55555555555556,104.2296098179007L129.11111111111111,110.8348261181346L130.66666666666666,115.55792674206688L132.22222222222223,111.58586234320987L133.77777777777777,82.03514567893619L135.33333333333334,55.889163481485056L136.88888888888889,50.947119848305675L138.44444444444446,98.64073670886442L140,83.41113092292838L141.55555555555554,92.23448471897535L143.1111111111111,117.7815590958219L144.66666666666669,141.12929226520194L146.22222222222223,136.65680430866797L147.77777777777777,117.9493049295993L149.33333333333334,136.98829809500285L150.88888888888889,144.73516425891825L152.44444444444443,147.59937544109883L154,148.08633476759474L155.55555555555557,92.49180958429261L157.11111111111111,113.25577429985572L158.66666666666666,117.5535052898858L160.2222222222222,150.93970131774748L161.77777777777777,164.63042836129668L163.33333333333334,160.89594645345213L164.88888888888889,153.47116633679866L166.44444444444446,158.405828508296L168,141.0250595763674L169.55555555555554,134.5437201950163L171.11111111111111,100.90884433348243L172.66666666666669,104.97572041844886L174.22222222222223,119.50205164131856L175.77777777777777,124.19223095761143L177.33333333333331,138.5535012888098L178.88888888888889,123.76217507166771L180.44444444444446,115.02763133551545L182,124.55713651958621L183.55555555555554,98.72823732127858L185.11111111111111,94.65901936906641L186.66666666666666,107.4745191444043L188.22222222222223,118.0740795379331L189.7777777777778,129.80091270479267L191.33333333333334,134.09823213620604L192.88888888888889,139.20493659736883L194.44444444444443,154.42137678481444L196,107.31146780262772L197.55555555555557,129.6063821232938L199.11111111111111,146.6375049541368L200.66666666666666,115.28475542008724L202.22222222222223,142.7690240153065L203.77777777777777,154.91102430274432L205.33333333333331,155.32981642514673L206.8888888888889,138.42019888419037L208.44444444444446,133.2552626052983L210,151.08293437477872L211.55555555555554,158.3233660132702L213.1111111111111,163.86888216561172L214.66666666666669,155.7300374604827L216.22222222222223,158.1197523652056L217.77777777777777,131.85444546810027L219.33333333333334,145.09923973125956L220.88888888888889,147.2135840323135L222.44444444444443,153.87597909966496L224,158.2591618740522L225.55555555555557,152.84475879335184L227.11111111111111,169.182876571797L228.66666666666666,151.48825924681586L230.2222222222222,135.94022916011193L231.77777777777777,157.59656761438953L233.33333333333334,141.2447403690297L234.88888888888889,159.5164894414591L236.44444444444446,173.59663787201924L238,160.0178737861865L239.55555555555554,174.16557091611344L241.11111111111111,180.24329286299775L244.22222222222223,186.1176731854056L245.77777777777777,155.69526387866586L247.33333333333331,162.50236722598225L248.88888888888889,166.39296247821898L250.44444444444446,172.96610751904163L252,161.7892491826839L253.55555555555554,162.56433422025603L255.11111111111111,161.7387430110965L256.66666666666663,140.40422498222551L258.22222222222223,144.96368107221343L259.77777777777777,165.34611825955997L261.3333333333333,169.3373003948515L262.8888888888889,164.24557682566555" style="fill: none;" fill="none"></path></g></g></g></g><g opacity="0.2"><g><g><g><path stroke="rgb(255, 112, 67)" stroke-width="2px" d="M31.11111111111111,172.131557777524L32.666666666666664,26.612056285142927L34.22222222222222,-4.168609142303438L35.77777777777777,48.32568982243541L37.333333333333336,-43.73477911949155L38.88888888888889,10.604191213846235L40.44444444444444,9.102395564317732L42,86.195310741663L43.55555555555556,102.55288267135622L45.111111111111114,77.96869361400606L46.666666666666664,71.63174369931222L48.22222222222222,85.24087661504747L49.77777777777778,38.31390345096591L51.33333333333333,96.09502950310709L52.888888888888886,24.275437384843855L54.44444444444444,-38.83914685249326L56,-53.18625381588933L57.55555555555555,75.82701274752618L59.111111111111114,118.85443398356438L60.66666666666667,-34.67998525500295L62.22222222222222,84.19500017166139L63.77777777777778,47.80826398730281L65.33333333333333,-15.77249935269353L66.88888888888889,-104.60397577285761L68.44444444444444,96.88736253976823L70,40.967339515686064L71.55555555555554,25.164461374282865L73.11111111111111,100.34468391537668L74.66666666666667,111.99997910857202L76.22222222222221,88.74474996328355L77.77777777777779,156.29948244988918L79.33333333333333,101.19580695033075L80.88888888888889,8.16528984904292L82.44444444444444,31.871611565351515L84,35.25653341412547L85.55555555555556,132.14012959599495L87.11111111111111,-75.77849319577214L88.66666666666666,77.89347195625307L90.22222222222223,91.0260076224804L91.77777777777777,117.3935196697712L93.33333333333333,109.047265291214L94.8888888888889,79.89256927371027L96.44444444444444,107.70142534375192L98,51.11337491869928L99.55555555555556,61.95494690537454L101.11111111111111,159.69149918854237L102.66666666666666,154.05467511713505L104.22222222222223,102.97158667445184L105.77777777777777,140.47324919700623L107.33333333333334,-16.18318533897397L108.88888888888889,114.61039745807648L110.44444444444444,150.28285758197308L112,120.2196595966816L113.55555555555556,153.77735459804535L115.1111111111111,81.41923660039903L116.66666666666667,127.45075026154518L118.22222222222223,115.09772935509682L119.77777777777777,69.05664154887201L121.33333333333334,91.47886732220651L122.88888888888889,130.8822504580021L124.44444444444444,70.70146912336351L126,74.88861465454103L127.55555555555556,131.08953201770782L129.11111111111111,120.74265056848526L130.66666666666666,122.64257767796516L132.22222222222223,105.62776574492456L133.77777777777777,37.70907068252566L135.33333333333334,16.670190185308485L136.88888888888889,43.53405439853671L138.44444444444446,170.18116199970245L140,60.56672224402429L141.55555555555554,105.4695154130459L143.1111111111111,156.1021706610918L144.66666666666669,176.15089201927185L146.22222222222223,129.94807237386703L147.77777777777777,89.88805586099626L149.33333333333334,165.54678784310818L150.88888888888889,156.35546350479126L152.44444444444443,151.89569221436977L154,148.81677375733852L155.55555555555557,9.100021809339552L157.11111111111111,144.40172137320042L158.66666666666666,124.00010177493095L160.2222222222222,201.01899535953999L161.77777777777777,185.16651892662048L163.33333333333334,155.2942235916853L164.88888888888889,142.3339961618185L166.44444444444446,165.80782176554203L168,114.95390617847443L169.55555555555554,124.82171112298965L171.11111111111111,50.45653054118158L172.66666666666669,111.07603454589845L174.22222222222223,141.29154847562313L175.77777777777777,131.2274999320507L177.33333333333331,160.09540678560734L178.88888888888889,101.57518574595453L180.44444444444446,101.92581573128702L182,138.85139429569244L183.55555555555554,59.98488852381708L185.11111111111111,88.55519244074823L186.66666666666666,126.6977688074112L188.22222222222223,133.97342012822628L189.7777777777778,147.39116245508194L191.33333333333334,140.54421128332615L192.88888888888889,146.86499328911304L194.44444444444443,177.24603706598282L196,36.64660432934764L197.55555555555557,163.04875360429287L199.11111111111111,172.1841892004013L200.66666666666666,68.25563111901285L202.22222222222223,183.9954269081354L203.77777777777777,173.12402473390102L205.33333333333331,155.95800460875034L206.8888888888889,113.05577257275581L208.44444444444446,125.50785818696022L210,177.82444202899933L211.55555555555554,169.18401347100735L213.1111111111111,172.18715639412403L214.66666666666669,143.52177040278912L216.22222222222223,161.70432472229004L217.77777777777777,92.45648512244226L219.33333333333334,164.9664311259985L220.88888888888889,150.38510048389435L222.44444444444443,163.86957170069218L224,164.8339360356331L225.55555555555557,144.7231541723013L227.11111111111111,193.69005323946476L228.66666666666666,124.9463332593441L230.2222222222222,112.61818403005601L231.77777777777777,190.08107529580593L233.33333333333334,116.71699950098991L234.88888888888889,186.9241130501032L236.44444444444446,194.71686051785946L238,139.64972765743732L239.55555555555554,195.38711661100388L244.22222222222223,183.31951336562634L245.77777777777777,110.06164991855623L247.33333333333331,172.71302224695683L248.88888888888889,172.22885535657406L250.44444444444446,182.82582508027554L252,145.02396167814732L253.55555555555554,163.7269617766142L255.11111111111111,160.50035619735718L256.66666666666663,108.40244793891908L258.22222222222223,151.80286520719528L259.77777777777777,195.9197740405798L261.3333333333333,175.3240735977888L262.8888888888889,156.60799147188663" style="fill: none;" fill="none"></path></g></g></g></g></g></g><g transform="translate(50, 177)" clip-path="url(#clip_1)"><clipPath id="clip_1"><rect width="280" height="23"></rect></clipPath><g><g><line x1="0" y1="0" x2="0" y2="5" style="visibility: inherit;" fill="rgb(0, 0, 0)" stroke="rgb(204, 204, 204)" stroke-width="1px"></line><line x1="31.11111111111111" y1="0" x2="31.11111111111111" y2="5" style="visibility: inherit;" fill="rgb(0, 0, 0)" stroke="rgb(204, 204, 204)" stroke-width="1px"></line><line x1="62.22222222222222" y1="0" x2="62.22222222222222" y2="5" style="visibility: inherit;" fill="rgb(0, 0, 0)" stroke="rgb(204, 204, 204)" stroke-width="1px"></line><line x1="93.33333333333333" y1="0" x2="93.33333333333333" y2="5" style="visibility: inherit;" fill="rgb(0, 0, 0)" stroke="rgb(204, 204, 204)" stroke-width="1px"></line><line x1="124.44444444444444" y1="0" x2="124.44444444444444" y2="5" style="visibility: inherit;" fill="rgb(0, 0, 0)" stroke="rgb(204, 204, 204)" stroke-width="1px"></line><line x1="155.55555555555557" y1="0" x2="155.55555555555557" y2="5" style="visibility: inherit;" fill="rgb(0, 0, 0)" stroke="rgb(204, 204, 204)" stroke-width="1px"></line><line x1="186.66666666666666" y1="0" x2="186.66666666666666" y2="5" style="visibility: inherit;" fill="rgb(0, 0, 0)" stroke="rgb(204, 204, 204)" stroke-width="1px"></line><line x1="217.77777777777777" y1="0" x2="217.77777777777777" y2="5" style="visibility: inherit;" fill="rgb(0, 0, 0)" stroke="rgb(204, 204, 204)" stroke-width="1px"></line><line x1="248.88888888888889" y1="0" x2="248.88888888888889" y2="5" style="visibility: inherit;" fill="rgb(0, 0, 0)" stroke="rgb(204, 204, 204)" stroke-width="1px"></line><line x1="280" y1="0" x2="280" y2="5" style="visibility: inherit;" fill="rgb(0, 0, 0)" stroke="rgb(204, 204, 204)" stroke-width="1px"></line></g><g transform="translate(0, 8)"><text x="0" y="0" dx="0em" dy="0.95em" style="text-anchor: middle; visibility: hidden; font-family: &quot;Helvetica Neue&quot;, sans-serif; font-size: 12px; font-weight: 200;" fill="rgb(33, 33, 33)" stroke="none" stroke-width="1px">-20</text><text x="31.11111111111111" y="0" dx="0em" dy="0.95em" style="text-anchor: middle; visibility: inherit; font-family: &quot;Helvetica Neue&quot;, sans-serif; font-size: 12px; font-weight: 200;" fill="rgb(33, 33, 33)" stroke="none" stroke-width="1px">0</text><text x="62.22222222222222" y="0" dx="0em" dy="0.95em" style="text-anchor: middle; visibility: inherit; font-family: &quot;Helvetica Neue&quot;, sans-serif; font-size: 12px; font-weight: 200;" fill="rgb(33, 33, 33)" stroke="none" stroke-width="1px">20</text><text x="93.33333333333333" y="0" dx="0em" dy="0.95em" style="text-anchor: middle; visibility: inherit; font-family: &quot;Helvetica Neue&quot;, sans-serif; font-size: 12px; font-weight: 200;" fill="rgb(33, 33, 33)" stroke="none" stroke-width="1px">40</text><text x="124.44444444444444" y="0" dx="0em" dy="0.95em" style="text-anchor: middle; visibility: inherit; font-family: &quot;Helvetica Neue&quot;, sans-serif; font-size: 12px; font-weight: 200;" fill="rgb(33, 33, 33)" stroke="none" stroke-width="1px">60</text><text x="155.55555555555557" y="0" dx="0em" dy="0.95em" style="text-anchor: middle; visibility: inherit; font-family: &quot;Helvetica Neue&quot;, sans-serif; font-size: 12px; font-weight: 200;" fill="rgb(33, 33, 33)" stroke="none" stroke-width="1px">80</text><text x="186.66666666666666" y="0" dx="0em" dy="0.95em" style="text-anchor: middle; visibility: inherit; font-family: &quot;Helvetica Neue&quot;, sans-serif; font-size: 12px; font-weight: 200;" fill="rgb(33, 33, 33)" stroke="none" stroke-width="1px">100</text><text x="217.77777777777777" y="0" dx="0em" dy="0.95em" style="text-anchor: middle; visibility: inherit; font-family: &quot;Helvetica Neue&quot;, sans-serif; font-size: 12px; font-weight: 200;" fill="rgb(33, 33, 33)" stroke="none" stroke-width="1px">120</text><text x="248.88888888888889" y="0" dx="0em" dy="0.95em" style="text-anchor: middle; visibility: inherit; font-family: &quot;Helvetica Neue&quot;, sans-serif; font-size: 12px; font-weight: 200;" fill="rgb(33, 33, 33)" stroke="none" stroke-width="1px">140</text><text x="280" y="0" dx="0em" dy="0.95em" style="text-anchor: middle; visibility: hidden; font-family: &quot;Helvetica Neue&quot;, sans-serif; font-size: 12px; font-weight: 200;" fill="rgb(33, 33, 33)" stroke="none" stroke-width="1px">160</text></g><line x1="0" y1="0" x2="280" y2="0" fill="rgb(0, 0, 0)" stroke="rgb(204, 204, 204)" stroke-width="1px"></line></g></g></g></g></svg>