<svg viewBox="0 0 330 200" xmlns="http://www.w3.org/2000/svg"><g><g><g><g><g><line x1="40" y1="177" x2="35" y2="177" style="visibility: inherit;" fill="rgb(0, 0, 0)" stroke="rgb(204, 204, 204)" stroke-width="1px"></line><line x1="40" y1="154.875" x2="35" y2="154.875" style="visibility: inherit;" fill="rgb(0, 0, 0)" stroke="rgb(204, 204, 204)" stroke-width="1px"></line><line x1="40" y1="132.75" x2="35" y2="132.75" style="visibility: inherit;" fill="rgb(0, 0, 0)" stroke="rgb(204, 204, 204)" stroke-width="1px"></line><line x1="40" y1="110.625" x2="35" y2="110.625" style="visibility: inherit;" fill="rgb(0, 0, 0)" stroke="rgb(204, 204, 204)" stroke-width="1px"></line><line x1="40" y1="88.50000000000001" x2="35" y2="88.50000000000001" style="visibility: inherit;" fill="rgb(0, 0, 0)" stroke="rgb(204, 204, 204)" stroke-width="1px"></line><line x1="40" y1="66.375" x2="35" y2="66.375" style="visibility: inherit;" fill="rgb(0, 0, 0)" stroke="rgb(204, 204, 204)" stroke-width="1px"></line><line x1="40" y1="44.25000000000004" x2="35" y2="44.25000000000004" style="visibility: inherit;" fill="rgb(0, 0, 0)" stroke="rgb(204, 204, 204)" stroke-width="1px"></line><line x1="40" y1="22.12500000000002" x2="35" y2="22.12500000000002" style="visibility: inherit;" fill="rgb(0, 0, 0)" stroke="rgb(204, 204, 204)" stroke-width="1px"></line><line x1="40" y1="0" x2="35" y2="0" style="visibility: inherit;" fill="rgb(0, 0, 0)" stroke="rgb(204, 204, 204)" stroke-width="1px"></line></g><g transform="translate(30, 0)"><text x="0" y="177" dx="0em" dy="0.3em" style="text-anchor: end; visibility: hidden; font-family: Roboto, sans-serif; font-size: 12px; font-weight: 200;" fill="rgb(33, 33, 33)" stroke="none" stroke-width="1px">0.8</text><text x="0" y="154.875" dx="0em" dy="0.3em" style="text-anchor: end; visibility: inherit; font-family: Roboto, sans-serif; font-size: 12px; font-weight: 200;" fill="rgb(33, 33, 33)" stroke="none" stroke-width="1px">0.9</text><text x="0" y="132.75" dx="0em" dy="0.3em" style="text-anchor: end; visibility: hidden; font-family: Roboto, sans-serif; font-size: 12px; font-weight: 200;" fill="rgb(33, 33, 33)" stroke="none" stroke-width="1px">1</text><text x="0" y="110.625" dx="0em" dy="0.3em" style="text-anchor: end; visibility: inherit; font-family: Roboto, sans-serif; font-size: 12px; font-weight: 200;" fill="rgb(33, 33, 33)" stroke="none" stroke-width="1px">1.1</text><text x="0" y="88.50000000000001" dx="0em" dy="0.3em" style="text-anchor: end; visibility: hidden; font-family: Roboto, sans-serif; font-size: 12px; font-weight: 200;" fill="rgb(33, 33, 33)" stroke="none" stroke-width="1px">1.2</text><text x="0" y="66.375" dx="0em" dy="0.3em" style="text-anchor: end; visibility: inherit; font-family: Roboto, sans-serif; font-size: 12px; font-weight: 200;" fill="rgb(33, 33, 33)" stroke="none" stroke-width="1px">1.3</text><text x="0" y="44.25000000000004" dx="0em" dy="0.3em" style="text-anchor: end; visibility: hidden; font-family: Roboto, sans-serif; font-size: 12px; font-weight: 200;" fill="rgb(33, 33, 33)" stroke="none" stroke-width="1px">1.4</text><text x="0" y="22.12500000000002" dx="0em" dy="0.3em" style="text-anchor: end; visibility: inherit; font-family: Roboto, sans-serif; font-size: 12px; font-weight: 200;" fill="rgb(33, 33, 33)" stroke="none" stroke-width="1px">1.5</text><text x="0" y="0" dx="0em" dy="0.3em" style="text-anchor: end; visibility: hidden; font-family: Roboto, sans-serif; font-size: 12px; font-weight: 200;" fill="rgb(33, 33, 33)" stroke="none" stroke-width="1px">1.6</text></g><line x1="40" y1="0" x2="40" y2="177" fill="rgb(0, 0, 0)" stroke="rgb(204, 204, 204)" stroke-width="1px"></line></g></g><g transform="translate(40, 0)" clip-path="url(#clip_0)"><clipPath id="clip_0"><rect width="290" height="177"></rect></clipPath><g><g><g><line x1="0" y1="0" x2="0" y2="177" fill="rgb(0, 0, 0)" stroke="rgb(66, 66, 66)" stroke-width="1px" opacity="0.25"></line><line x1="24.166666666666664" y1="0" x2="24.166666666666664" y2="177" fill="rgb(0, 0, 0)" stroke="rgb(66, 66, 66)" stroke-width="1px" opacity="0.25"></line><line x1="48.33333333333333" y1="0" x2="48.33333333333333" y2="177" fill="rgb(0, 0, 0)" stroke="rgb(66, 66, 66)" stroke-width="1px" opacity="0.25"></line><line x1="72.5" y1="0" x2="72.5" y2="177" fill="rgb(0, 0, 0)" stroke="rgb(66, 66, 66)" stroke-width="1px" opacity="0.25"></line><line x1="96.66666666666666" y1="0" x2="96.66666666666666" y2="177" fill="rgb(0, 0, 0)" stroke="rgb(66, 66, 66)" stroke-width="1px" opacity="0.25"></line><line x1="120.83333333333334" y1="0" x2="120.83333333333334" y2="177" fill="rgb(0, 0, 0)" stroke="rgb(66, 66, 66)" stroke-width="1px" opacity="0.25"></line><line x1="145" y1="0" x2="145" y2="177" fill="rgb(0, 0, 0)" stroke="rgb(66, 66, 66)" stroke-width="1px" opacity="0.25"></line><line x1="169.16666666666669" y1="0" x2="169.16666666666669" y2="177" fill="rgb(0, 0, 0)" stroke="rgb(66, 66, 66)" stroke-width="1px" opacity="0.25"></line><line x1="193.33333333333331" y1="0" x2="193.33333333333331" y2="177" fill="rgb(0, 0, 0)" stroke="rgb(66, 66, 66)" stroke-width="1px" opacity="0.25"></line><line x1="217.5" y1="0" x2="217.5" y2="177" fill="rgb(0, 0, 0)" stroke="rgb(66, 66, 66)" stroke-width="1px" opacity="0.25"></line><line x1="241.66666666666669" y1="0" x2="241.66666666666669" y2="177" fill="rgb(0, 0, 0)" stroke="rgb(66, 66, 66)" stroke-width="1px" opacity="0.25"></line><line x1="265.8333333333333" y1="0" x2="265.8333333333333" y2="177" fill="rgb(0, 0, 0)" stroke="rgb(66, 66, 66)" stroke-width="1px" opacity="0.25"></line><line x1="290" y1="0" x2="290" y2="177" fill="rgb(0, 0, 0)" stroke="rgb(66, 66, 66)" stroke-width="1px" opacity="0.25"></line></g><g><line x1="0" y1="177" x2="290" y2="177" fill="rgb(0, 0, 0)" stroke="rgb(66, 66, 66)" stroke-width="1px" opacity="0.25"></line><line x1="0" y1="154.875" x2="290" y2="154.875" fill="rgb(0, 0, 0)" stroke="rgb(66, 66, 66)" stroke-width="1px" opacity="0.25"></line><line x1="0" y1="132.75" x2="290" y2="132.75" fill="rgb(0, 0, 0)" stroke="rgb(66, 66, 66)" stroke-width="1px" opacity="0.25"></line><line x1="0" y1="110.625" x2="290" y2="110.625" fill="rgb(0, 0, 0)" stroke="rgb(66, 66, 66)" stroke-width="1px" opacity="0.25"></line><line x1="0" y1="88.50000000000001" x2="290" y2="88.50000000000001" fill="rgb(0, 0, 0)" stroke="rgb(66, 66, 66)" stroke-width="1px" opacity="0.25"></line><line x1="0" y1="66.375" x2="290" y2="66.375" fill="rgb(0, 0, 0)" stroke="rgb(66, 66, 66)" stroke-width="1px" opacity="0.25"></line><line x1="0" y1="44.25000000000004" x2="290" y2="44.25000000000004" fill="rgb(0, 0, 0)" stroke="rgb(66, 66, 66)" stroke-width="1px" opacity="0.25"></line><line x1="0" y1="22.12500000000002" x2="290" y2="22.12500000000002" fill="rgb(0, 0, 0)" stroke="rgb(66, 66, 66)" stroke-width="1px" opacity="0.25"></line><line x1="0" y1="0" x2="290" y2="0" fill="rgb(0, 0, 0)" stroke="rgb(66, 66, 66)" stroke-width="1px" opacity="0.25"></line></g></g></g><g><g><line x1="0" y1="354" x2="290" y2="354" fill="rgb(0, 0, 0)" stroke="rgb(153, 153, 153)" stroke-width="1.5px"></line></g></g><g><g><line x1="24.166666666666664" y1="0" x2="24.166666666666664" y2="177" fill="rgb(0, 0, 0)" stroke="rgb(153, 153, 153)" stroke-width="1.5px"></line></g></g><g><g><g><g><g><path stroke="rgb(255, 112, 67)" stroke-width="2px" d="M24.166666666666664,-56.64737319946285L24.166666666666664,29.10953156752925L24.166666666666664,-3.3619970929171474L24.166666666666664,16.153820373476986L24.650000000000002,56.55350182450214L25.133333333333333,89.28030866183701L25.133333333333333,67.29701332695333L25.133333333333333,63.67111414542229L25.133333333333333,69.7720468204248L25.616666666666667,68.58335876424589L25.616666666666667,88.03451158254013L25.616666666666667,83.35630092545537L26.099999999999998,84.6745882285174L26.583333333333332,98.08615157735811L26.583333333333332,94.7673510874258L26.583333333333332,80.96365380064225L27.066666666666666,96.49711730065388L27.066666666666666,95.73447503456816L27.066666666666666,89.40319400749937L27.55,86.4223564426884L27.55,79.58230515200536L27.55,92.0386981553817L28.03333333333333,106.91029907719047L28.03333333333333,116.15561709992696L28.03333333333333,129.61054070492722L28.516666666666666,140.37828035903988L29,136.22413825705237L29,105.3963639276728L29.483333333333334,112.21577920595881L29.483333333333334,122.23613198136813L29.966666666666665,110.92405526423461L30.45,77.53938487725026L30.45,58.73447396504399L30.45,80.5166039543563L30.45,93.69459660222206L30.45,84.85593549014018L30.45,93.63098358162847L30.933333333333334,75.2702660149235L30.933333333333334,93.23023864873247L31.416666666666668,88.9760442568781L31.416666666666668,97.05214785480857L31.416666666666668,97.1258417316902L31.416666666666668,105.22194517493284L31.9,76.5822352735867L32.38333333333333,74.5408084179649L32.38333333333333,73.60814420008694L32.86666666666667,52.066700083982965L32.86666666666667,74.27446974019816L32.86666666666667,83.84326811078307L33.35,88.03246687442662L33.35,84.45416954078091L33.35,78.39550467120527L33.833333333333336,75.55425466226863L33.833333333333336,76.7807932776593L34.31666666666666,74.72036246004647L34.31666666666666,66.99052883016148L34.8,80.94551443731383L34.8,78.41621712668203L34.8,61.33494611889267L35.28333333333334,61.209594372382355L35.28333333333334,52.10224671838669L35.766666666666666,72.9528262841018L35.766666666666666,68.17704118299001L35.766666666666666,80.88208150691631L35.766666666666666,94.49382657174428L35.766666666666666,105.57203746424493L35.766666666666666,111.13177720806746L35.766666666666666,128.7872735334983L36.25,128.15905436036942L36.25,137.83231989267986L36.25,144.2139414876978L36.733333333333334,164.39793011262927L37.21666666666666,137.64855983661008L38.18333333333333,127.38517498136181L38.666666666666664,122.73541808795893L38.666666666666664,115.40166061587888L38.666666666666664,88.20399582782304L39.150000000000006,97.84948429986912L39.63333333333333,110.9393917363078L39.63333333333333,95.28503685022336L39.63333333333333,105.19377750181793L39.63333333333333,103.56266408805797L40.11666666666667,117.16111686775814L40.6,104.07068799627336L41.56666666666667,126.71106469768391L41.56666666666667,118.51009190849639L41.56666666666667,140.33665422924796L42.05,148.04191024023555L42.05,154.40398357028872L42.53333333333333,146.77475937336484L42.53333333333333,152.98738346722283L43.01666666666667,158.99366517575768L43.01666666666667,129.44846438478854L43.01666666666667,133.25781846843446L43.5,117.75712444430802L43.5,118.73792061452454L43.983333333333334,135.28908772005636L44.46666666666666,135.93886566683793L44.46666666666666,128.22873234191906L44.95,143.4280201744948L44.95,156.8048123571723L45.43333333333334,159.74588527801816L45.43333333333334,159.58372019367044L45.916666666666664,154.75950998112205L45.916666666666664,156.1247696085146L46.4,155.89009062167935L46.4,145.643058238501L46.4,128.01936972670828L46.88333333333333,137.61655284398063L47.36666666666667,143.4355599942578L47.36666666666667,148.44408991858043L47.36666666666667,145.83286180851078L47.36666666666667,155.5740465036409L47.85,145.7435035627891L48.33333333333333,139.07110820574115L48.33333333333333,153.29696818512676L48.81666666666667,157.63320322996094L48.81666666666667,152.72128669481944L49.300000000000004,155.66625122476944L49.78333333333333,139.60366271527894L49.78333333333333,129.3692290008219L50.266666666666666,129.0137360358397L50.75,130.24042204174702L51.233333333333334,121.7263425440185L51.71666666666667,130.61852707757433L52.199999999999996,137.01262420870327L52.199999999999996,115.73130427950458L52.199999999999996,117.17191910861226L52.199999999999996,106.91119856991631L52.68333333333334,105.60714230156819L52.68333333333334,115.9371946280678L52.68333333333334,131.5741886981982L53.166666666666664,135.09496478650686L53.65,142.40063144514548L53.65,147.78143347764802L54.13333333333333,152.74382581754875L54.13333333333333,137.9934372157145L54.13333333333333,147.33585609058144L54.13333333333333,140.03773197019137L54.13333333333333,148.78309830457755L54.61666666666667,147.63616988818498L54.61666666666667,146.4973881432886L55.583333333333336,146.387048863226L55.583333333333336,143.20006451120966L56.06666666666666,149.69484885622893L56.06666666666666,139.12689712939041L56.06666666666666,140.70628789283944L56.06666666666666,135.020468460682L56.550000000000004,142.86824014087463L56.550000000000004,140.964143869748L57.03333333333333,137.91327908951976L57.516666666666666,132.9841434562611L57.516666666666666,129.19720290966814L58.483333333333334,128.9717932768768L58.483333333333334,113.5166351531117L58.483333333333334,121.2574825985493L58.96666666666667,110.76950931651116L59.449999999999996,108.05792078729465L59.449999999999996,92.20249032807199L59.449999999999996,99.65598838332507L59.93333333333333,86.53067216823501L59.93333333333333,58.17563841839273L59.93333333333333,73.42064938373242L59.93333333333333,85.41368579379683L60.41666666666667,97.39251184134191L60.9,94.68777026084467L61.38333333333333,105.52371347454535L61.38333333333333,120.40263101273426L61.38333333333333,124.59196576516257L61.86666666666667,123.21205403356907L62.35,122.6025670630885L62.833333333333336,131.37949607487502L63.31666666666666,130.58007564925072L63.8,122.18199611035618L64.28333333333333,127.65500253958453L64.28333333333333,138.28269168284783L64.28333333333333,153.0866614856152L64.28333333333333,145.79237411446437L64.76666666666667,148.58326216261517L64.76666666666667,139.92026091463651L64.76666666666667,117.78762470473696L65.25,120.10414976929363L65.73333333333333,134.57512643772026L65.73333333333333,121.27669225482012L65.73333333333333,121.98415136979685L66.7,118.90020390593553L66.7,113.71007925230833L67.18333333333334,121.14196580528782L67.18333333333334,123.79177277846279L67.18333333333334,139.23017162839471L67.18333333333334,139.68190876237009L67.18333333333334,139.9222593909604L67.18333333333334,133.29449882871802L67.66666666666667,129.28388337502713L68.63333333333333,129.11194033743266L69.11666666666667,128.06885533746197L69.11666666666667,119.69293682642764L69.6,111.34736026435661L69.6,109.08032288927882L70.08333333333333,98.04215535616166L70.08333333333333,102.81161119448211L70.08333333333333,107.94017941741636L70.56666666666668,118.4332475481027L70.56666666666668,103.1560870522989L70.56666666666668,109.73975081421175L70.56666666666668,98.91816149392446L71.53333333333333,105.22190531578262L72.01666666666667,112.19649069092674L72.5,116.31713613515427L72.5,104.04682363197806L73.46666666666667,108.98966087262542L73.46666666666667,95.98092574516241L73.95,91.9515719408444L73.95,83.47638679622058L74.43333333333332,94.36569887627412L74.43333333333332,96.33869306425487L74.91666666666667,105.60686795361022L75.4,107.08374810243255L75.4,93.34884072709406L75.4,104.70331634749091L75.4,109.56102373573167L75.88333333333333,125.43879563355114L75.88333333333333,121.95192965613043L75.88333333333333,124.49377768638716L75.88333333333333,120.18399936950394L76.36666666666666,117.78308685995815L76.36666666666666,130.3836491109056L76.36666666666666,131.61769892091317L76.85000000000001,138.95451765085292L76.85000000000001,140.92184099066708L76.85000000000001,126.3528122518841L76.85000000000001,138.63096638032798L76.85000000000001,145.47416654463436L76.85000000000001,149.78872374519148L76.85000000000001,139.65338489016324L77.33333333333333,132.17791202799245L77.81666666666666,126.75525297526498L77.81666666666666,135.2692205891625L77.81666666666666,130.24013645909233L77.81666666666666,126.47852190165202L78.30000000000001,113.75018669189954L78.30000000000001,113.75818034008213L79.26666666666667,102.07968989744498L79.26666666666667,83.46009251364536L79.26666666666667,81.63624131863394L79.75,101.31361800994307L79.75,88.36367606970374L79.75,91.4045872606437L79.75,90.26709656853421L80.23333333333333,87.25268654410982L80.23333333333333,82.93642479977524L80.23333333333333,98.277391284605L80.71666666666667,112.30280995248577L81.2,105.1437872920304L81.68333333333334,101.25363957632504L81.68333333333334,97.26537109036065L82.16666666666667,100.39121524802596L82.16666666666667,100.02567532563121L82.64999999999999,106.86343071309226L82.64999999999999,109.44098438944295L82.64999999999999,101.0424468806623L82.64999999999999,104.55606272532407L83.13333333333334,109.04744684861946L83.13333333333334,110.78561026413229L83.13333333333334,90.81788040917873L83.61666666666666,92.78501179798648L84.1,92.13354674576007L84.1,95.48835951513952L85.06666666666666,107.14683831276479L85.06666666666666,105.40212074860912L86.03333333333335,103.72767121177108L86.03333333333335,95.08050948623871L86.51666666666667,94.01217960100453L87,103.49071108272432L87,99.85831189220731L87,106.05574496428662L87,89.49120984089762L87,102.03644696668952L87.48333333333333,112.73400443114704L87.48333333333333,122.62260402536123L87.96666666666667,114.4872473959723L88.45,97.85677747639181L88.93333333333332,103.63753162515033L88.93333333333332,109.26003189574416L89.41666666666667,106.42340990998596L89.41666666666667,103.3267941400546L89.41666666666667,111.08785712214262L89.9,113.14317277663456L89.9,125.89059212119636L89.9,139.95695995347182L90.38333333333333,139.55382689315658L90.86666666666667,133.90989442205318L90.86666666666667,128.44172975322294L90.86666666666667,125.927517766572L91.35,118.65383475887371L91.35,103.11020244522831L91.83333333333333,105.86828745565084L92.8,111.60870364084485L92.8,93.32529109822873L92.8,100.48452743813519L93.28333333333333,100.87337454105354L93.28333333333333,106.55915363953659L93.28333333333333,112.80562948823892L93.28333333333333,117.24708651341457L93.76666666666667,118.16295899791272L93.76666666666667,114.35772858782958L94.25,106.30760160239004L94.73333333333333,108.94931724109865L94.73333333333333,125.35466749827226L94.73333333333333,130.60217262740417L94.73333333333333,119.03542655389937L94.73333333333333,105.25518695770869L95.21666666666665,98.00708371280848L95.21666666666665,100.35908968707959L95.21666666666665,100.49946760121628L95.7,92.17665672187795L95.7,89.64830353095012L95.7,103.71436498093844L96.66666666666666,98.17228396263761L96.66666666666666,91.4199007098178L97.15,74.04702828450962L97.15,71.81457896168752L97.63333333333334,82.95375557872599L98.11666666666666,80.41984557571539L98.60000000000001,81.0013634166811L98.60000000000001,85.08034224740389L99.08333333333333,89.10846187188393L99.08333333333333,98.43476215191494L99.08333333333333,105.53238099454052L100.05,103.43077771920565L100.05,100.90684490061729L100.05,115.26826407202952L100.53333333333333,98.11182301727565L101.01666666666667,104.23244659507526L101.01666666666667,113.79248996045483L101.5,116.30765743774879L101.98333333333333,119.71354384169017L102.46666666666667,110.36114068242148L102.94999999999999,115.86027880235251L102.94999999999999,105.57572605449883L102.94999999999999,92.88862924133367L103.43333333333334,78.11273001245829L103.43333333333334,75.90847282299376L103.91666666666667,73.82110813716773L103.91666666666667,77.95755133176345L104.39999999999999,80.4171337109761L104.39999999999999,82.95074881961747L105.36666666666667,90.45447479990476L105.36666666666667,100.93896457533131L105.36666666666667,108.83710520436564L105.36666666666667,113.33393784183865L105.36666666666667,125.55403219587473L106.33333333333333,130.20393994856323L106.33333333333333,126.32370163715818L106.81666666666668,139.25196210814534L107.3,145.4583233106509L107.3,146.04076306272825L107.3,152.059547702577L107.3,147.8822167443557L107.78333333333333,139.41536288876773L107.78333333333333,153.2812831522772L107.78333333333333,137.7426736153265L107.78333333333333,128.2436468477329L107.78333333333333,115.06250609423901L108.26666666666667,117.55467217055575L108.26666666666667,109.30210595702466L108.26666666666667,94.52157820433547L108.75,101.79117229056236L108.75,90.04468993175091L108.75,105.86832070962673L108.75,101.37081808741274L109.23333333333333,107.9741166088093L109.71666666666667,106.30994876395181L110.68333333333332,103.09580264674801L110.68333333333332,98.55632344254512L110.68333333333332,105.57519308646886L111.16666666666667,108.35411543004511L111.16666666666667,107.9401094201861L111.16666666666667,115.91015586589263L111.65,114.10660504018935L112.13333333333333,115.15219057592668L112.61666666666666,117.21616953336047L113.10000000000001,125.8603374195909L113.10000000000001,116.65794125854141L113.58333333333333,127.1997317242455L114.55000000000001,103.19782382521484L114.55000000000001,99.53118671641381L115.03333333333333,89.18622511966461L115.51666666666667,100.3970120083237L115.51666666666667,89.21889561043089L116,92.05727967288013L116,81.7969248975881L116,81.12509203484241L116.48333333333333,91.94370841071583L116.48333333333333,98.51006711031859L116.96666666666667,110.50888205793595L116.96666666666667,124.29096878030748L117.93333333333334,137.70943401100976L118.41666666666667,128.0431866745089L118.41666666666667,127.17459407932988L118.41666666666667,115.34492388606647L118.89999999999999,119.81849511147105L118.89999999999999,118.5775670757533L118.89999999999999,106.8571376151946L119.38333333333334,109.16382827346884L119.38333333333334,97.25185062843839L119.38333333333334,90.05034811714633L119.38333333333334,105.19506431548707L119.86666666666666,101.4130444504343L119.86666666666666,117.0265141989705L120.35,106.68621854815699L120.35,111.2501085095613L120.35,113.08054792364685L120.35,110.91775141034857L120.83333333333334,117.00824170244535L120.83333333333334,125.2267666753789L120.83333333333334,132.04948839780167L120.83333333333334,125.45320775605735L121.31666666666666,120.6910717115832L121.31666666666666,108.45045927583402L121.31666666666666,111.92791744197714L121.8,84.5647184109578L121.8,84.5011069256532L121.8,100.47368431245673L121.8,102.61403508469496L122.28333333333335,95.5787515730013L122.28333333333335,85.73020280762651L122.28333333333335,95.4310925737961L122.76666666666667,99.04063782873106L122.76666666666667,101.80448242433734L123.25,88.60510089467405L123.25,100.01262681325086L123.25,104.864186400786L123.25,71.55560526728668L123.25,93.78656968812797L123.73333333333333,102.59582274792125L124.21666666666667,104.04710248127597L124.21666666666667,108.5420869573906L124.21666666666667,106.78272892127691L124.21666666666667,106.3940646150056L124.7,99.98919294228759L124.7,97.75884738529798L125.18333333333332,105.18783948416662L125.66666666666667,91.84062780077444L125.66666666666667,96.50303505172806L126.15,106.9206703756184L126.63333333333333,110.10701068463578L126.63333333333333,108.72817508145658L127.11666666666667,96.77812402792114L127.11666666666667,97.93189888125495L127.11666666666667,99.96238615527304L127.11666666666667,107.89430102093263L127.6,97.81761925689415L127.6,103.73622339980702L128.08333333333334,100.49943165373492L128.56666666666666,98.64026576090231L129.05,93.25064419902839L129.05,87.46039111362501L129.05,99.09394911531207L129.05,98.90619075136902L129.53333333333333,106.57041661825583L129.53333333333333,114.90121816128625L129.53333333333333,106.10697594062172L130.5,113.22638625991415L131.46666666666667,112.8133640638392L131.46666666666667,109.6301673954395L131.46666666666667,108.67263793281964L131.95000000000002,109.3846745267384L131.95000000000002,117.06777871383375L131.95000000000002,96.91892397851846L132.43333333333334,87.42216946273058L132.91666666666666,99.33726773756098L132.91666666666666,92.64863890173633L133.4,94.11039328411916L133.88333333333333,104.794918865514L134.36666666666667,106.8321341706811L134.85,112.46721417222022L134.85,93.35082765733516L135.33333333333334,93.06761858465285L135.33333333333334,106.7152030374373L135.81666666666666,109.22415504533149L135.81666666666666,103.6289183554477L135.81666666666666,116.70749232419865L135.81666666666666,109.15186945840696L135.81666666666666,120.09985495627315L136.29999999999998,122.51977204136766L136.29999999999998,110.21808508398148L136.29999999999998,119.57899652032147L136.78333333333333,105.52302270522645L136.78333333333333,97.71656356413884L136.78333333333333,104.04062916023828L137.26666666666665,119.27716002672197L137.75,117.6930354668922L137.75,82.50358108943135L138.23333333333335,86.4012242115603L138.23333333333335,99.25599836903713L138.71666666666667,106.71135347488598L138.71666666666667,107.14818996045263L139.2,100.73079215426738L139.68333333333334,102.88033999040147L140.16666666666666,117.08550494710022L140.65,114.80492852675607L140.65,115.15837276531204L141.13333333333335,104.06653353482989L141.13333333333335,99.1037699302756L141.13333333333335,84.6720583630809L141.61666666666667,87.72326327260323L141.61666666666667,65.2229489423495L142.1,75.51798871657532L142.58333333333331,85.60371504876628L143.06666666666666,84.03540675586453L143.55,86.42324147307144L143.55,81.8938121951198L144.03333333333333,81.3858823606237L144.51666666666668,83.62581907291045L144.51666666666668,84.16505216721697L145,75.3556723945093L145,80.82712199347625L145.48333333333335,77.41355082782991L145.96666666666667,78.03733011960406L145.96666666666667,94.05907435763098L145.96666666666667,97.50548049531778L145.96666666666667,89.43171506710617L146.45,88.13182515938846L146.45,77.50437324718199L147.41666666666666,76.61337247383857L147.41666666666666,70.24909307821966L147.41666666666666,76.82919433185207L147.9,90.75521601362867L148.38333333333335,99.12058166800557L148.86666666666665,88.97987688677968L148.86666666666665,88.77582456358965L149.35,100.16069199529764L149.83333333333334,116.11596401115476L149.83333333333334,128.56216241293362L149.83333333333334,121.69079317047515L149.83333333333334,108.52264684968853L150.31666666666666,109.29312304522351L150.31666666666666,116.94818413149653L150.31666666666666,109.81519740729105L150.8,122.23587663002358L151.28333333333333,115.39871206896439L151.76666666666665,109.16279042619186L151.76666666666665,110.28192472289359L152.73333333333332,96.46688375398097L153.21666666666667,106.88381133702258L153.21666666666667,109.34751936135831L153.70000000000002,115.50257653745362L153.70000000000002,123.74281947377116L154.1833333333333,103.51345468639401L154.66666666666666,104.32779233275562L155.15,114.67530181002277L155.15,105.11395641755809L155.15,117.72041716849043L155.15,104.68821740466136L155.15,113.67537263931483L155.63333333333333,115.83707994217214L156.11666666666667,112.3936184730952L156.60000000000002,100.82435109858223L157.08333333333331,103.00400263434727L157.56666666666666,111.74575658387063L157.56666666666666,112.11189262386536L157.56666666666666,121.27586332268447L157.56666666666666,122.38927431651676L157.56666666666666,113.74307156630005L158.05,112.35885687815174L158.53333333333333,122.64017396965389L159.01666666666668,116.0960917720708L159.01666666666668,109.46787482469544L159.01666666666668,104.06669031313352L159.01666666666668,102.11786294554166L160.46666666666667,98.89141417030726L160.46666666666667,98.72214088115895L160.95000000000002,99.72401206997965L160.95000000000002,113.0302309108684L161.43333333333334,109.27134901339991L161.43333333333334,111.34908226010158L161.91666666666666,114.47849401260491L161.91666666666666,96.86908797334029L162.4,85.86348243271442L163.36666666666667,91.42110460170558L163.85,98.32950695422672L163.85,91.72782949113402L164.33333333333334,99.0991405965198L164.33333333333334,97.20111653373807L164.33333333333334,98.29887817579908L164.33333333333334,99.3224643229041L164.33333333333334,95.92440761261359L164.81666666666666,76.73516997707618L165.29999999999998,91.91988561469876L165.29999999999998,87.97845374042025L166.26666666666668,95.7610124051669L166.26666666666668,91.07856925857918L166.26666666666668,95.86060063119778L166.75,92.235297178617L166.75,86.10700946352354L166.75,88.03839006726916L166.75,89.55032263650122L167.23333333333332,83.88845970133146L167.71666666666667,97.03648299968644L168.2,95.48615187783916L168.2,82.85562350729221L168.2,72.98668071845618L169.16666666666669,77.32765734960338L169.16666666666669,92.46161042924096L169.16666666666669,83.3034357784122L169.16666666666669,71.04121399908671L169.16666666666669,75.24999940114023L169.64999999999998,91.56194041730365L170.13333333333333,81.51716031200549L170.13333333333333,84.85638759150704L170.13333333333333,83.76511431199398L170.61666666666667,89.94127015798841L171.1,96.74147279629292L171.1,105.90603781461833L171.1,98.8666737654088L171.58333333333334,98.44205937201016L172.0666666666667,100.20016980442372L172.54999999999998,86.33870509246202L172.54999999999998,81.94028117576175L172.54999999999998,86.28322277106994L172.54999999999998,93.32086710354244L174,115.8546618869917L174.48333333333335,117.15068267112308L174.96666666666667,112.27097200324849L175.93333333333334,111.94381040063055L175.93333333333334,94.40320484384274L176.41666666666666,86.34838590617046L176.9,99.09666543811173L177.38333333333335,100.98671999329078L177.38333333333335,89.93861141227691L177.86666666666665,85.42791970073773L177.86666666666665,95.0015930415059L177.86666666666665,111.55365186695471L177.86666666666665,109.44708995353285L178.35,102.71121221517251L178.35,104.63305350274324L178.83333333333334,112.35411532192319L178.83333333333334,118.50399698433245L179.31666666666666,133.94351864802482L179.31666666666666,120.98017757950723L179.8,119.3959277694948L179.8,85.93549584754143L180.28333333333333,91.63529546214546L180.28333333333333,97.73022333248264L180.76666666666665,101.23909414766278L181.25,96.90981269256811L181.25,113.61265898807558L181.25,108.17834706533318L181.73333333333335,93.46342495893686L181.73333333333335,111.53594080409853L181.73333333333335,127.01153283727629L182.21666666666667,124.29657891708048L182.21666666666667,96.43923376142827L182.7,94.81662636375951L183.18333333333334,74.57763350771074L183.18333333333334,74.81805449583958L183.66666666666666,64.25256158605539L183.66666666666666,55.878125479700564L183.66666666666666,59.89705352237502L184.15,64.59212296206597L184.15,60.773564330339376L184.15,48.26092266478177L184.15,60.99579941815788L184.63333333333335,49.46878274542894L185.11666666666665,50.36546583481012L185.11666666666665,39.654527135987166L185.11666666666665,57.92496852574935L185.11666666666665,66.25795305892751L185.6,77.64941934693913L186.08333333333334,78.38885966232154L186.56666666666666,63.2050341971581L186.56666666666666,57.929553174638265L187.05,65.64464664687074L187.05,50.341145410908375L187.05,54.069249628511876L187.05,62.17349088923199L187.05,77.3128852770988L187.53333333333333,76.00771846540009L187.53333333333333,93.42806720296366L187.53333333333333,76.88742607496665L188.01666666666665,87.44768480748635L188.01666666666665,83.14685615908722L188.5,86.11652495906849L188.5,72.83409527336217L188.5,86.23085507252271L188.5,107.83736771161762L188.98333333333332,110.0187958527365L188.98333333333332,103.23148153439871L188.98333333333332,101.58041614094827L189.95000000000002,106.7646095166775L189.95000000000002,99.28437953017553L189.95000000000002,102.9781716839936L189.95000000000002,102.12026003898674L190.4333333333333,112.48573527568975L190.91666666666666,115.56525920792514L190.91666666666666,103.28654079052606L190.91666666666666,92.9915963990462L190.91666666666666,98.66461245844293L191.4,99.90372742775143L191.4,69.82104391970535L191.4,66.43787510028285L191.88333333333333,50.54330802102848L191.88333333333333,69.13580606360861L192.36666666666667,71.93544274088048L193.33333333333331,69.19426993015078L193.33333333333331,75.58308542572894L193.81666666666666,73.96816494034918L193.81666666666666,72.78814915233346L194.3,70.16344182496593L194.3,76.34764861535852L194.78333333333333,72.26232544544357L194.78333333333333,87.8059746178822L194.78333333333333,89.34999134366855L194.78333333333333,84.02005772306175L194.78333333333333,92.08268094549938L194.78333333333333,77.49146965128308L195.26666666666668,82.01903611626696L195.26666666666668,72.0532524893525L195.75,76.79598350049588L195.75,71.08602452027809L196.23333333333332,68.99327763107438L196.71666666666667,70.32261356724817L196.71666666666667,53.96436306452496L197.20000000000002,66.1179648419676L197.20000000000002,71.45780534956039L197.68333333333334,48.53227664611787L197.68333333333334,41.19339035541618L198.16666666666666,57.17908269506102L198.16666666666666,74.539560651627L198.65,69.89333806554565L199.13333333333333,70.9244254572228L199.13333333333333,52.513828250368256L199.13333333333333,51.85876404313169L199.13333333333333,59.35525343018793L199.13333333333333,57.39944255129581L199.61666666666667,69.79964676592172L199.61666666666667,70.84181569722476L199.61666666666667,66.06157048971988L200.58333333333334,74.44144769782825L201.06666666666666,78.87852563226201L201.06666666666666,95.87545813649791L201.06666666666666,104.34080496776583L201.54999999999998,79.21000636932085L202.03333333333333,78.9074615424109L202.03333333333333,90.46397531166842L202.03333333333333,93.28002984148726L202.03333333333333,98.35018978918319L202.03333333333333,109.91043162524404L202.51666666666668,92.75477191645066L203,79.99168467682959L203.48333333333332,68.38805173415041L203.96666666666667,76.83047673587863L204.45,80.02861642439512L204.45,72.69584048104119L204.45,49.670052055487815L204.93333333333334,46.08733568933576L204.93333333333334,46.159203578298474L206.38333333333333,56.532994512738256L206.38333333333333,59.21504860146311L206.86666666666667,65.1598703057507L206.86666666666667,63.31236124111476L207.83333333333334,64.93788059142895L208.3166666666667,86.93044077068254L208.79999999999998,96.6614729129594L208.79999999999998,66.73504024004205L209.28333333333333,55.34677445224747L209.28333333333333,64.57586905567207L209.76666666666668,65.72735666890006L209.76666666666668,45.83257233229996L209.76666666666668,60.10236899527398L210.25,68.8115473084608L210.25,62.41945125602502L210.73333333333335,79.94052879359636L210.73333333333335,68.18669971632902L211.21666666666667,69.092882458817L211.21666666666667,65.38388070839439L211.21666666666667,60.531559679312544L211.21666666666667,72.52833917360228L211.7,66.73289704510978L212.18333333333334,70.75741391306721L212.66666666666666,51.15047087066719L212.66666666666666,45.099786345555586L213.15,44.51958284873624L213.63333333333335,50.47278286341733L213.63333333333335,52.539186202779206L214.11666666666665,46.75414743491328L215.08333333333334,39.197556992560315L215.56666666666666,56.85886667267462L216.05,42.85980377362575L216.05,47.170810114562606L216.05,48.06196755492711L216.53333333333333,51.614282055343956L217.01666666666665,64.30788268763638L217.01666666666665,64.98468557270616L217.01666666666665,63.099978765960394L217.01666666666665,72.89157844681012L217.5,65.6674215954301L218.46666666666667,85.2579297345L218.46666666666667,78.85761317770196L219.43333333333334,74.73280360387253L219.43333333333334,69.1869242453988L219.91666666666666,60.47300257295145L219.91666666666666,49.59526274183879L219.91666666666666,73.6093876615125L220.4,88.86956796555306L220.4,98.53838956707182L220.4,104.75194720025017L220.4,97.72003552008856L220.4,90.51131161409523L220.88333333333335,95.607104768187L220.88333333333335,90.33996116079136L220.88333333333335,98.68916276259567L220.88333333333335,90.08897388843644L222.33333333333334,87.2841917555456L222.81666666666666,80.01636080446079L222.81666666666666,81.40510108399826L223.3,86.43316135598631L223.3,94.98314864092546L223.78333333333333,105.11230082207295L224.26666666666665,113.59084691328648L224.26666666666665,123.62840122987483L224.26666666666665,117.91945126111692L224.75,125.36016841243935L224.75,132.91353183417777L224.75,134.42024850880134L225.23333333333332,111.79114724457703L225.23333333333332,101.98634149536814L225.71666666666667,103.52458430036633L225.71666666666667,114.36627035977352L226.20000000000002,97.54720825693828L226.20000000000002,88.71119887610918L227.16666666666666,101.5963184438515L227.16666666666666,104.19094918150287L227.16666666666666,90.11284472919888L227.65,73.86812315394431L227.65,64.24192272858467L227.65,67.28708348703036L227.65,78.75676159515484L228.13333333333333,76.86367289761667L228.61666666666667,58.16535900336733L229.10000000000002,59.330777724004186L229.10000000000002,58.10731663076366L229.10000000000002,40.68485170546805L229.10000000000002,46.86459556837895L229.10000000000002,49.34918400787111L229.10000000000002,48.795515009622655L230.06666666666666,44.96462248249859L230.06666666666666,50.694677945699326L230.55,35.99255377245434L231.03333333333333,42.00133305343266L231.51666666666668,47.18006332663624L231.51666666666668,57.76804308582095L231.51666666666668,70.31687379982297L232,61.52996038760058L232.96666666666667,68.25303686789131L232.96666666666667,65.57527606984213L233.93333333333334,78.0592307581991L233.93333333333334,86.80185663737578L234.41666666666666,80.55319139712832L234.41666666666666,77.44886483751175L234.41666666666666,83.37826602503776L234.9,90.68685598613233L234.9,82.90227650831724L234.9,66.6564489434697L234.9,50.73527339825404L234.9,41.25121377194747L235.38333333333333,61.58497460732369L235.38333333333333,61.14912127091512L235.38333333333333,67.07139611006744L235.38333333333333,69.64469503205302L235.38333333333333,70.20972034076925L235.38333333333333,75.53821998523799L235.86666666666667,78.63466274116547L235.86666666666667,71.61054486491385L236.35,73.7140906896501L236.35,58.55140390943912L236.35,64.6843155200163L236.35,63.71942508529327L236.83333333333334,69.86127332663538L236.83333333333334,66.32471984578282L237.31666666666666,78.04425806902103L237.31666666666666,73.7963802907552L237.79999999999998,69.7880697718375L237.79999999999998,65.98574573718481L237.79999999999998,54.18618518985371L238.28333333333333,44.160409257592406L238.28333333333333,62.91236211213888L238.28333333333333,58.88826623734957L238.76666666666668,67.37328329441864L239.25,80.67655609376365L239.25,80.77741293661076L239.25,74.84072350021133L239.25,70.44452647080124L239.25,79.60059196057L239.73333333333332,89.78165810735528L240.21666666666667,91.77155870352168L240.21666666666667,94.32843506519801L240.7,98.09879196007648L240.7,81.30650415633845L241.18333333333334,78.11634671722055L241.18333333333334,73.32882491749244L241.66666666666669,72.99311329272882L242.14999999999998,72.3047099781729L243.11666666666667,95.23195778085523L243.11666666666667,102.28878735832863L243.11666666666667,80.14621672793166L243.11666666666667,75.37435795918961L243.11666666666667,83.76345785664064L244.08333333333334,64.08438507488852L244.08333333333334,66.08667628498297L244.08333333333334,68.38781882976302L244.5666666666667,46.30258294973802L244.5666666666667,72.87789350124024L245.04999999999998,65.77692890432589L245.53333333333333,66.51789249665659L245.53333333333333,45.73253794362257L245.53333333333333,53.52802925184116L246.5,37.14155776527678L246.5,50.896990441887574L246.5,58.769806867327475L246.5,66.32288610276333L246.98333333333335,68.90078541871543L246.98333333333335,67.07140423528983L246.98333333333335,50.69736150385459L247.46666666666667,57.829172487064625L247.95,50.02708355716751L247.95,49.12895411768171L247.95,55.49248727837874L247.95,36.9378385427359L248.43333333333334,31.429998297137118L248.43333333333334,34.17503382289408L248.91666666666666,45.4663667451278L248.91666666666666,58.698051797374426L249.4,45.93221891594343L249.4,48.52362518539354L249.88333333333335,42.64089752748958L251.33333333333334,32.96465350869141L251.33333333333334,44.182050403251154L251.81666666666666,47.23820292069454L252.3,50.57603219831996L252.3,44.34134674633814L252.78333333333333,35.08316380240739L252.78333333333333,37.19965081130658L252.78333333333333,40.46709494238599L253.26666666666665,54.83217031744761L253.26666666666665,60.07909722385069L253.75,68.95991386190616L253.75,52.91183828994952L253.75,56.196255762781135L254.23333333333335,38.72683259168596L254.23333333333335,51.761438024858656L254.23333333333335,43.91769333116275L254.23333333333335,52.47003526251978L254.23333333333335,47.97416794444834L254.71666666666667,49.75424453077342L254.71666666666667,45.286664909150964L254.71666666666667,44.44907676606107L254.71666666666667,52.70028596590523L255.2,51.02762148894788L255.2,43.23090933224038L255.2,52.975362237216544L255.68333333333334,53.94979408621371L255.68333333333334,61.00977728978988L255.68333333333334,62.91715796075139L255.68333333333334,45.52525965798842L256.1666666666667,36.137368979243014L256.65,42.0258522598853L256.65,34.71001363235542L256.65,27.75508839705064L256.65,28.376740560504327L257.1333333333333,39.359094970914214L257.1333333333333,33.29719663183388L258.1,33.50608181621937L258.1,54.76465605072201L258.1,56.01048030937996L258.58333333333337,62.93951704311085L258.58333333333337,66.68867207656801L258.58333333333337,70.71099414965157L258.58333333333337,68.22274909078895L258.58333333333337,48.951392105791804L259.06666666666666,62.8261968654669L259.06666666666666,65.71895415017194L259.06666666666666,42.90199371440175L260.0333333333333,48.67858210514503L260.51666666666665,56.69131442978823L261.4833333333333,66.13967617525697L261.96666666666664,80.96229755026837L262.45,73.96832787384633L262.45,84.6737746387963L262.93333333333334,44.558478071582584L263.4166666666667,61.2239780579507L263.90000000000003,65.65346934668824L263.90000000000003,74.82652397734816L263.90000000000003,60.19725268585816L263.90000000000003,40.38015267616907L264.8666666666667,31.88897156095905L264.8666666666667,25.55679147286312L265.35,42.55364583830189L265.35,33.58124374802145" style="fill: none;" fill="none"></path></g></g></g></g><g opacity="0.2"><g><g><g><path stroke="rgb(255, 112, 67)" stroke-width="2px" d="M24.166666666666664,-56.64737319946285L24.166666666666664,103.63228181004524L24.166666666666664,-56.100987553596454L24.166666666666664,60.657610684633276L24.650000000000002,171.71942116320133L25.133333333333333,198.79163512587547L25.133333333333333,-15.731064140796622L25.133333333333333,48.619639813900015L25.133333333333333,97.08169394731522L25.616666666666667,62.92649844288828L25.616666666666667,185.37767761945724L25.616666666666667,58.9458432197571L26.099999999999998,91.79776811599731L26.583333333333332,172.71505312621593L26.583333333333332,75.83503076434137L26.583333333333332,0.5396019816398817L27.066666666666666,188.64205227792263L27.066666666666666,91.14036986231804L27.066666666666666,50.75834029912951L27.55,68.02105137705804L27.55,36.944774329662344L27.55,170.3385947048664L28.03333333333333,201.0693189650774L28.03333333333333,175.05793610215187L28.03333333333333,215.79519809782505L28.516666666666666,209.67217625677586L29,109.38299337029457L29,-94.48682105541225L29.483333333333334,156.56571225821972L29.483333333333334,187.57408672571182L29.966666666666665,36.995836436748526L30.45,-141.07033824920651L30.45,180.3736043125391L30.45,26.654256373643896L30.45,151.4697482585907L30.933333333333334,-45.85206305980678L30.933333333333334,211.79543414711952L31.416666666666668,60.87359601259234L31.416666666666668,150.43082164227962L31.416666666666668,97.61315131187439L31.416666666666668,158.7806366533041L31.9,-112.94830477237697L32.38333333333333,61.02691420912745L32.38333333333333,67.43238651752473L32.86666666666667,-90.60652291774745L32.86666666666667,221.3911276459694L32.86666666666667,147.2436467707157L33.35,115.79331868886948L33.35,60.738423854112646L33.35,38.23601791262629L33.833333333333336,56.71928742527964L33.833333333333336,84.91237530112268L34.31666666666666,61.059276401996634L34.31666666666666,15.736697852611561L34.8,173.48152542114258L34.8,61.64351025223734L34.8,-51.94224795699115L35.28333333333334,60.378272473812125L35.28333333333334,-8.298890054225883L35.766666666666666,211.24060848355293L35.766666666666666,36.5016997754574L35.766666666666666,165.14994876086712L35.766666666666666,184.77723629772663L35.766666666666666,179.05233272910118L35.766666666666666,148.0093146264553L35.766666666666666,245.89694322645664L36.25,123.99200463294983L36.25,201.99679778516293L37.21666666666666,-39.78851696848865L38.18333333333333,59.30451759696009L38.666666666666664,91.89179518818855L38.666666666666664,66.75383546948434L38.666666666666664,-92.20991528034206L39.150000000000006,161.83238880336285L39.63333333333333,197.7709204852581L39.63333333333333,-8.55791947245594L39.63333333333333,170.923408806324L39.63333333333333,92.74265447258949L40.11666666666667,207.36674585938454L40.6,17.234932869672797L41.56666666666667,276.89685789495707L41.56666666666667,64.10857567191125L41.56666666666667,285.1242464929819L42.05,196.60717391967773L42.53333333333333,96.16582015156746L42.53333333333333,194.199236869812L43.01666666666667,-66.54173782467838L43.01666666666667,158.5274493098259L43.5,14.932100415229817L43.5,125.24410763382912L43.983333333333334,245.0825540497899L44.46666666666666,140.24921947717667L44.46666666666666,77.08294013142587L44.95,244.2537377178669L45.43333333333334,179.2557371556759L45.43333333333334,158.50798451900482L45.916666666666664,122.75770479440689L45.916666666666664,165.18133507668972L46.4,154.33332757651806L46.4,77.66849273443223L46.4,11.111119776964207L46.88333333333333,201.28029303252697L47.36666666666667,181.66860634088516L47.36666666666667,128.51105386018753L47.36666666666667,220.19304075837135L47.85,80.53174236416818L48.33333333333333,94.80919280648232L48.33333333333333,247.66545002907515L48.81666666666667,186.39799663424492L48.81666666666667,120.13765954971313L49.300000000000004,175.2019307166338L49.78333333333333,33.05107766389849L49.78333333333333,61.47821778059008L50.266666666666666,126.6555423438549L50.75,138.3777510523796L51.233333333333334,65.24745056033136L51.71666666666667,189.6056121736765L52.199999999999996,-25.44019675254818L52.199999999999996,126.7283638715744L52.199999999999996,38.8458091914654L52.68333333333334,96.95657068490982L52.68333333333334,184.46250276267529L52.68333333333334,235.30356051027775L53.166666666666664,158.45034183561802L53.65,190.8634121865034L54.13333333333333,185.66229084134102L54.13333333333333,40.14544004201891L54.13333333333333,209.30961155891418L54.13333333333333,91.62498512864113L54.13333333333333,206.79625341296196L54.61666666666667,140.027919575572L54.61666666666667,138.94317948818207L55.583333333333336,145.6551035642624L55.583333333333336,122.05892407894135L56.06666666666666,192.77857089042664L56.06666666666666,69.02346172928812L56.06666666666666,151.18331515789032L56.06666666666666,97.30308616161346L56.550000000000004,194.92712245881557L56.550000000000004,128.3331541121006L57.03333333333333,117.67509976029396L57.516666666666666,100.28628954291344L57.516666666666666,104.0762003660202L58.483333333333334,127.47651869058609L58.483333333333334,10.993487030267735L58.483333333333334,172.60707364976406L58.96666666666667,41.196617871522925L59.449999999999996,90.07036024332047L59.449999999999996,-12.975899487733802L59.449999999999996,149.09942203760147L59.93333333333333,-0.5372651517390812L59.93333333333333,-129.91996711492536L59.93333333333333,174.54976791143417L59.93333333333333,164.97054563462734L60.41666666666667,176.8551059961319L60.9,76.7456295490265L61.38333333333333,177.40489402413368L61.38333333333333,219.1032366603613L61.38333333333333,152.38228560984135L61.86666666666667,114.05828842520714L62.35,118.55948173999786L62.833333333333336,189.6020251661539L63.31666666666666,125.27705007791519L63.8,66.47259825468065L64.28333333333333,163.96067114174366L64.28333333333333,208.78240057826042L64.28333333333333,251.29009475558996L64.28333333333333,97.40507850050926L64.76666666666667,167.09686303138733L64.76666666666667,82.45348164439203L64.76666666666667,-29.031160533428153L65.25,135.47102214396L65.73333333333333,230.56962051987648L65.73333333333333,33.060361683368704L65.73333333333333,126.67714351415634L66.7,98.44256767630577L66.7,79.28093174099924L67.18333333333334,170.44203767180443L67.18333333333334,141.36949995160103L67.18333333333334,241.642145678401L67.18333333333334,142.67854669690132L67.18333333333334,141.51664638519287L67.18333333333334,89.32866731286049L67.66666666666667,102.67911368608475L68.63333333333333,127.97134110331535L69.11666666666667,121.14945942163467L69.11666666666667,64.13054609298707L69.6,55.98624551296236L69.6,94.04173144698143L70.08333333333333,24.819502025842688L70.08333333333333,134.45021519064903L70.08333333333333,141.96098694205284L70.56666666666668,188.03993614017963L70.56666666666668,1.8137017786503034L70.56666666666668,153.41306233406067L70.56666666666668,27.13219875097277L71.53333333333333,147.03834334015846L72.01666666666667,158.46301504969597L72.5,143.65179942548275L72.5,22.650628477334998L73.46666666666667,141.77840562164783L73.46666666666667,9.686339288949986L73.95,65.22249975800516L73.95,27.25550213456156L74.43333333333332,166.6009064912796L74.43333333333332,109.42672321200371L74.91666666666667,167.08811970055103L75.4,116.88076221942902L75.4,2.237126916646977L75.4,180.02422714233398L75.4,141.78505213558674L75.88333333333333,230.76538936793804L75.88333333333333,98.82149809598923L75.88333333333333,141.35534973442554L75.88333333333333,91.59470656514168L76.36666666666666,101.85642296075821L76.36666666666666,213.97058495879173L76.36666666666666,139.8038766682148L76.85000000000001,187.62394876778126L76.85000000000001,153.97225306928158L76.85000000000001,29.707881152629874L76.85000000000001,220.07917964458466L76.85000000000001,178.4097176939249L76.85000000000001,72.41972485184671L77.33333333333333,82.58870655298234L77.81666666666666,90.78356811404228L77.81666666666666,191.7473721653223L77.81666666666666,96.8792653977871L77.81666666666666,101.52552151679993L78.30000000000001,29.31565770506861L78.30000000000001,113.81120690703392L79.26666666666667,24.60939833521845L79.26666666666667,-40.054641276597934L79.26666666666667,69.53756430745126L79.75,231.84522369503975L79.75,2.4590993821621137L79.75,111.57673859596252L79.75,82.72145220637323L80.23333333333333,67.25633302330972L80.23333333333333,54.304123610258124L80.23333333333333,200.04303918778896L80.71666666666667,205.34165592491627L81.2,57.65378201007845L81.68333333333334,75.44800320267679L81.68333333333334,70.80884197354318L82.16666666666667,121.1267768740654L82.16666666666667,97.60083416104317L82.64999999999999,152.22228133678436L82.64999999999999,126.53941297531128L82.64999999999999,45.33001103997233L82.64999999999999,127.86394187808037L83.13333333333334,138.84143771231174L83.13333333333334,122.31586986780167L83.13333333333334,-41.63980847597118L83.61666666666666,105.83415055274963L84.1,87.8119961321354L84.1,117.74280452728271L85.06666666666666,184.4843808710575L85.06666666666666,93.82838362455368L86.03333333333335,92.62006321549416L86.03333333333335,37.718803077936194L86.51666666666667,86.92531952261926L87,166.36738175153732L87,75.762472987175L87,147.16696129739285L87,-20.3910880386829L87.48333333333333,188.2194975167513L87.96666666666667,60.520645022392294L88.45,-12.462904661893806L88.93333333333332,141.98467174172401L88.93333333333332,146.55738101899624L89.41666666666667,87.60642895102502L89.41666666666667,82.78512158989908L89.41666666666667,162.57154972851276L89.9,126.77728959918022L89.9,210.45171739161015L89.9,233.2674458026886L90.38333333333333,136.87960834801197L90.86666666666667,96.47037291526794L90.86666666666667,92.16817939281464L90.86666666666667,109.2492718398571L91.35,70.40321999788286L91.35,0.000152975320835691L91.83333333333333,124.16428649425507L92.8,149.68825833499432L92.8,-27.959331035613975L92.8,147.97595018148422L93.28333333333333,103.45282593369484L93.28333333333333,144.2762684226036L93.28333333333333,154.24217538535595L93.28333333333333,146.70988158881664L93.76666666666667,124.23847952485085L93.76666666666667,89.11539861559868L94.25,52.90637755393984L94.73333333333333,126.47336983680725L94.73333333333333,234.1809985935688L94.73333333333333,165.41195856034756L94.73333333333333,42.30640107393267L94.73333333333333,13.842757880687733L95.21666666666665,49.92615455389025L95.21666666666665,115.96132779121399L95.21666666666665,101.43067681789398L95.7,36.96656012535097L95.7,72.87625068426134L95.7,197.02281841635704L96.66666666666666,61.408403009176276L96.66666666666666,46.62737363576891L97.15,-41.19744604825969L97.15,57.00543040037157L97.63333333333334,156.84646153450012L98.11666666666666,63.610931128263495L98.60000000000001,84.858913064003L98.60000000000001,112.13860639929771L99.08333333333333,115.82934701442719L99.08333333333333,160.30159378051758L99.08333333333333,152.6150586605072L100.05,89.48960790038109L100.05,84.16411498188974L100.05,210.5359988808632L100.53333333333333,-15.696934819221458L101.01666666666667,144.83414040505886L101.01666666666667,177.20987686514854L101.5,132.99224169552326L101.98333333333333,142.30679029226303L102.46666666666667,48.321153312921545L102.94999999999999,152.33929426968098L102.94999999999999,37.352242559194586L102.94999999999999,8.727658778429051L103.43333333333334,-19.904494643211326L103.43333333333334,61.2863392531872L103.91666666666667,59.974391251802466L103.91666666666667,105.39701038599014L104.39999999999999,96.73298934102058L104.39999999999999,99.75770705938339L105.36666666666667,140.23109981417656L105.36666666666667,170.48874789476395L105.36666666666667,161.23011441528797L105.36666666666667,143.1640719026327L105.36666666666667,206.61710084974766L106.33333333333333,161.04951122403145L106.33333333333333,100.58380016684532L106.81666666666668,225.0127128660679L107.3,186.62876518070698L107.3,149.90442828834057L107.3,191.9856839776039L107.3,120.17152512073517L107.78333333333333,83.24974456429483L107.78333333333333,245.26208245754242L107.78333333333333,34.6659431755543L107.78333333333333,65.23101890087129L107.78333333333333,27.624251782894156L108.26666666666667,134.08667461574078L108.26666666666667,54.55798351764681L108.26666666666667,-3.5263501703738775L108.75,150.0146628320217L108.75,12.12336802482607L108.75,210.83576457202435L108.75,71.53623962402345L109.23333333333333,151.77767702937126L109.71666666666667,95.27054527401924L110.68333333333332,81.77448222041131L110.68333333333332,68.44328963756563L110.68333333333332,152.13548102974892L111.16666666666667,126.78834074735641L111.16666666666667,105.19376420974731L111.16666666666667,168.780158624053L111.65,102.14259231090546L112.13333333333333,122.08817401528358L112.61666666666666,130.90775513648987L113.10000000000001,183.20218393206596L113.10000000000001,55.61303848028185L113.58333333333333,197.12962420284748L114.55000000000001,-56.020939260721164L114.55000000000001,75.2082275748253L115.03333333333333,20.562014222145102L115.51666666666667,174.76475098729134L115.51666666666667,15.067879199981709L116,110.88594952225685L116,13.733960777521153L116,76.66842976212503L116.48333333333333,163.70994986593723L116.48333333333333,142.06858398020267L116.96666666666667,190.10407434403896L117.93333333333334,226.72200107574463L118.41666666666667,63.921286404132864L118.41666666666667,121.41270884871483L118.41666666666667,36.871768176555655L118.89999999999999,149.49432255327702L118.89999999999999,110.34576201438904L118.89999999999999,29.108639895916006L119.38333333333334,124.46546325087547L119.38333333333334,18.23270121216776L119.38333333333334,42.278549015522024L119.38333333333334,205.65886871516705L119.86666666666666,76.32468366622926L119.86666666666666,220.5998364239931L120.35,38.09295961260798L120.35,141.5250732153654L120.35,125.22292846441269L120.35,96.57065087556839L120.83333333333334,157.41004371643066L120.83333333333334,179.74507355690002L120.83333333333334,177.30861188471317L120.83333333333334,81.696201056242L121.31666666666666,89.10102421045303L121.31666666666666,27.251282125711462L121.31666666666666,134.9959414601326L121.8,-96.95146447420116L121.8,84.0791345536709L121.8,206.42917858064175L121.8,116.81223982572556L122.28333333333335,48.90958079695704L122.28333333333335,20.398990005254767L122.28333333333335,159.7827964425087L122.76666666666667,122.98487314581871L122.76666666666667,120.13868817687035L123.25,1.0458447933197217L123.25,175.6854514181614L123.25,137.0474328249693L123.25,-149.39979171752927L123.25,241.25762374699116L123.73333333333333,161.03277625143528L124.21666666666667,113.67429399490356L124.21666666666667,138.35996107757092L124.21666666666667,95.11187294125557L124.21666666666667,103.81582581996918L124.7,57.50191444158556L124.7,82.96365433931352L125.18333333333332,154.46871073544025L125.66666666666667,3.300727397203465L125.66666666666667,127.43152284622192L126.15,176.0269688218832L126.63333333333333,131.24387884140015L126.63333333333333,99.58154806494713L127.11666666666667,17.50641131401064L127.11666666666667,105.58556565642357L127.11666666666667,113.43180173635483L127.11666666666667,160.51135459542274L127.6,30.973066180944464L127.6,142.99780355393887L128.08333333333334,79.02788946032526L128.56666666666666,86.30732560157777L129.05,57.498116433620474L129.05,49.050238966941855L129.05,176.26617738604546L129.05,97.66067916154861L129.53333333333333,157.4117317199707L129.53333333333333,170.16432152688503L129.53333333333333,47.76959815621378L130.5,160.45361959934235L131.46666666666667,110.07354506850243L131.46666666666667,88.51415285468102L131.46666666666667,102.32078218460083L131.95000000000002,114.10803177952766L131.95000000000002,168.03432480990887L131.95000000000002,-36.74027270078655L132.43333333333334,24.4246146976948L132.91666666666666,178.3771181255579L132.91666666666666,48.27903234958651L133.4,103.80706930160522L133.88333333333333,175.67165726423264L134.36666666666667,120.34618073701859L134.85,149.84801204502583L134.85,-33.45940044522281L135.33333333333334,91.18892633914948L135.33333333333334,197.24765257537365L135.81666666666666,125.8675084412098L135.81666666666666,66.51242458820344L135.81666666666666,203.4653608649969L135.81666666666666,59.03098189830782L135.81666666666666,192.7242778390646L136.29999999999998,138.57250446081161L136.29999999999998,28.613764733076117L136.29999999999998,181.6754242926836L136.78333333333333,12.281486481428166L136.78333333333333,45.931731551885626L136.78333333333333,145.99187345802784L137.26666666666665,220.350025087595L137.75,107.18460613489151L137.75,-150.92875367403028L138.23333333333335,112.25658202171326L138.23333333333335,184.52927121520042L138.71666666666667,156.16710604727268L138.71666666666667,110.04598313570023L139.2,58.16042044758799L139.68333333333334,117.13955426216125L140.16666666666666,211.3167137056589L140.65,99.67652463912964L140.65,117.5029761493206L141.13333333333335,30.487844288349173L141.13333333333335,66.18284189701082L141.13333333333335,-11.061967223882636L141.61666666666667,107.96369889378548L141.61666666666667,-84.03486138582225L142.1,143.81103882193565L142.58333333333331,152.50826606154442L143.06666666666666,73.63189601898195L143.55,102.26315268874168L143.55,51.84744545817377L144.03333333333333,78.01648521423341L144.51666666666668,98.48463588953018L144.51666666666668,87.74210223555566L145,16.917878329753897L145,117.12246322631836L145.48333333333335,54.769326835870764L145.96666666666667,82.17522481083871L145.96666666666667,200.34072124958038L145.96666666666667,120.36751815676689L145.96666666666667,35.87368333339693L146.45,79.50889134407045L146.45,7.006238043308278L147.41666666666666,70.70284062623979L147.41666666666666,28.031087011098883L147.41666666666666,120.47887364029884L147.9,183.13470335304737L148.38333333333335,154.6129691004753L148.86666666666665,21.710621505975745L148.86666666666665,87.42222556471826L149.35,175.68320953845978L149.83333333333334,221.9566615819931L149.83333333333334,211.12511211633682L149.83333333333334,76.10896208882333L149.83333333333334,21.17059224843981L150.31666666666666,114.40414452552795L150.31666666666666,167.7287038564682L150.31666666666666,62.49790379405024L150.8,204.62954261898994L151.28333333333333,70.04378074407579L151.76666666666665,67.7962567806244L151.76666666666665,117.70580032467842L152.73333333333332,4.823596715927144L153.21666666666667,175.9854149222374L153.21666666666667,125.69074282050133L153.70000000000002,156.3326886445284L153.70000000000002,178.4051943719387L154.1833333333333,-30.679812490940055L154.66666666666666,109.72977259755135L155.15,183.31641429662704L155.15,41.687932401895544L155.15,201.34648123383522L155.15,18.237976223230383L155.15,173.29245583713055L155.63333333333333,130.1769551038742L156.11666666666667,89.55111452937126L156.60000000000002,24.078600347042105L157.08333333333331,117.46291244029999L157.56666666666666,169.73494881391525L157.56666666666666,114.54068818688393L157.56666666666666,182.06586742401123L157.56666666666666,129.7751838862896L157.56666666666666,56.38772660493853L158.05,103.17654722929001L158.53333333333333,190.842193454504L159.01666666666668,72.68534803390504L159.01666666666668,65.4990158379078L159.01666666666668,68.23745870590211L159.01666666666668,89.19014552235603L160.46666666666667,77.48848298192026L160.46666666666667,97.59925165772438L160.95000000000002,106.3700125515461L160.95000000000002,201.29820169508457L161.43333333333334,84.33647596836092L161.43333333333334,125.13190814852715L161.91666666666666,135.23772159218788L161.91666666666666,-19.944452852010688L162.4,12.856831938028355L163.36666666666667,128.2880791425705L163.85,144.15700042247772L163.85,47.93502250313761L164.33333333333334,147.99737991392612L164.33333333333334,84.61040729284288L164.33333333333334,105.58097639679909L164.33333333333334,106.1125128865242L164.33333333333334,73.38310012221338L164.81666666666666,-50.55832242965694L165.29999999999998,192.6490298062563L165.29999999999998,61.83261939883234L166.26666666666668,147.38729850947857L166.26666666666668,60.01717159152033L166.26666666666668,127.58262553811073L166.75,68.1865284740925L166.75,45.454474925994894L166.75,100.85037285089493L166.75,99.57986006140709L167.23333333333332,46.32999488711359L167.71666666666667,184.25504976511002L168.2,85.20189428329469L168.2,-0.9300952255725468L168.2,7.520182371139546L169.16666666666669,106.12390691041946L169.16666666666669,192.8540167361498L169.16666666666669,22.551880270242712L169.16666666666669,-10.301310628652534L169.16666666666669,103.16934683918953L169.64999999999998,199.76863311231136L170.13333333333333,14.884229689836522L170.13333333333333,107.00744488835335L170.13333333333333,76.52605721354486L170.61666666666667,130.91134214401245L171.1,141.85121396183968L171.1,166.6999843865633L171.1,52.17043438553812L171.58333333333334,95.6253425180912L172.0666666666667,111.8627496957779L172.54999999999998,-5.612537920474967L172.54999999999998,52.76295000314715L172.54999999999998,115.09250709414482L172.54999999999998,140.00569859147072L174,265.3345677405596L174.48333333333335,125.74795031547546L174.96666666666667,79.90098291635515L175.93333333333334,109.77355518937111L175.93333333333334,-21.953941941261252L176.41666666666666,32.916037380695364L176.9,183.66349683701992L177.38333333333335,113.52456280589104L177.38333333333335,16.65001326799395L177.86666666666665,55.50585025548937L177.86666666666665,158.50939558446407L177.86666666666665,221.35318712890148L177.86666666666665,95.47302657365799L178.35,58.02817592024805L178.35,117.38175639510155L178.83333333333334,163.57245670259L178.83333333333334,159.29977686703205L179.31666666666666,236.36294098198414L179.31666666666666,34.986716598272345L179.8,108.88666757941246L179.8,-136.0272166728973L180.28333333333333,129.44541656970978L180.28333333333333,138.16146241128445L180.76666666666665,124.51549673080444L181.25,68.19114410877229L181.25,224.41245616972446L181.25,72.12936186790468L181.73333333333335,-4.149302601814231L181.73333333333335,229.67023113369942L182.21666666666667,106.28669375181198L182.21666666666667,-88.35491082072254L182.7,84.05291774868967L183.18333333333334,-59.67950230836864L183.18333333333334,76.41290822625162L183.66666666666666,-5.83456313610073L183.66666666666666,0.3255684077739912L183.66666666666666,86.55696550011636L184.15,95.73727825284004L184.15,35.44282042980196L184.15,-34.74278426170345L184.15,145.47372230887413L184.63333333333335,-26.996694266796073L185.11666666666665,56.31369182467463L185.11666666666665,-31.39742499589916L185.11666666666665,179.12354537844658L185.11666666666665,121.53553748130798L185.6,153.21571098268032L186.08333333333334,83.29400190711023L186.56666666666666,-37.51820495724674L186.56666666666666,22.934186697006247L187.05,116.823396474123L187.05,-51.17597347497936L187.05,78.79995623230936L187.05,115.93368673324585L187.05,177.74138697981834L187.53333333333333,67.34977984428407L187.53333333333333,208.9874798208475L187.53333333333333,-32.83636888861652L188.01666666666665,157.50008815526962L188.01666666666665,54.61693176627161L188.5,105.81608363986015L188.5,-15.276068061590156L188.5,175.09943725168705L188.5,251.16606605798006L188.98333333333332,124.48949092626572L188.98333333333332,58.20723617076876L188.98333333333332,90.62792891263962L189.95000000000002,141.1544113755226L189.95000000000002,49.66361725330355L189.95000000000002,127.48126620054245L189.95000000000002,96.42922782897949L190.4333333333333,181.2460252046585L190.91666666666666,135.99355155229568L190.91666666666666,21.834584265947363L190.91666666666666,24.69917902350428L190.91666666666666,136.2970625013113L191.4,108.12350535392761L191.4,-129.73507797718045L191.4,43.99532774090769L191.88333333333333,-54.89469802379604L191.88333333333333,192.47077399492264L192.36666666666667,90.50707840919495L193.33333333333331,51.01045945286753L193.33333333333331,117.96385386586189L193.81666666666666,63.25544813275339L193.81666666666666,64.96041083335878L194.3,52.75221535563471L194.3,117.37112724781036L194.78333333333333,45.1619755625725L194.78333333333333,190.91613592207432L194.78333333333333,99.5923618376255L194.78333333333333,48.663475155830405L194.78333333333333,145.5667998790741L194.78333333333333,-19.30061137676235L195.26666666666668,112.05304571986198L195.26666666666668,5.944351941347142L195.75,108.25730600953102L195.75,33.208510369062445L196.23333333333332,55.11085742712023L196.71666666666667,79.14088019728662L196.71666666666667,-54.549527674913364L197.20000000000002,146.7399491518736L197.20000000000002,106.88010612130165L197.68333333333334,-103.54623055458065L197.68333333333334,-7.489756107330283L198.16666666666666,163.22157615423203L198.16666666666666,189.70181518793106L198.65,39.07221266627314L199.13333333333333,77.76423418521883L199.13333333333333,-69.61448451876636L199.13333333333333,47.5133381187916L199.13333333333333,109.08387386798859L199.13333333333333,44.42539939284327L199.61666666666667,152.05748999118805L199.61666666666667,77.7551347911358L199.61666666666667,34.35139426589014L200.58333333333334,130.0300987958908L201.06666666666666,108.31227162480354L201.06666666666666,208.62610200047493L201.06666666666666,160.49642631411552L201.54999999999998,-87.49735227227207L202.03333333333333,76.90050387382509L202.03333333333333,167.12512390315533L202.03333333333333,111.96057477593422L202.03333333333333,131.983540892601L202.03333333333333,186.5963106751442L203.48333333333332,-8.585666030645331L203.96666666666667,132.83404411375523L204.45,101.24375680088997L204.45,24.053227543830893L204.45,-103.07353681325908L204.93333333333334,22.321072161197684L204.93333333333334,46.63594552874567L206.38333333333333,125.34844735264778L206.38333333333333,77.00668984651567L206.86666666666667,104.59536695480347L206.86666666666667,51.05674767494204L207.83333333333334,75.72090590000154L208.3166666666667,232.820019364357L208.79999999999998,161.21312887966633L208.79999999999998,-131.784578025341L209.28333333333333,-20.198286384344062L209.28333333333333,125.79787829518318L209.76666666666668,73.3658508360386L209.76666666666668,-86.14122605323787L209.76666666666668,154.7623178511858L210.25,126.58464619517326L210.25,20.01692095398905L210.73333333333335,196.1681347489357L210.73333333333335,-9.783357292413672L211.21666666666667,75.10412523150445L211.21666666666667,40.77989199757578L211.21666666666667,28.343262165784857L211.21666666666667,152.11002910137177L211.7,28.28832292556765L212.18333333333334,97.45439985394478L212.66666666666666,-78.91390702128406L212.66666666666666,4.96203938126566L213.15,40.67075201869013L213.63333333333335,89.96385776996613L213.63333333333335,66.24685415625574L214.11666666666665,8.378584921360035L215.08333333333334,-10.929749071598014L215.56666666666666,174.01671485602856L216.05,-50.004208892583804L216.05,75.76824912428857L216.05,53.9735386669636L216.53333333333333,75.17887213826181L217.01666666666665,148.51199680566788L217.01666666666665,69.47431692481042L217.01666666666665,50.59761071205141L217.01666666666665,137.84501449763775L217.5,17.745342940092108L218.46666666666667,215.2132852524519L218.46666666666667,36.400551438331625L219.43333333333334,47.37051719427111L219.43333333333334,32.397846668958685L219.91666666666666,2.6684381961822705L219.91666666666666,-22.56317934393879L220.4,190.09931364655495L220.4,162.67736645042896L220.4,145.97012722492218L220.4,51.07323208451273L220.4,42.691608756780646L220.88333333333335,129.41049599647522L220.88333333333335,55.399901658296606L220.88333333333335,154.07432453334332L220.88333333333335,33.03886601328852L222.33333333333334,68.678423255682L222.81666666666666,31.80456617474558L222.81666666666666,90.617431640625L223.3,119.78724056482315L223.3,151.70023986697197L223.78333333333333,172.30492101609707L224.26666666666665,169.83402670919895L224.26666666666665,190.2133989483118L224.26666666666665,80.04863047599794L224.75,174.71881882846355L224.75,183.01943117380142L224.75,144.41518583893776L225.23333333333332,-38.32098251581188L225.23333333333332,36.94530183076861L225.71666666666667,113.72865298390388L225.71666666666667,186.28554658591747L226.20000000000002,-14.023516684770545L226.20000000000002,30.096754968166373L227.16666666666666,187.07089023292065L227.16666666666666,121.40265995264053L227.16666666666666,-3.275497019290885L227.65,-33.892663478851276L227.65,0.3856771588325697L227.65,87.48742470145227L227.65,154.8418782055378L228.13333333333333,64.30570283532144L228.61666666666667,-65.87154766917224L229.10000000000002,67.06168511509897L229.10000000000002,49.99138006567957L229.10000000000002,-74.88859882950779L229.10000000000002,87.8584689795971L229.10000000000002,65.83091953396799L229.10000000000002,45.12270310521128L230.06666666666666,19.55206060409548L230.06666666666666,88.70550388097763L230.55,-61.5352775752544L231.03333333333333,81.86109790205957L231.51666666666668,81.53362521529199L231.51666666666668,128.00433629751205L231.51666666666668,153.56064395606518L232,3.241198897361775L232.96666666666667,112.8511548936367L232.96666666666667,47.812114745378516L233.93333333333334,160.87264010310173L233.93333333333334,144.79683288931847L234.41666666666666,39.102121978998206L234.41666666666666,56.856042087078116L234.41666666666666,122.71146932244301L234.9,139.16902908682823L234.9,31.262585163116476L234.9,-41.11167436838146L235.38333333333333,196.47076213359833L235.38333333333333,58.25784990191462L235.38333333333333,106.35732614994049L235.38333333333333,86.71489933133127L235.38333333333333,73.95786532759668L235.38333333333333,110.88529014587402L235.86666666666667,99.17518758773804L235.86666666666667,25.015442311763785L236.35,87.6681465804577L236.35,-42.031609922647434L236.35,105.36752307415009L236.35,57.31873968243601L236.83333333333334,110.60376280546188L236.83333333333334,42.864681869745276L237.31666666666666,155.7868436872959L237.31666666666666,45.617710143327734L237.79999999999998,43.19859007000925L237.79999999999998,40.76269546151163L237.79999999999998,-24.087235540151557L238.28333333333333,187.3050875365734L238.28333333333333,32.194072991609595L238.76666666666668,123.6593888103962L239.25,168.9249840527773L239.25,81.44645565748216L239.25,35.45917296409609L239.25,41.28196755051615L239.25,140.33815616369247L239.73333333333332,157.31865414977074L240.21666666666667,104.97173899412155L240.21666666666667,111.28969886898994L240.7,123.1097854077816L240.7,-30.08661112189289L241.18333333333334,56.954157292842886L241.18333333333334,41.57037878036501L241.66666666666669,70.76614075899126L242.14999999999998,67.73812615871431L243.11666666666667,247.32186877727509L243.11666666666667,149.10088585317135L243.11666666666667,-66.73846936225887L243.11666666666667,43.71981391310694L243.11666666666667,139.41328847408295L244.08333333333334,-66.45847177505489L244.08333333333334,79.36905080080034L244.08333333333334,83.6526499092579L244.5666666666667,-100.201768040657L244.5666666666667,249.16754899173975L245.04999999999998,18.672056883573553L245.53333333333333,71.4331395328045L245.53333333333333,-92.14893615245815L245.53333333333333,105.24010518193245L246.5,-71.559539347887L246.5,142.1448606401682L246.5,110.99482575058937L246.5,116.42690026760101L246.98333333333335,86.00150683522226L246.98333333333335,54.936043560504935L246.98333333333335,-57.92128837108608L247.46666666666667,105.13866671919823L247.95,-1.7287582755088413L247.95,43.171133637428305L247.95,97.70554313063622L247.95,-86.14605268836017L248.43333333333334,-5.10674348473545L248.43333333333334,52.38446795940401L248.91666666666666,120.36841490864754L248.91666666666666,146.47159615159035L249.4,-38.751054167747455L249.4,65.71394616365434L249.88333333333335,3.6173071861267285L251.33333333333334,-31.223560631275138L251.33333333333334,118.59363743662834L251.81666666666666,67.51145893335344L252.3,72.71781572699548L252.3,2.9830134809017377L252.78333333333333,-26.331805497407874L252.78333333333333,51.239553183317206L252.78333333333333,62.141972422599814L253.26666666666665,150.1241588741541L253.26666666666665,94.88504746556282L253.75,127.87159064412117L253.75,-53.54447981715198L253.75,77.98372739553453L254.23333333333335,-77.1581195890903L254.23333333333335,138.22763742506504L254.23333333333335,-8.114475667476615L254.23333333333335,109.20274624228477L254.23333333333335,18.15043741464617L254.71666666666667,61.56253883242609L254.71666666666667,15.650583297014256L254.71666666666667,38.89286229014399L254.71666666666667,107.43540653586388L255.2,39.931854844093344L255.2,-8.489265203475913L255.2,117.6160460114479L255.68333333333334,60.41377329826357L255.68333333333334,107.84279564023018L255.68333333333334,75.5699350833893L255.68333333333334,-69.84542450308795L256.1666666666667,-26.138027966022452L256.65,81.0876230299473L256.65,-13.820244133472404L256.65,-18.381018698215446L256.65,32.500524759292624L257.1333333333333,112.21150705218315L257.1333333333333,-6.914938151836356L258.1,34.891740024089835L258.1,195.7852744460106L258.1,64.27476489543916L258.58333333333337,108.90389049053192L258.58333333333337,91.55902111530304L258.58333333333337,97.39342072606087L258.58333333333337,51.71675705909731L258.58333333333337,-78.88684621453281L259.06666666666666,154.86593225598335L259.06666666666666,84.90831354260446L259.06666666666666,-108.45631635189052L260.0333333333333,86.99808830022813L260.51666666666665,109.84447771310806L261.4833333333333,128.81621325016022L261.96666666666664,179.2894576638937L262.45,27.573216050863287L262.45,155.68929554522038L262.93333333333334,-221.5498632788658L263.4166666666667,171.77603521943092L263.90000000000003,95.0368886590004L263.90000000000003,135.67678713798523L263.90000000000003,-36.84730267524715L264.8666666666667,-16.448281019926032L265.35,155.30377136170864L265.35,-25.93797317147251" style="fill: none;" fill="none"></path></g></g></g></g></g></g><g transform="translate(40, 177)" clip-path="url(#clip_1)"><clipPath id="clip_1"><rect width="290" height="23"></rect></clipPath><g><g><line x1="0" y1="0" x2="0" y2="5" style="visibility: inherit;" fill="rgb(0, 0, 0)" stroke="rgb(204, 204, 204)" stroke-width="1px"></line><line x1="24.166666666666664" y1="0" x2="24.166666666666664" y2="5" style="visibility: inherit;" fill="rgb(0, 0, 0)" stroke="rgb(204, 204, 204)" stroke-width="1px"></line><line x1="48.33333333333333" y1="0" x2="48.33333333333333" y2="5" style="visibility: inherit;" fill="rgb(0, 0, 0)" stroke="rgb(204, 204, 204)" stroke-width="1px"></line><line x1="72.5" y1="0" x2="72.5" y2="5" style="visibility: inherit;" fill="rgb(0, 0, 0)" stroke="rgb(204, 204, 204)" stroke-width="1px"></line><line x1="96.66666666666666" y1="0" x2="96.66666666666666" y2="5" style="visibility: inherit;" fill="rgb(0, 0, 0)" stroke="rgb(204, 204, 204)" stroke-width="1px"></line><line x1="120.83333333333334" y1="0" x2="120.83333333333334" y2="5" style="visibility: inherit;" fill="rgb(0, 0, 0)" stroke="rgb(204, 204, 204)" stroke-width="1px"></line><line x1="145" y1="0" x2="145" y2="5" style="visibility: inherit;" fill="rgb(0, 0, 0)" stroke="rgb(204, 204, 204)" stroke-width="1px"></line><line x1="169.16666666666669" y1="0" x2="169.16666666666669" y2="5" style="visibility: inherit;" fill="rgb(0, 0, 0)" stroke="rgb(204, 204, 204)" stroke-width="1px"></line><line x1="193.33333333333331" y1="0" x2="193.33333333333331" y2="5" style="visibility: inherit;" fill="rgb(0, 0, 0)" stroke="rgb(204, 204, 204)" stroke-width="1px"></line><line x1="217.5" y1="0" x2="217.5" y2="5" style="visibility: inherit;" fill="rgb(0, 0, 0)" stroke="rgb(204, 204, 204)" stroke-width="1px"></line><line x1="241.66666666666669" y1="0" x2="241.66666666666669" y2="5" style="visibility: inherit;" fill="rgb(0, 0, 0)" stroke="rgb(204, 204, 204)" stroke-width="1px"></line><line x1="265.8333333333333" y1="0" x2="265.8333333333333" y2="5" style="visibility: inherit;" fill="rgb(0, 0, 0)" stroke="rgb(204, 204, 204)" stroke-width="1px"></line><line x1="290" y1="0" x2="290" y2="5" style="visibility: inherit;" fill="rgb(0, 0, 0)" stroke="rgb(204, 204, 204)" stroke-width="1px"></line></g><g transform="translate(0, 8)"><text x="0" y="0" dx="0em" dy="0.95em" style="text-anchor: middle; visibility: hidden; font-family: Roboto, sans-serif; font-size: 12px; font-weight: 200;" fill="rgb(33, 33, 33)" stroke="none" stroke-width="1px">-50</text><text x="24.166666666666664" y="0" dx="0em" dy="0.95em" style="text-anchor: middle; visibility: inherit; font-family: Roboto, sans-serif; font-size: 12px; font-weight: 200;" fill="rgb(33, 33, 33)" stroke="none" stroke-width="1px">0</text><text x="48.33333333333333" y="0" dx="0em" dy="0.95em" style="text-anchor: middle; visibility: hidden; font-family: Roboto, sans-serif; font-size: 12px; font-weight: 200;" fill="rgb(33, 33, 33)" stroke="none" stroke-width="1px">50</text><text x="72.5" y="0" dx="0em" dy="0.95em" style="text-anchor: middle; visibility: inherit; font-family: Roboto, sans-serif; font-size: 12px; font-weight: 200;" fill="rgb(33, 33, 33)" stroke="none" stroke-width="1px">100</text><text x="96.66666666666666" y="0" dx="0em" dy="0.95em" style="text-anchor: middle; visibility: hidden; font-family: Roboto, sans-serif; font-size: 12px; font-weight: 200;" fill="rgb(33, 33, 33)" stroke="none" stroke-width="1px">150</text><text x="120.83333333333334" y="0" dx="0em" dy="0.95em" style="text-anchor: middle; visibility: inherit; font-family: Roboto, sans-serif; font-size: 12px; font-weight: 200;" fill="rgb(33, 33, 33)" stroke="none" stroke-width="1px">200</text><text x="145" y="0" dx="0em" dy="0.95em" style="text-anchor: middle; visibility: hidden; font-family: Roboto, sans-serif; font-size: 12px; font-weight: 200;" fill="rgb(33, 33, 33)" stroke="none" stroke-width="1px">250</text><text x="169.16666666666669" y="0" dx="0em" dy="0.95em" style="text-anchor: middle; visibility: inherit; font-family: Roboto, sans-serif; font-size: 12px; font-weight: 200;" fill="rgb(33, 33, 33)" stroke="none" stroke-width="1px">300</text><text x="193.33333333333331" y="0" dx="0em" dy="0.95em" style="text-anchor: middle; visibility: hidden; font-family: Roboto, sans-serif; font-size: 12px; font-weight: 200;" fill="rgb(33, 33, 33)" stroke="none" stroke-width="1px">350</text><text x="217.5" y="0" dx="0em" dy="0.95em" style="text-anchor: middle; visibility: inherit; font-family: Roboto, sans-serif; font-size: 12px; font-weight: 200;" fill="rgb(33, 33, 33)" stroke="none" stroke-width="1px">400</text><text x="241.66666666666669" y="0" dx="0em" dy="0.95em" style="text-anchor: middle; visibility: hidden; font-family: Roboto, sans-serif; font-size: 12px; font-weight: 200;" fill="rgb(33, 33, 33)" stroke="none" stroke-width="1px">450</text><text x="265.8333333333333" y="0" dx="0em" dy="0.95em" style="text-anchor: middle; visibility: inherit; font-family: Roboto, sans-serif; font-size: 12px; font-weight: 200;" fill="rgb(33, 33, 33)" stroke="none" stroke-width="1px">500</text><text x="290" y="0" dx="0em" dy="0.95em" style="text-anchor: middle; visibility: hidden; font-family: Roboto, sans-serif; font-size: 12px; font-weight: 200;" fill="rgb(33, 33, 33)" stroke="none" stroke-width="1px">550</text></g><line x1="0" y1="0" x2="290" y2="0" fill="rgb(0, 0, 0)" stroke="rgb(204, 204, 204)" stroke-width="1px"></line></g></g></g></g></svg>